M48
; DRILL file {KiCad 9.0.0} date 2026-01-24T21:55:20+0100
; FORMAT={-:-/ absolute / metric / decimal}
; #@! TF.CreationDate,2026-01-24T21:55:20+01:00
; #@! TF.GenerationSoftware,Kicad,Pcbnew,9.0.0
; #@! TF.FileFunction,Plated,1,2,PTH
FMAT,2
METRIC
; #@! TA.AperFunction,Plated,PTH,ViaDrill
T1C0.300
; #@! TA.AperFunction,Plated,PTH,ViaDrill
T2C0.350
; #@! TA.AperFunction,Plated,PTH,ViaDrill
T3C0.400
; #@! TA.AperFunction,Plated,PTH,ComponentDrill
T4C0.600
; #@! TA.AperFunction,Plated,PTH,ComponentDrill
T5C0.700
; #@! TA.AperFunction,Plated,PTH,ComponentDrill
T6C0.710
; #@! TA.AperFunction,Plated,PTH,ComponentDrill
T7C0.750
; #@! TA.AperFunction,Plated,PTH,ComponentDrill
T8C0.762
; #@! TA.AperFunction,Plated,PTH,ComponentDrill
T9C0.800
; #@! TA.AperFunction,Plated,PTH,ComponentDrill
T10C0.900
; #@! TA.AperFunction,Plated,PTH,ComponentDrill
T11C1.000
; #@! TA.AperFunction,Plated,PTH,ComponentDrill
T12C1.020
; #@! TA.AperFunction,Plated,PTH,ComponentDrill
T13C1.100
; #@! TA.AperFunction,Plated,PTH,ComponentDrill
T14C1.300
; #@! TA.AperFunction,Plated,PTH,ComponentDrill
T15C1.500
; #@! TA.AperFunction,Plated,PTH,ComponentDrill
T16C2.000
; #@! TA.AperFunction,Plated,PTH,ComponentDrill
T17C3.000
; #@! TA.AperFunction,Plated,PTH,ComponentDrill
T18C3.200
%
G90
G05
T1
X111.608Y-114.351
X130.658Y-98.146
X134.239Y-98.171
X147.93Y-116.586
X149.352Y-105.41
X157.709Y-109.982
T2
X105.156Y-105.537
X110.49Y-70.739
X136.347Y-75.387
X137.566Y-75.387
X141.732Y-100.711
X143.967Y-69.393
T3
X121.514Y-59.03
X124.841Y-88.265
X138.278Y-112.801
X149.179Y-107.64
X161.747Y-92.913
T4
X114.343Y-73.152
X115.189Y-106.201
X115.189Y-108.201
X116.343Y-73.152
X122.936Y-113.654
X122.936Y-115.654
X123.19Y-107.736
X123.19Y-109.736
X127.838Y-113.628
X127.838Y-115.628
X138.811Y-106.871
X138.811Y-108.871
X143.383Y-106.839
X143.383Y-108.839
X186.171Y-60.889
X191.171Y-58.389
T5
X110.515Y-58.45
X110.515Y-60.35
X121.439Y-64.791
X121.87Y-71.649
X123.979Y-64.791
X124.41Y-71.649
X127.356Y-64.77
X128.005Y-71.632
X129.896Y-64.77
X130.544Y-71.632
X135.763Y-70.435
X135.763Y-72.975
X136.271Y-130.429
X138.049Y-70.435
X138.049Y-72.975
X138.811Y-130.429
T6
X152.959Y-109.835
X154.559Y-114.935
T7
X122.047Y-68.58
X123.317Y-68.58
X124.587Y-68.58
X128.308Y-68.562
X129.578Y-68.562
X130.849Y-68.562
X136.906Y-127.0
X138.176Y-127.0
X139.446Y-127.0
T8
X117.428Y-90.27
X119.968Y-90.27
X122.508Y-90.27
X125.048Y-90.27
X154.258Y-90.352
X156.798Y-90.352
X159.338Y-90.352
X161.878Y-90.352
T9
X105.41Y-107.736
X105.41Y-115.356
X108.458Y-107.736
X108.458Y-115.356
X111.506Y-109.026
X111.506Y-111.526
X111.506Y-133.477
X113.832Y-69.088
X114.046Y-133.477
X116.332Y-69.088
X116.586Y-133.477
X118.745Y-107.355
X118.745Y-109.855
X118.872Y-113.304
X118.872Y-115.804
X119.126Y-133.477
X121.666Y-133.477
X124.206Y-133.477
X124.353Y-74.549
X126.746Y-133.477
X126.853Y-74.549
X129.159Y-108.097
X129.159Y-110.597
X129.286Y-133.477
X131.826Y-133.477
X134.874Y-106.517
X134.874Y-109.017
X136.271Y-133.477
X143.891Y-133.477
X147.066Y-106.426
X147.066Y-108.926
X174.894Y-125.016
X174.894Y-127.516
X187.23Y-71.748
X189.23Y-79.248
T10
X110.871Y-127.254
X110.871Y-129.794
X115.343Y-127.254
X115.343Y-129.794
X119.788Y-127.254
X119.788Y-129.794
X124.233Y-127.254
X124.233Y-129.794
X128.678Y-127.254
X128.678Y-129.794
T11
X109.728Y-120.269
X112.268Y-120.269
X114.808Y-120.269
X115.412Y-58.928
X117.348Y-120.269
X117.912Y-58.928
X119.888Y-120.269
X122.428Y-120.269
X124.968Y-120.269
X125.318Y-58.928
X127.508Y-120.269
X127.818Y-58.928
X130.048Y-120.269
X132.588Y-120.269
X135.168Y-58.928
X137.668Y-58.928
X144.82Y-58.928
X147.32Y-58.928
X160.207Y-113.611
X166.207Y-80.011
X172.207Y-80.011
X177.546Y-124.286
X177.546Y-129.286
X178.207Y-113.611
X192.046Y-124.286
X192.046Y-126.786
X192.046Y-129.286
T12
X113.792Y-77.724
X113.792Y-103.124
X116.332Y-103.124
X116.332Y-77.724
X118.872Y-77.724
X118.872Y-103.124
X121.412Y-103.124
X121.412Y-77.724
X123.952Y-77.724
X123.952Y-103.124
X126.492Y-103.124
X126.492Y-77.724
X129.032Y-77.724
X129.032Y-103.124
X131.572Y-103.124
X131.572Y-77.724
X134.112Y-77.724
X134.112Y-103.124
X136.652Y-103.124
X136.652Y-77.724
X139.192Y-77.724
X139.192Y-103.124
X141.732Y-77.724
X141.732Y-103.124
X144.272Y-77.724
X144.272Y-103.124
X146.812Y-77.724
X146.812Y-103.124
X149.352Y-77.724
X149.352Y-103.124
T13
X104.902Y-65.913
X104.902Y-72.413
X109.402Y-65.913
X109.402Y-72.413
X197.358Y-68.7
X197.358Y-83.7
T14
X141.532Y-72.531
X145.282Y-72.531
X158.09Y-62.027
X161.532Y-72.531
X163.17Y-62.027
X166.532Y-72.531
X170.282Y-62.027
X175.362Y-62.027
T15
X195.783Y-92.71
X195.783Y-114.71
T16
X144.488Y-127.0
X171.988Y-127.0
T17
X105.898Y-91.46
X105.898Y-120.06
X136.398Y-91.46
X136.398Y-120.06
X142.728Y-91.542
X142.728Y-120.142
X173.228Y-91.542
X173.228Y-120.142
T18
X105.41Y-59.055
X105.461Y-132.436
X197.612Y-59.055
X197.663Y-132.588
T15
X185.196Y-121.186G85X183.896Y-121.186
G05
X185.196Y-132.386G85X183.896Y-132.386
G05
M30
