%TF.GenerationSoftware,KiCad,Pcbnew,9.0.0*%
%TF.CreationDate,2026-01-24T21:54:58+01:00*%
%TF.ProjectId,MashMachine V2.0,4d617368-4d61-4636-9869-6e652056322e,rev?*%
%TF.SameCoordinates,Original*%
%TF.FileFunction,Soldermask,Top*%
%TF.FilePolarity,Negative*%
%FSLAX46Y46*%
G04 Gerber Fmt 4.6, Leading zero omitted, Abs format (unit mm)*
G04 Created by KiCad (PCBNEW 9.0.0) date 2026-01-24 21:54:58*
%MOMM*%
%LPD*%
G01*
G04 APERTURE LIST*
G04 Aperture macros list*
%AMRoundRect*
0 Rectangle with rounded corners*
0 $1 Rounding radius*
0 $2 $3 $4 $5 $6 $7 $8 $9 X,Y pos of 4 corners*
0 Add a 4 corners polygon primitive as box body*
4,1,4,$2,$3,$4,$5,$6,$7,$8,$9,$2,$3,0*
0 Add four circle primitives for the rounded corners*
1,1,$1+$1,$2,$3*
1,1,$1+$1,$4,$5*
1,1,$1+$1,$6,$7*
1,1,$1+$1,$8,$9*
0 Add four rect primitives between the rounded corners*
20,1,$1+$1,$2,$3,$4,$5,0*
20,1,$1+$1,$4,$5,$6,$7,0*
20,1,$1+$1,$6,$7,$8,$9,0*
20,1,$1+$1,$8,$9,$2,$3,0*%
G04 Aperture macros list end*
%ADD10R,1.524000X1.524000*%
%ADD11C,1.524000*%
%ADD12C,5.000000*%
%ADD13C,1.200000*%
%ADD14R,1.200000X1.200000*%
%ADD15O,1.400000X1.400000*%
%ADD16C,1.400000*%
%ADD17C,2.000000*%
%ADD18RoundRect,0.250000X-0.600000X-0.750000X0.600000X-0.750000X0.600000X0.750000X-0.600000X0.750000X0*%
%ADD19O,1.700000X2.000000*%
%ADD20R,1.800000X1.800000*%
%ADD21C,1.800000*%
%ADD22C,5.600000*%
%ADD23R,1.050000X1.500000*%
%ADD24O,1.050000X1.500000*%
%ADD25R,2.000000X2.000000*%
%ADD26R,3.200000X2.000000*%
%ADD27R,1.600000X1.600000*%
%ADD28O,1.600000X1.600000*%
%ADD29RoundRect,0.210000X0.840000X0.840000X-0.840000X0.840000X-0.840000X-0.840000X0.840000X-0.840000X0*%
%ADD30C,2.100000*%
%ADD31C,1.600000*%
%ADD32C,3.000000*%
%ADD33C,2.200000*%
%ADD34R,2.000000X1.700000*%
%ADD35O,2.000000X1.700000*%
%ADD36O,2.500000X4.000000*%
%ADD37C,1.270000*%
%ADD38RoundRect,0.102000X-1.000000X1.000000X-1.000000X-1.000000X1.000000X-1.000000X1.000000X1.000000X0*%
%ADD39C,2.204000*%
%ADD40RoundRect,0.249600X-0.950400X-0.950400X0.950400X-0.950400X0.950400X0.950400X-0.950400X0.950400X0*%
%ADD41C,2.400000*%
%ADD42R,1.700000X1.700000*%
%ADD43O,1.700000X1.700000*%
G04 APERTURE END LIST*
D10*
%TO.C,Brd1*%
X117428000Y-90270400D03*
D11*
X119968000Y-90270400D03*
X122508000Y-90270400D03*
X125048000Y-90270400D03*
D12*
X105898000Y-91460400D03*
X105898000Y-120060400D03*
X136398000Y-91460400D03*
X136398000Y-120060400D03*
%TD*%
D13*
%TO.C,C18*%
X127838200Y-113628200D03*
D14*
X127838200Y-115628200D03*
%TD*%
D15*
%TO.C,R11*%
X127355600Y-64770000D03*
D16*
X129895600Y-64770000D03*
%TD*%
%TO.C,R7*%
X110515400Y-58450400D03*
D15*
X110515400Y-60350400D03*
%TD*%
D17*
%TO.C,SW2*%
X104902000Y-72413000D03*
X104902000Y-65913000D03*
X109402000Y-72413000D03*
X109402000Y-65913000D03*
%TD*%
D13*
%TO.C,J1*%
X123718000Y-60928000D03*
D18*
X125318000Y-58928000D03*
D19*
X127818000Y-58928000D03*
%TD*%
D20*
%TO.C,DC1*%
X110871000Y-129793999D03*
D21*
X110871000Y-127253999D03*
%TD*%
D13*
%TO.C,J3*%
X133568000Y-60928000D03*
D18*
X135168000Y-58928000D03*
D19*
X137668000Y-58928000D03*
%TD*%
D22*
%TO.C,H1*%
X197612000Y-59055000D03*
%TD*%
%TO.C,H3*%
X105460800Y-132435600D03*
%TD*%
D10*
%TO.C,Brd2*%
X154258000Y-90352000D03*
D11*
X156798000Y-90352000D03*
X159338000Y-90352000D03*
X161878000Y-90352000D03*
D12*
X142728000Y-91542000D03*
X142728000Y-120142000D03*
X173228000Y-91542000D03*
X173228000Y-120142000D03*
%TD*%
D20*
%TO.C,LED1*%
X119788000Y-129793998D03*
D21*
X119788000Y-127253998D03*
%TD*%
D13*
%TO.C,J4*%
X143220000Y-60928000D03*
D18*
X144820000Y-58928000D03*
D19*
X147320000Y-58928000D03*
%TD*%
D20*
%TO.C,LED3*%
X128678000Y-129793998D03*
D21*
X128678000Y-127253998D03*
%TD*%
D23*
%TO.C,Air_temp1*%
X136906000Y-127000000D03*
D24*
X138176000Y-127000000D03*
X139446000Y-127000000D03*
%TD*%
D25*
%TO.C,SW1*%
X192046000Y-129286000D03*
D17*
X192046000Y-124286000D03*
X192046000Y-126786000D03*
D26*
X184545999Y-132386000D03*
X184545999Y-121186000D03*
D17*
X177546000Y-124286000D03*
X177546000Y-129286000D03*
%TD*%
D22*
%TO.C,H2*%
X105410000Y-59055000D03*
%TD*%
D27*
%TO.C,RN1*%
X131826000Y-133477000D03*
D28*
X129286000Y-133477000D03*
X126746000Y-133477000D03*
X124206000Y-133477000D03*
X121666000Y-133477000D03*
X119126000Y-133477000D03*
X116586000Y-133477000D03*
X114046000Y-133477000D03*
X111506000Y-133477000D03*
%TD*%
D29*
%TO.C,J6*%
X163169600Y-62026800D03*
D30*
X158089600Y-62026800D03*
%TD*%
D29*
%TO.C,J2*%
X175361600Y-62026800D03*
D30*
X170281600Y-62026800D03*
%TD*%
D13*
%TO.C,J5*%
X113812000Y-60928000D03*
D18*
X115412000Y-58928000D03*
D19*
X117912000Y-58928000D03*
%TD*%
D20*
%TO.C,OnOff1*%
X115343001Y-129794000D03*
D21*
X115343001Y-127254000D03*
%TD*%
D20*
%TO.C,LED2*%
X124233000Y-129793998D03*
D21*
X124233000Y-127253998D03*
%TD*%
D22*
%TO.C,H4*%
X197662800Y-132588000D03*
%TD*%
D31*
%TO.C,C8*%
X174893999Y-127516001D03*
X174893999Y-125016001D03*
%TD*%
D16*
%TO.C,R10*%
X130544500Y-71631500D03*
D15*
X128004500Y-71631500D03*
%TD*%
D31*
%TO.C,R3*%
X143891000Y-133477000D03*
D28*
X136271000Y-133477000D03*
%TD*%
D31*
%TO.C,C6*%
X111506000Y-109026000D03*
X111506000Y-111526000D03*
%TD*%
D16*
%TO.C,R5*%
X135763000Y-72975000D03*
D15*
X135763000Y-70435000D03*
%TD*%
D32*
%TO.C,U3*%
X144488000Y-127000000D03*
X171988000Y-127000000D03*
%TD*%
D14*
%TO.C,C16*%
X143383000Y-106839000D03*
D13*
X143383000Y-108839000D03*
%TD*%
D21*
%TO.C,RV1*%
X189230000Y-79248000D03*
X187230000Y-71747999D03*
%TD*%
D33*
%TO.C,C14*%
X197358000Y-83700000D03*
X197358000Y-68700000D03*
%TD*%
D31*
%TO.C,C13*%
X116332000Y-69088000D03*
X113832000Y-69088000D03*
%TD*%
D16*
%TO.C,R6*%
X138049000Y-72975000D03*
D15*
X138049000Y-70435000D03*
%TD*%
D16*
%TO.C,R8*%
X124410000Y-71649000D03*
D15*
X121870000Y-71649000D03*
%TD*%
D23*
%TO.C,Q2*%
X130848500Y-68562500D03*
D24*
X129578500Y-68562500D03*
X128308500Y-68562500D03*
%TD*%
D34*
%TO.C,PS1*%
X166207000Y-80011500D03*
D35*
X172207000Y-80011500D03*
X160207001Y-113611500D03*
X178207000Y-113611500D03*
%TD*%
D14*
%TO.C,C7*%
X123190000Y-109736000D03*
D13*
X123190000Y-107736000D03*
%TD*%
D16*
%TO.C,R9*%
X123979000Y-64791000D03*
D15*
X121439000Y-64791000D03*
%TD*%
D31*
%TO.C,R2*%
X108458000Y-115356000D03*
D28*
X108458000Y-107736000D03*
%TD*%
D31*
%TO.C,C17*%
X134874000Y-109016800D03*
X134874000Y-106516800D03*
%TD*%
%TO.C,TH1*%
X186171199Y-60889200D03*
X191171199Y-58389200D03*
%TD*%
%TO.C,R1*%
X105410000Y-107736000D03*
D28*
X105410000Y-115356000D03*
%TD*%
D16*
%TO.C,R4*%
X136271000Y-130429000D03*
D15*
X138811000Y-130429000D03*
%TD*%
D31*
%TO.C,C11*%
X147066000Y-108926000D03*
X147066000Y-106426000D03*
%TD*%
D14*
%TO.C,C1*%
X122936000Y-115653601D03*
D13*
X122936000Y-113653601D03*
%TD*%
D36*
%TO.C,F1*%
X195783200Y-92710000D03*
X195783200Y-114710000D03*
%TD*%
D14*
%TO.C,C15*%
X138811001Y-106871001D03*
D13*
X138811001Y-108871001D03*
%TD*%
D37*
%TO.C,F2*%
X154559000Y-114935000D03*
X152959000Y-109834999D03*
%TD*%
D14*
%TO.C,C12*%
X114343400Y-73152000D03*
D13*
X116343400Y-73152000D03*
%TD*%
D31*
%TO.C,C4*%
X126853000Y-74549000D03*
X124353000Y-74549000D03*
%TD*%
%TO.C,C9*%
X118745000Y-109855000D03*
X118745000Y-107355000D03*
%TD*%
D38*
%TO.C,U4*%
X113792000Y-77724000D03*
D39*
X116332000Y-77723999D03*
X118872000Y-77724000D03*
X121412000Y-77723999D03*
X123952000Y-77724000D03*
X126492000Y-77723999D03*
X129032000Y-77724000D03*
X131572001Y-77724000D03*
X134112000Y-77724000D03*
X136652001Y-77724000D03*
X139192000Y-77724000D03*
X141732000Y-77723999D03*
X144272000Y-77724000D03*
X146812000Y-77724000D03*
X149352000Y-77724000D03*
X149352000Y-103124000D03*
X146812000Y-103124000D03*
X144272000Y-103124000D03*
X141732000Y-103124001D03*
X139192000Y-103124000D03*
X136652000Y-103124001D03*
X134112000Y-103124000D03*
X131572000Y-103124001D03*
X129032000Y-103124000D03*
X126491999Y-103124000D03*
X123952000Y-103124000D03*
X121411999Y-103124000D03*
X118872000Y-103124000D03*
X116331999Y-103124000D03*
X113792000Y-103124000D03*
%TD*%
D23*
%TO.C,Q1*%
X124587000Y-68580000D03*
D24*
X123317000Y-68580000D03*
X122047000Y-68580000D03*
%TD*%
D14*
%TO.C,C10*%
X115189000Y-108200600D03*
D13*
X115189000Y-106200600D03*
%TD*%
D31*
%TO.C,C2*%
X118872000Y-115804000D03*
X118872000Y-113304000D03*
%TD*%
D30*
%TO.C,U5*%
X161532001Y-72531499D03*
X166532001Y-72531499D03*
D40*
X145282001Y-72531499D03*
D41*
X141532001Y-72531499D03*
%TD*%
D31*
%TO.C,C3*%
X129159000Y-108097000D03*
X129159000Y-110597000D03*
%TD*%
D42*
%TO.C,U2*%
X132588000Y-120269000D03*
D43*
X130048000Y-120269000D03*
X127508000Y-120269000D03*
X124968000Y-120269000D03*
X122428000Y-120269000D03*
X119888000Y-120269000D03*
X117348000Y-120269000D03*
X114808000Y-120269000D03*
X112268000Y-120269000D03*
X109728000Y-120269000D03*
%TD*%
M02*
