%TF.GenerationSoftware,KiCad,Pcbnew,9.0.0*%
%TF.CreationDate,2026-01-24T21:54:58+01:00*%
%TF.ProjectId,MashMachine V2.0,4d617368-4d61-4636-9869-6e652056322e,rev?*%
%TF.SameCoordinates,Original*%
%TF.FileFunction,Legend,Bot*%
%TF.FilePolarity,Positive*%
%FSLAX46Y46*%
G04 Gerber Fmt 4.6, Leading zero omitted, Abs format (unit mm)*
G04 Created by KiCad (PCBNEW 9.0.0) date 2026-01-24 21:54:58*
%MOMM*%
%LPD*%
G01*
G04 APERTURE LIST*
%ADD10C,0.100000*%
%ADD11C,0.120000*%
%ADD12C,0.150000*%
%ADD13C,0.127000*%
%ADD14C,0.200000*%
G04 APERTURE END LIST*
D10*
X131207628Y-114199090D02*
X131231437Y-114222900D01*
X131231437Y-114222900D02*
X131302866Y-114246709D01*
X131302866Y-114246709D02*
X131350485Y-114246709D01*
X131350485Y-114246709D02*
X131421913Y-114222900D01*
X131421913Y-114222900D02*
X131469532Y-114175280D01*
X131469532Y-114175280D02*
X131493342Y-114127661D01*
X131493342Y-114127661D02*
X131517151Y-114032423D01*
X131517151Y-114032423D02*
X131517151Y-113960995D01*
X131517151Y-113960995D02*
X131493342Y-113865757D01*
X131493342Y-113865757D02*
X131469532Y-113818138D01*
X131469532Y-113818138D02*
X131421913Y-113770519D01*
X131421913Y-113770519D02*
X131350485Y-113746709D01*
X131350485Y-113746709D02*
X131302866Y-113746709D01*
X131302866Y-113746709D02*
X131231437Y-113770519D01*
X131231437Y-113770519D02*
X131207628Y-113794328D01*
X130731437Y-114246709D02*
X131017151Y-114246709D01*
X130874294Y-114246709D02*
X130874294Y-113746709D01*
X130874294Y-113746709D02*
X130921913Y-113818138D01*
X130921913Y-113818138D02*
X130969532Y-113865757D01*
X130969532Y-113865757D02*
X131017151Y-113889566D01*
X130445723Y-113960995D02*
X130493342Y-113937185D01*
X130493342Y-113937185D02*
X130517152Y-113913376D01*
X130517152Y-113913376D02*
X130540961Y-113865757D01*
X130540961Y-113865757D02*
X130540961Y-113841947D01*
X130540961Y-113841947D02*
X130517152Y-113794328D01*
X130517152Y-113794328D02*
X130493342Y-113770519D01*
X130493342Y-113770519D02*
X130445723Y-113746709D01*
X130445723Y-113746709D02*
X130350485Y-113746709D01*
X130350485Y-113746709D02*
X130302866Y-113770519D01*
X130302866Y-113770519D02*
X130279057Y-113794328D01*
X130279057Y-113794328D02*
X130255247Y-113841947D01*
X130255247Y-113841947D02*
X130255247Y-113865757D01*
X130255247Y-113865757D02*
X130279057Y-113913376D01*
X130279057Y-113913376D02*
X130302866Y-113937185D01*
X130302866Y-113937185D02*
X130350485Y-113960995D01*
X130350485Y-113960995D02*
X130445723Y-113960995D01*
X130445723Y-113960995D02*
X130493342Y-113984804D01*
X130493342Y-113984804D02*
X130517152Y-114008614D01*
X130517152Y-114008614D02*
X130540961Y-114056233D01*
X130540961Y-114056233D02*
X130540961Y-114151471D01*
X130540961Y-114151471D02*
X130517152Y-114199090D01*
X130517152Y-114199090D02*
X130493342Y-114222900D01*
X130493342Y-114222900D02*
X130445723Y-114246709D01*
X130445723Y-114246709D02*
X130350485Y-114246709D01*
X130350485Y-114246709D02*
X130302866Y-114222900D01*
X130302866Y-114222900D02*
X130279057Y-114199090D01*
X130279057Y-114199090D02*
X130255247Y-114151471D01*
X130255247Y-114151471D02*
X130255247Y-114056233D01*
X130255247Y-114056233D02*
X130279057Y-114008614D01*
X130279057Y-114008614D02*
X130302866Y-113984804D01*
X130302866Y-113984804D02*
X130350485Y-113960995D01*
X130563132Y-113535509D02*
X130848846Y-113535509D01*
X130705989Y-113535509D02*
X130705989Y-113035509D01*
X130705989Y-113035509D02*
X130753608Y-113106938D01*
X130753608Y-113106938D02*
X130801227Y-113154557D01*
X130801227Y-113154557D02*
X130848846Y-113178366D01*
X130134561Y-113202176D02*
X130134561Y-113535509D01*
X130348847Y-113202176D02*
X130348847Y-113464080D01*
X130348847Y-113464080D02*
X130325037Y-113511700D01*
X130325037Y-113511700D02*
X130277418Y-113535509D01*
X130277418Y-113535509D02*
X130205990Y-113535509D01*
X130205990Y-113535509D02*
X130158371Y-113511700D01*
X130158371Y-113511700D02*
X130134561Y-113487890D01*
X129011314Y-63122371D02*
X129211314Y-62836657D01*
X129354171Y-63122371D02*
X129354171Y-62522371D01*
X129354171Y-62522371D02*
X129125600Y-62522371D01*
X129125600Y-62522371D02*
X129068457Y-62550942D01*
X129068457Y-62550942D02*
X129039886Y-62579514D01*
X129039886Y-62579514D02*
X129011314Y-62636657D01*
X129011314Y-62636657D02*
X129011314Y-62722371D01*
X129011314Y-62722371D02*
X129039886Y-62779514D01*
X129039886Y-62779514D02*
X129068457Y-62808085D01*
X129068457Y-62808085D02*
X129125600Y-62836657D01*
X129125600Y-62836657D02*
X129354171Y-62836657D01*
X128439886Y-63122371D02*
X128782743Y-63122371D01*
X128611314Y-63122371D02*
X128611314Y-62522371D01*
X128611314Y-62522371D02*
X128668457Y-62608085D01*
X128668457Y-62608085D02*
X128725600Y-62665228D01*
X128725600Y-62665228D02*
X128782743Y-62693800D01*
X127868457Y-63122371D02*
X128211314Y-63122371D01*
X128039885Y-63122371D02*
X128039885Y-62522371D01*
X128039885Y-62522371D02*
X128097028Y-62608085D01*
X128097028Y-62608085D02*
X128154171Y-62665228D01*
X128154171Y-62665228D02*
X128211314Y-62693800D01*
X132296243Y-65013471D02*
X132639100Y-65013471D01*
X132467671Y-65013471D02*
X132467671Y-64413471D01*
X132467671Y-64413471D02*
X132524814Y-64499185D01*
X132524814Y-64499185D02*
X132581957Y-64556328D01*
X132581957Y-64556328D02*
X132639100Y-64584900D01*
X131924814Y-64413471D02*
X131867671Y-64413471D01*
X131867671Y-64413471D02*
X131810528Y-64442042D01*
X131810528Y-64442042D02*
X131781957Y-64470614D01*
X131781957Y-64470614D02*
X131753385Y-64527757D01*
X131753385Y-64527757D02*
X131724814Y-64642042D01*
X131724814Y-64642042D02*
X131724814Y-64784900D01*
X131724814Y-64784900D02*
X131753385Y-64899185D01*
X131753385Y-64899185D02*
X131781957Y-64956328D01*
X131781957Y-64956328D02*
X131810528Y-64984900D01*
X131810528Y-64984900D02*
X131867671Y-65013471D01*
X131867671Y-65013471D02*
X131924814Y-65013471D01*
X131924814Y-65013471D02*
X131981957Y-64984900D01*
X131981957Y-64984900D02*
X132010528Y-64956328D01*
X132010528Y-64956328D02*
X132039099Y-64899185D01*
X132039099Y-64899185D02*
X132067671Y-64784900D01*
X132067671Y-64784900D02*
X132067671Y-64642042D01*
X132067671Y-64642042D02*
X132039099Y-64527757D01*
X132039099Y-64527757D02*
X132010528Y-64470614D01*
X132010528Y-64470614D02*
X131981957Y-64442042D01*
X131981957Y-64442042D02*
X131924814Y-64413471D01*
X131467670Y-65013471D02*
X131467670Y-64413471D01*
X131410528Y-64784900D02*
X131239099Y-65013471D01*
X131239099Y-64613471D02*
X131467670Y-64842042D01*
X174851999Y-129755228D02*
X174880571Y-129783800D01*
X174880571Y-129783800D02*
X174966285Y-129812371D01*
X174966285Y-129812371D02*
X175023428Y-129812371D01*
X175023428Y-129812371D02*
X175109142Y-129783800D01*
X175109142Y-129783800D02*
X175166285Y-129726657D01*
X175166285Y-129726657D02*
X175194856Y-129669514D01*
X175194856Y-129669514D02*
X175223428Y-129555228D01*
X175223428Y-129555228D02*
X175223428Y-129469514D01*
X175223428Y-129469514D02*
X175194856Y-129355228D01*
X175194856Y-129355228D02*
X175166285Y-129298085D01*
X175166285Y-129298085D02*
X175109142Y-129240942D01*
X175109142Y-129240942D02*
X175023428Y-129212371D01*
X175023428Y-129212371D02*
X174966285Y-129212371D01*
X174966285Y-129212371D02*
X174880571Y-129240942D01*
X174880571Y-129240942D02*
X174851999Y-129269514D01*
X174509142Y-129469514D02*
X174566285Y-129440942D01*
X174566285Y-129440942D02*
X174594856Y-129412371D01*
X174594856Y-129412371D02*
X174623428Y-129355228D01*
X174623428Y-129355228D02*
X174623428Y-129326657D01*
X174623428Y-129326657D02*
X174594856Y-129269514D01*
X174594856Y-129269514D02*
X174566285Y-129240942D01*
X174566285Y-129240942D02*
X174509142Y-129212371D01*
X174509142Y-129212371D02*
X174394856Y-129212371D01*
X174394856Y-129212371D02*
X174337714Y-129240942D01*
X174337714Y-129240942D02*
X174309142Y-129269514D01*
X174309142Y-129269514D02*
X174280571Y-129326657D01*
X174280571Y-129326657D02*
X174280571Y-129355228D01*
X174280571Y-129355228D02*
X174309142Y-129412371D01*
X174309142Y-129412371D02*
X174337714Y-129440942D01*
X174337714Y-129440942D02*
X174394856Y-129469514D01*
X174394856Y-129469514D02*
X174509142Y-129469514D01*
X174509142Y-129469514D02*
X174566285Y-129498085D01*
X174566285Y-129498085D02*
X174594856Y-129526657D01*
X174594856Y-129526657D02*
X174623428Y-129583800D01*
X174623428Y-129583800D02*
X174623428Y-129698085D01*
X174623428Y-129698085D02*
X174594856Y-129755228D01*
X174594856Y-129755228D02*
X174566285Y-129783800D01*
X174566285Y-129783800D02*
X174509142Y-129812371D01*
X174509142Y-129812371D02*
X174394856Y-129812371D01*
X174394856Y-129812371D02*
X174337714Y-129783800D01*
X174337714Y-129783800D02*
X174309142Y-129755228D01*
X174309142Y-129755228D02*
X174280571Y-129698085D01*
X174280571Y-129698085D02*
X174280571Y-129583800D01*
X174280571Y-129583800D02*
X174309142Y-129526657D01*
X174309142Y-129526657D02*
X174337714Y-129498085D01*
X174337714Y-129498085D02*
X174394856Y-129469514D01*
X175804429Y-123462371D02*
X176147286Y-123462371D01*
X175975857Y-123462371D02*
X175975857Y-122862371D01*
X175975857Y-122862371D02*
X176033000Y-122948085D01*
X176033000Y-122948085D02*
X176090143Y-123005228D01*
X176090143Y-123005228D02*
X176147286Y-123033800D01*
X175433000Y-122862371D02*
X175375857Y-122862371D01*
X175375857Y-122862371D02*
X175318714Y-122890942D01*
X175318714Y-122890942D02*
X175290143Y-122919514D01*
X175290143Y-122919514D02*
X175261571Y-122976657D01*
X175261571Y-122976657D02*
X175233000Y-123090942D01*
X175233000Y-123090942D02*
X175233000Y-123233800D01*
X175233000Y-123233800D02*
X175261571Y-123348085D01*
X175261571Y-123348085D02*
X175290143Y-123405228D01*
X175290143Y-123405228D02*
X175318714Y-123433800D01*
X175318714Y-123433800D02*
X175375857Y-123462371D01*
X175375857Y-123462371D02*
X175433000Y-123462371D01*
X175433000Y-123462371D02*
X175490143Y-123433800D01*
X175490143Y-123433800D02*
X175518714Y-123405228D01*
X175518714Y-123405228D02*
X175547285Y-123348085D01*
X175547285Y-123348085D02*
X175575857Y-123233800D01*
X175575857Y-123233800D02*
X175575857Y-123090942D01*
X175575857Y-123090942D02*
X175547285Y-122976657D01*
X175547285Y-122976657D02*
X175518714Y-122919514D01*
X175518714Y-122919514D02*
X175490143Y-122890942D01*
X175490143Y-122890942D02*
X175433000Y-122862371D01*
X174861571Y-122862371D02*
X174804428Y-122862371D01*
X174804428Y-122862371D02*
X174747285Y-122890942D01*
X174747285Y-122890942D02*
X174718714Y-122919514D01*
X174718714Y-122919514D02*
X174690142Y-122976657D01*
X174690142Y-122976657D02*
X174661571Y-123090942D01*
X174661571Y-123090942D02*
X174661571Y-123233800D01*
X174661571Y-123233800D02*
X174690142Y-123348085D01*
X174690142Y-123348085D02*
X174718714Y-123405228D01*
X174718714Y-123405228D02*
X174747285Y-123433800D01*
X174747285Y-123433800D02*
X174804428Y-123462371D01*
X174804428Y-123462371D02*
X174861571Y-123462371D01*
X174861571Y-123462371D02*
X174918714Y-123433800D01*
X174918714Y-123433800D02*
X174947285Y-123405228D01*
X174947285Y-123405228D02*
X174975856Y-123348085D01*
X174975856Y-123348085D02*
X175004428Y-123233800D01*
X175004428Y-123233800D02*
X175004428Y-123090942D01*
X175004428Y-123090942D02*
X174975856Y-122976657D01*
X174975856Y-122976657D02*
X174947285Y-122919514D01*
X174947285Y-122919514D02*
X174918714Y-122890942D01*
X174918714Y-122890942D02*
X174861571Y-122862371D01*
X174404427Y-123062371D02*
X174404427Y-123462371D01*
X174404427Y-123119514D02*
X174375856Y-123090942D01*
X174375856Y-123090942D02*
X174318713Y-123062371D01*
X174318713Y-123062371D02*
X174232999Y-123062371D01*
X174232999Y-123062371D02*
X174175856Y-123090942D01*
X174175856Y-123090942D02*
X174147285Y-123148085D01*
X174147285Y-123148085D02*
X174147285Y-123462371D01*
X130611514Y-73525971D02*
X130811514Y-73240257D01*
X130954371Y-73525971D02*
X130954371Y-72925971D01*
X130954371Y-72925971D02*
X130725800Y-72925971D01*
X130725800Y-72925971D02*
X130668657Y-72954542D01*
X130668657Y-72954542D02*
X130640086Y-72983114D01*
X130640086Y-72983114D02*
X130611514Y-73040257D01*
X130611514Y-73040257D02*
X130611514Y-73125971D01*
X130611514Y-73125971D02*
X130640086Y-73183114D01*
X130640086Y-73183114D02*
X130668657Y-73211685D01*
X130668657Y-73211685D02*
X130725800Y-73240257D01*
X130725800Y-73240257D02*
X130954371Y-73240257D01*
X130040086Y-73525971D02*
X130382943Y-73525971D01*
X130211514Y-73525971D02*
X130211514Y-72925971D01*
X130211514Y-72925971D02*
X130268657Y-73011685D01*
X130268657Y-73011685D02*
X130325800Y-73068828D01*
X130325800Y-73068828D02*
X130382943Y-73097400D01*
X129668657Y-72925971D02*
X129611514Y-72925971D01*
X129611514Y-72925971D02*
X129554371Y-72954542D01*
X129554371Y-72954542D02*
X129525800Y-72983114D01*
X129525800Y-72983114D02*
X129497228Y-73040257D01*
X129497228Y-73040257D02*
X129468657Y-73154542D01*
X129468657Y-73154542D02*
X129468657Y-73297400D01*
X129468657Y-73297400D02*
X129497228Y-73411685D01*
X129497228Y-73411685D02*
X129525800Y-73468828D01*
X129525800Y-73468828D02*
X129554371Y-73497400D01*
X129554371Y-73497400D02*
X129611514Y-73525971D01*
X129611514Y-73525971D02*
X129668657Y-73525971D01*
X129668657Y-73525971D02*
X129725800Y-73497400D01*
X129725800Y-73497400D02*
X129754371Y-73468828D01*
X129754371Y-73468828D02*
X129782942Y-73411685D01*
X129782942Y-73411685D02*
X129811514Y-73297400D01*
X129811514Y-73297400D02*
X129811514Y-73154542D01*
X129811514Y-73154542D02*
X129782942Y-73040257D01*
X129782942Y-73040257D02*
X129754371Y-72983114D01*
X129754371Y-72983114D02*
X129725800Y-72954542D01*
X129725800Y-72954542D02*
X129668657Y-72925971D01*
X132227628Y-71900371D02*
X132570485Y-71900371D01*
X132399056Y-71900371D02*
X132399056Y-71300371D01*
X132399056Y-71300371D02*
X132456199Y-71386085D01*
X132456199Y-71386085D02*
X132513342Y-71443228D01*
X132513342Y-71443228D02*
X132570485Y-71471800D01*
X131970484Y-71900371D02*
X131970484Y-71300371D01*
X131913342Y-71671800D02*
X131741913Y-71900371D01*
X131741913Y-71500371D02*
X131970484Y-71728942D01*
X144600599Y-131869771D02*
X144800599Y-131584057D01*
X144943456Y-131869771D02*
X144943456Y-131269771D01*
X144943456Y-131269771D02*
X144714885Y-131269771D01*
X144714885Y-131269771D02*
X144657742Y-131298342D01*
X144657742Y-131298342D02*
X144629171Y-131326914D01*
X144629171Y-131326914D02*
X144600599Y-131384057D01*
X144600599Y-131384057D02*
X144600599Y-131469771D01*
X144600599Y-131469771D02*
X144629171Y-131526914D01*
X144629171Y-131526914D02*
X144657742Y-131555485D01*
X144657742Y-131555485D02*
X144714885Y-131584057D01*
X144714885Y-131584057D02*
X144943456Y-131584057D01*
X144400599Y-131269771D02*
X144029171Y-131269771D01*
X144029171Y-131269771D02*
X144229171Y-131498342D01*
X144229171Y-131498342D02*
X144143456Y-131498342D01*
X144143456Y-131498342D02*
X144086314Y-131526914D01*
X144086314Y-131526914D02*
X144057742Y-131555485D01*
X144057742Y-131555485D02*
X144029171Y-131612628D01*
X144029171Y-131612628D02*
X144029171Y-131755485D01*
X144029171Y-131755485D02*
X144057742Y-131812628D01*
X144057742Y-131812628D02*
X144086314Y-131841200D01*
X144086314Y-131841200D02*
X144143456Y-131869771D01*
X144143456Y-131869771D02*
X144314885Y-131869771D01*
X144314885Y-131869771D02*
X144372028Y-131841200D01*
X144372028Y-131841200D02*
X144400599Y-131812628D01*
X140438143Y-133749371D02*
X140781000Y-133749371D01*
X140609571Y-133749371D02*
X140609571Y-133149371D01*
X140609571Y-133149371D02*
X140666714Y-133235085D01*
X140666714Y-133235085D02*
X140723857Y-133292228D01*
X140723857Y-133292228D02*
X140781000Y-133320800D01*
X140066714Y-133149371D02*
X140009571Y-133149371D01*
X140009571Y-133149371D02*
X139952428Y-133177942D01*
X139952428Y-133177942D02*
X139923857Y-133206514D01*
X139923857Y-133206514D02*
X139895285Y-133263657D01*
X139895285Y-133263657D02*
X139866714Y-133377942D01*
X139866714Y-133377942D02*
X139866714Y-133520800D01*
X139866714Y-133520800D02*
X139895285Y-133635085D01*
X139895285Y-133635085D02*
X139923857Y-133692228D01*
X139923857Y-133692228D02*
X139952428Y-133720800D01*
X139952428Y-133720800D02*
X140009571Y-133749371D01*
X140009571Y-133749371D02*
X140066714Y-133749371D01*
X140066714Y-133749371D02*
X140123857Y-133720800D01*
X140123857Y-133720800D02*
X140152428Y-133692228D01*
X140152428Y-133692228D02*
X140180999Y-133635085D01*
X140180999Y-133635085D02*
X140209571Y-133520800D01*
X140209571Y-133520800D02*
X140209571Y-133377942D01*
X140209571Y-133377942D02*
X140180999Y-133263657D01*
X140180999Y-133263657D02*
X140152428Y-133206514D01*
X140152428Y-133206514D02*
X140123857Y-133177942D01*
X140123857Y-133177942D02*
X140066714Y-133149371D01*
X139609570Y-133749371D02*
X139609570Y-133149371D01*
X139552428Y-133520800D02*
X139380999Y-133749371D01*
X139380999Y-133349371D02*
X139609570Y-133577942D01*
X110869399Y-107022228D02*
X110897971Y-107050800D01*
X110897971Y-107050800D02*
X110983685Y-107079371D01*
X110983685Y-107079371D02*
X111040828Y-107079371D01*
X111040828Y-107079371D02*
X111126542Y-107050800D01*
X111126542Y-107050800D02*
X111183685Y-106993657D01*
X111183685Y-106993657D02*
X111212256Y-106936514D01*
X111212256Y-106936514D02*
X111240828Y-106822228D01*
X111240828Y-106822228D02*
X111240828Y-106736514D01*
X111240828Y-106736514D02*
X111212256Y-106622228D01*
X111212256Y-106622228D02*
X111183685Y-106565085D01*
X111183685Y-106565085D02*
X111126542Y-106507942D01*
X111126542Y-106507942D02*
X111040828Y-106479371D01*
X111040828Y-106479371D02*
X110983685Y-106479371D01*
X110983685Y-106479371D02*
X110897971Y-106507942D01*
X110897971Y-106507942D02*
X110869399Y-106536514D01*
X110355114Y-106479371D02*
X110469399Y-106479371D01*
X110469399Y-106479371D02*
X110526542Y-106507942D01*
X110526542Y-106507942D02*
X110555114Y-106536514D01*
X110555114Y-106536514D02*
X110612256Y-106622228D01*
X110612256Y-106622228D02*
X110640828Y-106736514D01*
X110640828Y-106736514D02*
X110640828Y-106965085D01*
X110640828Y-106965085D02*
X110612256Y-107022228D01*
X110612256Y-107022228D02*
X110583685Y-107050800D01*
X110583685Y-107050800D02*
X110526542Y-107079371D01*
X110526542Y-107079371D02*
X110412256Y-107079371D01*
X110412256Y-107079371D02*
X110355114Y-107050800D01*
X110355114Y-107050800D02*
X110326542Y-107022228D01*
X110326542Y-107022228D02*
X110297971Y-106965085D01*
X110297971Y-106965085D02*
X110297971Y-106822228D01*
X110297971Y-106822228D02*
X110326542Y-106765085D01*
X110326542Y-106765085D02*
X110355114Y-106736514D01*
X110355114Y-106736514D02*
X110412256Y-106707942D01*
X110412256Y-106707942D02*
X110526542Y-106707942D01*
X110526542Y-106707942D02*
X110583685Y-106736514D01*
X110583685Y-106736514D02*
X110612256Y-106765085D01*
X110612256Y-106765085D02*
X110640828Y-106822228D01*
X112177429Y-107841371D02*
X112520286Y-107841371D01*
X112348857Y-107841371D02*
X112348857Y-107241371D01*
X112348857Y-107241371D02*
X112406000Y-107327085D01*
X112406000Y-107327085D02*
X112463143Y-107384228D01*
X112463143Y-107384228D02*
X112520286Y-107412800D01*
X111806000Y-107241371D02*
X111748857Y-107241371D01*
X111748857Y-107241371D02*
X111691714Y-107269942D01*
X111691714Y-107269942D02*
X111663143Y-107298514D01*
X111663143Y-107298514D02*
X111634571Y-107355657D01*
X111634571Y-107355657D02*
X111606000Y-107469942D01*
X111606000Y-107469942D02*
X111606000Y-107612800D01*
X111606000Y-107612800D02*
X111634571Y-107727085D01*
X111634571Y-107727085D02*
X111663143Y-107784228D01*
X111663143Y-107784228D02*
X111691714Y-107812800D01*
X111691714Y-107812800D02*
X111748857Y-107841371D01*
X111748857Y-107841371D02*
X111806000Y-107841371D01*
X111806000Y-107841371D02*
X111863143Y-107812800D01*
X111863143Y-107812800D02*
X111891714Y-107784228D01*
X111891714Y-107784228D02*
X111920285Y-107727085D01*
X111920285Y-107727085D02*
X111948857Y-107612800D01*
X111948857Y-107612800D02*
X111948857Y-107469942D01*
X111948857Y-107469942D02*
X111920285Y-107355657D01*
X111920285Y-107355657D02*
X111891714Y-107298514D01*
X111891714Y-107298514D02*
X111863143Y-107269942D01*
X111863143Y-107269942D02*
X111806000Y-107241371D01*
X111234571Y-107241371D02*
X111177428Y-107241371D01*
X111177428Y-107241371D02*
X111120285Y-107269942D01*
X111120285Y-107269942D02*
X111091714Y-107298514D01*
X111091714Y-107298514D02*
X111063142Y-107355657D01*
X111063142Y-107355657D02*
X111034571Y-107469942D01*
X111034571Y-107469942D02*
X111034571Y-107612800D01*
X111034571Y-107612800D02*
X111063142Y-107727085D01*
X111063142Y-107727085D02*
X111091714Y-107784228D01*
X111091714Y-107784228D02*
X111120285Y-107812800D01*
X111120285Y-107812800D02*
X111177428Y-107841371D01*
X111177428Y-107841371D02*
X111234571Y-107841371D01*
X111234571Y-107841371D02*
X111291714Y-107812800D01*
X111291714Y-107812800D02*
X111320285Y-107784228D01*
X111320285Y-107784228D02*
X111348856Y-107727085D01*
X111348856Y-107727085D02*
X111377428Y-107612800D01*
X111377428Y-107612800D02*
X111377428Y-107469942D01*
X111377428Y-107469942D02*
X111348856Y-107355657D01*
X111348856Y-107355657D02*
X111320285Y-107298514D01*
X111320285Y-107298514D02*
X111291714Y-107269942D01*
X111291714Y-107269942D02*
X111234571Y-107241371D01*
X110777427Y-107441371D02*
X110777427Y-107841371D01*
X110777427Y-107498514D02*
X110748856Y-107469942D01*
X110748856Y-107469942D02*
X110691713Y-107441371D01*
X110691713Y-107441371D02*
X110605999Y-107441371D01*
X110605999Y-107441371D02*
X110548856Y-107469942D01*
X110548856Y-107469942D02*
X110520285Y-107527085D01*
X110520285Y-107527085D02*
X110520285Y-107841371D01*
X135608999Y-74770571D02*
X135808999Y-74484857D01*
X135951856Y-74770571D02*
X135951856Y-74170571D01*
X135951856Y-74170571D02*
X135723285Y-74170571D01*
X135723285Y-74170571D02*
X135666142Y-74199142D01*
X135666142Y-74199142D02*
X135637571Y-74227714D01*
X135637571Y-74227714D02*
X135608999Y-74284857D01*
X135608999Y-74284857D02*
X135608999Y-74370571D01*
X135608999Y-74370571D02*
X135637571Y-74427714D01*
X135637571Y-74427714D02*
X135666142Y-74456285D01*
X135666142Y-74456285D02*
X135723285Y-74484857D01*
X135723285Y-74484857D02*
X135951856Y-74484857D01*
X135066142Y-74170571D02*
X135351856Y-74170571D01*
X135351856Y-74170571D02*
X135380428Y-74456285D01*
X135380428Y-74456285D02*
X135351856Y-74427714D01*
X135351856Y-74427714D02*
X135294714Y-74399142D01*
X135294714Y-74399142D02*
X135151856Y-74399142D01*
X135151856Y-74399142D02*
X135094714Y-74427714D01*
X135094714Y-74427714D02*
X135066142Y-74456285D01*
X135066142Y-74456285D02*
X135037571Y-74513428D01*
X135037571Y-74513428D02*
X135037571Y-74656285D01*
X135037571Y-74656285D02*
X135066142Y-74713428D01*
X135066142Y-74713428D02*
X135094714Y-74742000D01*
X135094714Y-74742000D02*
X135151856Y-74770571D01*
X135151856Y-74770571D02*
X135294714Y-74770571D01*
X135294714Y-74770571D02*
X135351856Y-74742000D01*
X135351856Y-74742000D02*
X135380428Y-74713428D01*
X136447143Y-68833371D02*
X136447143Y-69233371D01*
X136590000Y-68604800D02*
X136732857Y-69033371D01*
X136732857Y-69033371D02*
X136361428Y-69033371D01*
X136132856Y-69176228D02*
X136104285Y-69204800D01*
X136104285Y-69204800D02*
X136132856Y-69233371D01*
X136132856Y-69233371D02*
X136161428Y-69204800D01*
X136161428Y-69204800D02*
X136132856Y-69176228D01*
X136132856Y-69176228D02*
X136132856Y-69233371D01*
X135904285Y-68633371D02*
X135504285Y-68633371D01*
X135504285Y-68633371D02*
X135761428Y-69233371D01*
X135275713Y-69233371D02*
X135275713Y-68633371D01*
X135218571Y-69004800D02*
X135047142Y-69233371D01*
X135047142Y-68833371D02*
X135275713Y-69061942D01*
X160747857Y-127464200D02*
X160776429Y-127492771D01*
X160776429Y-127492771D02*
X160833572Y-127521342D01*
X160833572Y-127521342D02*
X160947857Y-127464200D01*
X160947857Y-127464200D02*
X161005000Y-127492771D01*
X161005000Y-127492771D02*
X161033572Y-127521342D01*
X143895714Y-110832228D02*
X143924286Y-110860800D01*
X143924286Y-110860800D02*
X144010000Y-110889371D01*
X144010000Y-110889371D02*
X144067143Y-110889371D01*
X144067143Y-110889371D02*
X144152857Y-110860800D01*
X144152857Y-110860800D02*
X144210000Y-110803657D01*
X144210000Y-110803657D02*
X144238571Y-110746514D01*
X144238571Y-110746514D02*
X144267143Y-110632228D01*
X144267143Y-110632228D02*
X144267143Y-110546514D01*
X144267143Y-110546514D02*
X144238571Y-110432228D01*
X144238571Y-110432228D02*
X144210000Y-110375085D01*
X144210000Y-110375085D02*
X144152857Y-110317942D01*
X144152857Y-110317942D02*
X144067143Y-110289371D01*
X144067143Y-110289371D02*
X144010000Y-110289371D01*
X144010000Y-110289371D02*
X143924286Y-110317942D01*
X143924286Y-110317942D02*
X143895714Y-110346514D01*
X143324286Y-110889371D02*
X143667143Y-110889371D01*
X143495714Y-110889371D02*
X143495714Y-110289371D01*
X143495714Y-110289371D02*
X143552857Y-110375085D01*
X143552857Y-110375085D02*
X143610000Y-110432228D01*
X143610000Y-110432228D02*
X143667143Y-110460800D01*
X142810000Y-110289371D02*
X142924285Y-110289371D01*
X142924285Y-110289371D02*
X142981428Y-110317942D01*
X142981428Y-110317942D02*
X143010000Y-110346514D01*
X143010000Y-110346514D02*
X143067142Y-110432228D01*
X143067142Y-110432228D02*
X143095714Y-110546514D01*
X143095714Y-110546514D02*
X143095714Y-110775085D01*
X143095714Y-110775085D02*
X143067142Y-110832228D01*
X143067142Y-110832228D02*
X143038571Y-110860800D01*
X143038571Y-110860800D02*
X142981428Y-110889371D01*
X142981428Y-110889371D02*
X142867142Y-110889371D01*
X142867142Y-110889371D02*
X142810000Y-110860800D01*
X142810000Y-110860800D02*
X142781428Y-110832228D01*
X142781428Y-110832228D02*
X142752857Y-110775085D01*
X142752857Y-110775085D02*
X142752857Y-110632228D01*
X142752857Y-110632228D02*
X142781428Y-110575085D01*
X142781428Y-110575085D02*
X142810000Y-110546514D01*
X142810000Y-110546514D02*
X142867142Y-110517942D01*
X142867142Y-110517942D02*
X142981428Y-110517942D01*
X142981428Y-110517942D02*
X143038571Y-110546514D01*
X143038571Y-110546514D02*
X143067142Y-110575085D01*
X143067142Y-110575085D02*
X143095714Y-110632228D01*
X142358971Y-105114114D02*
X142330399Y-105085542D01*
X142330399Y-105085542D02*
X142273257Y-105056971D01*
X142273257Y-105056971D02*
X142130399Y-105056971D01*
X142130399Y-105056971D02*
X142073257Y-105085542D01*
X142073257Y-105085542D02*
X142044685Y-105114114D01*
X142044685Y-105114114D02*
X142016114Y-105171257D01*
X142016114Y-105171257D02*
X142016114Y-105228400D01*
X142016114Y-105228400D02*
X142044685Y-105314114D01*
X142044685Y-105314114D02*
X142387542Y-105656971D01*
X142387542Y-105656971D02*
X142016114Y-105656971D01*
X141787542Y-105114114D02*
X141758970Y-105085542D01*
X141758970Y-105085542D02*
X141701828Y-105056971D01*
X141701828Y-105056971D02*
X141558970Y-105056971D01*
X141558970Y-105056971D02*
X141501828Y-105085542D01*
X141501828Y-105085542D02*
X141473256Y-105114114D01*
X141473256Y-105114114D02*
X141444685Y-105171257D01*
X141444685Y-105171257D02*
X141444685Y-105228400D01*
X141444685Y-105228400D02*
X141473256Y-105314114D01*
X141473256Y-105314114D02*
X141816113Y-105656971D01*
X141816113Y-105656971D02*
X141444685Y-105656971D01*
X140930399Y-105256971D02*
X140930399Y-105656971D01*
X141187541Y-105256971D02*
X141187541Y-105571257D01*
X141187541Y-105571257D02*
X141158970Y-105628400D01*
X141158970Y-105628400D02*
X141101827Y-105656971D01*
X141101827Y-105656971D02*
X141016113Y-105656971D01*
X141016113Y-105656971D02*
X140958970Y-105628400D01*
X140958970Y-105628400D02*
X140930399Y-105599828D01*
X187809142Y-67074371D02*
X188009142Y-66788657D01*
X188151999Y-67074371D02*
X188151999Y-66474371D01*
X188151999Y-66474371D02*
X187923428Y-66474371D01*
X187923428Y-66474371D02*
X187866285Y-66502942D01*
X187866285Y-66502942D02*
X187837714Y-66531514D01*
X187837714Y-66531514D02*
X187809142Y-66588657D01*
X187809142Y-66588657D02*
X187809142Y-66674371D01*
X187809142Y-66674371D02*
X187837714Y-66731514D01*
X187837714Y-66731514D02*
X187866285Y-66760085D01*
X187866285Y-66760085D02*
X187923428Y-66788657D01*
X187923428Y-66788657D02*
X188151999Y-66788657D01*
X187637714Y-66474371D02*
X187437714Y-67074371D01*
X187437714Y-67074371D02*
X187237714Y-66474371D01*
X186723428Y-67074371D02*
X187066285Y-67074371D01*
X186894856Y-67074371D02*
X186894856Y-66474371D01*
X186894856Y-66474371D02*
X186951999Y-66560085D01*
X186951999Y-66560085D02*
X187009142Y-66617228D01*
X187009142Y-66617228D02*
X187066285Y-66645800D01*
X184930371Y-71580570D02*
X184930371Y-71237713D01*
X184930371Y-71409142D02*
X184330371Y-71409142D01*
X184330371Y-71409142D02*
X184416085Y-71351999D01*
X184416085Y-71351999D02*
X184473228Y-71294856D01*
X184473228Y-71294856D02*
X184501800Y-71237713D01*
X184530371Y-72094857D02*
X184930371Y-72094857D01*
X184301800Y-71951999D02*
X184730371Y-71809142D01*
X184730371Y-71809142D02*
X184730371Y-72180571D01*
X184930371Y-72409143D02*
X184330371Y-72409143D01*
X184330371Y-72409143D02*
X184330371Y-72552000D01*
X184330371Y-72552000D02*
X184358942Y-72637714D01*
X184358942Y-72637714D02*
X184416085Y-72694857D01*
X184416085Y-72694857D02*
X184473228Y-72723428D01*
X184473228Y-72723428D02*
X184587514Y-72752000D01*
X184587514Y-72752000D02*
X184673228Y-72752000D01*
X184673228Y-72752000D02*
X184787514Y-72723428D01*
X184787514Y-72723428D02*
X184844657Y-72694857D01*
X184844657Y-72694857D02*
X184901800Y-72637714D01*
X184901800Y-72637714D02*
X184930371Y-72552000D01*
X184930371Y-72552000D02*
X184930371Y-72409143D01*
X184530371Y-73266286D02*
X184930371Y-73266286D01*
X184301800Y-73123428D02*
X184730371Y-72980571D01*
X184730371Y-72980571D02*
X184730371Y-73352000D01*
X184330371Y-73523429D02*
X184330371Y-73923429D01*
X184330371Y-73923429D02*
X184930371Y-73666286D01*
X184930371Y-74466286D02*
X184930371Y-74123429D01*
X184930371Y-74294858D02*
X184330371Y-74294858D01*
X184330371Y-74294858D02*
X184416085Y-74237715D01*
X184416085Y-74237715D02*
X184473228Y-74180572D01*
X184473228Y-74180572D02*
X184501800Y-74123429D01*
X184930371Y-74723430D02*
X184330371Y-74723430D01*
X184930371Y-75066287D02*
X184587514Y-74809144D01*
X184330371Y-75066287D02*
X184673228Y-74723430D01*
X197616714Y-66763228D02*
X197645286Y-66791800D01*
X197645286Y-66791800D02*
X197731000Y-66820371D01*
X197731000Y-66820371D02*
X197788143Y-66820371D01*
X197788143Y-66820371D02*
X197873857Y-66791800D01*
X197873857Y-66791800D02*
X197931000Y-66734657D01*
X197931000Y-66734657D02*
X197959571Y-66677514D01*
X197959571Y-66677514D02*
X197988143Y-66563228D01*
X197988143Y-66563228D02*
X197988143Y-66477514D01*
X197988143Y-66477514D02*
X197959571Y-66363228D01*
X197959571Y-66363228D02*
X197931000Y-66306085D01*
X197931000Y-66306085D02*
X197873857Y-66248942D01*
X197873857Y-66248942D02*
X197788143Y-66220371D01*
X197788143Y-66220371D02*
X197731000Y-66220371D01*
X197731000Y-66220371D02*
X197645286Y-66248942D01*
X197645286Y-66248942D02*
X197616714Y-66277514D01*
X197045286Y-66820371D02*
X197388143Y-66820371D01*
X197216714Y-66820371D02*
X197216714Y-66220371D01*
X197216714Y-66220371D02*
X197273857Y-66306085D01*
X197273857Y-66306085D02*
X197331000Y-66363228D01*
X197331000Y-66363228D02*
X197388143Y-66391800D01*
X196531000Y-66420371D02*
X196531000Y-66820371D01*
X196673857Y-66191800D02*
X196816714Y-66620371D01*
X196816714Y-66620371D02*
X196445285Y-66620371D01*
X193380371Y-71257140D02*
X193380371Y-70914283D01*
X193380371Y-71085712D02*
X192780371Y-71085712D01*
X192780371Y-71085712D02*
X192866085Y-71028569D01*
X192866085Y-71028569D02*
X192923228Y-70971426D01*
X192923228Y-70971426D02*
X192951800Y-70914283D01*
X192780371Y-71628569D02*
X192780371Y-71685712D01*
X192780371Y-71685712D02*
X192808942Y-71742855D01*
X192808942Y-71742855D02*
X192837514Y-71771427D01*
X192837514Y-71771427D02*
X192894657Y-71799998D01*
X192894657Y-71799998D02*
X193008942Y-71828569D01*
X193008942Y-71828569D02*
X193151800Y-71828569D01*
X193151800Y-71828569D02*
X193266085Y-71799998D01*
X193266085Y-71799998D02*
X193323228Y-71771427D01*
X193323228Y-71771427D02*
X193351800Y-71742855D01*
X193351800Y-71742855D02*
X193380371Y-71685712D01*
X193380371Y-71685712D02*
X193380371Y-71628569D01*
X193380371Y-71628569D02*
X193351800Y-71571427D01*
X193351800Y-71571427D02*
X193323228Y-71542855D01*
X193323228Y-71542855D02*
X193266085Y-71514284D01*
X193266085Y-71514284D02*
X193151800Y-71485712D01*
X193151800Y-71485712D02*
X193008942Y-71485712D01*
X193008942Y-71485712D02*
X192894657Y-71514284D01*
X192894657Y-71514284D02*
X192837514Y-71542855D01*
X192837514Y-71542855D02*
X192808942Y-71571427D01*
X192808942Y-71571427D02*
X192780371Y-71628569D01*
X192780371Y-72199998D02*
X192780371Y-72257141D01*
X192780371Y-72257141D02*
X192808942Y-72314284D01*
X192808942Y-72314284D02*
X192837514Y-72342856D01*
X192837514Y-72342856D02*
X192894657Y-72371427D01*
X192894657Y-72371427D02*
X193008942Y-72399998D01*
X193008942Y-72399998D02*
X193151800Y-72399998D01*
X193151800Y-72399998D02*
X193266085Y-72371427D01*
X193266085Y-72371427D02*
X193323228Y-72342856D01*
X193323228Y-72342856D02*
X193351800Y-72314284D01*
X193351800Y-72314284D02*
X193380371Y-72257141D01*
X193380371Y-72257141D02*
X193380371Y-72199998D01*
X193380371Y-72199998D02*
X193351800Y-72142856D01*
X193351800Y-72142856D02*
X193323228Y-72114284D01*
X193323228Y-72114284D02*
X193266085Y-72085713D01*
X193266085Y-72085713D02*
X193151800Y-72057141D01*
X193151800Y-72057141D02*
X193008942Y-72057141D01*
X193008942Y-72057141D02*
X192894657Y-72085713D01*
X192894657Y-72085713D02*
X192837514Y-72114284D01*
X192837514Y-72114284D02*
X192808942Y-72142856D01*
X192808942Y-72142856D02*
X192780371Y-72199998D01*
X192980371Y-72657142D02*
X193380371Y-72657142D01*
X193037514Y-72657142D02*
X193008942Y-72685713D01*
X193008942Y-72685713D02*
X192980371Y-72742856D01*
X192980371Y-72742856D02*
X192980371Y-72828570D01*
X192980371Y-72828570D02*
X193008942Y-72885713D01*
X193008942Y-72885713D02*
X193066085Y-72914285D01*
X193066085Y-72914285D02*
X193380371Y-72914285D01*
X192980371Y-73114284D02*
X192980371Y-73342856D01*
X193380371Y-73199999D02*
X192866085Y-73199999D01*
X192866085Y-73199999D02*
X192808942Y-73228570D01*
X192808942Y-73228570D02*
X192780371Y-73285713D01*
X192780371Y-73285713D02*
X192780371Y-73342856D01*
X192780371Y-73942856D02*
X193380371Y-74342856D01*
X192780371Y-74342856D02*
X193380371Y-73942856D01*
X192837514Y-74542856D02*
X192808942Y-74571428D01*
X192808942Y-74571428D02*
X192780371Y-74628571D01*
X192780371Y-74628571D02*
X192780371Y-74771428D01*
X192780371Y-74771428D02*
X192808942Y-74828571D01*
X192808942Y-74828571D02*
X192837514Y-74857142D01*
X192837514Y-74857142D02*
X192894657Y-74885713D01*
X192894657Y-74885713D02*
X192951800Y-74885713D01*
X192951800Y-74885713D02*
X193037514Y-74857142D01*
X193037514Y-74857142D02*
X193380371Y-74514285D01*
X193380371Y-74514285D02*
X193380371Y-74885713D01*
X192837514Y-75571428D02*
X192808942Y-75600000D01*
X192808942Y-75600000D02*
X192780371Y-75657143D01*
X192780371Y-75657143D02*
X192780371Y-75800000D01*
X192780371Y-75800000D02*
X192808942Y-75857143D01*
X192808942Y-75857143D02*
X192837514Y-75885714D01*
X192837514Y-75885714D02*
X192894657Y-75914285D01*
X192894657Y-75914285D02*
X192951800Y-75914285D01*
X192951800Y-75914285D02*
X193037514Y-75885714D01*
X193037514Y-75885714D02*
X193380371Y-75542857D01*
X193380371Y-75542857D02*
X193380371Y-75914285D01*
X192780371Y-76114286D02*
X192780371Y-76514286D01*
X192780371Y-76514286D02*
X193380371Y-76257143D01*
X192780371Y-77028572D02*
X192780371Y-76742858D01*
X192780371Y-76742858D02*
X193066085Y-76714286D01*
X193066085Y-76714286D02*
X193037514Y-76742858D01*
X193037514Y-76742858D02*
X193008942Y-76800001D01*
X193008942Y-76800001D02*
X193008942Y-76942858D01*
X193008942Y-76942858D02*
X193037514Y-77000001D01*
X193037514Y-77000001D02*
X193066085Y-77028572D01*
X193066085Y-77028572D02*
X193123228Y-77057143D01*
X193123228Y-77057143D02*
X193266085Y-77057143D01*
X193266085Y-77057143D02*
X193323228Y-77028572D01*
X193323228Y-77028572D02*
X193351800Y-77000001D01*
X193351800Y-77000001D02*
X193380371Y-76942858D01*
X193380371Y-76942858D02*
X193380371Y-76800001D01*
X193380371Y-76800001D02*
X193351800Y-76742858D01*
X193351800Y-76742858D02*
X193323228Y-76714286D01*
X192780371Y-77685715D02*
X193380371Y-77885715D01*
X193380371Y-77885715D02*
X192780371Y-78085715D01*
X193208942Y-78257144D02*
X193208942Y-78542859D01*
X193380371Y-78200001D02*
X192780371Y-78400001D01*
X192780371Y-78400001D02*
X193380371Y-78600001D01*
X193323228Y-79142859D02*
X193351800Y-79114287D01*
X193351800Y-79114287D02*
X193380371Y-79028573D01*
X193380371Y-79028573D02*
X193380371Y-78971430D01*
X193380371Y-78971430D02*
X193351800Y-78885716D01*
X193351800Y-78885716D02*
X193294657Y-78828573D01*
X193294657Y-78828573D02*
X193237514Y-78800002D01*
X193237514Y-78800002D02*
X193123228Y-78771430D01*
X193123228Y-78771430D02*
X193037514Y-78771430D01*
X193037514Y-78771430D02*
X192923228Y-78800002D01*
X192923228Y-78800002D02*
X192866085Y-78828573D01*
X192866085Y-78828573D02*
X192808942Y-78885716D01*
X192808942Y-78885716D02*
X192780371Y-78971430D01*
X192780371Y-78971430D02*
X192780371Y-79028573D01*
X192780371Y-79028573D02*
X192808942Y-79114287D01*
X192808942Y-79114287D02*
X192837514Y-79142859D01*
X193380371Y-79857145D02*
X192780371Y-79857145D01*
X192780371Y-79857145D02*
X193208942Y-80057145D01*
X193208942Y-80057145D02*
X192780371Y-80257145D01*
X192780371Y-80257145D02*
X193380371Y-80257145D01*
X193380371Y-80542859D02*
X192780371Y-80542859D01*
X193380371Y-80885716D02*
X193037514Y-80628573D01*
X192780371Y-80885716D02*
X193123228Y-80542859D01*
X193380371Y-81142859D02*
X192780371Y-81142859D01*
X192780371Y-81142859D02*
X192780371Y-81371430D01*
X192780371Y-81371430D02*
X192808942Y-81428573D01*
X192808942Y-81428573D02*
X192837514Y-81457144D01*
X192837514Y-81457144D02*
X192894657Y-81485716D01*
X192894657Y-81485716D02*
X192980371Y-81485716D01*
X192980371Y-81485716D02*
X193037514Y-81457144D01*
X193037514Y-81457144D02*
X193066085Y-81428573D01*
X193066085Y-81428573D02*
X193094657Y-81371430D01*
X193094657Y-81371430D02*
X193094657Y-81142859D01*
X113212514Y-70827228D02*
X113241086Y-70855800D01*
X113241086Y-70855800D02*
X113326800Y-70884371D01*
X113326800Y-70884371D02*
X113383943Y-70884371D01*
X113383943Y-70884371D02*
X113469657Y-70855800D01*
X113469657Y-70855800D02*
X113526800Y-70798657D01*
X113526800Y-70798657D02*
X113555371Y-70741514D01*
X113555371Y-70741514D02*
X113583943Y-70627228D01*
X113583943Y-70627228D02*
X113583943Y-70541514D01*
X113583943Y-70541514D02*
X113555371Y-70427228D01*
X113555371Y-70427228D02*
X113526800Y-70370085D01*
X113526800Y-70370085D02*
X113469657Y-70312942D01*
X113469657Y-70312942D02*
X113383943Y-70284371D01*
X113383943Y-70284371D02*
X113326800Y-70284371D01*
X113326800Y-70284371D02*
X113241086Y-70312942D01*
X113241086Y-70312942D02*
X113212514Y-70341514D01*
X112641086Y-70884371D02*
X112983943Y-70884371D01*
X112812514Y-70884371D02*
X112812514Y-70284371D01*
X112812514Y-70284371D02*
X112869657Y-70370085D01*
X112869657Y-70370085D02*
X112926800Y-70427228D01*
X112926800Y-70427228D02*
X112983943Y-70455800D01*
X112441085Y-70284371D02*
X112069657Y-70284371D01*
X112069657Y-70284371D02*
X112269657Y-70512942D01*
X112269657Y-70512942D02*
X112183942Y-70512942D01*
X112183942Y-70512942D02*
X112126800Y-70541514D01*
X112126800Y-70541514D02*
X112098228Y-70570085D01*
X112098228Y-70570085D02*
X112069657Y-70627228D01*
X112069657Y-70627228D02*
X112069657Y-70770085D01*
X112069657Y-70770085D02*
X112098228Y-70827228D01*
X112098228Y-70827228D02*
X112126800Y-70855800D01*
X112126800Y-70855800D02*
X112183942Y-70884371D01*
X112183942Y-70884371D02*
X112355371Y-70884371D01*
X112355371Y-70884371D02*
X112412514Y-70855800D01*
X112412514Y-70855800D02*
X112441085Y-70827228D01*
X115581029Y-67810971D02*
X115923886Y-67810971D01*
X115752457Y-67810971D02*
X115752457Y-67210971D01*
X115752457Y-67210971D02*
X115809600Y-67296685D01*
X115809600Y-67296685D02*
X115866743Y-67353828D01*
X115866743Y-67353828D02*
X115923886Y-67382400D01*
X115209600Y-67210971D02*
X115152457Y-67210971D01*
X115152457Y-67210971D02*
X115095314Y-67239542D01*
X115095314Y-67239542D02*
X115066743Y-67268114D01*
X115066743Y-67268114D02*
X115038171Y-67325257D01*
X115038171Y-67325257D02*
X115009600Y-67439542D01*
X115009600Y-67439542D02*
X115009600Y-67582400D01*
X115009600Y-67582400D02*
X115038171Y-67696685D01*
X115038171Y-67696685D02*
X115066743Y-67753828D01*
X115066743Y-67753828D02*
X115095314Y-67782400D01*
X115095314Y-67782400D02*
X115152457Y-67810971D01*
X115152457Y-67810971D02*
X115209600Y-67810971D01*
X115209600Y-67810971D02*
X115266743Y-67782400D01*
X115266743Y-67782400D02*
X115295314Y-67753828D01*
X115295314Y-67753828D02*
X115323885Y-67696685D01*
X115323885Y-67696685D02*
X115352457Y-67582400D01*
X115352457Y-67582400D02*
X115352457Y-67439542D01*
X115352457Y-67439542D02*
X115323885Y-67325257D01*
X115323885Y-67325257D02*
X115295314Y-67268114D01*
X115295314Y-67268114D02*
X115266743Y-67239542D01*
X115266743Y-67239542D02*
X115209600Y-67210971D01*
X114638171Y-67210971D02*
X114581028Y-67210971D01*
X114581028Y-67210971D02*
X114523885Y-67239542D01*
X114523885Y-67239542D02*
X114495314Y-67268114D01*
X114495314Y-67268114D02*
X114466742Y-67325257D01*
X114466742Y-67325257D02*
X114438171Y-67439542D01*
X114438171Y-67439542D02*
X114438171Y-67582400D01*
X114438171Y-67582400D02*
X114466742Y-67696685D01*
X114466742Y-67696685D02*
X114495314Y-67753828D01*
X114495314Y-67753828D02*
X114523885Y-67782400D01*
X114523885Y-67782400D02*
X114581028Y-67810971D01*
X114581028Y-67810971D02*
X114638171Y-67810971D01*
X114638171Y-67810971D02*
X114695314Y-67782400D01*
X114695314Y-67782400D02*
X114723885Y-67753828D01*
X114723885Y-67753828D02*
X114752456Y-67696685D01*
X114752456Y-67696685D02*
X114781028Y-67582400D01*
X114781028Y-67582400D02*
X114781028Y-67439542D01*
X114781028Y-67439542D02*
X114752456Y-67325257D01*
X114752456Y-67325257D02*
X114723885Y-67268114D01*
X114723885Y-67268114D02*
X114695314Y-67239542D01*
X114695314Y-67239542D02*
X114638171Y-67210971D01*
X114181027Y-67410971D02*
X114181027Y-67810971D01*
X114181027Y-67468114D02*
X114152456Y-67439542D01*
X114152456Y-67439542D02*
X114095313Y-67410971D01*
X114095313Y-67410971D02*
X114009599Y-67410971D01*
X114009599Y-67410971D02*
X113952456Y-67439542D01*
X113952456Y-67439542D02*
X113923885Y-67496685D01*
X113923885Y-67496685D02*
X113923885Y-67810971D01*
X138047399Y-74795971D02*
X138247399Y-74510257D01*
X138390256Y-74795971D02*
X138390256Y-74195971D01*
X138390256Y-74195971D02*
X138161685Y-74195971D01*
X138161685Y-74195971D02*
X138104542Y-74224542D01*
X138104542Y-74224542D02*
X138075971Y-74253114D01*
X138075971Y-74253114D02*
X138047399Y-74310257D01*
X138047399Y-74310257D02*
X138047399Y-74395971D01*
X138047399Y-74395971D02*
X138075971Y-74453114D01*
X138075971Y-74453114D02*
X138104542Y-74481685D01*
X138104542Y-74481685D02*
X138161685Y-74510257D01*
X138161685Y-74510257D02*
X138390256Y-74510257D01*
X137533114Y-74195971D02*
X137647399Y-74195971D01*
X137647399Y-74195971D02*
X137704542Y-74224542D01*
X137704542Y-74224542D02*
X137733114Y-74253114D01*
X137733114Y-74253114D02*
X137790256Y-74338828D01*
X137790256Y-74338828D02*
X137818828Y-74453114D01*
X137818828Y-74453114D02*
X137818828Y-74681685D01*
X137818828Y-74681685D02*
X137790256Y-74738828D01*
X137790256Y-74738828D02*
X137761685Y-74767400D01*
X137761685Y-74767400D02*
X137704542Y-74795971D01*
X137704542Y-74795971D02*
X137590256Y-74795971D01*
X137590256Y-74795971D02*
X137533114Y-74767400D01*
X137533114Y-74767400D02*
X137504542Y-74738828D01*
X137504542Y-74738828D02*
X137475971Y-74681685D01*
X137475971Y-74681685D02*
X137475971Y-74538828D01*
X137475971Y-74538828D02*
X137504542Y-74481685D01*
X137504542Y-74481685D02*
X137533114Y-74453114D01*
X137533114Y-74453114D02*
X137590256Y-74424542D01*
X137590256Y-74424542D02*
X137704542Y-74424542D01*
X137704542Y-74424542D02*
X137761685Y-74453114D01*
X137761685Y-74453114D02*
X137790256Y-74481685D01*
X137790256Y-74481685D02*
X137818828Y-74538828D01*
X138733143Y-68833371D02*
X138733143Y-69233371D01*
X138876000Y-68604800D02*
X139018857Y-69033371D01*
X139018857Y-69033371D02*
X138647428Y-69033371D01*
X138418856Y-69176228D02*
X138390285Y-69204800D01*
X138390285Y-69204800D02*
X138418856Y-69233371D01*
X138418856Y-69233371D02*
X138447428Y-69204800D01*
X138447428Y-69204800D02*
X138418856Y-69176228D01*
X138418856Y-69176228D02*
X138418856Y-69233371D01*
X138190285Y-68633371D02*
X137790285Y-68633371D01*
X137790285Y-68633371D02*
X138047428Y-69233371D01*
X137561713Y-69233371D02*
X137561713Y-68633371D01*
X137504571Y-69004800D02*
X137333142Y-69233371D01*
X137333142Y-68833371D02*
X137561713Y-69061942D01*
X120394399Y-72103571D02*
X120594399Y-71817857D01*
X120737256Y-72103571D02*
X120737256Y-71503571D01*
X120737256Y-71503571D02*
X120508685Y-71503571D01*
X120508685Y-71503571D02*
X120451542Y-71532142D01*
X120451542Y-71532142D02*
X120422971Y-71560714D01*
X120422971Y-71560714D02*
X120394399Y-71617857D01*
X120394399Y-71617857D02*
X120394399Y-71703571D01*
X120394399Y-71703571D02*
X120422971Y-71760714D01*
X120422971Y-71760714D02*
X120451542Y-71789285D01*
X120451542Y-71789285D02*
X120508685Y-71817857D01*
X120508685Y-71817857D02*
X120737256Y-71817857D01*
X120051542Y-71760714D02*
X120108685Y-71732142D01*
X120108685Y-71732142D02*
X120137256Y-71703571D01*
X120137256Y-71703571D02*
X120165828Y-71646428D01*
X120165828Y-71646428D02*
X120165828Y-71617857D01*
X120165828Y-71617857D02*
X120137256Y-71560714D01*
X120137256Y-71560714D02*
X120108685Y-71532142D01*
X120108685Y-71532142D02*
X120051542Y-71503571D01*
X120051542Y-71503571D02*
X119937256Y-71503571D01*
X119937256Y-71503571D02*
X119880114Y-71532142D01*
X119880114Y-71532142D02*
X119851542Y-71560714D01*
X119851542Y-71560714D02*
X119822971Y-71617857D01*
X119822971Y-71617857D02*
X119822971Y-71646428D01*
X119822971Y-71646428D02*
X119851542Y-71703571D01*
X119851542Y-71703571D02*
X119880114Y-71732142D01*
X119880114Y-71732142D02*
X119937256Y-71760714D01*
X119937256Y-71760714D02*
X120051542Y-71760714D01*
X120051542Y-71760714D02*
X120108685Y-71789285D01*
X120108685Y-71789285D02*
X120137256Y-71817857D01*
X120137256Y-71817857D02*
X120165828Y-71875000D01*
X120165828Y-71875000D02*
X120165828Y-71989285D01*
X120165828Y-71989285D02*
X120137256Y-72046428D01*
X120137256Y-72046428D02*
X120108685Y-72075000D01*
X120108685Y-72075000D02*
X120051542Y-72103571D01*
X120051542Y-72103571D02*
X119937256Y-72103571D01*
X119937256Y-72103571D02*
X119880114Y-72075000D01*
X119880114Y-72075000D02*
X119851542Y-72046428D01*
X119851542Y-72046428D02*
X119822971Y-71989285D01*
X119822971Y-71989285D02*
X119822971Y-71875000D01*
X119822971Y-71875000D02*
X119851542Y-71817857D01*
X119851542Y-71817857D02*
X119880114Y-71789285D01*
X119880114Y-71789285D02*
X119937256Y-71760714D01*
X126080828Y-71951171D02*
X126423685Y-71951171D01*
X126252256Y-71951171D02*
X126252256Y-71351171D01*
X126252256Y-71351171D02*
X126309399Y-71436885D01*
X126309399Y-71436885D02*
X126366542Y-71494028D01*
X126366542Y-71494028D02*
X126423685Y-71522600D01*
X125823684Y-71951171D02*
X125823684Y-71351171D01*
X125766542Y-71722600D02*
X125595113Y-71951171D01*
X125595113Y-71551171D02*
X125823684Y-71779742D01*
X132670542Y-70382714D02*
X132727685Y-70354142D01*
X132727685Y-70354142D02*
X132784828Y-70297000D01*
X132784828Y-70297000D02*
X132870542Y-70211285D01*
X132870542Y-70211285D02*
X132927685Y-70182714D01*
X132927685Y-70182714D02*
X132984828Y-70182714D01*
X132956257Y-70325571D02*
X133013400Y-70297000D01*
X133013400Y-70297000D02*
X133070542Y-70239857D01*
X133070542Y-70239857D02*
X133099114Y-70125571D01*
X133099114Y-70125571D02*
X133099114Y-69925571D01*
X133099114Y-69925571D02*
X133070542Y-69811285D01*
X133070542Y-69811285D02*
X133013400Y-69754142D01*
X133013400Y-69754142D02*
X132956257Y-69725571D01*
X132956257Y-69725571D02*
X132841971Y-69725571D01*
X132841971Y-69725571D02*
X132784828Y-69754142D01*
X132784828Y-69754142D02*
X132727685Y-69811285D01*
X132727685Y-69811285D02*
X132699114Y-69925571D01*
X132699114Y-69925571D02*
X132699114Y-70125571D01*
X132699114Y-70125571D02*
X132727685Y-70239857D01*
X132727685Y-70239857D02*
X132784828Y-70297000D01*
X132784828Y-70297000D02*
X132841971Y-70325571D01*
X132841971Y-70325571D02*
X132956257Y-70325571D01*
X132470543Y-69782714D02*
X132441971Y-69754142D01*
X132441971Y-69754142D02*
X132384829Y-69725571D01*
X132384829Y-69725571D02*
X132241971Y-69725571D01*
X132241971Y-69725571D02*
X132184829Y-69754142D01*
X132184829Y-69754142D02*
X132156257Y-69782714D01*
X132156257Y-69782714D02*
X132127686Y-69839857D01*
X132127686Y-69839857D02*
X132127686Y-69897000D01*
X132127686Y-69897000D02*
X132156257Y-69982714D01*
X132156257Y-69982714D02*
X132499114Y-70325571D01*
X132499114Y-70325571D02*
X132127686Y-70325571D01*
X134921485Y-67547485D02*
X134835771Y-67576057D01*
X134835771Y-67576057D02*
X134807200Y-67604628D01*
X134807200Y-67604628D02*
X134778628Y-67661771D01*
X134778628Y-67661771D02*
X134778628Y-67747485D01*
X134778628Y-67747485D02*
X134807200Y-67804628D01*
X134807200Y-67804628D02*
X134835771Y-67833200D01*
X134835771Y-67833200D02*
X134892914Y-67861771D01*
X134892914Y-67861771D02*
X135121485Y-67861771D01*
X135121485Y-67861771D02*
X135121485Y-67261771D01*
X135121485Y-67261771D02*
X134921485Y-67261771D01*
X134921485Y-67261771D02*
X134864343Y-67290342D01*
X134864343Y-67290342D02*
X134835771Y-67318914D01*
X134835771Y-67318914D02*
X134807200Y-67376057D01*
X134807200Y-67376057D02*
X134807200Y-67433200D01*
X134807200Y-67433200D02*
X134835771Y-67490342D01*
X134835771Y-67490342D02*
X134864343Y-67518914D01*
X134864343Y-67518914D02*
X134921485Y-67547485D01*
X134921485Y-67547485D02*
X135121485Y-67547485D01*
X134178628Y-67804628D02*
X134207200Y-67833200D01*
X134207200Y-67833200D02*
X134292914Y-67861771D01*
X134292914Y-67861771D02*
X134350057Y-67861771D01*
X134350057Y-67861771D02*
X134435771Y-67833200D01*
X134435771Y-67833200D02*
X134492914Y-67776057D01*
X134492914Y-67776057D02*
X134521485Y-67718914D01*
X134521485Y-67718914D02*
X134550057Y-67604628D01*
X134550057Y-67604628D02*
X134550057Y-67518914D01*
X134550057Y-67518914D02*
X134521485Y-67404628D01*
X134521485Y-67404628D02*
X134492914Y-67347485D01*
X134492914Y-67347485D02*
X134435771Y-67290342D01*
X134435771Y-67290342D02*
X134350057Y-67261771D01*
X134350057Y-67261771D02*
X134292914Y-67261771D01*
X134292914Y-67261771D02*
X134207200Y-67290342D01*
X134207200Y-67290342D02*
X134178628Y-67318914D01*
X133635771Y-67261771D02*
X133921485Y-67261771D01*
X133921485Y-67261771D02*
X133950057Y-67547485D01*
X133950057Y-67547485D02*
X133921485Y-67518914D01*
X133921485Y-67518914D02*
X133864343Y-67490342D01*
X133864343Y-67490342D02*
X133721485Y-67490342D01*
X133721485Y-67490342D02*
X133664343Y-67518914D01*
X133664343Y-67518914D02*
X133635771Y-67547485D01*
X133635771Y-67547485D02*
X133607200Y-67604628D01*
X133607200Y-67604628D02*
X133607200Y-67747485D01*
X133607200Y-67747485D02*
X133635771Y-67804628D01*
X133635771Y-67804628D02*
X133664343Y-67833200D01*
X133664343Y-67833200D02*
X133721485Y-67861771D01*
X133721485Y-67861771D02*
X133864343Y-67861771D01*
X133864343Y-67861771D02*
X133921485Y-67833200D01*
X133921485Y-67833200D02*
X133950057Y-67804628D01*
X133092914Y-67461771D02*
X133092914Y-67861771D01*
X133235771Y-67233200D02*
X133378628Y-67661771D01*
X133378628Y-67661771D02*
X133007199Y-67661771D01*
X132835770Y-67261771D02*
X132435770Y-67261771D01*
X132435770Y-67261771D02*
X132692913Y-67861771D01*
X112767999Y-116036085D02*
X112967999Y-116036085D01*
X112967999Y-116350371D02*
X112967999Y-115750371D01*
X112967999Y-115750371D02*
X112682285Y-115750371D01*
X112253713Y-116036085D02*
X112167999Y-116064657D01*
X112167999Y-116064657D02*
X112139428Y-116093228D01*
X112139428Y-116093228D02*
X112110856Y-116150371D01*
X112110856Y-116150371D02*
X112110856Y-116236085D01*
X112110856Y-116236085D02*
X112139428Y-116293228D01*
X112139428Y-116293228D02*
X112167999Y-116321800D01*
X112167999Y-116321800D02*
X112225142Y-116350371D01*
X112225142Y-116350371D02*
X112453713Y-116350371D01*
X112453713Y-116350371D02*
X112453713Y-115750371D01*
X112453713Y-115750371D02*
X112253713Y-115750371D01*
X112253713Y-115750371D02*
X112196571Y-115778942D01*
X112196571Y-115778942D02*
X112167999Y-115807514D01*
X112167999Y-115807514D02*
X112139428Y-115864657D01*
X112139428Y-115864657D02*
X112139428Y-115921800D01*
X112139428Y-115921800D02*
X112167999Y-115978942D01*
X112167999Y-115978942D02*
X112196571Y-116007514D01*
X112196571Y-116007514D02*
X112253713Y-116036085D01*
X112253713Y-116036085D02*
X112453713Y-116036085D01*
X111539428Y-116350371D02*
X111882285Y-116350371D01*
X111710856Y-116350371D02*
X111710856Y-115750371D01*
X111710856Y-115750371D02*
X111767999Y-115836085D01*
X111767999Y-115836085D02*
X111825142Y-115893228D01*
X111825142Y-115893228D02*
X111882285Y-115921800D01*
X118919144Y-117601371D02*
X118919144Y-118001371D01*
X119062001Y-117372800D02*
X119204858Y-117801371D01*
X119204858Y-117801371D02*
X118833429Y-117801371D01*
X118662000Y-117401371D02*
X118262000Y-117401371D01*
X118262000Y-117401371D02*
X118519143Y-118001371D01*
X117919143Y-117401371D02*
X117862000Y-117401371D01*
X117862000Y-117401371D02*
X117804857Y-117429942D01*
X117804857Y-117429942D02*
X117776286Y-117458514D01*
X117776286Y-117458514D02*
X117747714Y-117515657D01*
X117747714Y-117515657D02*
X117719143Y-117629942D01*
X117719143Y-117629942D02*
X117719143Y-117772800D01*
X117719143Y-117772800D02*
X117747714Y-117887085D01*
X117747714Y-117887085D02*
X117776286Y-117944228D01*
X117776286Y-117944228D02*
X117804857Y-117972800D01*
X117804857Y-117972800D02*
X117862000Y-118001371D01*
X117862000Y-118001371D02*
X117919143Y-118001371D01*
X117919143Y-118001371D02*
X117976286Y-117972800D01*
X117976286Y-117972800D02*
X118004857Y-117944228D01*
X118004857Y-117944228D02*
X118033428Y-117887085D01*
X118033428Y-117887085D02*
X118062000Y-117772800D01*
X118062000Y-117772800D02*
X118062000Y-117629942D01*
X118062000Y-117629942D02*
X118033428Y-117515657D01*
X118033428Y-117515657D02*
X118004857Y-117458514D01*
X118004857Y-117458514D02*
X117976286Y-117429942D01*
X117976286Y-117429942D02*
X117919143Y-117401371D01*
X117033428Y-118001371D02*
X116890571Y-118001371D01*
X116890571Y-118001371D02*
X116890571Y-117887085D01*
X116890571Y-117887085D02*
X116947714Y-117858514D01*
X116947714Y-117858514D02*
X117004856Y-117801371D01*
X117004856Y-117801371D02*
X117033428Y-117715657D01*
X117033428Y-117715657D02*
X117033428Y-117572800D01*
X117033428Y-117572800D02*
X117004856Y-117487085D01*
X117004856Y-117487085D02*
X116947714Y-117429942D01*
X116947714Y-117429942D02*
X116861999Y-117401371D01*
X116861999Y-117401371D02*
X116747714Y-117401371D01*
X116747714Y-117401371D02*
X116661999Y-117429942D01*
X116661999Y-117429942D02*
X116604856Y-117487085D01*
X116604856Y-117487085D02*
X116576285Y-117572800D01*
X116576285Y-117572800D02*
X116576285Y-117715657D01*
X116576285Y-117715657D02*
X116604856Y-117801371D01*
X116604856Y-117801371D02*
X116661999Y-117858514D01*
X116661999Y-117858514D02*
X116719142Y-117887085D01*
X116719142Y-117887085D02*
X116719142Y-118001371D01*
X116719142Y-118001371D02*
X116576285Y-118001371D01*
X115490571Y-117715657D02*
X115519142Y-117687085D01*
X115519142Y-117687085D02*
X115576285Y-117658514D01*
X115576285Y-117658514D02*
X115633428Y-117658514D01*
X115633428Y-117658514D02*
X115690571Y-117687085D01*
X115690571Y-117687085D02*
X115719142Y-117715657D01*
X115719142Y-117715657D02*
X115747714Y-117772800D01*
X115747714Y-117772800D02*
X115747714Y-117829942D01*
X115747714Y-117829942D02*
X115719142Y-117887085D01*
X115719142Y-117887085D02*
X115690571Y-117915657D01*
X115690571Y-117915657D02*
X115633428Y-117944228D01*
X115633428Y-117944228D02*
X115576285Y-117944228D01*
X115576285Y-117944228D02*
X115519142Y-117915657D01*
X115519142Y-117915657D02*
X115490571Y-117887085D01*
X115490571Y-117658514D02*
X115490571Y-117887085D01*
X115490571Y-117887085D02*
X115461999Y-117915657D01*
X115461999Y-117915657D02*
X115433428Y-117915657D01*
X115433428Y-117915657D02*
X115376285Y-117887085D01*
X115376285Y-117887085D02*
X115347714Y-117829942D01*
X115347714Y-117829942D02*
X115347714Y-117687085D01*
X115347714Y-117687085D02*
X115404857Y-117601371D01*
X115404857Y-117601371D02*
X115490571Y-117544228D01*
X115490571Y-117544228D02*
X115604857Y-117515657D01*
X115604857Y-117515657D02*
X115719142Y-117544228D01*
X115719142Y-117544228D02*
X115804857Y-117601371D01*
X115804857Y-117601371D02*
X115861999Y-117687085D01*
X115861999Y-117687085D02*
X115890571Y-117801371D01*
X115890571Y-117801371D02*
X115861999Y-117915657D01*
X115861999Y-117915657D02*
X115804857Y-118001371D01*
X115804857Y-118001371D02*
X115719142Y-118058514D01*
X115719142Y-118058514D02*
X115604857Y-118087085D01*
X115604857Y-118087085D02*
X115490571Y-118058514D01*
X115490571Y-118058514D02*
X115404857Y-118001371D01*
X114319142Y-118001371D02*
X114661999Y-118001371D01*
X114490570Y-118001371D02*
X114490570Y-117401371D01*
X114490570Y-117401371D02*
X114547713Y-117487085D01*
X114547713Y-117487085D02*
X114604856Y-117544228D01*
X114604856Y-117544228D02*
X114661999Y-117572800D01*
X113947713Y-117401371D02*
X113890570Y-117401371D01*
X113890570Y-117401371D02*
X113833427Y-117429942D01*
X113833427Y-117429942D02*
X113804856Y-117458514D01*
X113804856Y-117458514D02*
X113776284Y-117515657D01*
X113776284Y-117515657D02*
X113747713Y-117629942D01*
X113747713Y-117629942D02*
X113747713Y-117772800D01*
X113747713Y-117772800D02*
X113776284Y-117887085D01*
X113776284Y-117887085D02*
X113804856Y-117944228D01*
X113804856Y-117944228D02*
X113833427Y-117972800D01*
X113833427Y-117972800D02*
X113890570Y-118001371D01*
X113890570Y-118001371D02*
X113947713Y-118001371D01*
X113947713Y-118001371D02*
X114004856Y-117972800D01*
X114004856Y-117972800D02*
X114033427Y-117944228D01*
X114033427Y-117944228D02*
X114061998Y-117887085D01*
X114061998Y-117887085D02*
X114090570Y-117772800D01*
X114090570Y-117772800D02*
X114090570Y-117629942D01*
X114090570Y-117629942D02*
X114061998Y-117515657D01*
X114061998Y-117515657D02*
X114033427Y-117458514D01*
X114033427Y-117458514D02*
X114004856Y-117429942D01*
X114004856Y-117429942D02*
X113947713Y-117401371D01*
X113376284Y-117401371D02*
X113319141Y-117401371D01*
X113319141Y-117401371D02*
X113261998Y-117429942D01*
X113261998Y-117429942D02*
X113233427Y-117458514D01*
X113233427Y-117458514D02*
X113204855Y-117515657D01*
X113204855Y-117515657D02*
X113176284Y-117629942D01*
X113176284Y-117629942D02*
X113176284Y-117772800D01*
X113176284Y-117772800D02*
X113204855Y-117887085D01*
X113204855Y-117887085D02*
X113233427Y-117944228D01*
X113233427Y-117944228D02*
X113261998Y-117972800D01*
X113261998Y-117972800D02*
X113319141Y-118001371D01*
X113319141Y-118001371D02*
X113376284Y-118001371D01*
X113376284Y-118001371D02*
X113433427Y-117972800D01*
X113433427Y-117972800D02*
X113461998Y-117944228D01*
X113461998Y-117944228D02*
X113490569Y-117887085D01*
X113490569Y-117887085D02*
X113519141Y-117772800D01*
X113519141Y-117772800D02*
X113519141Y-117629942D01*
X113519141Y-117629942D02*
X113490569Y-117515657D01*
X113490569Y-117515657D02*
X113461998Y-117458514D01*
X113461998Y-117458514D02*
X113433427Y-117429942D01*
X113433427Y-117429942D02*
X113376284Y-117401371D01*
X112461997Y-118001371D02*
X112461997Y-117401371D01*
X112461997Y-117401371D02*
X112261997Y-117829942D01*
X112261997Y-117829942D02*
X112061997Y-117401371D01*
X112061997Y-117401371D02*
X112061997Y-118001371D01*
X111776283Y-118001371D02*
X111776283Y-117401371D01*
X111776283Y-117687085D02*
X111433426Y-117687085D01*
X111433426Y-118001371D02*
X111433426Y-117401371D01*
X111204855Y-117601371D02*
X110890570Y-117601371D01*
X110890570Y-117601371D02*
X111204855Y-118001371D01*
X111204855Y-118001371D02*
X110890570Y-118001371D01*
X165828571Y-75710371D02*
X165828571Y-75110371D01*
X165828571Y-75110371D02*
X165600000Y-75110371D01*
X165600000Y-75110371D02*
X165542857Y-75138942D01*
X165542857Y-75138942D02*
X165514286Y-75167514D01*
X165514286Y-75167514D02*
X165485714Y-75224657D01*
X165485714Y-75224657D02*
X165485714Y-75310371D01*
X165485714Y-75310371D02*
X165514286Y-75367514D01*
X165514286Y-75367514D02*
X165542857Y-75396085D01*
X165542857Y-75396085D02*
X165600000Y-75424657D01*
X165600000Y-75424657D02*
X165828571Y-75424657D01*
X165257143Y-75681800D02*
X165171429Y-75710371D01*
X165171429Y-75710371D02*
X165028571Y-75710371D01*
X165028571Y-75710371D02*
X164971429Y-75681800D01*
X164971429Y-75681800D02*
X164942857Y-75653228D01*
X164942857Y-75653228D02*
X164914286Y-75596085D01*
X164914286Y-75596085D02*
X164914286Y-75538942D01*
X164914286Y-75538942D02*
X164942857Y-75481800D01*
X164942857Y-75481800D02*
X164971429Y-75453228D01*
X164971429Y-75453228D02*
X165028571Y-75424657D01*
X165028571Y-75424657D02*
X165142857Y-75396085D01*
X165142857Y-75396085D02*
X165200000Y-75367514D01*
X165200000Y-75367514D02*
X165228571Y-75338942D01*
X165228571Y-75338942D02*
X165257143Y-75281800D01*
X165257143Y-75281800D02*
X165257143Y-75224657D01*
X165257143Y-75224657D02*
X165228571Y-75167514D01*
X165228571Y-75167514D02*
X165200000Y-75138942D01*
X165200000Y-75138942D02*
X165142857Y-75110371D01*
X165142857Y-75110371D02*
X165000000Y-75110371D01*
X165000000Y-75110371D02*
X164914286Y-75138942D01*
X164342857Y-75710371D02*
X164685714Y-75710371D01*
X164514285Y-75710371D02*
X164514285Y-75110371D01*
X164514285Y-75110371D02*
X164571428Y-75196085D01*
X164571428Y-75196085D02*
X164628571Y-75253228D01*
X164628571Y-75253228D02*
X164685714Y-75281800D01*
X177926713Y-75456371D02*
X177926713Y-74856371D01*
X177926713Y-75142085D02*
X177583856Y-75142085D01*
X177583856Y-75456371D02*
X177583856Y-74856371D01*
X177012428Y-75456371D02*
X177298142Y-75456371D01*
X177298142Y-75456371D02*
X177298142Y-74856371D01*
X176812428Y-75456371D02*
X176812428Y-74856371D01*
X176469571Y-75456371D02*
X176726714Y-75113514D01*
X176469571Y-74856371D02*
X176812428Y-75199228D01*
X176212428Y-75227800D02*
X175755286Y-75227800D01*
X175183857Y-74856371D02*
X175469571Y-74856371D01*
X175469571Y-74856371D02*
X175498143Y-75142085D01*
X175498143Y-75142085D02*
X175469571Y-75113514D01*
X175469571Y-75113514D02*
X175412429Y-75084942D01*
X175412429Y-75084942D02*
X175269571Y-75084942D01*
X175269571Y-75084942D02*
X175212429Y-75113514D01*
X175212429Y-75113514D02*
X175183857Y-75142085D01*
X175183857Y-75142085D02*
X175155286Y-75199228D01*
X175155286Y-75199228D02*
X175155286Y-75342085D01*
X175155286Y-75342085D02*
X175183857Y-75399228D01*
X175183857Y-75399228D02*
X175212429Y-75427800D01*
X175212429Y-75427800D02*
X175269571Y-75456371D01*
X175269571Y-75456371D02*
X175412429Y-75456371D01*
X175412429Y-75456371D02*
X175469571Y-75427800D01*
X175469571Y-75427800D02*
X175498143Y-75399228D01*
X174898142Y-75456371D02*
X174898142Y-74856371D01*
X174898142Y-74856371D02*
X174698142Y-75284942D01*
X174698142Y-75284942D02*
X174498142Y-74856371D01*
X174498142Y-74856371D02*
X174498142Y-75456371D01*
X174098143Y-74856371D02*
X174041000Y-74856371D01*
X174041000Y-74856371D02*
X173983857Y-74884942D01*
X173983857Y-74884942D02*
X173955286Y-74913514D01*
X173955286Y-74913514D02*
X173926714Y-74970657D01*
X173926714Y-74970657D02*
X173898143Y-75084942D01*
X173898143Y-75084942D02*
X173898143Y-75227800D01*
X173898143Y-75227800D02*
X173926714Y-75342085D01*
X173926714Y-75342085D02*
X173955286Y-75399228D01*
X173955286Y-75399228D02*
X173983857Y-75427800D01*
X173983857Y-75427800D02*
X174041000Y-75456371D01*
X174041000Y-75456371D02*
X174098143Y-75456371D01*
X174098143Y-75456371D02*
X174155286Y-75427800D01*
X174155286Y-75427800D02*
X174183857Y-75399228D01*
X174183857Y-75399228D02*
X174212428Y-75342085D01*
X174212428Y-75342085D02*
X174241000Y-75227800D01*
X174241000Y-75227800D02*
X174241000Y-75084942D01*
X174241000Y-75084942D02*
X174212428Y-74970657D01*
X174212428Y-74970657D02*
X174183857Y-74913514D01*
X174183857Y-74913514D02*
X174155286Y-74884942D01*
X174155286Y-74884942D02*
X174098143Y-74856371D01*
X173698142Y-74856371D02*
X173326714Y-74856371D01*
X173326714Y-74856371D02*
X173526714Y-75084942D01*
X173526714Y-75084942D02*
X173440999Y-75084942D01*
X173440999Y-75084942D02*
X173383857Y-75113514D01*
X173383857Y-75113514D02*
X173355285Y-75142085D01*
X173355285Y-75142085D02*
X173326714Y-75199228D01*
X173326714Y-75199228D02*
X173326714Y-75342085D01*
X173326714Y-75342085D02*
X173355285Y-75399228D01*
X173355285Y-75399228D02*
X173383857Y-75427800D01*
X173383857Y-75427800D02*
X173440999Y-75456371D01*
X173440999Y-75456371D02*
X173612428Y-75456371D01*
X173612428Y-75456371D02*
X173669571Y-75427800D01*
X173669571Y-75427800D02*
X173698142Y-75399228D01*
X125804599Y-107327028D02*
X125833171Y-107355600D01*
X125833171Y-107355600D02*
X125918885Y-107384171D01*
X125918885Y-107384171D02*
X125976028Y-107384171D01*
X125976028Y-107384171D02*
X126061742Y-107355600D01*
X126061742Y-107355600D02*
X126118885Y-107298457D01*
X126118885Y-107298457D02*
X126147456Y-107241314D01*
X126147456Y-107241314D02*
X126176028Y-107127028D01*
X126176028Y-107127028D02*
X126176028Y-107041314D01*
X126176028Y-107041314D02*
X126147456Y-106927028D01*
X126147456Y-106927028D02*
X126118885Y-106869885D01*
X126118885Y-106869885D02*
X126061742Y-106812742D01*
X126061742Y-106812742D02*
X125976028Y-106784171D01*
X125976028Y-106784171D02*
X125918885Y-106784171D01*
X125918885Y-106784171D02*
X125833171Y-106812742D01*
X125833171Y-106812742D02*
X125804599Y-106841314D01*
X125604599Y-106784171D02*
X125204599Y-106784171D01*
X125204599Y-106784171D02*
X125461742Y-107384171D01*
X125985514Y-106018971D02*
X125985514Y-106418971D01*
X126128371Y-105790400D02*
X126271228Y-106218971D01*
X126271228Y-106218971D02*
X125899799Y-106218971D01*
X125671227Y-106361828D02*
X125642656Y-106390400D01*
X125642656Y-106390400D02*
X125671227Y-106418971D01*
X125671227Y-106418971D02*
X125699799Y-106390400D01*
X125699799Y-106390400D02*
X125671227Y-106361828D01*
X125671227Y-106361828D02*
X125671227Y-106418971D01*
X125442656Y-105818971D02*
X125042656Y-105818971D01*
X125042656Y-105818971D02*
X125299799Y-106418971D01*
X124556942Y-106018971D02*
X124556942Y-106418971D01*
X124814084Y-106018971D02*
X124814084Y-106333257D01*
X124814084Y-106333257D02*
X124785513Y-106390400D01*
X124785513Y-106390400D02*
X124728370Y-106418971D01*
X124728370Y-106418971D02*
X124642656Y-106418971D01*
X124642656Y-106418971D02*
X124585513Y-106390400D01*
X124585513Y-106390400D02*
X124556942Y-106361828D01*
X122808999Y-63143371D02*
X123008999Y-62857657D01*
X123151856Y-63143371D02*
X123151856Y-62543371D01*
X123151856Y-62543371D02*
X122923285Y-62543371D01*
X122923285Y-62543371D02*
X122866142Y-62571942D01*
X122866142Y-62571942D02*
X122837571Y-62600514D01*
X122837571Y-62600514D02*
X122808999Y-62657657D01*
X122808999Y-62657657D02*
X122808999Y-62743371D01*
X122808999Y-62743371D02*
X122837571Y-62800514D01*
X122837571Y-62800514D02*
X122866142Y-62829085D01*
X122866142Y-62829085D02*
X122923285Y-62857657D01*
X122923285Y-62857657D02*
X123151856Y-62857657D01*
X122523285Y-63143371D02*
X122408999Y-63143371D01*
X122408999Y-63143371D02*
X122351856Y-63114800D01*
X122351856Y-63114800D02*
X122323285Y-63086228D01*
X122323285Y-63086228D02*
X122266142Y-63000514D01*
X122266142Y-63000514D02*
X122237571Y-62886228D01*
X122237571Y-62886228D02*
X122237571Y-62657657D01*
X122237571Y-62657657D02*
X122266142Y-62600514D01*
X122266142Y-62600514D02*
X122294714Y-62571942D01*
X122294714Y-62571942D02*
X122351856Y-62543371D01*
X122351856Y-62543371D02*
X122466142Y-62543371D01*
X122466142Y-62543371D02*
X122523285Y-62571942D01*
X122523285Y-62571942D02*
X122551856Y-62600514D01*
X122551856Y-62600514D02*
X122580428Y-62657657D01*
X122580428Y-62657657D02*
X122580428Y-62800514D01*
X122580428Y-62800514D02*
X122551856Y-62857657D01*
X122551856Y-62857657D02*
X122523285Y-62886228D01*
X122523285Y-62886228D02*
X122466142Y-62914800D01*
X122466142Y-62914800D02*
X122351856Y-62914800D01*
X122351856Y-62914800D02*
X122294714Y-62886228D01*
X122294714Y-62886228D02*
X122266142Y-62857657D01*
X122266142Y-62857657D02*
X122237571Y-62800514D01*
X119889543Y-65067771D02*
X120232400Y-65067771D01*
X120060971Y-65067771D02*
X120060971Y-64467771D01*
X120060971Y-64467771D02*
X120118114Y-64553485D01*
X120118114Y-64553485D02*
X120175257Y-64610628D01*
X120175257Y-64610628D02*
X120232400Y-64639200D01*
X119518114Y-64467771D02*
X119460971Y-64467771D01*
X119460971Y-64467771D02*
X119403828Y-64496342D01*
X119403828Y-64496342D02*
X119375257Y-64524914D01*
X119375257Y-64524914D02*
X119346685Y-64582057D01*
X119346685Y-64582057D02*
X119318114Y-64696342D01*
X119318114Y-64696342D02*
X119318114Y-64839200D01*
X119318114Y-64839200D02*
X119346685Y-64953485D01*
X119346685Y-64953485D02*
X119375257Y-65010628D01*
X119375257Y-65010628D02*
X119403828Y-65039200D01*
X119403828Y-65039200D02*
X119460971Y-65067771D01*
X119460971Y-65067771D02*
X119518114Y-65067771D01*
X119518114Y-65067771D02*
X119575257Y-65039200D01*
X119575257Y-65039200D02*
X119603828Y-65010628D01*
X119603828Y-65010628D02*
X119632399Y-64953485D01*
X119632399Y-64953485D02*
X119660971Y-64839200D01*
X119660971Y-64839200D02*
X119660971Y-64696342D01*
X119660971Y-64696342D02*
X119632399Y-64582057D01*
X119632399Y-64582057D02*
X119603828Y-64524914D01*
X119603828Y-64524914D02*
X119575257Y-64496342D01*
X119575257Y-64496342D02*
X119518114Y-64467771D01*
X119060970Y-65067771D02*
X119060970Y-64467771D01*
X119003828Y-64839200D02*
X118832399Y-65067771D01*
X118832399Y-64667771D02*
X119060970Y-64896342D01*
X108557999Y-111016371D02*
X108757999Y-110730657D01*
X108900856Y-111016371D02*
X108900856Y-110416371D01*
X108900856Y-110416371D02*
X108672285Y-110416371D01*
X108672285Y-110416371D02*
X108615142Y-110444942D01*
X108615142Y-110444942D02*
X108586571Y-110473514D01*
X108586571Y-110473514D02*
X108557999Y-110530657D01*
X108557999Y-110530657D02*
X108557999Y-110616371D01*
X108557999Y-110616371D02*
X108586571Y-110673514D01*
X108586571Y-110673514D02*
X108615142Y-110702085D01*
X108615142Y-110702085D02*
X108672285Y-110730657D01*
X108672285Y-110730657D02*
X108900856Y-110730657D01*
X108329428Y-110473514D02*
X108300856Y-110444942D01*
X108300856Y-110444942D02*
X108243714Y-110416371D01*
X108243714Y-110416371D02*
X108100856Y-110416371D01*
X108100856Y-110416371D02*
X108043714Y-110444942D01*
X108043714Y-110444942D02*
X108015142Y-110473514D01*
X108015142Y-110473514D02*
X107986571Y-110530657D01*
X107986571Y-110530657D02*
X107986571Y-110587800D01*
X107986571Y-110587800D02*
X108015142Y-110673514D01*
X108015142Y-110673514D02*
X108357999Y-111016371D01*
X108357999Y-111016371D02*
X107986571Y-111016371D01*
X108529428Y-111818371D02*
X108872285Y-111818371D01*
X108700856Y-111818371D02*
X108700856Y-111218371D01*
X108700856Y-111218371D02*
X108757999Y-111304085D01*
X108757999Y-111304085D02*
X108815142Y-111361228D01*
X108815142Y-111361228D02*
X108872285Y-111389800D01*
X108272284Y-111818371D02*
X108272284Y-111218371D01*
X108215142Y-111589800D02*
X108043713Y-111818371D01*
X108043713Y-111418371D02*
X108272284Y-111646942D01*
X135462914Y-111568828D02*
X135491486Y-111597400D01*
X135491486Y-111597400D02*
X135577200Y-111625971D01*
X135577200Y-111625971D02*
X135634343Y-111625971D01*
X135634343Y-111625971D02*
X135720057Y-111597400D01*
X135720057Y-111597400D02*
X135777200Y-111540257D01*
X135777200Y-111540257D02*
X135805771Y-111483114D01*
X135805771Y-111483114D02*
X135834343Y-111368828D01*
X135834343Y-111368828D02*
X135834343Y-111283114D01*
X135834343Y-111283114D02*
X135805771Y-111168828D01*
X135805771Y-111168828D02*
X135777200Y-111111685D01*
X135777200Y-111111685D02*
X135720057Y-111054542D01*
X135720057Y-111054542D02*
X135634343Y-111025971D01*
X135634343Y-111025971D02*
X135577200Y-111025971D01*
X135577200Y-111025971D02*
X135491486Y-111054542D01*
X135491486Y-111054542D02*
X135462914Y-111083114D01*
X134891486Y-111625971D02*
X135234343Y-111625971D01*
X135062914Y-111625971D02*
X135062914Y-111025971D01*
X135062914Y-111025971D02*
X135120057Y-111111685D01*
X135120057Y-111111685D02*
X135177200Y-111168828D01*
X135177200Y-111168828D02*
X135234343Y-111197400D01*
X134691485Y-111025971D02*
X134291485Y-111025971D01*
X134291485Y-111025971D02*
X134548628Y-111625971D01*
X135672429Y-110762371D02*
X136015286Y-110762371D01*
X135843857Y-110762371D02*
X135843857Y-110162371D01*
X135843857Y-110162371D02*
X135901000Y-110248085D01*
X135901000Y-110248085D02*
X135958143Y-110305228D01*
X135958143Y-110305228D02*
X136015286Y-110333800D01*
X135301000Y-110162371D02*
X135243857Y-110162371D01*
X135243857Y-110162371D02*
X135186714Y-110190942D01*
X135186714Y-110190942D02*
X135158143Y-110219514D01*
X135158143Y-110219514D02*
X135129571Y-110276657D01*
X135129571Y-110276657D02*
X135101000Y-110390942D01*
X135101000Y-110390942D02*
X135101000Y-110533800D01*
X135101000Y-110533800D02*
X135129571Y-110648085D01*
X135129571Y-110648085D02*
X135158143Y-110705228D01*
X135158143Y-110705228D02*
X135186714Y-110733800D01*
X135186714Y-110733800D02*
X135243857Y-110762371D01*
X135243857Y-110762371D02*
X135301000Y-110762371D01*
X135301000Y-110762371D02*
X135358143Y-110733800D01*
X135358143Y-110733800D02*
X135386714Y-110705228D01*
X135386714Y-110705228D02*
X135415285Y-110648085D01*
X135415285Y-110648085D02*
X135443857Y-110533800D01*
X135443857Y-110533800D02*
X135443857Y-110390942D01*
X135443857Y-110390942D02*
X135415285Y-110276657D01*
X135415285Y-110276657D02*
X135386714Y-110219514D01*
X135386714Y-110219514D02*
X135358143Y-110190942D01*
X135358143Y-110190942D02*
X135301000Y-110162371D01*
X134729571Y-110162371D02*
X134672428Y-110162371D01*
X134672428Y-110162371D02*
X134615285Y-110190942D01*
X134615285Y-110190942D02*
X134586714Y-110219514D01*
X134586714Y-110219514D02*
X134558142Y-110276657D01*
X134558142Y-110276657D02*
X134529571Y-110390942D01*
X134529571Y-110390942D02*
X134529571Y-110533800D01*
X134529571Y-110533800D02*
X134558142Y-110648085D01*
X134558142Y-110648085D02*
X134586714Y-110705228D01*
X134586714Y-110705228D02*
X134615285Y-110733800D01*
X134615285Y-110733800D02*
X134672428Y-110762371D01*
X134672428Y-110762371D02*
X134729571Y-110762371D01*
X134729571Y-110762371D02*
X134786714Y-110733800D01*
X134786714Y-110733800D02*
X134815285Y-110705228D01*
X134815285Y-110705228D02*
X134843856Y-110648085D01*
X134843856Y-110648085D02*
X134872428Y-110533800D01*
X134872428Y-110533800D02*
X134872428Y-110390942D01*
X134872428Y-110390942D02*
X134843856Y-110276657D01*
X134843856Y-110276657D02*
X134815285Y-110219514D01*
X134815285Y-110219514D02*
X134786714Y-110190942D01*
X134786714Y-110190942D02*
X134729571Y-110162371D01*
X134272427Y-110362371D02*
X134272427Y-110762371D01*
X134272427Y-110419514D02*
X134243856Y-110390942D01*
X134243856Y-110390942D02*
X134186713Y-110362371D01*
X134186713Y-110362371D02*
X134100999Y-110362371D01*
X134100999Y-110362371D02*
X134043856Y-110390942D01*
X134043856Y-110390942D02*
X134015285Y-110448085D01*
X134015285Y-110448085D02*
X134015285Y-110762371D01*
X189442628Y-55711571D02*
X189099771Y-55711571D01*
X189271199Y-56311571D02*
X189271199Y-55711571D01*
X188899770Y-56311571D02*
X188899770Y-55711571D01*
X188899770Y-55997285D02*
X188556913Y-55997285D01*
X188556913Y-56311571D02*
X188556913Y-55711571D01*
X187956914Y-56311571D02*
X188299771Y-56311571D01*
X188128342Y-56311571D02*
X188128342Y-55711571D01*
X188128342Y-55711571D02*
X188185485Y-55797285D01*
X188185485Y-55797285D02*
X188242628Y-55854428D01*
X188242628Y-55854428D02*
X188299771Y-55883000D01*
X191314056Y-63511572D02*
X191314056Y-62911572D01*
X191314056Y-62911572D02*
X191114056Y-63340143D01*
X191114056Y-63340143D02*
X190914056Y-62911572D01*
X190914056Y-62911572D02*
X190914056Y-63511572D01*
X190428342Y-63197286D02*
X190628342Y-63197286D01*
X190628342Y-63511572D02*
X190628342Y-62911572D01*
X190628342Y-62911572D02*
X190342628Y-62911572D01*
X190171199Y-62911572D02*
X189771199Y-62911572D01*
X189771199Y-62911572D02*
X190028342Y-63511572D01*
X189571199Y-62968715D02*
X189542627Y-62940143D01*
X189542627Y-62940143D02*
X189485485Y-62911572D01*
X189485485Y-62911572D02*
X189342627Y-62911572D01*
X189342627Y-62911572D02*
X189285485Y-62940143D01*
X189285485Y-62940143D02*
X189256913Y-62968715D01*
X189256913Y-62968715D02*
X189228342Y-63025858D01*
X189228342Y-63025858D02*
X189228342Y-63083001D01*
X189228342Y-63083001D02*
X189256913Y-63168715D01*
X189256913Y-63168715D02*
X189599770Y-63511572D01*
X189599770Y-63511572D02*
X189228342Y-63511572D01*
X188971198Y-63283001D02*
X188514056Y-63283001D01*
X187942627Y-62911572D02*
X188228341Y-62911572D01*
X188228341Y-62911572D02*
X188256913Y-63197286D01*
X188256913Y-63197286D02*
X188228341Y-63168715D01*
X188228341Y-63168715D02*
X188171199Y-63140143D01*
X188171199Y-63140143D02*
X188028341Y-63140143D01*
X188028341Y-63140143D02*
X187971199Y-63168715D01*
X187971199Y-63168715D02*
X187942627Y-63197286D01*
X187942627Y-63197286D02*
X187914056Y-63254429D01*
X187914056Y-63254429D02*
X187914056Y-63397286D01*
X187914056Y-63397286D02*
X187942627Y-63454429D01*
X187942627Y-63454429D02*
X187971199Y-63483001D01*
X187971199Y-63483001D02*
X188028341Y-63511572D01*
X188028341Y-63511572D02*
X188171199Y-63511572D01*
X188171199Y-63511572D02*
X188228341Y-63483001D01*
X188228341Y-63483001D02*
X188256913Y-63454429D01*
X187656912Y-63511572D02*
X187656912Y-62911572D01*
X187656912Y-62911572D02*
X187514055Y-62911572D01*
X187514055Y-62911572D02*
X187428341Y-62940143D01*
X187428341Y-62940143D02*
X187371198Y-62997286D01*
X187371198Y-62997286D02*
X187342627Y-63054429D01*
X187342627Y-63054429D02*
X187314055Y-63168715D01*
X187314055Y-63168715D02*
X187314055Y-63254429D01*
X187314055Y-63254429D02*
X187342627Y-63368715D01*
X187342627Y-63368715D02*
X187371198Y-63425858D01*
X187371198Y-63425858D02*
X187428341Y-63483001D01*
X187428341Y-63483001D02*
X187514055Y-63511572D01*
X187514055Y-63511572D02*
X187656912Y-63511572D01*
X187056912Y-63283001D02*
X186599770Y-63283001D01*
X186285484Y-63511572D02*
X186171198Y-63511572D01*
X186171198Y-63511572D02*
X186114055Y-63483001D01*
X186114055Y-63483001D02*
X186085484Y-63454429D01*
X186085484Y-63454429D02*
X186028341Y-63368715D01*
X186028341Y-63368715D02*
X185999770Y-63254429D01*
X185999770Y-63254429D02*
X185999770Y-63025858D01*
X185999770Y-63025858D02*
X186028341Y-62968715D01*
X186028341Y-62968715D02*
X186056913Y-62940143D01*
X186056913Y-62940143D02*
X186114055Y-62911572D01*
X186114055Y-62911572D02*
X186228341Y-62911572D01*
X186228341Y-62911572D02*
X186285484Y-62940143D01*
X186285484Y-62940143D02*
X186314055Y-62968715D01*
X186314055Y-62968715D02*
X186342627Y-63025858D01*
X186342627Y-63025858D02*
X186342627Y-63168715D01*
X186342627Y-63168715D02*
X186314055Y-63225858D01*
X186314055Y-63225858D02*
X186285484Y-63254429D01*
X186285484Y-63254429D02*
X186228341Y-63283001D01*
X186228341Y-63283001D02*
X186114055Y-63283001D01*
X186114055Y-63283001D02*
X186056913Y-63254429D01*
X186056913Y-63254429D02*
X186028341Y-63225858D01*
X186028341Y-63225858D02*
X185999770Y-63168715D01*
X105255999Y-111016371D02*
X105455999Y-110730657D01*
X105598856Y-111016371D02*
X105598856Y-110416371D01*
X105598856Y-110416371D02*
X105370285Y-110416371D01*
X105370285Y-110416371D02*
X105313142Y-110444942D01*
X105313142Y-110444942D02*
X105284571Y-110473514D01*
X105284571Y-110473514D02*
X105255999Y-110530657D01*
X105255999Y-110530657D02*
X105255999Y-110616371D01*
X105255999Y-110616371D02*
X105284571Y-110673514D01*
X105284571Y-110673514D02*
X105313142Y-110702085D01*
X105313142Y-110702085D02*
X105370285Y-110730657D01*
X105370285Y-110730657D02*
X105598856Y-110730657D01*
X104684571Y-111016371D02*
X105027428Y-111016371D01*
X104855999Y-111016371D02*
X104855999Y-110416371D01*
X104855999Y-110416371D02*
X104913142Y-110502085D01*
X104913142Y-110502085D02*
X104970285Y-110559228D01*
X104970285Y-110559228D02*
X105027428Y-110587800D01*
X106052857Y-111818371D02*
X106395714Y-111818371D01*
X106224285Y-111818371D02*
X106224285Y-111218371D01*
X106224285Y-111218371D02*
X106281428Y-111304085D01*
X106281428Y-111304085D02*
X106338571Y-111361228D01*
X106338571Y-111361228D02*
X106395714Y-111389800D01*
X105681428Y-111218371D02*
X105624285Y-111218371D01*
X105624285Y-111218371D02*
X105567142Y-111246942D01*
X105567142Y-111246942D02*
X105538571Y-111275514D01*
X105538571Y-111275514D02*
X105509999Y-111332657D01*
X105509999Y-111332657D02*
X105481428Y-111446942D01*
X105481428Y-111446942D02*
X105481428Y-111589800D01*
X105481428Y-111589800D02*
X105509999Y-111704085D01*
X105509999Y-111704085D02*
X105538571Y-111761228D01*
X105538571Y-111761228D02*
X105567142Y-111789800D01*
X105567142Y-111789800D02*
X105624285Y-111818371D01*
X105624285Y-111818371D02*
X105681428Y-111818371D01*
X105681428Y-111818371D02*
X105738571Y-111789800D01*
X105738571Y-111789800D02*
X105767142Y-111761228D01*
X105767142Y-111761228D02*
X105795713Y-111704085D01*
X105795713Y-111704085D02*
X105824285Y-111589800D01*
X105824285Y-111589800D02*
X105824285Y-111446942D01*
X105824285Y-111446942D02*
X105795713Y-111332657D01*
X105795713Y-111332657D02*
X105767142Y-111275514D01*
X105767142Y-111275514D02*
X105738571Y-111246942D01*
X105738571Y-111246942D02*
X105681428Y-111218371D01*
X105109999Y-111218371D02*
X105052856Y-111218371D01*
X105052856Y-111218371D02*
X104995713Y-111246942D01*
X104995713Y-111246942D02*
X104967142Y-111275514D01*
X104967142Y-111275514D02*
X104938570Y-111332657D01*
X104938570Y-111332657D02*
X104909999Y-111446942D01*
X104909999Y-111446942D02*
X104909999Y-111589800D01*
X104909999Y-111589800D02*
X104938570Y-111704085D01*
X104938570Y-111704085D02*
X104967142Y-111761228D01*
X104967142Y-111761228D02*
X104995713Y-111789800D01*
X104995713Y-111789800D02*
X105052856Y-111818371D01*
X105052856Y-111818371D02*
X105109999Y-111818371D01*
X105109999Y-111818371D02*
X105167142Y-111789800D01*
X105167142Y-111789800D02*
X105195713Y-111761228D01*
X105195713Y-111761228D02*
X105224284Y-111704085D01*
X105224284Y-111704085D02*
X105252856Y-111589800D01*
X105252856Y-111589800D02*
X105252856Y-111446942D01*
X105252856Y-111446942D02*
X105224284Y-111332657D01*
X105224284Y-111332657D02*
X105195713Y-111275514D01*
X105195713Y-111275514D02*
X105167142Y-111246942D01*
X105167142Y-111246942D02*
X105109999Y-111218371D01*
X104652855Y-111818371D02*
X104652855Y-111218371D01*
X104595713Y-111589800D02*
X104424284Y-111818371D01*
X104424284Y-111418371D02*
X104652855Y-111646942D01*
X140866799Y-131387171D02*
X141066799Y-131101457D01*
X141209656Y-131387171D02*
X141209656Y-130787171D01*
X141209656Y-130787171D02*
X140981085Y-130787171D01*
X140981085Y-130787171D02*
X140923942Y-130815742D01*
X140923942Y-130815742D02*
X140895371Y-130844314D01*
X140895371Y-130844314D02*
X140866799Y-130901457D01*
X140866799Y-130901457D02*
X140866799Y-130987171D01*
X140866799Y-130987171D02*
X140895371Y-131044314D01*
X140895371Y-131044314D02*
X140923942Y-131072885D01*
X140923942Y-131072885D02*
X140981085Y-131101457D01*
X140981085Y-131101457D02*
X141209656Y-131101457D01*
X140352514Y-130987171D02*
X140352514Y-131387171D01*
X140495371Y-130758600D02*
X140638228Y-131187171D01*
X140638228Y-131187171D02*
X140266799Y-131187171D01*
X141323943Y-130199771D02*
X141323943Y-130599771D01*
X141466800Y-129971200D02*
X141609657Y-130399771D01*
X141609657Y-130399771D02*
X141238228Y-130399771D01*
X141009656Y-130542628D02*
X140981085Y-130571200D01*
X140981085Y-130571200D02*
X141009656Y-130599771D01*
X141009656Y-130599771D02*
X141038228Y-130571200D01*
X141038228Y-130571200D02*
X141009656Y-130542628D01*
X141009656Y-130542628D02*
X141009656Y-130599771D01*
X140781085Y-129999771D02*
X140381085Y-129999771D01*
X140381085Y-129999771D02*
X140638228Y-130599771D01*
X140152513Y-130599771D02*
X140152513Y-129999771D01*
X140095371Y-130371200D02*
X139923942Y-130599771D01*
X139923942Y-130199771D02*
X140152513Y-130428342D01*
X149229714Y-108038228D02*
X149258286Y-108066800D01*
X149258286Y-108066800D02*
X149344000Y-108095371D01*
X149344000Y-108095371D02*
X149401143Y-108095371D01*
X149401143Y-108095371D02*
X149486857Y-108066800D01*
X149486857Y-108066800D02*
X149544000Y-108009657D01*
X149544000Y-108009657D02*
X149572571Y-107952514D01*
X149572571Y-107952514D02*
X149601143Y-107838228D01*
X149601143Y-107838228D02*
X149601143Y-107752514D01*
X149601143Y-107752514D02*
X149572571Y-107638228D01*
X149572571Y-107638228D02*
X149544000Y-107581085D01*
X149544000Y-107581085D02*
X149486857Y-107523942D01*
X149486857Y-107523942D02*
X149401143Y-107495371D01*
X149401143Y-107495371D02*
X149344000Y-107495371D01*
X149344000Y-107495371D02*
X149258286Y-107523942D01*
X149258286Y-107523942D02*
X149229714Y-107552514D01*
X148658286Y-108095371D02*
X149001143Y-108095371D01*
X148829714Y-108095371D02*
X148829714Y-107495371D01*
X148829714Y-107495371D02*
X148886857Y-107581085D01*
X148886857Y-107581085D02*
X148944000Y-107638228D01*
X148944000Y-107638228D02*
X149001143Y-107666800D01*
X148086857Y-108095371D02*
X148429714Y-108095371D01*
X148258285Y-108095371D02*
X148258285Y-107495371D01*
X148258285Y-107495371D02*
X148315428Y-107581085D01*
X148315428Y-107581085D02*
X148372571Y-107638228D01*
X148372571Y-107638228D02*
X148429714Y-107666800D01*
X147737429Y-110635371D02*
X148080286Y-110635371D01*
X147908857Y-110635371D02*
X147908857Y-110035371D01*
X147908857Y-110035371D02*
X147966000Y-110121085D01*
X147966000Y-110121085D02*
X148023143Y-110178228D01*
X148023143Y-110178228D02*
X148080286Y-110206800D01*
X147366000Y-110035371D02*
X147308857Y-110035371D01*
X147308857Y-110035371D02*
X147251714Y-110063942D01*
X147251714Y-110063942D02*
X147223143Y-110092514D01*
X147223143Y-110092514D02*
X147194571Y-110149657D01*
X147194571Y-110149657D02*
X147166000Y-110263942D01*
X147166000Y-110263942D02*
X147166000Y-110406800D01*
X147166000Y-110406800D02*
X147194571Y-110521085D01*
X147194571Y-110521085D02*
X147223143Y-110578228D01*
X147223143Y-110578228D02*
X147251714Y-110606800D01*
X147251714Y-110606800D02*
X147308857Y-110635371D01*
X147308857Y-110635371D02*
X147366000Y-110635371D01*
X147366000Y-110635371D02*
X147423143Y-110606800D01*
X147423143Y-110606800D02*
X147451714Y-110578228D01*
X147451714Y-110578228D02*
X147480285Y-110521085D01*
X147480285Y-110521085D02*
X147508857Y-110406800D01*
X147508857Y-110406800D02*
X147508857Y-110263942D01*
X147508857Y-110263942D02*
X147480285Y-110149657D01*
X147480285Y-110149657D02*
X147451714Y-110092514D01*
X147451714Y-110092514D02*
X147423143Y-110063942D01*
X147423143Y-110063942D02*
X147366000Y-110035371D01*
X146794571Y-110035371D02*
X146737428Y-110035371D01*
X146737428Y-110035371D02*
X146680285Y-110063942D01*
X146680285Y-110063942D02*
X146651714Y-110092514D01*
X146651714Y-110092514D02*
X146623142Y-110149657D01*
X146623142Y-110149657D02*
X146594571Y-110263942D01*
X146594571Y-110263942D02*
X146594571Y-110406800D01*
X146594571Y-110406800D02*
X146623142Y-110521085D01*
X146623142Y-110521085D02*
X146651714Y-110578228D01*
X146651714Y-110578228D02*
X146680285Y-110606800D01*
X146680285Y-110606800D02*
X146737428Y-110635371D01*
X146737428Y-110635371D02*
X146794571Y-110635371D01*
X146794571Y-110635371D02*
X146851714Y-110606800D01*
X146851714Y-110606800D02*
X146880285Y-110578228D01*
X146880285Y-110578228D02*
X146908856Y-110521085D01*
X146908856Y-110521085D02*
X146937428Y-110406800D01*
X146937428Y-110406800D02*
X146937428Y-110263942D01*
X146937428Y-110263942D02*
X146908856Y-110149657D01*
X146908856Y-110149657D02*
X146880285Y-110092514D01*
X146880285Y-110092514D02*
X146851714Y-110063942D01*
X146851714Y-110063942D02*
X146794571Y-110035371D01*
X146337427Y-110235371D02*
X146337427Y-110635371D01*
X146337427Y-110292514D02*
X146308856Y-110263942D01*
X146308856Y-110263942D02*
X146251713Y-110235371D01*
X146251713Y-110235371D02*
X146165999Y-110235371D01*
X146165999Y-110235371D02*
X146108856Y-110263942D01*
X146108856Y-110263942D02*
X146080285Y-110321085D01*
X146080285Y-110321085D02*
X146080285Y-110635371D01*
X113182342Y-112956371D02*
X113182342Y-113442085D01*
X113182342Y-113442085D02*
X113153771Y-113499228D01*
X113153771Y-113499228D02*
X113125200Y-113527800D01*
X113125200Y-113527800D02*
X113068057Y-113556371D01*
X113068057Y-113556371D02*
X112953771Y-113556371D01*
X112953771Y-113556371D02*
X112896628Y-113527800D01*
X112896628Y-113527800D02*
X112868057Y-113499228D01*
X112868057Y-113499228D02*
X112839485Y-113442085D01*
X112839485Y-113442085D02*
X112839485Y-112956371D01*
X112239486Y-113556371D02*
X112582343Y-113556371D01*
X112410914Y-113556371D02*
X112410914Y-112956371D01*
X112410914Y-112956371D02*
X112468057Y-113042085D01*
X112468057Y-113042085D02*
X112525200Y-113099228D01*
X112525200Y-113099228D02*
X112582343Y-113127800D01*
X117717401Y-113997771D02*
X117374544Y-113997771D01*
X117545972Y-114597771D02*
X117545972Y-113997771D01*
X117174543Y-114597771D02*
X117174543Y-113997771D01*
X117174543Y-113997771D02*
X116945972Y-113997771D01*
X116945972Y-113997771D02*
X116888829Y-114026342D01*
X116888829Y-114026342D02*
X116860258Y-114054914D01*
X116860258Y-114054914D02*
X116831686Y-114112057D01*
X116831686Y-114112057D02*
X116831686Y-114197771D01*
X116831686Y-114197771D02*
X116860258Y-114254914D01*
X116860258Y-114254914D02*
X116888829Y-114283485D01*
X116888829Y-114283485D02*
X116945972Y-114312057D01*
X116945972Y-114312057D02*
X117174543Y-114312057D01*
X116603115Y-114569200D02*
X116517401Y-114597771D01*
X116517401Y-114597771D02*
X116374543Y-114597771D01*
X116374543Y-114597771D02*
X116317401Y-114569200D01*
X116317401Y-114569200D02*
X116288829Y-114540628D01*
X116288829Y-114540628D02*
X116260258Y-114483485D01*
X116260258Y-114483485D02*
X116260258Y-114426342D01*
X116260258Y-114426342D02*
X116288829Y-114369200D01*
X116288829Y-114369200D02*
X116317401Y-114340628D01*
X116317401Y-114340628D02*
X116374543Y-114312057D01*
X116374543Y-114312057D02*
X116488829Y-114283485D01*
X116488829Y-114283485D02*
X116545972Y-114254914D01*
X116545972Y-114254914D02*
X116574543Y-114226342D01*
X116574543Y-114226342D02*
X116603115Y-114169200D01*
X116603115Y-114169200D02*
X116603115Y-114112057D01*
X116603115Y-114112057D02*
X116574543Y-114054914D01*
X116574543Y-114054914D02*
X116545972Y-114026342D01*
X116545972Y-114026342D02*
X116488829Y-113997771D01*
X116488829Y-113997771D02*
X116345972Y-113997771D01*
X116345972Y-113997771D02*
X116260258Y-114026342D01*
X116060257Y-113997771D02*
X115660257Y-113997771D01*
X115660257Y-113997771D02*
X115917400Y-114597771D01*
X115460257Y-114426342D02*
X115174543Y-114426342D01*
X115517400Y-114597771D02*
X115317400Y-113997771D01*
X115317400Y-113997771D02*
X115117400Y-114597771D01*
X114803114Y-113997771D02*
X114745971Y-113997771D01*
X114745971Y-113997771D02*
X114688828Y-114026342D01*
X114688828Y-114026342D02*
X114660257Y-114054914D01*
X114660257Y-114054914D02*
X114631685Y-114112057D01*
X114631685Y-114112057D02*
X114603114Y-114226342D01*
X114603114Y-114226342D02*
X114603114Y-114369200D01*
X114603114Y-114369200D02*
X114631685Y-114483485D01*
X114631685Y-114483485D02*
X114660257Y-114540628D01*
X114660257Y-114540628D02*
X114688828Y-114569200D01*
X114688828Y-114569200D02*
X114745971Y-114597771D01*
X114745971Y-114597771D02*
X114803114Y-114597771D01*
X114803114Y-114597771D02*
X114860257Y-114569200D01*
X114860257Y-114569200D02*
X114888828Y-114540628D01*
X114888828Y-114540628D02*
X114917399Y-114483485D01*
X114917399Y-114483485D02*
X114945971Y-114369200D01*
X114945971Y-114369200D02*
X114945971Y-114226342D01*
X114945971Y-114226342D02*
X114917399Y-114112057D01*
X114917399Y-114112057D02*
X114888828Y-114054914D01*
X114888828Y-114054914D02*
X114860257Y-114026342D01*
X114860257Y-114026342D02*
X114803114Y-113997771D01*
X114403113Y-113997771D02*
X114031685Y-113997771D01*
X114031685Y-113997771D02*
X114231685Y-114226342D01*
X114231685Y-114226342D02*
X114145970Y-114226342D01*
X114145970Y-114226342D02*
X114088828Y-114254914D01*
X114088828Y-114254914D02*
X114060256Y-114283485D01*
X114060256Y-114283485D02*
X114031685Y-114340628D01*
X114031685Y-114340628D02*
X114031685Y-114483485D01*
X114031685Y-114483485D02*
X114060256Y-114540628D01*
X114060256Y-114540628D02*
X114088828Y-114569200D01*
X114088828Y-114569200D02*
X114145970Y-114597771D01*
X114145970Y-114597771D02*
X114317399Y-114597771D01*
X114317399Y-114597771D02*
X114374542Y-114569200D01*
X114374542Y-114569200D02*
X114403113Y-114540628D01*
X113803113Y-114054914D02*
X113774541Y-114026342D01*
X113774541Y-114026342D02*
X113717399Y-113997771D01*
X113717399Y-113997771D02*
X113574541Y-113997771D01*
X113574541Y-113997771D02*
X113517399Y-114026342D01*
X113517399Y-114026342D02*
X113488827Y-114054914D01*
X113488827Y-114054914D02*
X113460256Y-114112057D01*
X113460256Y-114112057D02*
X113460256Y-114169200D01*
X113460256Y-114169200D02*
X113488827Y-114254914D01*
X113488827Y-114254914D02*
X113831684Y-114597771D01*
X113831684Y-114597771D02*
X113460256Y-114597771D01*
X113117398Y-114254914D02*
X113174541Y-114226342D01*
X113174541Y-114226342D02*
X113203112Y-114197771D01*
X113203112Y-114197771D02*
X113231684Y-114140628D01*
X113231684Y-114140628D02*
X113231684Y-114112057D01*
X113231684Y-114112057D02*
X113203112Y-114054914D01*
X113203112Y-114054914D02*
X113174541Y-114026342D01*
X113174541Y-114026342D02*
X113117398Y-113997771D01*
X113117398Y-113997771D02*
X113003112Y-113997771D01*
X113003112Y-113997771D02*
X112945970Y-114026342D01*
X112945970Y-114026342D02*
X112917398Y-114054914D01*
X112917398Y-114054914D02*
X112888827Y-114112057D01*
X112888827Y-114112057D02*
X112888827Y-114140628D01*
X112888827Y-114140628D02*
X112917398Y-114197771D01*
X112917398Y-114197771D02*
X112945970Y-114226342D01*
X112945970Y-114226342D02*
X113003112Y-114254914D01*
X113003112Y-114254914D02*
X113117398Y-114254914D01*
X113117398Y-114254914D02*
X113174541Y-114283485D01*
X113174541Y-114283485D02*
X113203112Y-114312057D01*
X113203112Y-114312057D02*
X113231684Y-114369200D01*
X113231684Y-114369200D02*
X113231684Y-114483485D01*
X113231684Y-114483485D02*
X113203112Y-114540628D01*
X113203112Y-114540628D02*
X113174541Y-114569200D01*
X113174541Y-114569200D02*
X113117398Y-114597771D01*
X113117398Y-114597771D02*
X113003112Y-114597771D01*
X113003112Y-114597771D02*
X112945970Y-114569200D01*
X112945970Y-114569200D02*
X112917398Y-114540628D01*
X112917398Y-114540628D02*
X112888827Y-114483485D01*
X112888827Y-114483485D02*
X112888827Y-114369200D01*
X112888827Y-114369200D02*
X112917398Y-114312057D01*
X112917398Y-114312057D02*
X112945970Y-114283485D01*
X112945970Y-114283485D02*
X113003112Y-114254914D01*
X112631683Y-114597771D02*
X112631683Y-113997771D01*
X112631683Y-113997771D02*
X112403112Y-113997771D01*
X112403112Y-113997771D02*
X112345969Y-114026342D01*
X112345969Y-114026342D02*
X112317398Y-114054914D01*
X112317398Y-114054914D02*
X112288826Y-114112057D01*
X112288826Y-114112057D02*
X112288826Y-114197771D01*
X112288826Y-114197771D02*
X112317398Y-114254914D01*
X112317398Y-114254914D02*
X112345969Y-114283485D01*
X112345969Y-114283485D02*
X112403112Y-114312057D01*
X112403112Y-114312057D02*
X112631683Y-114312057D01*
X112031683Y-114597771D02*
X112031683Y-113997771D01*
X112031683Y-113997771D02*
X111888826Y-113997771D01*
X111888826Y-113997771D02*
X111803112Y-114026342D01*
X111803112Y-114026342D02*
X111745969Y-114083485D01*
X111745969Y-114083485D02*
X111717398Y-114140628D01*
X111717398Y-114140628D02*
X111688826Y-114254914D01*
X111688826Y-114254914D02*
X111688826Y-114340628D01*
X111688826Y-114340628D02*
X111717398Y-114454914D01*
X111717398Y-114454914D02*
X111745969Y-114512057D01*
X111745969Y-114512057D02*
X111803112Y-114569200D01*
X111803112Y-114569200D02*
X111888826Y-114597771D01*
X111888826Y-114597771D02*
X112031683Y-114597771D01*
X111231683Y-114283485D02*
X111145969Y-114312057D01*
X111145969Y-114312057D02*
X111117398Y-114340628D01*
X111117398Y-114340628D02*
X111088826Y-114397771D01*
X111088826Y-114397771D02*
X111088826Y-114483485D01*
X111088826Y-114483485D02*
X111117398Y-114540628D01*
X111117398Y-114540628D02*
X111145969Y-114569200D01*
X111145969Y-114569200D02*
X111203112Y-114597771D01*
X111203112Y-114597771D02*
X111431683Y-114597771D01*
X111431683Y-114597771D02*
X111431683Y-113997771D01*
X111431683Y-113997771D02*
X111231683Y-113997771D01*
X111231683Y-113997771D02*
X111174541Y-114026342D01*
X111174541Y-114026342D02*
X111145969Y-114054914D01*
X111145969Y-114054914D02*
X111117398Y-114112057D01*
X111117398Y-114112057D02*
X111117398Y-114169200D01*
X111117398Y-114169200D02*
X111145969Y-114226342D01*
X111145969Y-114226342D02*
X111174541Y-114254914D01*
X111174541Y-114254914D02*
X111231683Y-114283485D01*
X111231683Y-114283485D02*
X111431683Y-114283485D01*
X110917398Y-113997771D02*
X110717398Y-114597771D01*
X110717398Y-114597771D02*
X110517398Y-113997771D01*
X109974540Y-114597771D02*
X110174540Y-114312057D01*
X110317397Y-114597771D02*
X110317397Y-113997771D01*
X110317397Y-113997771D02*
X110088826Y-113997771D01*
X110088826Y-113997771D02*
X110031683Y-114026342D01*
X110031683Y-114026342D02*
X110003112Y-114054914D01*
X110003112Y-114054914D02*
X109974540Y-114112057D01*
X109974540Y-114112057D02*
X109974540Y-114197771D01*
X109974540Y-114197771D02*
X110003112Y-114254914D01*
X110003112Y-114254914D02*
X110031683Y-114283485D01*
X110031683Y-114283485D02*
X110088826Y-114312057D01*
X110088826Y-114312057D02*
X110317397Y-114312057D01*
X125245799Y-112991228D02*
X125274371Y-113019800D01*
X125274371Y-113019800D02*
X125360085Y-113048371D01*
X125360085Y-113048371D02*
X125417228Y-113048371D01*
X125417228Y-113048371D02*
X125502942Y-113019800D01*
X125502942Y-113019800D02*
X125560085Y-112962657D01*
X125560085Y-112962657D02*
X125588656Y-112905514D01*
X125588656Y-112905514D02*
X125617228Y-112791228D01*
X125617228Y-112791228D02*
X125617228Y-112705514D01*
X125617228Y-112705514D02*
X125588656Y-112591228D01*
X125588656Y-112591228D02*
X125560085Y-112534085D01*
X125560085Y-112534085D02*
X125502942Y-112476942D01*
X125502942Y-112476942D02*
X125417228Y-112448371D01*
X125417228Y-112448371D02*
X125360085Y-112448371D01*
X125360085Y-112448371D02*
X125274371Y-112476942D01*
X125274371Y-112476942D02*
X125245799Y-112505514D01*
X124674371Y-113048371D02*
X125017228Y-113048371D01*
X124845799Y-113048371D02*
X124845799Y-112448371D01*
X124845799Y-112448371D02*
X124902942Y-112534085D01*
X124902942Y-112534085D02*
X124960085Y-112591228D01*
X124960085Y-112591228D02*
X125017228Y-112619800D01*
X125585428Y-111692714D02*
X125556856Y-111664142D01*
X125556856Y-111664142D02*
X125499714Y-111635571D01*
X125499714Y-111635571D02*
X125356856Y-111635571D01*
X125356856Y-111635571D02*
X125299714Y-111664142D01*
X125299714Y-111664142D02*
X125271142Y-111692714D01*
X125271142Y-111692714D02*
X125242571Y-111749857D01*
X125242571Y-111749857D02*
X125242571Y-111807000D01*
X125242571Y-111807000D02*
X125271142Y-111892714D01*
X125271142Y-111892714D02*
X125613999Y-112235571D01*
X125613999Y-112235571D02*
X125242571Y-112235571D01*
X124985427Y-112178428D02*
X124956856Y-112207000D01*
X124956856Y-112207000D02*
X124985427Y-112235571D01*
X124985427Y-112235571D02*
X125013999Y-112207000D01*
X125013999Y-112207000D02*
X124985427Y-112178428D01*
X124985427Y-112178428D02*
X124985427Y-112235571D01*
X124728285Y-111692714D02*
X124699713Y-111664142D01*
X124699713Y-111664142D02*
X124642571Y-111635571D01*
X124642571Y-111635571D02*
X124499713Y-111635571D01*
X124499713Y-111635571D02*
X124442571Y-111664142D01*
X124442571Y-111664142D02*
X124413999Y-111692714D01*
X124413999Y-111692714D02*
X124385428Y-111749857D01*
X124385428Y-111749857D02*
X124385428Y-111807000D01*
X124385428Y-111807000D02*
X124413999Y-111892714D01*
X124413999Y-111892714D02*
X124756856Y-112235571D01*
X124756856Y-112235571D02*
X124385428Y-112235571D01*
X123871142Y-111835571D02*
X123871142Y-112235571D01*
X124128284Y-111835571D02*
X124128284Y-112149857D01*
X124128284Y-112149857D02*
X124099713Y-112207000D01*
X124099713Y-112207000D02*
X124042570Y-112235571D01*
X124042570Y-112235571D02*
X123956856Y-112235571D01*
X123956856Y-112235571D02*
X123899713Y-112207000D01*
X123899713Y-112207000D02*
X123871142Y-112178428D01*
X189696085Y-92256000D02*
X189696085Y-92056000D01*
X190010371Y-92056000D02*
X189410371Y-92056000D01*
X189410371Y-92056000D02*
X189410371Y-92341714D01*
X190010371Y-92884571D02*
X190010371Y-92541714D01*
X190010371Y-92713143D02*
X189410371Y-92713143D01*
X189410371Y-92713143D02*
X189496085Y-92656000D01*
X189496085Y-92656000D02*
X189553228Y-92598857D01*
X189553228Y-92598857D02*
X189581800Y-92541714D01*
X189613571Y-102301884D02*
X189613571Y-102644742D01*
X190213571Y-102473313D02*
X189613571Y-102473313D01*
X189670714Y-102816170D02*
X189642142Y-102844742D01*
X189642142Y-102844742D02*
X189613571Y-102901885D01*
X189613571Y-102901885D02*
X189613571Y-103044742D01*
X189613571Y-103044742D02*
X189642142Y-103101885D01*
X189642142Y-103101885D02*
X189670714Y-103130456D01*
X189670714Y-103130456D02*
X189727857Y-103159027D01*
X189727857Y-103159027D02*
X189785000Y-103159027D01*
X189785000Y-103159027D02*
X189870714Y-103130456D01*
X189870714Y-103130456D02*
X190213571Y-102787599D01*
X190213571Y-102787599D02*
X190213571Y-103159027D01*
X189613571Y-103701885D02*
X189613571Y-103416171D01*
X189613571Y-103416171D02*
X189899285Y-103387599D01*
X189899285Y-103387599D02*
X189870714Y-103416171D01*
X189870714Y-103416171D02*
X189842142Y-103473314D01*
X189842142Y-103473314D02*
X189842142Y-103616171D01*
X189842142Y-103616171D02*
X189870714Y-103673314D01*
X189870714Y-103673314D02*
X189899285Y-103701885D01*
X189899285Y-103701885D02*
X189956428Y-103730456D01*
X189956428Y-103730456D02*
X190099285Y-103730456D01*
X190099285Y-103730456D02*
X190156428Y-103701885D01*
X190156428Y-103701885D02*
X190185000Y-103673314D01*
X190185000Y-103673314D02*
X190213571Y-103616171D01*
X190213571Y-103616171D02*
X190213571Y-103473314D01*
X190213571Y-103473314D02*
X190185000Y-103416171D01*
X190185000Y-103416171D02*
X190156428Y-103387599D01*
X189613571Y-104101885D02*
X189613571Y-104159028D01*
X189613571Y-104159028D02*
X189642142Y-104216171D01*
X189642142Y-104216171D02*
X189670714Y-104244743D01*
X189670714Y-104244743D02*
X189727857Y-104273314D01*
X189727857Y-104273314D02*
X189842142Y-104301885D01*
X189842142Y-104301885D02*
X189985000Y-104301885D01*
X189985000Y-104301885D02*
X190099285Y-104273314D01*
X190099285Y-104273314D02*
X190156428Y-104244743D01*
X190156428Y-104244743D02*
X190185000Y-104216171D01*
X190185000Y-104216171D02*
X190213571Y-104159028D01*
X190213571Y-104159028D02*
X190213571Y-104101885D01*
X190213571Y-104101885D02*
X190185000Y-104044743D01*
X190185000Y-104044743D02*
X190156428Y-104016171D01*
X190156428Y-104016171D02*
X190099285Y-103987600D01*
X190099285Y-103987600D02*
X189985000Y-103959028D01*
X189985000Y-103959028D02*
X189842142Y-103959028D01*
X189842142Y-103959028D02*
X189727857Y-103987600D01*
X189727857Y-103987600D02*
X189670714Y-104016171D01*
X189670714Y-104016171D02*
X189642142Y-104044743D01*
X189642142Y-104044743D02*
X189613571Y-104101885D01*
X190213571Y-104559029D02*
X189813571Y-104559029D01*
X189870714Y-104559029D02*
X189842142Y-104587600D01*
X189842142Y-104587600D02*
X189813571Y-104644743D01*
X189813571Y-104644743D02*
X189813571Y-104730457D01*
X189813571Y-104730457D02*
X189842142Y-104787600D01*
X189842142Y-104787600D02*
X189899285Y-104816172D01*
X189899285Y-104816172D02*
X190213571Y-104816172D01*
X189899285Y-104816172D02*
X189842142Y-104844743D01*
X189842142Y-104844743D02*
X189813571Y-104901886D01*
X189813571Y-104901886D02*
X189813571Y-104987600D01*
X189813571Y-104987600D02*
X189842142Y-105044743D01*
X189842142Y-105044743D02*
X189899285Y-105073314D01*
X189899285Y-105073314D02*
X190213571Y-105073314D01*
X190042142Y-105330457D02*
X190042142Y-105616172D01*
X190213571Y-105273314D02*
X189613571Y-105473314D01*
X189613571Y-105473314D02*
X190213571Y-105673314D01*
X139069714Y-110959228D02*
X139098286Y-110987800D01*
X139098286Y-110987800D02*
X139184000Y-111016371D01*
X139184000Y-111016371D02*
X139241143Y-111016371D01*
X139241143Y-111016371D02*
X139326857Y-110987800D01*
X139326857Y-110987800D02*
X139384000Y-110930657D01*
X139384000Y-110930657D02*
X139412571Y-110873514D01*
X139412571Y-110873514D02*
X139441143Y-110759228D01*
X139441143Y-110759228D02*
X139441143Y-110673514D01*
X139441143Y-110673514D02*
X139412571Y-110559228D01*
X139412571Y-110559228D02*
X139384000Y-110502085D01*
X139384000Y-110502085D02*
X139326857Y-110444942D01*
X139326857Y-110444942D02*
X139241143Y-110416371D01*
X139241143Y-110416371D02*
X139184000Y-110416371D01*
X139184000Y-110416371D02*
X139098286Y-110444942D01*
X139098286Y-110444942D02*
X139069714Y-110473514D01*
X138498286Y-111016371D02*
X138841143Y-111016371D01*
X138669714Y-111016371D02*
X138669714Y-110416371D01*
X138669714Y-110416371D02*
X138726857Y-110502085D01*
X138726857Y-110502085D02*
X138784000Y-110559228D01*
X138784000Y-110559228D02*
X138841143Y-110587800D01*
X137955428Y-110416371D02*
X138241142Y-110416371D01*
X138241142Y-110416371D02*
X138269714Y-110702085D01*
X138269714Y-110702085D02*
X138241142Y-110673514D01*
X138241142Y-110673514D02*
X138184000Y-110644942D01*
X138184000Y-110644942D02*
X138041142Y-110644942D01*
X138041142Y-110644942D02*
X137984000Y-110673514D01*
X137984000Y-110673514D02*
X137955428Y-110702085D01*
X137955428Y-110702085D02*
X137926857Y-110759228D01*
X137926857Y-110759228D02*
X137926857Y-110902085D01*
X137926857Y-110902085D02*
X137955428Y-110959228D01*
X137955428Y-110959228D02*
X137984000Y-110987800D01*
X137984000Y-110987800D02*
X138041142Y-111016371D01*
X138041142Y-111016371D02*
X138184000Y-111016371D01*
X138184000Y-111016371D02*
X138241142Y-110987800D01*
X138241142Y-110987800D02*
X138269714Y-110959228D01*
X138079114Y-105555371D02*
X138421971Y-105555371D01*
X138250542Y-105555371D02*
X138250542Y-104955371D01*
X138250542Y-104955371D02*
X138307685Y-105041085D01*
X138307685Y-105041085D02*
X138364828Y-105098228D01*
X138364828Y-105098228D02*
X138421971Y-105126800D01*
X137707685Y-104955371D02*
X137650542Y-104955371D01*
X137650542Y-104955371D02*
X137593399Y-104983942D01*
X137593399Y-104983942D02*
X137564828Y-105012514D01*
X137564828Y-105012514D02*
X137536256Y-105069657D01*
X137536256Y-105069657D02*
X137507685Y-105183942D01*
X137507685Y-105183942D02*
X137507685Y-105326800D01*
X137507685Y-105326800D02*
X137536256Y-105441085D01*
X137536256Y-105441085D02*
X137564828Y-105498228D01*
X137564828Y-105498228D02*
X137593399Y-105526800D01*
X137593399Y-105526800D02*
X137650542Y-105555371D01*
X137650542Y-105555371D02*
X137707685Y-105555371D01*
X137707685Y-105555371D02*
X137764828Y-105526800D01*
X137764828Y-105526800D02*
X137793399Y-105498228D01*
X137793399Y-105498228D02*
X137821970Y-105441085D01*
X137821970Y-105441085D02*
X137850542Y-105326800D01*
X137850542Y-105326800D02*
X137850542Y-105183942D01*
X137850542Y-105183942D02*
X137821970Y-105069657D01*
X137821970Y-105069657D02*
X137793399Y-105012514D01*
X137793399Y-105012514D02*
X137764828Y-104983942D01*
X137764828Y-104983942D02*
X137707685Y-104955371D01*
X136993399Y-105155371D02*
X136993399Y-105555371D01*
X137250541Y-105155371D02*
X137250541Y-105469657D01*
X137250541Y-105469657D02*
X137221970Y-105526800D01*
X137221970Y-105526800D02*
X137164827Y-105555371D01*
X137164827Y-105555371D02*
X137079113Y-105555371D01*
X137079113Y-105555371D02*
X137021970Y-105526800D01*
X137021970Y-105526800D02*
X136993399Y-105498228D01*
X154022399Y-105774485D02*
X154222399Y-105774485D01*
X154222399Y-106088771D02*
X154222399Y-105488771D01*
X154222399Y-105488771D02*
X153936685Y-105488771D01*
X153736685Y-105545914D02*
X153708113Y-105517342D01*
X153708113Y-105517342D02*
X153650971Y-105488771D01*
X153650971Y-105488771D02*
X153508113Y-105488771D01*
X153508113Y-105488771D02*
X153450971Y-105517342D01*
X153450971Y-105517342D02*
X153422399Y-105545914D01*
X153422399Y-105545914D02*
X153393828Y-105603057D01*
X153393828Y-105603057D02*
X153393828Y-105660200D01*
X153393828Y-105660200D02*
X153422399Y-105745914D01*
X153422399Y-105745914D02*
X153765256Y-106088771D01*
X153765256Y-106088771D02*
X153393828Y-106088771D01*
X155982714Y-106952371D02*
X155982714Y-106352371D01*
X155982714Y-106352371D02*
X155754143Y-106352371D01*
X155754143Y-106352371D02*
X155697000Y-106380942D01*
X155697000Y-106380942D02*
X155668429Y-106409514D01*
X155668429Y-106409514D02*
X155639857Y-106466657D01*
X155639857Y-106466657D02*
X155639857Y-106552371D01*
X155639857Y-106552371D02*
X155668429Y-106609514D01*
X155668429Y-106609514D02*
X155697000Y-106638085D01*
X155697000Y-106638085D02*
X155754143Y-106666657D01*
X155754143Y-106666657D02*
X155982714Y-106666657D01*
X155382714Y-106952371D02*
X155382714Y-106352371D01*
X155382714Y-106352371D02*
X155154143Y-106352371D01*
X155154143Y-106352371D02*
X155097000Y-106380942D01*
X155097000Y-106380942D02*
X155068429Y-106409514D01*
X155068429Y-106409514D02*
X155039857Y-106466657D01*
X155039857Y-106466657D02*
X155039857Y-106552371D01*
X155039857Y-106552371D02*
X155068429Y-106609514D01*
X155068429Y-106609514D02*
X155097000Y-106638085D01*
X155097000Y-106638085D02*
X155154143Y-106666657D01*
X155154143Y-106666657D02*
X155382714Y-106666657D01*
X154868429Y-106352371D02*
X154525572Y-106352371D01*
X154697000Y-106952371D02*
X154697000Y-106352371D01*
X153982714Y-106895228D02*
X154011286Y-106923800D01*
X154011286Y-106923800D02*
X154097000Y-106952371D01*
X154097000Y-106952371D02*
X154154143Y-106952371D01*
X154154143Y-106952371D02*
X154239857Y-106923800D01*
X154239857Y-106923800D02*
X154297000Y-106866657D01*
X154297000Y-106866657D02*
X154325571Y-106809514D01*
X154325571Y-106809514D02*
X154354143Y-106695228D01*
X154354143Y-106695228D02*
X154354143Y-106609514D01*
X154354143Y-106609514D02*
X154325571Y-106495228D01*
X154325571Y-106495228D02*
X154297000Y-106438085D01*
X154297000Y-106438085D02*
X154239857Y-106380942D01*
X154239857Y-106380942D02*
X154154143Y-106352371D01*
X154154143Y-106352371D02*
X154097000Y-106352371D01*
X154097000Y-106352371D02*
X154011286Y-106380942D01*
X154011286Y-106380942D02*
X153982714Y-106409514D01*
X152954143Y-106952371D02*
X153297000Y-106952371D01*
X153125571Y-106952371D02*
X153125571Y-106352371D01*
X153125571Y-106352371D02*
X153182714Y-106438085D01*
X153182714Y-106438085D02*
X153239857Y-106495228D01*
X153239857Y-106495228D02*
X153297000Y-106523800D01*
X152696999Y-106895228D02*
X152668428Y-106923800D01*
X152668428Y-106923800D02*
X152696999Y-106952371D01*
X152696999Y-106952371D02*
X152725571Y-106923800D01*
X152725571Y-106923800D02*
X152696999Y-106895228D01*
X152696999Y-106895228D02*
X152696999Y-106952371D01*
X152097000Y-106952371D02*
X152439857Y-106952371D01*
X152268428Y-106952371D02*
X152268428Y-106352371D01*
X152268428Y-106352371D02*
X152325571Y-106438085D01*
X152325571Y-106438085D02*
X152382714Y-106495228D01*
X152382714Y-106495228D02*
X152439857Y-106523800D01*
X151868428Y-106780942D02*
X151582714Y-106780942D01*
X151925571Y-106952371D02*
X151725571Y-106352371D01*
X151725571Y-106352371D02*
X151525571Y-106952371D01*
X112425114Y-72935428D02*
X112453686Y-72964000D01*
X112453686Y-72964000D02*
X112539400Y-72992571D01*
X112539400Y-72992571D02*
X112596543Y-72992571D01*
X112596543Y-72992571D02*
X112682257Y-72964000D01*
X112682257Y-72964000D02*
X112739400Y-72906857D01*
X112739400Y-72906857D02*
X112767971Y-72849714D01*
X112767971Y-72849714D02*
X112796543Y-72735428D01*
X112796543Y-72735428D02*
X112796543Y-72649714D01*
X112796543Y-72649714D02*
X112767971Y-72535428D01*
X112767971Y-72535428D02*
X112739400Y-72478285D01*
X112739400Y-72478285D02*
X112682257Y-72421142D01*
X112682257Y-72421142D02*
X112596543Y-72392571D01*
X112596543Y-72392571D02*
X112539400Y-72392571D01*
X112539400Y-72392571D02*
X112453686Y-72421142D01*
X112453686Y-72421142D02*
X112425114Y-72449714D01*
X111853686Y-72992571D02*
X112196543Y-72992571D01*
X112025114Y-72992571D02*
X112025114Y-72392571D01*
X112025114Y-72392571D02*
X112082257Y-72478285D01*
X112082257Y-72478285D02*
X112139400Y-72535428D01*
X112139400Y-72535428D02*
X112196543Y-72564000D01*
X111625114Y-72449714D02*
X111596542Y-72421142D01*
X111596542Y-72421142D02*
X111539400Y-72392571D01*
X111539400Y-72392571D02*
X111396542Y-72392571D01*
X111396542Y-72392571D02*
X111339400Y-72421142D01*
X111339400Y-72421142D02*
X111310828Y-72449714D01*
X111310828Y-72449714D02*
X111282257Y-72506857D01*
X111282257Y-72506857D02*
X111282257Y-72564000D01*
X111282257Y-72564000D02*
X111310828Y-72649714D01*
X111310828Y-72649714D02*
X111653685Y-72992571D01*
X111653685Y-72992571D02*
X111282257Y-72992571D01*
X112894971Y-73592714D02*
X112866399Y-73564142D01*
X112866399Y-73564142D02*
X112809257Y-73535571D01*
X112809257Y-73535571D02*
X112666399Y-73535571D01*
X112666399Y-73535571D02*
X112609257Y-73564142D01*
X112609257Y-73564142D02*
X112580685Y-73592714D01*
X112580685Y-73592714D02*
X112552114Y-73649857D01*
X112552114Y-73649857D02*
X112552114Y-73707000D01*
X112552114Y-73707000D02*
X112580685Y-73792714D01*
X112580685Y-73792714D02*
X112923542Y-74135571D01*
X112923542Y-74135571D02*
X112552114Y-74135571D01*
X112323542Y-73592714D02*
X112294970Y-73564142D01*
X112294970Y-73564142D02*
X112237828Y-73535571D01*
X112237828Y-73535571D02*
X112094970Y-73535571D01*
X112094970Y-73535571D02*
X112037828Y-73564142D01*
X112037828Y-73564142D02*
X112009256Y-73592714D01*
X112009256Y-73592714D02*
X111980685Y-73649857D01*
X111980685Y-73649857D02*
X111980685Y-73707000D01*
X111980685Y-73707000D02*
X112009256Y-73792714D01*
X112009256Y-73792714D02*
X112352113Y-74135571D01*
X112352113Y-74135571D02*
X111980685Y-74135571D01*
X111466399Y-73735571D02*
X111466399Y-74135571D01*
X111723541Y-73735571D02*
X111723541Y-74049857D01*
X111723541Y-74049857D02*
X111694970Y-74107000D01*
X111694970Y-74107000D02*
X111637827Y-74135571D01*
X111637827Y-74135571D02*
X111552113Y-74135571D01*
X111552113Y-74135571D02*
X111494970Y-74107000D01*
X111494970Y-74107000D02*
X111466399Y-74078428D01*
X128649399Y-74789628D02*
X128677971Y-74818200D01*
X128677971Y-74818200D02*
X128763685Y-74846771D01*
X128763685Y-74846771D02*
X128820828Y-74846771D01*
X128820828Y-74846771D02*
X128906542Y-74818200D01*
X128906542Y-74818200D02*
X128963685Y-74761057D01*
X128963685Y-74761057D02*
X128992256Y-74703914D01*
X128992256Y-74703914D02*
X129020828Y-74589628D01*
X129020828Y-74589628D02*
X129020828Y-74503914D01*
X129020828Y-74503914D02*
X128992256Y-74389628D01*
X128992256Y-74389628D02*
X128963685Y-74332485D01*
X128963685Y-74332485D02*
X128906542Y-74275342D01*
X128906542Y-74275342D02*
X128820828Y-74246771D01*
X128820828Y-74246771D02*
X128763685Y-74246771D01*
X128763685Y-74246771D02*
X128677971Y-74275342D01*
X128677971Y-74275342D02*
X128649399Y-74303914D01*
X128135114Y-74446771D02*
X128135114Y-74846771D01*
X128277971Y-74218200D02*
X128420828Y-74646771D01*
X128420828Y-74646771D02*
X128049399Y-74646771D01*
X126420514Y-73475171D02*
X126763371Y-73475171D01*
X126591942Y-73475171D02*
X126591942Y-72875171D01*
X126591942Y-72875171D02*
X126649085Y-72960885D01*
X126649085Y-72960885D02*
X126706228Y-73018028D01*
X126706228Y-73018028D02*
X126763371Y-73046600D01*
X126049085Y-72875171D02*
X125991942Y-72875171D01*
X125991942Y-72875171D02*
X125934799Y-72903742D01*
X125934799Y-72903742D02*
X125906228Y-72932314D01*
X125906228Y-72932314D02*
X125877656Y-72989457D01*
X125877656Y-72989457D02*
X125849085Y-73103742D01*
X125849085Y-73103742D02*
X125849085Y-73246600D01*
X125849085Y-73246600D02*
X125877656Y-73360885D01*
X125877656Y-73360885D02*
X125906228Y-73418028D01*
X125906228Y-73418028D02*
X125934799Y-73446600D01*
X125934799Y-73446600D02*
X125991942Y-73475171D01*
X125991942Y-73475171D02*
X126049085Y-73475171D01*
X126049085Y-73475171D02*
X126106228Y-73446600D01*
X126106228Y-73446600D02*
X126134799Y-73418028D01*
X126134799Y-73418028D02*
X126163370Y-73360885D01*
X126163370Y-73360885D02*
X126191942Y-73246600D01*
X126191942Y-73246600D02*
X126191942Y-73103742D01*
X126191942Y-73103742D02*
X126163370Y-72989457D01*
X126163370Y-72989457D02*
X126134799Y-72932314D01*
X126134799Y-72932314D02*
X126106228Y-72903742D01*
X126106228Y-72903742D02*
X126049085Y-72875171D01*
X125591941Y-73075171D02*
X125591941Y-73475171D01*
X125591941Y-73132314D02*
X125563370Y-73103742D01*
X125563370Y-73103742D02*
X125506227Y-73075171D01*
X125506227Y-73075171D02*
X125420513Y-73075171D01*
X125420513Y-73075171D02*
X125363370Y-73103742D01*
X125363370Y-73103742D02*
X125334799Y-73160885D01*
X125334799Y-73160885D02*
X125334799Y-73475171D01*
X120521399Y-106946028D02*
X120549971Y-106974600D01*
X120549971Y-106974600D02*
X120635685Y-107003171D01*
X120635685Y-107003171D02*
X120692828Y-107003171D01*
X120692828Y-107003171D02*
X120778542Y-106974600D01*
X120778542Y-106974600D02*
X120835685Y-106917457D01*
X120835685Y-106917457D02*
X120864256Y-106860314D01*
X120864256Y-106860314D02*
X120892828Y-106746028D01*
X120892828Y-106746028D02*
X120892828Y-106660314D01*
X120892828Y-106660314D02*
X120864256Y-106546028D01*
X120864256Y-106546028D02*
X120835685Y-106488885D01*
X120835685Y-106488885D02*
X120778542Y-106431742D01*
X120778542Y-106431742D02*
X120692828Y-106403171D01*
X120692828Y-106403171D02*
X120635685Y-106403171D01*
X120635685Y-106403171D02*
X120549971Y-106431742D01*
X120549971Y-106431742D02*
X120521399Y-106460314D01*
X120235685Y-107003171D02*
X120121399Y-107003171D01*
X120121399Y-107003171D02*
X120064256Y-106974600D01*
X120064256Y-106974600D02*
X120035685Y-106946028D01*
X120035685Y-106946028D02*
X119978542Y-106860314D01*
X119978542Y-106860314D02*
X119949971Y-106746028D01*
X119949971Y-106746028D02*
X119949971Y-106517457D01*
X119949971Y-106517457D02*
X119978542Y-106460314D01*
X119978542Y-106460314D02*
X120007114Y-106431742D01*
X120007114Y-106431742D02*
X120064256Y-106403171D01*
X120064256Y-106403171D02*
X120178542Y-106403171D01*
X120178542Y-106403171D02*
X120235685Y-106431742D01*
X120235685Y-106431742D02*
X120264256Y-106460314D01*
X120264256Y-106460314D02*
X120292828Y-106517457D01*
X120292828Y-106517457D02*
X120292828Y-106660314D01*
X120292828Y-106660314D02*
X120264256Y-106717457D01*
X120264256Y-106717457D02*
X120235685Y-106746028D01*
X120235685Y-106746028D02*
X120178542Y-106774600D01*
X120178542Y-106774600D02*
X120064256Y-106774600D01*
X120064256Y-106774600D02*
X120007114Y-106746028D01*
X120007114Y-106746028D02*
X119978542Y-106717457D01*
X119978542Y-106717457D02*
X119949971Y-106660314D01*
X119467229Y-106190371D02*
X119810086Y-106190371D01*
X119638657Y-106190371D02*
X119638657Y-105590371D01*
X119638657Y-105590371D02*
X119695800Y-105676085D01*
X119695800Y-105676085D02*
X119752943Y-105733228D01*
X119752943Y-105733228D02*
X119810086Y-105761800D01*
X119095800Y-105590371D02*
X119038657Y-105590371D01*
X119038657Y-105590371D02*
X118981514Y-105618942D01*
X118981514Y-105618942D02*
X118952943Y-105647514D01*
X118952943Y-105647514D02*
X118924371Y-105704657D01*
X118924371Y-105704657D02*
X118895800Y-105818942D01*
X118895800Y-105818942D02*
X118895800Y-105961800D01*
X118895800Y-105961800D02*
X118924371Y-106076085D01*
X118924371Y-106076085D02*
X118952943Y-106133228D01*
X118952943Y-106133228D02*
X118981514Y-106161800D01*
X118981514Y-106161800D02*
X119038657Y-106190371D01*
X119038657Y-106190371D02*
X119095800Y-106190371D01*
X119095800Y-106190371D02*
X119152943Y-106161800D01*
X119152943Y-106161800D02*
X119181514Y-106133228D01*
X119181514Y-106133228D02*
X119210085Y-106076085D01*
X119210085Y-106076085D02*
X119238657Y-105961800D01*
X119238657Y-105961800D02*
X119238657Y-105818942D01*
X119238657Y-105818942D02*
X119210085Y-105704657D01*
X119210085Y-105704657D02*
X119181514Y-105647514D01*
X119181514Y-105647514D02*
X119152943Y-105618942D01*
X119152943Y-105618942D02*
X119095800Y-105590371D01*
X118524371Y-105590371D02*
X118467228Y-105590371D01*
X118467228Y-105590371D02*
X118410085Y-105618942D01*
X118410085Y-105618942D02*
X118381514Y-105647514D01*
X118381514Y-105647514D02*
X118352942Y-105704657D01*
X118352942Y-105704657D02*
X118324371Y-105818942D01*
X118324371Y-105818942D02*
X118324371Y-105961800D01*
X118324371Y-105961800D02*
X118352942Y-106076085D01*
X118352942Y-106076085D02*
X118381514Y-106133228D01*
X118381514Y-106133228D02*
X118410085Y-106161800D01*
X118410085Y-106161800D02*
X118467228Y-106190371D01*
X118467228Y-106190371D02*
X118524371Y-106190371D01*
X118524371Y-106190371D02*
X118581514Y-106161800D01*
X118581514Y-106161800D02*
X118610085Y-106133228D01*
X118610085Y-106133228D02*
X118638656Y-106076085D01*
X118638656Y-106076085D02*
X118667228Y-105961800D01*
X118667228Y-105961800D02*
X118667228Y-105818942D01*
X118667228Y-105818942D02*
X118638656Y-105704657D01*
X118638656Y-105704657D02*
X118610085Y-105647514D01*
X118610085Y-105647514D02*
X118581514Y-105618942D01*
X118581514Y-105618942D02*
X118524371Y-105590371D01*
X118067227Y-105790371D02*
X118067227Y-106190371D01*
X118067227Y-105847514D02*
X118038656Y-105818942D01*
X118038656Y-105818942D02*
X117981513Y-105790371D01*
X117981513Y-105790371D02*
X117895799Y-105790371D01*
X117895799Y-105790371D02*
X117838656Y-105818942D01*
X117838656Y-105818942D02*
X117810085Y-105876085D01*
X117810085Y-105876085D02*
X117810085Y-106190371D01*
X129489142Y-90096371D02*
X129489142Y-90582085D01*
X129489142Y-90582085D02*
X129460571Y-90639228D01*
X129460571Y-90639228D02*
X129432000Y-90667800D01*
X129432000Y-90667800D02*
X129374857Y-90696371D01*
X129374857Y-90696371D02*
X129260571Y-90696371D01*
X129260571Y-90696371D02*
X129203428Y-90667800D01*
X129203428Y-90667800D02*
X129174857Y-90639228D01*
X129174857Y-90639228D02*
X129146285Y-90582085D01*
X129146285Y-90582085D02*
X129146285Y-90096371D01*
X128603429Y-90296371D02*
X128603429Y-90696371D01*
X128746286Y-90067800D02*
X128889143Y-90496371D01*
X128889143Y-90496371D02*
X128517714Y-90496371D01*
X150781828Y-75345285D02*
X150581828Y-75345285D01*
X150496114Y-75659571D02*
X150781828Y-75659571D01*
X150781828Y-75659571D02*
X150781828Y-75059571D01*
X150781828Y-75059571D02*
X150496114Y-75059571D01*
X150267543Y-75631000D02*
X150181829Y-75659571D01*
X150181829Y-75659571D02*
X150038971Y-75659571D01*
X150038971Y-75659571D02*
X149981829Y-75631000D01*
X149981829Y-75631000D02*
X149953257Y-75602428D01*
X149953257Y-75602428D02*
X149924686Y-75545285D01*
X149924686Y-75545285D02*
X149924686Y-75488142D01*
X149924686Y-75488142D02*
X149953257Y-75431000D01*
X149953257Y-75431000D02*
X149981829Y-75402428D01*
X149981829Y-75402428D02*
X150038971Y-75373857D01*
X150038971Y-75373857D02*
X150153257Y-75345285D01*
X150153257Y-75345285D02*
X150210400Y-75316714D01*
X150210400Y-75316714D02*
X150238971Y-75288142D01*
X150238971Y-75288142D02*
X150267543Y-75231000D01*
X150267543Y-75231000D02*
X150267543Y-75173857D01*
X150267543Y-75173857D02*
X150238971Y-75116714D01*
X150238971Y-75116714D02*
X150210400Y-75088142D01*
X150210400Y-75088142D02*
X150153257Y-75059571D01*
X150153257Y-75059571D02*
X150010400Y-75059571D01*
X150010400Y-75059571D02*
X149924686Y-75088142D01*
X149667542Y-75659571D02*
X149667542Y-75059571D01*
X149667542Y-75059571D02*
X149438971Y-75059571D01*
X149438971Y-75059571D02*
X149381828Y-75088142D01*
X149381828Y-75088142D02*
X149353257Y-75116714D01*
X149353257Y-75116714D02*
X149324685Y-75173857D01*
X149324685Y-75173857D02*
X149324685Y-75259571D01*
X149324685Y-75259571D02*
X149353257Y-75316714D01*
X149353257Y-75316714D02*
X149381828Y-75345285D01*
X149381828Y-75345285D02*
X149438971Y-75373857D01*
X149438971Y-75373857D02*
X149667542Y-75373857D01*
X149124685Y-75059571D02*
X148753257Y-75059571D01*
X148753257Y-75059571D02*
X148953257Y-75288142D01*
X148953257Y-75288142D02*
X148867542Y-75288142D01*
X148867542Y-75288142D02*
X148810400Y-75316714D01*
X148810400Y-75316714D02*
X148781828Y-75345285D01*
X148781828Y-75345285D02*
X148753257Y-75402428D01*
X148753257Y-75402428D02*
X148753257Y-75545285D01*
X148753257Y-75545285D02*
X148781828Y-75602428D01*
X148781828Y-75602428D02*
X148810400Y-75631000D01*
X148810400Y-75631000D02*
X148867542Y-75659571D01*
X148867542Y-75659571D02*
X149038971Y-75659571D01*
X149038971Y-75659571D02*
X149096114Y-75631000D01*
X149096114Y-75631000D02*
X149124685Y-75602428D01*
X148524685Y-75116714D02*
X148496113Y-75088142D01*
X148496113Y-75088142D02*
X148438971Y-75059571D01*
X148438971Y-75059571D02*
X148296113Y-75059571D01*
X148296113Y-75059571D02*
X148238971Y-75088142D01*
X148238971Y-75088142D02*
X148210399Y-75116714D01*
X148210399Y-75116714D02*
X148181828Y-75173857D01*
X148181828Y-75173857D02*
X148181828Y-75231000D01*
X148181828Y-75231000D02*
X148210399Y-75316714D01*
X148210399Y-75316714D02*
X148553256Y-75659571D01*
X148553256Y-75659571D02*
X148181828Y-75659571D01*
X147924684Y-75431000D02*
X147467542Y-75431000D01*
X147181827Y-75659571D02*
X147181827Y-75059571D01*
X147181827Y-75059571D02*
X147038970Y-75059571D01*
X147038970Y-75059571D02*
X146953256Y-75088142D01*
X146953256Y-75088142D02*
X146896113Y-75145285D01*
X146896113Y-75145285D02*
X146867542Y-75202428D01*
X146867542Y-75202428D02*
X146838970Y-75316714D01*
X146838970Y-75316714D02*
X146838970Y-75402428D01*
X146838970Y-75402428D02*
X146867542Y-75516714D01*
X146867542Y-75516714D02*
X146896113Y-75573857D01*
X146896113Y-75573857D02*
X146953256Y-75631000D01*
X146953256Y-75631000D02*
X147038970Y-75659571D01*
X147038970Y-75659571D02*
X147181827Y-75659571D01*
X146581827Y-75345285D02*
X146381827Y-75345285D01*
X146296113Y-75659571D02*
X146581827Y-75659571D01*
X146581827Y-75659571D02*
X146581827Y-75059571D01*
X146581827Y-75059571D02*
X146296113Y-75059571D01*
X146124685Y-75059571D02*
X145924685Y-75659571D01*
X145924685Y-75659571D02*
X145724685Y-75059571D01*
X145524684Y-75659571D02*
X145524684Y-75059571D01*
X145181827Y-75659571D02*
X145438970Y-75316714D01*
X145181827Y-75059571D02*
X145524684Y-75402428D01*
X144924684Y-75659571D02*
X144924684Y-75059571D01*
X144724685Y-75059571D02*
X144381828Y-75059571D01*
X144553256Y-75659571D02*
X144553256Y-75059571D01*
X144181827Y-75431000D02*
X143724685Y-75431000D01*
X143524685Y-75059571D02*
X143324685Y-75659571D01*
X143324685Y-75659571D02*
X143124685Y-75059571D01*
X142610399Y-75659571D02*
X142953256Y-75659571D01*
X142781827Y-75659571D02*
X142781827Y-75059571D01*
X142781827Y-75059571D02*
X142838970Y-75145285D01*
X142838970Y-75145285D02*
X142896113Y-75202428D01*
X142896113Y-75202428D02*
X142953256Y-75231000D01*
X126269742Y-70484314D02*
X126326885Y-70455742D01*
X126326885Y-70455742D02*
X126384028Y-70398600D01*
X126384028Y-70398600D02*
X126469742Y-70312885D01*
X126469742Y-70312885D02*
X126526885Y-70284314D01*
X126526885Y-70284314D02*
X126584028Y-70284314D01*
X126555457Y-70427171D02*
X126612600Y-70398600D01*
X126612600Y-70398600D02*
X126669742Y-70341457D01*
X126669742Y-70341457D02*
X126698314Y-70227171D01*
X126698314Y-70227171D02*
X126698314Y-70027171D01*
X126698314Y-70027171D02*
X126669742Y-69912885D01*
X126669742Y-69912885D02*
X126612600Y-69855742D01*
X126612600Y-69855742D02*
X126555457Y-69827171D01*
X126555457Y-69827171D02*
X126441171Y-69827171D01*
X126441171Y-69827171D02*
X126384028Y-69855742D01*
X126384028Y-69855742D02*
X126326885Y-69912885D01*
X126326885Y-69912885D02*
X126298314Y-70027171D01*
X126298314Y-70027171D02*
X126298314Y-70227171D01*
X126298314Y-70227171D02*
X126326885Y-70341457D01*
X126326885Y-70341457D02*
X126384028Y-70398600D01*
X126384028Y-70398600D02*
X126441171Y-70427171D01*
X126441171Y-70427171D02*
X126555457Y-70427171D01*
X125726886Y-70427171D02*
X126069743Y-70427171D01*
X125898314Y-70427171D02*
X125898314Y-69827171D01*
X125898314Y-69827171D02*
X125955457Y-69912885D01*
X125955457Y-69912885D02*
X126012600Y-69970028D01*
X126012600Y-69970028D02*
X126069743Y-69998600D01*
X120240285Y-66633085D02*
X120154571Y-66661657D01*
X120154571Y-66661657D02*
X120126000Y-66690228D01*
X120126000Y-66690228D02*
X120097428Y-66747371D01*
X120097428Y-66747371D02*
X120097428Y-66833085D01*
X120097428Y-66833085D02*
X120126000Y-66890228D01*
X120126000Y-66890228D02*
X120154571Y-66918800D01*
X120154571Y-66918800D02*
X120211714Y-66947371D01*
X120211714Y-66947371D02*
X120440285Y-66947371D01*
X120440285Y-66947371D02*
X120440285Y-66347371D01*
X120440285Y-66347371D02*
X120240285Y-66347371D01*
X120240285Y-66347371D02*
X120183143Y-66375942D01*
X120183143Y-66375942D02*
X120154571Y-66404514D01*
X120154571Y-66404514D02*
X120126000Y-66461657D01*
X120126000Y-66461657D02*
X120126000Y-66518800D01*
X120126000Y-66518800D02*
X120154571Y-66575942D01*
X120154571Y-66575942D02*
X120183143Y-66604514D01*
X120183143Y-66604514D02*
X120240285Y-66633085D01*
X120240285Y-66633085D02*
X120440285Y-66633085D01*
X119497428Y-66890228D02*
X119526000Y-66918800D01*
X119526000Y-66918800D02*
X119611714Y-66947371D01*
X119611714Y-66947371D02*
X119668857Y-66947371D01*
X119668857Y-66947371D02*
X119754571Y-66918800D01*
X119754571Y-66918800D02*
X119811714Y-66861657D01*
X119811714Y-66861657D02*
X119840285Y-66804514D01*
X119840285Y-66804514D02*
X119868857Y-66690228D01*
X119868857Y-66690228D02*
X119868857Y-66604514D01*
X119868857Y-66604514D02*
X119840285Y-66490228D01*
X119840285Y-66490228D02*
X119811714Y-66433085D01*
X119811714Y-66433085D02*
X119754571Y-66375942D01*
X119754571Y-66375942D02*
X119668857Y-66347371D01*
X119668857Y-66347371D02*
X119611714Y-66347371D01*
X119611714Y-66347371D02*
X119526000Y-66375942D01*
X119526000Y-66375942D02*
X119497428Y-66404514D01*
X118954571Y-66347371D02*
X119240285Y-66347371D01*
X119240285Y-66347371D02*
X119268857Y-66633085D01*
X119268857Y-66633085D02*
X119240285Y-66604514D01*
X119240285Y-66604514D02*
X119183143Y-66575942D01*
X119183143Y-66575942D02*
X119040285Y-66575942D01*
X119040285Y-66575942D02*
X118983143Y-66604514D01*
X118983143Y-66604514D02*
X118954571Y-66633085D01*
X118954571Y-66633085D02*
X118926000Y-66690228D01*
X118926000Y-66690228D02*
X118926000Y-66833085D01*
X118926000Y-66833085D02*
X118954571Y-66890228D01*
X118954571Y-66890228D02*
X118983143Y-66918800D01*
X118983143Y-66918800D02*
X119040285Y-66947371D01*
X119040285Y-66947371D02*
X119183143Y-66947371D01*
X119183143Y-66947371D02*
X119240285Y-66918800D01*
X119240285Y-66918800D02*
X119268857Y-66890228D01*
X118411714Y-66547371D02*
X118411714Y-66947371D01*
X118554571Y-66318800D02*
X118697428Y-66747371D01*
X118697428Y-66747371D02*
X118325999Y-66747371D01*
X118154570Y-66347371D02*
X117754570Y-66347371D01*
X117754570Y-66347371D02*
X118011713Y-66947371D01*
X113415714Y-105345828D02*
X113444286Y-105374400D01*
X113444286Y-105374400D02*
X113530000Y-105402971D01*
X113530000Y-105402971D02*
X113587143Y-105402971D01*
X113587143Y-105402971D02*
X113672857Y-105374400D01*
X113672857Y-105374400D02*
X113730000Y-105317257D01*
X113730000Y-105317257D02*
X113758571Y-105260114D01*
X113758571Y-105260114D02*
X113787143Y-105145828D01*
X113787143Y-105145828D02*
X113787143Y-105060114D01*
X113787143Y-105060114D02*
X113758571Y-104945828D01*
X113758571Y-104945828D02*
X113730000Y-104888685D01*
X113730000Y-104888685D02*
X113672857Y-104831542D01*
X113672857Y-104831542D02*
X113587143Y-104802971D01*
X113587143Y-104802971D02*
X113530000Y-104802971D01*
X113530000Y-104802971D02*
X113444286Y-104831542D01*
X113444286Y-104831542D02*
X113415714Y-104860114D01*
X112844286Y-105402971D02*
X113187143Y-105402971D01*
X113015714Y-105402971D02*
X113015714Y-104802971D01*
X113015714Y-104802971D02*
X113072857Y-104888685D01*
X113072857Y-104888685D02*
X113130000Y-104945828D01*
X113130000Y-104945828D02*
X113187143Y-104974400D01*
X112472857Y-104802971D02*
X112415714Y-104802971D01*
X112415714Y-104802971D02*
X112358571Y-104831542D01*
X112358571Y-104831542D02*
X112330000Y-104860114D01*
X112330000Y-104860114D02*
X112301428Y-104917257D01*
X112301428Y-104917257D02*
X112272857Y-105031542D01*
X112272857Y-105031542D02*
X112272857Y-105174400D01*
X112272857Y-105174400D02*
X112301428Y-105288685D01*
X112301428Y-105288685D02*
X112330000Y-105345828D01*
X112330000Y-105345828D02*
X112358571Y-105374400D01*
X112358571Y-105374400D02*
X112415714Y-105402971D01*
X112415714Y-105402971D02*
X112472857Y-105402971D01*
X112472857Y-105402971D02*
X112530000Y-105374400D01*
X112530000Y-105374400D02*
X112558571Y-105345828D01*
X112558571Y-105345828D02*
X112587142Y-105288685D01*
X112587142Y-105288685D02*
X112615714Y-105174400D01*
X112615714Y-105174400D02*
X112615714Y-105031542D01*
X112615714Y-105031542D02*
X112587142Y-104917257D01*
X112587142Y-104917257D02*
X112558571Y-104860114D01*
X112558571Y-104860114D02*
X112530000Y-104831542D01*
X112530000Y-104831542D02*
X112472857Y-104802971D01*
X113114028Y-105596714D02*
X113085456Y-105568142D01*
X113085456Y-105568142D02*
X113028314Y-105539571D01*
X113028314Y-105539571D02*
X112885456Y-105539571D01*
X112885456Y-105539571D02*
X112828314Y-105568142D01*
X112828314Y-105568142D02*
X112799742Y-105596714D01*
X112799742Y-105596714D02*
X112771171Y-105653857D01*
X112771171Y-105653857D02*
X112771171Y-105711000D01*
X112771171Y-105711000D02*
X112799742Y-105796714D01*
X112799742Y-105796714D02*
X113142599Y-106139571D01*
X113142599Y-106139571D02*
X112771171Y-106139571D01*
X112514027Y-106082428D02*
X112485456Y-106111000D01*
X112485456Y-106111000D02*
X112514027Y-106139571D01*
X112514027Y-106139571D02*
X112542599Y-106111000D01*
X112542599Y-106111000D02*
X112514027Y-106082428D01*
X112514027Y-106082428D02*
X112514027Y-106139571D01*
X112256885Y-105596714D02*
X112228313Y-105568142D01*
X112228313Y-105568142D02*
X112171171Y-105539571D01*
X112171171Y-105539571D02*
X112028313Y-105539571D01*
X112028313Y-105539571D02*
X111971171Y-105568142D01*
X111971171Y-105568142D02*
X111942599Y-105596714D01*
X111942599Y-105596714D02*
X111914028Y-105653857D01*
X111914028Y-105653857D02*
X111914028Y-105711000D01*
X111914028Y-105711000D02*
X111942599Y-105796714D01*
X111942599Y-105796714D02*
X112285456Y-106139571D01*
X112285456Y-106139571D02*
X111914028Y-106139571D01*
X111399742Y-105739571D02*
X111399742Y-106139571D01*
X111656884Y-105739571D02*
X111656884Y-106053857D01*
X111656884Y-106053857D02*
X111628313Y-106111000D01*
X111628313Y-106111000D02*
X111571170Y-106139571D01*
X111571170Y-106139571D02*
X111485456Y-106139571D01*
X111485456Y-106139571D02*
X111428313Y-106111000D01*
X111428313Y-106111000D02*
X111399742Y-106082428D01*
X120648399Y-112788028D02*
X120676971Y-112816600D01*
X120676971Y-112816600D02*
X120762685Y-112845171D01*
X120762685Y-112845171D02*
X120819828Y-112845171D01*
X120819828Y-112845171D02*
X120905542Y-112816600D01*
X120905542Y-112816600D02*
X120962685Y-112759457D01*
X120962685Y-112759457D02*
X120991256Y-112702314D01*
X120991256Y-112702314D02*
X121019828Y-112588028D01*
X121019828Y-112588028D02*
X121019828Y-112502314D01*
X121019828Y-112502314D02*
X120991256Y-112388028D01*
X120991256Y-112388028D02*
X120962685Y-112330885D01*
X120962685Y-112330885D02*
X120905542Y-112273742D01*
X120905542Y-112273742D02*
X120819828Y-112245171D01*
X120819828Y-112245171D02*
X120762685Y-112245171D01*
X120762685Y-112245171D02*
X120676971Y-112273742D01*
X120676971Y-112273742D02*
X120648399Y-112302314D01*
X120419828Y-112302314D02*
X120391256Y-112273742D01*
X120391256Y-112273742D02*
X120334114Y-112245171D01*
X120334114Y-112245171D02*
X120191256Y-112245171D01*
X120191256Y-112245171D02*
X120134114Y-112273742D01*
X120134114Y-112273742D02*
X120105542Y-112302314D01*
X120105542Y-112302314D02*
X120076971Y-112359457D01*
X120076971Y-112359457D02*
X120076971Y-112416600D01*
X120076971Y-112416600D02*
X120105542Y-112502314D01*
X120105542Y-112502314D02*
X120448399Y-112845171D01*
X120448399Y-112845171D02*
X120076971Y-112845171D01*
X119518029Y-112108571D02*
X119860886Y-112108571D01*
X119689457Y-112108571D02*
X119689457Y-111508571D01*
X119689457Y-111508571D02*
X119746600Y-111594285D01*
X119746600Y-111594285D02*
X119803743Y-111651428D01*
X119803743Y-111651428D02*
X119860886Y-111680000D01*
X119146600Y-111508571D02*
X119089457Y-111508571D01*
X119089457Y-111508571D02*
X119032314Y-111537142D01*
X119032314Y-111537142D02*
X119003743Y-111565714D01*
X119003743Y-111565714D02*
X118975171Y-111622857D01*
X118975171Y-111622857D02*
X118946600Y-111737142D01*
X118946600Y-111737142D02*
X118946600Y-111880000D01*
X118946600Y-111880000D02*
X118975171Y-111994285D01*
X118975171Y-111994285D02*
X119003743Y-112051428D01*
X119003743Y-112051428D02*
X119032314Y-112080000D01*
X119032314Y-112080000D02*
X119089457Y-112108571D01*
X119089457Y-112108571D02*
X119146600Y-112108571D01*
X119146600Y-112108571D02*
X119203743Y-112080000D01*
X119203743Y-112080000D02*
X119232314Y-112051428D01*
X119232314Y-112051428D02*
X119260885Y-111994285D01*
X119260885Y-111994285D02*
X119289457Y-111880000D01*
X119289457Y-111880000D02*
X119289457Y-111737142D01*
X119289457Y-111737142D02*
X119260885Y-111622857D01*
X119260885Y-111622857D02*
X119232314Y-111565714D01*
X119232314Y-111565714D02*
X119203743Y-111537142D01*
X119203743Y-111537142D02*
X119146600Y-111508571D01*
X118575171Y-111508571D02*
X118518028Y-111508571D01*
X118518028Y-111508571D02*
X118460885Y-111537142D01*
X118460885Y-111537142D02*
X118432314Y-111565714D01*
X118432314Y-111565714D02*
X118403742Y-111622857D01*
X118403742Y-111622857D02*
X118375171Y-111737142D01*
X118375171Y-111737142D02*
X118375171Y-111880000D01*
X118375171Y-111880000D02*
X118403742Y-111994285D01*
X118403742Y-111994285D02*
X118432314Y-112051428D01*
X118432314Y-112051428D02*
X118460885Y-112080000D01*
X118460885Y-112080000D02*
X118518028Y-112108571D01*
X118518028Y-112108571D02*
X118575171Y-112108571D01*
X118575171Y-112108571D02*
X118632314Y-112080000D01*
X118632314Y-112080000D02*
X118660885Y-112051428D01*
X118660885Y-112051428D02*
X118689456Y-111994285D01*
X118689456Y-111994285D02*
X118718028Y-111880000D01*
X118718028Y-111880000D02*
X118718028Y-111737142D01*
X118718028Y-111737142D02*
X118689456Y-111622857D01*
X118689456Y-111622857D02*
X118660885Y-111565714D01*
X118660885Y-111565714D02*
X118632314Y-111537142D01*
X118632314Y-111537142D02*
X118575171Y-111508571D01*
X118118027Y-111708571D02*
X118118027Y-112108571D01*
X118118027Y-111765714D02*
X118089456Y-111737142D01*
X118089456Y-111737142D02*
X118032313Y-111708571D01*
X118032313Y-111708571D02*
X117946599Y-111708571D01*
X117946599Y-111708571D02*
X117889456Y-111737142D01*
X117889456Y-111737142D02*
X117860885Y-111794285D01*
X117860885Y-111794285D02*
X117860885Y-112108571D01*
X155989143Y-74403870D02*
X155989143Y-74889584D01*
X155989143Y-74889584D02*
X155960572Y-74946727D01*
X155960572Y-74946727D02*
X155932001Y-74975299D01*
X155932001Y-74975299D02*
X155874858Y-75003870D01*
X155874858Y-75003870D02*
X155760572Y-75003870D01*
X155760572Y-75003870D02*
X155703429Y-74975299D01*
X155703429Y-74975299D02*
X155674858Y-74946727D01*
X155674858Y-74946727D02*
X155646286Y-74889584D01*
X155646286Y-74889584D02*
X155646286Y-74403870D01*
X155074858Y-74403870D02*
X155360572Y-74403870D01*
X155360572Y-74403870D02*
X155389144Y-74689584D01*
X155389144Y-74689584D02*
X155360572Y-74661013D01*
X155360572Y-74661013D02*
X155303430Y-74632441D01*
X155303430Y-74632441D02*
X155160572Y-74632441D01*
X155160572Y-74632441D02*
X155103430Y-74661013D01*
X155103430Y-74661013D02*
X155074858Y-74689584D01*
X155074858Y-74689584D02*
X155046287Y-74746727D01*
X155046287Y-74746727D02*
X155046287Y-74889584D01*
X155046287Y-74889584D02*
X155074858Y-74946727D01*
X155074858Y-74946727D02*
X155103430Y-74975299D01*
X155103430Y-74975299D02*
X155160572Y-75003870D01*
X155160572Y-75003870D02*
X155303430Y-75003870D01*
X155303430Y-75003870D02*
X155360572Y-74975299D01*
X155360572Y-74975299D02*
X155389144Y-74946727D01*
X151358286Y-68061800D02*
X151272572Y-68090371D01*
X151272572Y-68090371D02*
X151129714Y-68090371D01*
X151129714Y-68090371D02*
X151072572Y-68061800D01*
X151072572Y-68061800D02*
X151044000Y-68033228D01*
X151044000Y-68033228D02*
X151015429Y-67976085D01*
X151015429Y-67976085D02*
X151015429Y-67918942D01*
X151015429Y-67918942D02*
X151044000Y-67861800D01*
X151044000Y-67861800D02*
X151072572Y-67833228D01*
X151072572Y-67833228D02*
X151129714Y-67804657D01*
X151129714Y-67804657D02*
X151244000Y-67776085D01*
X151244000Y-67776085D02*
X151301143Y-67747514D01*
X151301143Y-67747514D02*
X151329714Y-67718942D01*
X151329714Y-67718942D02*
X151358286Y-67661800D01*
X151358286Y-67661800D02*
X151358286Y-67604657D01*
X151358286Y-67604657D02*
X151329714Y-67547514D01*
X151329714Y-67547514D02*
X151301143Y-67518942D01*
X151301143Y-67518942D02*
X151244000Y-67490371D01*
X151244000Y-67490371D02*
X151101143Y-67490371D01*
X151101143Y-67490371D02*
X151015429Y-67518942D01*
X150786857Y-68061800D02*
X150701143Y-68090371D01*
X150701143Y-68090371D02*
X150558285Y-68090371D01*
X150558285Y-68090371D02*
X150501143Y-68061800D01*
X150501143Y-68061800D02*
X150472571Y-68033228D01*
X150472571Y-68033228D02*
X150444000Y-67976085D01*
X150444000Y-67976085D02*
X150444000Y-67918942D01*
X150444000Y-67918942D02*
X150472571Y-67861800D01*
X150472571Y-67861800D02*
X150501143Y-67833228D01*
X150501143Y-67833228D02*
X150558285Y-67804657D01*
X150558285Y-67804657D02*
X150672571Y-67776085D01*
X150672571Y-67776085D02*
X150729714Y-67747514D01*
X150729714Y-67747514D02*
X150758285Y-67718942D01*
X150758285Y-67718942D02*
X150786857Y-67661800D01*
X150786857Y-67661800D02*
X150786857Y-67604657D01*
X150786857Y-67604657D02*
X150758285Y-67547514D01*
X150758285Y-67547514D02*
X150729714Y-67518942D01*
X150729714Y-67518942D02*
X150672571Y-67490371D01*
X150672571Y-67490371D02*
X150529714Y-67490371D01*
X150529714Y-67490371D02*
X150444000Y-67518942D01*
X149843999Y-68090371D02*
X150043999Y-67804657D01*
X150186856Y-68090371D02*
X150186856Y-67490371D01*
X150186856Y-67490371D02*
X149958285Y-67490371D01*
X149958285Y-67490371D02*
X149901142Y-67518942D01*
X149901142Y-67518942D02*
X149872571Y-67547514D01*
X149872571Y-67547514D02*
X149843999Y-67604657D01*
X149843999Y-67604657D02*
X149843999Y-67690371D01*
X149843999Y-67690371D02*
X149872571Y-67747514D01*
X149872571Y-67747514D02*
X149901142Y-67776085D01*
X149901142Y-67776085D02*
X149958285Y-67804657D01*
X149958285Y-67804657D02*
X150186856Y-67804657D01*
X149586856Y-67861800D02*
X149129714Y-67861800D01*
X148586857Y-67690371D02*
X148586857Y-68090371D01*
X148729714Y-67461800D02*
X148872571Y-67890371D01*
X148872571Y-67890371D02*
X148501142Y-67890371D01*
X147958285Y-68090371D02*
X148301142Y-68090371D01*
X148129713Y-68090371D02*
X148129713Y-67490371D01*
X148129713Y-67490371D02*
X148186856Y-67576085D01*
X148186856Y-67576085D02*
X148243999Y-67633228D01*
X148243999Y-67633228D02*
X148301142Y-67661800D01*
X147501141Y-67776085D02*
X147701141Y-67776085D01*
X147701141Y-68090371D02*
X147701141Y-67490371D01*
X147701141Y-67490371D02*
X147415427Y-67490371D01*
X147186855Y-68090371D02*
X147186855Y-67490371D01*
X147186855Y-67490371D02*
X147043998Y-67490371D01*
X147043998Y-67490371D02*
X146958284Y-67518942D01*
X146958284Y-67518942D02*
X146901141Y-67576085D01*
X146901141Y-67576085D02*
X146872570Y-67633228D01*
X146872570Y-67633228D02*
X146843998Y-67747514D01*
X146843998Y-67747514D02*
X146843998Y-67833228D01*
X146843998Y-67833228D02*
X146872570Y-67947514D01*
X146872570Y-67947514D02*
X146901141Y-68004657D01*
X146901141Y-68004657D02*
X146958284Y-68061800D01*
X146958284Y-68061800D02*
X147043998Y-68090371D01*
X147043998Y-68090371D02*
X147186855Y-68090371D01*
X146615427Y-67918942D02*
X146329713Y-67918942D01*
X146672570Y-68090371D02*
X146472570Y-67490371D01*
X146472570Y-67490371D02*
X146272570Y-68090371D01*
X131036999Y-107530228D02*
X131065571Y-107558800D01*
X131065571Y-107558800D02*
X131151285Y-107587371D01*
X131151285Y-107587371D02*
X131208428Y-107587371D01*
X131208428Y-107587371D02*
X131294142Y-107558800D01*
X131294142Y-107558800D02*
X131351285Y-107501657D01*
X131351285Y-107501657D02*
X131379856Y-107444514D01*
X131379856Y-107444514D02*
X131408428Y-107330228D01*
X131408428Y-107330228D02*
X131408428Y-107244514D01*
X131408428Y-107244514D02*
X131379856Y-107130228D01*
X131379856Y-107130228D02*
X131351285Y-107073085D01*
X131351285Y-107073085D02*
X131294142Y-107015942D01*
X131294142Y-107015942D02*
X131208428Y-106987371D01*
X131208428Y-106987371D02*
X131151285Y-106987371D01*
X131151285Y-106987371D02*
X131065571Y-107015942D01*
X131065571Y-107015942D02*
X131036999Y-107044514D01*
X130836999Y-106987371D02*
X130465571Y-106987371D01*
X130465571Y-106987371D02*
X130665571Y-107215942D01*
X130665571Y-107215942D02*
X130579856Y-107215942D01*
X130579856Y-107215942D02*
X130522714Y-107244514D01*
X130522714Y-107244514D02*
X130494142Y-107273085D01*
X130494142Y-107273085D02*
X130465571Y-107330228D01*
X130465571Y-107330228D02*
X130465571Y-107473085D01*
X130465571Y-107473085D02*
X130494142Y-107530228D01*
X130494142Y-107530228D02*
X130522714Y-107558800D01*
X130522714Y-107558800D02*
X130579856Y-107587371D01*
X130579856Y-107587371D02*
X130751285Y-107587371D01*
X130751285Y-107587371D02*
X130808428Y-107558800D01*
X130808428Y-107558800D02*
X130836999Y-107530228D01*
X131500514Y-108349371D02*
X131843371Y-108349371D01*
X131671942Y-108349371D02*
X131671942Y-107749371D01*
X131671942Y-107749371D02*
X131729085Y-107835085D01*
X131729085Y-107835085D02*
X131786228Y-107892228D01*
X131786228Y-107892228D02*
X131843371Y-107920800D01*
X131129085Y-107749371D02*
X131071942Y-107749371D01*
X131071942Y-107749371D02*
X131014799Y-107777942D01*
X131014799Y-107777942D02*
X130986228Y-107806514D01*
X130986228Y-107806514D02*
X130957656Y-107863657D01*
X130957656Y-107863657D02*
X130929085Y-107977942D01*
X130929085Y-107977942D02*
X130929085Y-108120800D01*
X130929085Y-108120800D02*
X130957656Y-108235085D01*
X130957656Y-108235085D02*
X130986228Y-108292228D01*
X130986228Y-108292228D02*
X131014799Y-108320800D01*
X131014799Y-108320800D02*
X131071942Y-108349371D01*
X131071942Y-108349371D02*
X131129085Y-108349371D01*
X131129085Y-108349371D02*
X131186228Y-108320800D01*
X131186228Y-108320800D02*
X131214799Y-108292228D01*
X131214799Y-108292228D02*
X131243370Y-108235085D01*
X131243370Y-108235085D02*
X131271942Y-108120800D01*
X131271942Y-108120800D02*
X131271942Y-107977942D01*
X131271942Y-107977942D02*
X131243370Y-107863657D01*
X131243370Y-107863657D02*
X131214799Y-107806514D01*
X131214799Y-107806514D02*
X131186228Y-107777942D01*
X131186228Y-107777942D02*
X131129085Y-107749371D01*
X130671941Y-107949371D02*
X130671941Y-108349371D01*
X130671941Y-108006514D02*
X130643370Y-107977942D01*
X130643370Y-107977942D02*
X130586227Y-107949371D01*
X130586227Y-107949371D02*
X130500513Y-107949371D01*
X130500513Y-107949371D02*
X130443370Y-107977942D01*
X130443370Y-107977942D02*
X130414799Y-108035085D01*
X130414799Y-108035085D02*
X130414799Y-108349371D01*
X135030371Y-119811857D02*
X135516085Y-119811857D01*
X135516085Y-119811857D02*
X135573228Y-119840428D01*
X135573228Y-119840428D02*
X135601800Y-119869000D01*
X135601800Y-119869000D02*
X135630371Y-119926142D01*
X135630371Y-119926142D02*
X135630371Y-120040428D01*
X135630371Y-120040428D02*
X135601800Y-120097571D01*
X135601800Y-120097571D02*
X135573228Y-120126142D01*
X135573228Y-120126142D02*
X135516085Y-120154714D01*
X135516085Y-120154714D02*
X135030371Y-120154714D01*
X135087514Y-120411856D02*
X135058942Y-120440428D01*
X135058942Y-120440428D02*
X135030371Y-120497571D01*
X135030371Y-120497571D02*
X135030371Y-120640428D01*
X135030371Y-120640428D02*
X135058942Y-120697571D01*
X135058942Y-120697571D02*
X135087514Y-120726142D01*
X135087514Y-120726142D02*
X135144657Y-120754713D01*
X135144657Y-120754713D02*
X135201800Y-120754713D01*
X135201800Y-120754713D02*
X135287514Y-120726142D01*
X135287514Y-120726142D02*
X135630371Y-120383285D01*
X135630371Y-120383285D02*
X135630371Y-120754713D01*
X119282801Y-122503542D02*
X118997087Y-122503542D01*
X119339944Y-122674971D02*
X119139944Y-122074971D01*
X119139944Y-122074971D02*
X118939944Y-122674971D01*
X118739943Y-122674971D02*
X118739943Y-122074971D01*
X118739943Y-122074971D02*
X118597086Y-122074971D01*
X118597086Y-122074971D02*
X118511372Y-122103542D01*
X118511372Y-122103542D02*
X118454229Y-122160685D01*
X118454229Y-122160685D02*
X118425658Y-122217828D01*
X118425658Y-122217828D02*
X118397086Y-122332114D01*
X118397086Y-122332114D02*
X118397086Y-122417828D01*
X118397086Y-122417828D02*
X118425658Y-122532114D01*
X118425658Y-122532114D02*
X118454229Y-122589257D01*
X118454229Y-122589257D02*
X118511372Y-122646400D01*
X118511372Y-122646400D02*
X118597086Y-122674971D01*
X118597086Y-122674971D02*
X118739943Y-122674971D01*
X118168515Y-122646400D02*
X118082801Y-122674971D01*
X118082801Y-122674971D02*
X117939943Y-122674971D01*
X117939943Y-122674971D02*
X117882801Y-122646400D01*
X117882801Y-122646400D02*
X117854229Y-122617828D01*
X117854229Y-122617828D02*
X117825658Y-122560685D01*
X117825658Y-122560685D02*
X117825658Y-122503542D01*
X117825658Y-122503542D02*
X117854229Y-122446400D01*
X117854229Y-122446400D02*
X117882801Y-122417828D01*
X117882801Y-122417828D02*
X117939943Y-122389257D01*
X117939943Y-122389257D02*
X118054229Y-122360685D01*
X118054229Y-122360685D02*
X118111372Y-122332114D01*
X118111372Y-122332114D02*
X118139943Y-122303542D01*
X118139943Y-122303542D02*
X118168515Y-122246400D01*
X118168515Y-122246400D02*
X118168515Y-122189257D01*
X118168515Y-122189257D02*
X118139943Y-122132114D01*
X118139943Y-122132114D02*
X118111372Y-122103542D01*
X118111372Y-122103542D02*
X118054229Y-122074971D01*
X118054229Y-122074971D02*
X117911372Y-122074971D01*
X117911372Y-122074971D02*
X117825658Y-122103542D01*
X117254229Y-122674971D02*
X117597086Y-122674971D01*
X117425657Y-122674971D02*
X117425657Y-122074971D01*
X117425657Y-122074971D02*
X117482800Y-122160685D01*
X117482800Y-122160685D02*
X117539943Y-122217828D01*
X117539943Y-122217828D02*
X117597086Y-122246400D01*
X116682800Y-122674971D02*
X117025657Y-122674971D01*
X116854228Y-122674971D02*
X116854228Y-122074971D01*
X116854228Y-122074971D02*
X116911371Y-122160685D01*
X116911371Y-122160685D02*
X116968514Y-122217828D01*
X116968514Y-122217828D02*
X117025657Y-122246400D01*
X116111371Y-122674971D02*
X116454228Y-122674971D01*
X116282799Y-122674971D02*
X116282799Y-122074971D01*
X116282799Y-122074971D02*
X116339942Y-122160685D01*
X116339942Y-122160685D02*
X116397085Y-122217828D01*
X116397085Y-122217828D02*
X116454228Y-122246400D01*
X115568513Y-122074971D02*
X115854227Y-122074971D01*
X115854227Y-122074971D02*
X115882799Y-122360685D01*
X115882799Y-122360685D02*
X115854227Y-122332114D01*
X115854227Y-122332114D02*
X115797085Y-122303542D01*
X115797085Y-122303542D02*
X115654227Y-122303542D01*
X115654227Y-122303542D02*
X115597085Y-122332114D01*
X115597085Y-122332114D02*
X115568513Y-122360685D01*
X115568513Y-122360685D02*
X115539942Y-122417828D01*
X115539942Y-122417828D02*
X115539942Y-122560685D01*
X115539942Y-122560685D02*
X115568513Y-122617828D01*
X115568513Y-122617828D02*
X115597085Y-122646400D01*
X115597085Y-122646400D02*
X115654227Y-122674971D01*
X115654227Y-122674971D02*
X115797085Y-122674971D01*
X115797085Y-122674971D02*
X115854227Y-122646400D01*
X115854227Y-122646400D02*
X115882799Y-122617828D01*
X115282798Y-122674971D02*
X115282798Y-122074971D01*
X114997084Y-122674971D02*
X114997084Y-122074971D01*
X114997084Y-122074971D02*
X114854227Y-122074971D01*
X114854227Y-122074971D02*
X114768513Y-122103542D01*
X114768513Y-122103542D02*
X114711370Y-122160685D01*
X114711370Y-122160685D02*
X114682799Y-122217828D01*
X114682799Y-122217828D02*
X114654227Y-122332114D01*
X114654227Y-122332114D02*
X114654227Y-122417828D01*
X114654227Y-122417828D02*
X114682799Y-122532114D01*
X114682799Y-122532114D02*
X114711370Y-122589257D01*
X114711370Y-122589257D02*
X114768513Y-122646400D01*
X114768513Y-122646400D02*
X114854227Y-122674971D01*
X114854227Y-122674971D02*
X114997084Y-122674971D01*
X114082799Y-122103542D02*
X114139942Y-122074971D01*
X114139942Y-122074971D02*
X114225656Y-122074971D01*
X114225656Y-122074971D02*
X114311370Y-122103542D01*
X114311370Y-122103542D02*
X114368513Y-122160685D01*
X114368513Y-122160685D02*
X114397084Y-122217828D01*
X114397084Y-122217828D02*
X114425656Y-122332114D01*
X114425656Y-122332114D02*
X114425656Y-122417828D01*
X114425656Y-122417828D02*
X114397084Y-122532114D01*
X114397084Y-122532114D02*
X114368513Y-122589257D01*
X114368513Y-122589257D02*
X114311370Y-122646400D01*
X114311370Y-122646400D02*
X114225656Y-122674971D01*
X114225656Y-122674971D02*
X114168513Y-122674971D01*
X114168513Y-122674971D02*
X114082799Y-122646400D01*
X114082799Y-122646400D02*
X114054227Y-122617828D01*
X114054227Y-122617828D02*
X114054227Y-122417828D01*
X114054227Y-122417828D02*
X114168513Y-122417828D01*
X113825656Y-122646400D02*
X113739942Y-122674971D01*
X113739942Y-122674971D02*
X113597084Y-122674971D01*
X113597084Y-122674971D02*
X113539942Y-122646400D01*
X113539942Y-122646400D02*
X113511370Y-122617828D01*
X113511370Y-122617828D02*
X113482799Y-122560685D01*
X113482799Y-122560685D02*
X113482799Y-122503542D01*
X113482799Y-122503542D02*
X113511370Y-122446400D01*
X113511370Y-122446400D02*
X113539942Y-122417828D01*
X113539942Y-122417828D02*
X113597084Y-122389257D01*
X113597084Y-122389257D02*
X113711370Y-122360685D01*
X113711370Y-122360685D02*
X113768513Y-122332114D01*
X113768513Y-122332114D02*
X113797084Y-122303542D01*
X113797084Y-122303542D02*
X113825656Y-122246400D01*
X113825656Y-122246400D02*
X113825656Y-122189257D01*
X113825656Y-122189257D02*
X113797084Y-122132114D01*
X113797084Y-122132114D02*
X113768513Y-122103542D01*
X113768513Y-122103542D02*
X113711370Y-122074971D01*
X113711370Y-122074971D02*
X113568513Y-122074971D01*
X113568513Y-122074971D02*
X113482799Y-122103542D01*
D11*
%TO.C,C18*%
X129958200Y-114628200D02*
G75*
G02*
X125718200Y-114628200I-2120000J0D01*
G01*
X125718200Y-114628200D02*
G75*
G02*
X129958200Y-114628200I2120000J0D01*
G01*
X128208200Y-112547200D02*
X127468200Y-112547200D01*
X128375200Y-112587200D02*
X127301200Y-112587200D01*
X128502200Y-112627200D02*
X127174200Y-112627200D01*
X128606201Y-112667200D02*
X127070199Y-112667200D01*
X128697200Y-112707200D02*
X126979200Y-112707200D01*
X128778200Y-112747200D02*
X126898200Y-112747200D01*
X128851200Y-112787200D02*
X126825200Y-112787200D01*
X126998200Y-112827200D02*
X126758200Y-112827200D01*
X128918200Y-112827200D02*
X128678200Y-112827200D01*
X126998200Y-112867200D02*
X126696200Y-112867200D01*
X128980200Y-112867200D02*
X128678200Y-112867200D01*
X126998200Y-112907200D02*
X126638200Y-112907200D01*
X129038200Y-112907200D02*
X128678200Y-112907200D01*
X126998200Y-112947200D02*
X126584200Y-112947200D01*
X129092200Y-112947200D02*
X128678200Y-112947200D01*
X126998200Y-112987200D02*
X126534200Y-112987200D01*
X129142200Y-112987200D02*
X128678200Y-112987200D01*
X126998200Y-113027200D02*
X126487200Y-113027200D01*
X129189200Y-113027200D02*
X128678200Y-113027200D01*
X126998200Y-113067200D02*
X126442200Y-113067200D01*
X129234200Y-113067200D02*
X128678200Y-113067200D01*
X126998200Y-113107200D02*
X126400200Y-113107200D01*
X129276200Y-113107200D02*
X128678200Y-113107200D01*
X126998200Y-113147200D02*
X126360200Y-113147200D01*
X129316200Y-113147200D02*
X128678200Y-113147200D01*
X126998200Y-113187200D02*
X126322200Y-113187200D01*
X129354200Y-113187200D02*
X128678200Y-113187200D01*
X126998200Y-113227200D02*
X126286200Y-113227200D01*
X129390200Y-113227200D02*
X128678200Y-113227200D01*
X126998200Y-113267200D02*
X126251200Y-113267200D01*
X129425200Y-113267200D02*
X128678200Y-113267200D01*
X126998200Y-113307200D02*
X126219200Y-113307200D01*
X129457200Y-113307200D02*
X128678200Y-113307200D01*
X126998200Y-113347200D02*
X126188200Y-113347200D01*
X129488200Y-113347200D02*
X128678200Y-113347200D01*
X126998200Y-113387200D02*
X126158200Y-113387200D01*
X129518200Y-113387200D02*
X128678200Y-113387200D01*
X126998200Y-113427200D02*
X126130200Y-113427200D01*
X129546200Y-113427200D02*
X128678200Y-113427200D01*
X126998200Y-113467200D02*
X126103200Y-113467200D01*
X129573200Y-113467200D02*
X128678200Y-113467200D01*
X126998200Y-113507200D02*
X126078200Y-113507200D01*
X129598200Y-113507200D02*
X128678200Y-113507200D01*
X126998200Y-113547200D02*
X126053200Y-113547200D01*
X129623200Y-113547200D02*
X128678200Y-113547200D01*
X126998200Y-113587200D02*
X126030200Y-113587200D01*
X129646200Y-113587200D02*
X128678200Y-113587200D01*
X126998200Y-113627200D02*
X126008201Y-113627200D01*
X129668199Y-113627200D02*
X128678200Y-113627200D01*
X126998200Y-113667200D02*
X125987200Y-113667200D01*
X129689200Y-113667200D02*
X128678200Y-113667200D01*
X126998200Y-113707200D02*
X125968199Y-113707200D01*
X129708201Y-113707200D02*
X128678200Y-113707200D01*
X126998200Y-113747200D02*
X125949200Y-113747200D01*
X129727200Y-113747200D02*
X128678200Y-113747200D01*
X126998200Y-113787200D02*
X125931201Y-113787200D01*
X129745199Y-113787200D02*
X128678200Y-113787200D01*
X126998200Y-113827200D02*
X125914200Y-113827200D01*
X129762200Y-113827200D02*
X128678200Y-113827200D01*
X126998200Y-113867200D02*
X125898200Y-113867200D01*
X129778200Y-113867200D02*
X128678200Y-113867200D01*
X126998200Y-113907200D02*
X125884200Y-113907200D01*
X129792200Y-113907200D02*
X128678200Y-113907200D01*
X126998200Y-113948200D02*
X125870200Y-113948200D01*
X129806200Y-113948200D02*
X128678200Y-113948200D01*
X126998200Y-113988200D02*
X125856200Y-113988200D01*
X129820200Y-113988200D02*
X128678200Y-113988200D01*
X126998200Y-114028200D02*
X125844200Y-114028200D01*
X129832200Y-114028200D02*
X128678200Y-114028200D01*
X126998200Y-114068200D02*
X125833200Y-114068200D01*
X129843200Y-114068200D02*
X128678200Y-114068200D01*
X126998200Y-114108199D02*
X125822200Y-114108200D01*
X129854200Y-114108200D02*
X128678200Y-114108199D01*
X126998200Y-114148199D02*
X125813200Y-114148199D01*
X129863199Y-114148200D02*
X128678200Y-114148199D01*
X126998200Y-114188199D02*
X125804200Y-114188199D01*
X129872200Y-114188199D02*
X128678199Y-114188200D01*
X126998200Y-114228199D02*
X125796200Y-114228200D01*
X129880200Y-114228200D02*
X128678199Y-114228200D01*
X126998200Y-114268199D02*
X125788200Y-114268200D01*
X129888200Y-114268200D02*
X128678199Y-114268200D01*
X126998200Y-114308199D02*
X125782200Y-114308199D01*
X129894200Y-114308199D02*
X128678199Y-114308200D01*
X126998200Y-114348199D02*
X125776200Y-114348199D01*
X129900199Y-114348200D02*
X128678199Y-114348200D01*
X126998200Y-114388199D02*
X125771199Y-114388200D01*
X129905200Y-114388199D02*
X128678199Y-114388200D01*
X126998201Y-114428200D02*
X125767200Y-114428201D01*
X129909201Y-114428200D02*
X128678200Y-114428201D01*
X129912201Y-114468200D02*
X125764200Y-114468201D01*
X129915200Y-114508201D02*
X125761200Y-114508201D01*
X129917200Y-114548200D02*
X125759200Y-114548200D01*
X129918200Y-114588200D02*
X125758200Y-114588200D01*
X129918200Y-114628200D02*
X125758200Y-114628200D01*
X129233200Y-116698001D02*
X128833200Y-116698001D01*
X129033200Y-116898001D02*
X129033200Y-116498001D01*
%TO.C,R11*%
X130815600Y-64770000D02*
G75*
G02*
X128975600Y-64770000I-920000J0D01*
G01*
X128975600Y-64770000D02*
G75*
G02*
X130815600Y-64770000I920000J0D01*
G01*
X128975600Y-64770000D02*
X128355600Y-64770000D01*
%TO.C,C8*%
X173973999Y-126895001D02*
X173973999Y-125637001D01*
X175813999Y-126895001D02*
X175813999Y-125637001D01*
%TO.C,R10*%
X129624500Y-71631500D02*
X129004500Y-71631500D01*
X131464500Y-71631500D02*
G75*
G02*
X129624500Y-71631500I-920000J0D01*
G01*
X129624500Y-71631500D02*
G75*
G02*
X131464500Y-71631500I920000J0D01*
G01*
%TO.C,R3*%
X136811000Y-132107000D02*
X136811000Y-132437000D01*
X136811000Y-134847000D02*
X136811000Y-134517000D01*
X143351000Y-132107000D02*
X136811000Y-132107000D01*
X143351000Y-132437001D02*
X143351000Y-132107000D01*
X143351000Y-134516999D02*
X143351000Y-134847000D01*
X143351000Y-134847000D02*
X136811000Y-134847000D01*
%TO.C,C6*%
X110586000Y-109647000D02*
X110586000Y-110905000D01*
X112426000Y-109647000D02*
X112426000Y-110905000D01*
%TO.C,R5*%
X135763000Y-72055000D02*
X135763000Y-71435000D01*
X136683000Y-72975000D02*
G75*
G02*
X134843000Y-72975000I-920000J0D01*
G01*
X134843000Y-72975000D02*
G75*
G02*
X136683000Y-72975000I920000J0D01*
G01*
D10*
%TO.C,U3*%
X170238000Y-135500000D02*
X146238000Y-135500000D01*
X146238000Y-118500000D01*
X170238000Y-118500000D01*
X170238000Y-135500000D01*
D11*
%TO.C,C16*%
X141303000Y-107839000D02*
X145463000Y-107839000D01*
X141303000Y-107879000D02*
X145463000Y-107879000D01*
X141304000Y-107919000D02*
X145462000Y-107919000D01*
X141306000Y-107958999D02*
X145460000Y-107958999D01*
X141309000Y-107998999D02*
X145457001Y-107999000D01*
X141312000Y-108038999D02*
X142543001Y-108039000D01*
X141315999Y-108079000D02*
X142543000Y-108079001D01*
X141321000Y-108119001D02*
X142543000Y-108119001D01*
X141327000Y-108159001D02*
X142543000Y-108159001D01*
X141333000Y-108199000D02*
X142543000Y-108199001D01*
X141341000Y-108239000D02*
X142543000Y-108239001D01*
X141349000Y-108279001D02*
X142543000Y-108279001D01*
X141358000Y-108319001D02*
X142543000Y-108319001D01*
X141367000Y-108359000D02*
X142543000Y-108359001D01*
X141378000Y-108399000D02*
X142543000Y-108399000D01*
X141389000Y-108439000D02*
X142543000Y-108439000D01*
X141401000Y-108479000D02*
X142543000Y-108479000D01*
X141415000Y-108519000D02*
X142543000Y-108519000D01*
X141429000Y-108560000D02*
X142543000Y-108560000D01*
X141443000Y-108600000D02*
X142543000Y-108600000D01*
X141459000Y-108640000D02*
X142543000Y-108640000D01*
X141476001Y-108680000D02*
X142543000Y-108680000D01*
X141494000Y-108720000D02*
X142543000Y-108720000D01*
X141512999Y-108760000D02*
X142543000Y-108760000D01*
X141532000Y-108800000D02*
X142543000Y-108800000D01*
X141553001Y-108840000D02*
X142543000Y-108840000D01*
X141575000Y-108880000D02*
X142543000Y-108880000D01*
X141598000Y-108920000D02*
X142543000Y-108920000D01*
X141623000Y-108960000D02*
X142543000Y-108960000D01*
X141648000Y-109000000D02*
X142543000Y-109000000D01*
X141675000Y-109040000D02*
X142543000Y-109040000D01*
X141703000Y-109080000D02*
X142543000Y-109080000D01*
X141733000Y-109120000D02*
X142543000Y-109120000D01*
X141764000Y-109160000D02*
X142543000Y-109160000D01*
X141796000Y-109200000D02*
X142543000Y-109200000D01*
X141831000Y-109240000D02*
X142543000Y-109240000D01*
X141867000Y-109280000D02*
X142543000Y-109280000D01*
X141905000Y-109320000D02*
X142543000Y-109320000D01*
X141945000Y-109360000D02*
X142543000Y-109360000D01*
X141987000Y-109400000D02*
X142543000Y-109400000D01*
X141988000Y-105769199D02*
X142388000Y-105769199D01*
X142032000Y-109440000D02*
X142543000Y-109440000D01*
X142079000Y-109480000D02*
X142543000Y-109480000D01*
X142129000Y-109520000D02*
X142543000Y-109520000D01*
X142183000Y-109560000D02*
X142543000Y-109560000D01*
X142188000Y-105569199D02*
X142188000Y-105969199D01*
X142241000Y-109600000D02*
X142543000Y-109600000D01*
X142303000Y-109640000D02*
X142543000Y-109640000D01*
X142370000Y-109680000D02*
X144396000Y-109680000D01*
X142443000Y-109720000D02*
X144323000Y-109720000D01*
X142524000Y-109760000D02*
X144242000Y-109760000D01*
X142614999Y-109800000D02*
X144151001Y-109800000D01*
X142719000Y-109840000D02*
X144047000Y-109840000D01*
X142846000Y-109880000D02*
X143920000Y-109880000D01*
X143013000Y-109920000D02*
X143753000Y-109920000D01*
X144222999Y-108079000D02*
X145450000Y-108079001D01*
X144222999Y-108119000D02*
X145444999Y-108119000D01*
X144222999Y-108159000D02*
X145439000Y-108159001D01*
X144222999Y-108199000D02*
X145433000Y-108199000D01*
X144222999Y-108239000D02*
X145425000Y-108239000D01*
X144222999Y-108279000D02*
X145417000Y-108279001D01*
X144223000Y-108038999D02*
X145454001Y-108039000D01*
X144223000Y-108319001D02*
X145407999Y-108319000D01*
X144223000Y-108359001D02*
X145399000Y-108359000D01*
X144223000Y-108399000D02*
X145388000Y-108399000D01*
X144223000Y-108439000D02*
X145377000Y-108439000D01*
X144223000Y-108479000D02*
X145365000Y-108479000D01*
X144223000Y-108519000D02*
X145351000Y-108519000D01*
X144223000Y-108560000D02*
X145337000Y-108560000D01*
X144223000Y-108600000D02*
X145323000Y-108600000D01*
X144223000Y-108640000D02*
X145307000Y-108640000D01*
X144223000Y-108680000D02*
X145289999Y-108680000D01*
X144223000Y-108720000D02*
X145272000Y-108720000D01*
X144223000Y-108760000D02*
X145253001Y-108760000D01*
X144223000Y-108800000D02*
X145234000Y-108800000D01*
X144223000Y-108840000D02*
X145212999Y-108840000D01*
X144223000Y-108880000D02*
X145191000Y-108880000D01*
X144223000Y-108920000D02*
X145168000Y-108920000D01*
X144223000Y-108960000D02*
X145143000Y-108960000D01*
X144223000Y-109000000D02*
X145118000Y-109000000D01*
X144223000Y-109040000D02*
X145091000Y-109040000D01*
X144223000Y-109080000D02*
X145063000Y-109080000D01*
X144223000Y-109120000D02*
X145033000Y-109120000D01*
X144223000Y-109160000D02*
X145002000Y-109160000D01*
X144223000Y-109200000D02*
X144970000Y-109200000D01*
X144223000Y-109240000D02*
X144935000Y-109240000D01*
X144223000Y-109280000D02*
X144899000Y-109280000D01*
X144223000Y-109320000D02*
X144861000Y-109320000D01*
X144223000Y-109360000D02*
X144821000Y-109360000D01*
X144223000Y-109400000D02*
X144779000Y-109400000D01*
X144223000Y-109440000D02*
X144734000Y-109440000D01*
X144223000Y-109480000D02*
X144687000Y-109480000D01*
X144223000Y-109520000D02*
X144637000Y-109520000D01*
X144223000Y-109560000D02*
X144583000Y-109560000D01*
X144223000Y-109600000D02*
X144525000Y-109600000D01*
X144223000Y-109640000D02*
X144463000Y-109640000D01*
X145503000Y-107839000D02*
G75*
G02*
X141263000Y-107839000I-2120000J0D01*
G01*
X141263000Y-107839000D02*
G75*
G02*
X145503000Y-107839000I2120000J0D01*
G01*
D12*
%TO.C,RV1*%
X185979999Y-83248000D02*
X185980000Y-67748000D01*
X190480000Y-67748000D02*
X185980000Y-67748000D01*
X190480000Y-83248000D02*
X185979999Y-83248000D01*
X190480000Y-83248000D02*
X190480000Y-67748000D01*
D11*
%TO.C,C14*%
X194238000Y-84570000D02*
X194238000Y-67830000D01*
X196254000Y-67830000D02*
X194238000Y-67830000D01*
X196254000Y-84570000D02*
X194238000Y-84570000D01*
X200478000Y-67830000D02*
X198462000Y-67830000D01*
X200478000Y-84570000D02*
X198462000Y-84570000D01*
X200478000Y-84570000D02*
X200478000Y-67830000D01*
%TO.C,C13*%
X115711000Y-68168000D02*
X114453000Y-68168000D01*
X115711000Y-70008000D02*
X114453000Y-70008000D01*
%TO.C,R6*%
X138049000Y-72055000D02*
X138049000Y-71435000D01*
X138969000Y-72975000D02*
G75*
G02*
X137129000Y-72975000I-920000J0D01*
G01*
X137129000Y-72975000D02*
G75*
G02*
X138969000Y-72975000I920000J0D01*
G01*
%TO.C,R8*%
X123490000Y-71649000D02*
X122870000Y-71649000D01*
X125330000Y-71649000D02*
G75*
G02*
X123490000Y-71649000I-920000J0D01*
G01*
X123490000Y-71649000D02*
G75*
G02*
X125330000Y-71649000I920000J0D01*
G01*
%TO.C,Q2*%
X131378500Y-70412500D02*
X127778500Y-70412500D01*
X127740022Y-70400978D02*
G75*
G02*
X129578500Y-65962499I1838478J1838478D01*
G01*
X129578500Y-65962500D02*
G75*
G02*
X131416978Y-70400978I0J-2600000D01*
G01*
%TO.C,FB1*%
X114695248Y-115470001D02*
X115217752Y-115470001D01*
X114695248Y-116940001D02*
X115217752Y-116940001D01*
%TO.C,PS1*%
X156157000Y-76011500D02*
X156157000Y-79011501D01*
X156397000Y-76251499D02*
X156397000Y-117371500D01*
X156397000Y-76251499D02*
X182017000Y-76251499D01*
X156397000Y-117371500D02*
X182017000Y-117371500D01*
X159157000Y-76011500D02*
X156157000Y-76011500D01*
X182017000Y-76251499D02*
X182017000Y-117371500D01*
%TO.C,C7*%
X122350000Y-106935000D02*
X122110000Y-106935000D01*
X122350000Y-106975000D02*
X122048000Y-106975000D01*
X122350000Y-107015000D02*
X121990000Y-107015000D01*
X122350000Y-107055000D02*
X121936000Y-107055000D01*
X122350000Y-107095000D02*
X121886000Y-107095000D01*
X122350000Y-107135000D02*
X121839000Y-107135000D01*
X122350000Y-107175000D02*
X121794000Y-107175000D01*
X122350000Y-107215000D02*
X121752000Y-107215000D01*
X122350000Y-107255000D02*
X121712000Y-107255000D01*
X122350000Y-107295000D02*
X121674000Y-107295000D01*
X122350000Y-107335000D02*
X121638000Y-107335000D01*
X122350000Y-107375000D02*
X121603000Y-107375000D01*
X122350000Y-107415000D02*
X121571000Y-107415000D01*
X122350000Y-107455000D02*
X121540000Y-107455000D01*
X122350000Y-107495000D02*
X121510000Y-107495000D01*
X122350000Y-107535000D02*
X121482000Y-107535000D01*
X122350000Y-107575000D02*
X121455000Y-107575000D01*
X122350000Y-107615000D02*
X121430000Y-107615000D01*
X122350000Y-107655000D02*
X121405000Y-107655000D01*
X122350000Y-107695000D02*
X121382000Y-107695000D01*
X122350000Y-107735000D02*
X121360001Y-107735000D01*
X122350000Y-107775000D02*
X121339000Y-107775000D01*
X122350000Y-107815000D02*
X121319999Y-107815000D01*
X122350000Y-107855000D02*
X121301000Y-107855000D01*
X122350000Y-107895000D02*
X121283001Y-107895000D01*
X122350000Y-107935000D02*
X121266000Y-107935000D01*
X122350000Y-107975000D02*
X121250000Y-107975000D01*
X122350000Y-108015000D02*
X121236000Y-108015000D01*
X122350000Y-108056000D02*
X121222000Y-108056000D01*
X122350000Y-108096000D02*
X121208000Y-108096000D01*
X122350000Y-108136000D02*
X121196000Y-108136000D01*
X122350000Y-108176000D02*
X121185000Y-108176000D01*
X122350000Y-108215999D02*
X121174000Y-108216000D01*
X122350000Y-108255999D02*
X121165001Y-108256000D01*
X122350000Y-108536001D02*
X121118999Y-108536000D01*
X122350001Y-108296000D02*
X121156000Y-108295999D01*
X122350001Y-108336000D02*
X121148000Y-108336000D01*
X122350001Y-108376000D02*
X121140000Y-108376000D01*
X122350001Y-108416000D02*
X121134000Y-108415999D01*
X122350001Y-108456000D02*
X121128001Y-108456000D01*
X122350001Y-108496000D02*
X121123000Y-108495999D01*
X123560000Y-106655000D02*
X122820000Y-106655000D01*
X123727000Y-106695000D02*
X122653000Y-106695000D01*
X123854000Y-106735000D02*
X122526000Y-106735000D01*
X123958001Y-106775000D02*
X122421999Y-106775000D01*
X124049000Y-106815000D02*
X122331000Y-106815000D01*
X124130000Y-106855000D02*
X122250000Y-106855000D01*
X124203000Y-106895000D02*
X122177000Y-106895000D01*
X124270000Y-106935000D02*
X124030000Y-106935000D01*
X124332000Y-106975000D02*
X124030000Y-106975000D01*
X124385000Y-111005801D02*
X124385000Y-110605801D01*
X124390000Y-107015000D02*
X124030000Y-107015000D01*
X124444000Y-107055000D02*
X124030000Y-107055000D01*
X124494000Y-107095000D02*
X124030000Y-107095000D01*
X124541000Y-107135000D02*
X124030000Y-107135000D01*
X124585000Y-110805801D02*
X124185000Y-110805801D01*
X124586000Y-107175000D02*
X124030000Y-107175000D01*
X124628000Y-107215000D02*
X124030000Y-107215000D01*
X124668000Y-107255000D02*
X124030000Y-107255000D01*
X124706000Y-107295000D02*
X124030000Y-107295000D01*
X124742000Y-107335000D02*
X124030000Y-107335000D01*
X124777000Y-107375000D02*
X124030000Y-107375000D01*
X124809000Y-107415000D02*
X124030000Y-107415000D01*
X124840000Y-107455000D02*
X124030000Y-107455000D01*
X124870000Y-107495000D02*
X124030000Y-107495000D01*
X124898000Y-107535000D02*
X124030000Y-107535000D01*
X124925000Y-107575000D02*
X124030000Y-107575000D01*
X124950000Y-107615000D02*
X124030000Y-107615000D01*
X124975000Y-107655000D02*
X124030000Y-107655000D01*
X124998000Y-107695000D02*
X124030000Y-107695000D01*
X125019999Y-107735000D02*
X124030000Y-107735000D01*
X125041000Y-107775000D02*
X124030000Y-107775000D01*
X125060001Y-107815000D02*
X124030000Y-107815000D01*
X125079000Y-107855000D02*
X124030000Y-107855000D01*
X125096999Y-107895000D02*
X124030000Y-107895000D01*
X125114000Y-107935000D02*
X124030000Y-107935000D01*
X125130000Y-107975000D02*
X124030000Y-107975000D01*
X125144000Y-108015000D02*
X124030000Y-108015000D01*
X125158000Y-108056000D02*
X124030000Y-108056000D01*
X125172000Y-108096000D02*
X124030000Y-108096000D01*
X125184000Y-108136000D02*
X124030000Y-108136000D01*
X125195000Y-108176000D02*
X124030000Y-108176000D01*
X125206000Y-108216000D02*
X124030000Y-108215999D01*
X125215000Y-108255999D02*
X124030000Y-108255999D01*
X125224000Y-108295999D02*
X124030000Y-108295999D01*
X125232000Y-108336000D02*
X124030000Y-108335999D01*
X125240000Y-108376000D02*
X124030000Y-108375999D01*
X125246000Y-108415999D02*
X124030000Y-108415999D01*
X125252000Y-108455999D02*
X124030000Y-108455999D01*
X125257001Y-108496000D02*
X124030000Y-108495999D01*
X125261000Y-108536001D02*
X124029999Y-108536000D01*
X125264000Y-108576001D02*
X121115999Y-108576000D01*
X125267000Y-108616001D02*
X121113000Y-108616001D01*
X125269000Y-108656000D02*
X121111000Y-108656000D01*
X125270000Y-108696000D02*
X121110000Y-108696000D01*
X125270000Y-108736000D02*
X121110000Y-108736000D01*
X125310000Y-108736000D02*
G75*
G02*
X121070000Y-108736000I-2120000J0D01*
G01*
X121070000Y-108736000D02*
G75*
G02*
X125310000Y-108736000I2120000J0D01*
G01*
%TO.C,R9*%
X123059000Y-64791000D02*
X122439000Y-64791000D01*
X124899000Y-64791000D02*
G75*
G02*
X123059000Y-64791000I-920000J0D01*
G01*
X123059000Y-64791000D02*
G75*
G02*
X124899000Y-64791000I920000J0D01*
G01*
%TO.C,R2*%
X107088000Y-108276000D02*
X107418000Y-108276000D01*
X107088000Y-114816000D02*
X107088000Y-108276000D01*
X107418001Y-114816000D02*
X107088000Y-114816000D01*
X109497999Y-114816000D02*
X109828000Y-114816000D01*
X109828000Y-108276000D02*
X109498000Y-108276000D01*
X109828000Y-114816000D02*
X109828000Y-108276000D01*
%TO.C,C17*%
X133954000Y-108395800D02*
X133954000Y-107137800D01*
X135794000Y-108395800D02*
X135794000Y-107137800D01*
D12*
%TO.C,TH1*%
X184171199Y-57039200D02*
X193171199Y-57039200D01*
X184171199Y-62239200D02*
X184171199Y-57039200D01*
X184171199Y-62239200D02*
X193171199Y-62239200D01*
X193171199Y-62239200D02*
X193171199Y-57039200D01*
D11*
%TO.C,R1*%
X104040000Y-108276000D02*
X104040000Y-114816000D01*
X104040000Y-114816000D02*
X104370000Y-114816000D01*
X104370001Y-108276000D02*
X104040000Y-108276000D01*
X106449999Y-108276000D02*
X106780000Y-108276000D01*
X106780000Y-108276000D02*
X106780000Y-114816000D01*
X106780000Y-114816000D02*
X106450000Y-114816000D01*
%TO.C,R4*%
X137191000Y-130429000D02*
X137811000Y-130429000D01*
X137191000Y-130429000D02*
G75*
G02*
X135351000Y-130429000I-920000J0D01*
G01*
X135351000Y-130429000D02*
G75*
G02*
X137191000Y-130429000I920000J0D01*
G01*
%TO.C,C11*%
X146146000Y-108305000D02*
X146146000Y-107047000D01*
X147986000Y-108305000D02*
X147986000Y-107047000D01*
%TO.C,U1*%
X113436001Y-111765500D02*
X113436001Y-110965500D01*
X113436001Y-111765500D02*
X113436001Y-112565500D01*
X116556001Y-111765500D02*
X116556001Y-110965500D01*
X116556001Y-111765500D02*
X116556001Y-112565500D01*
X116836001Y-113305500D02*
X116506001Y-113065500D01*
X116836001Y-112825500D01*
X116836001Y-113305500D01*
G36*
X116836001Y-113305500D02*
G01*
X116506001Y-113065500D01*
X116836001Y-112825500D01*
X116836001Y-113305500D01*
G37*
%TO.C,C1*%
X122096000Y-112852601D02*
X121856000Y-112852601D01*
X122096000Y-112892601D02*
X121794000Y-112892601D01*
X122096000Y-112932601D02*
X121736000Y-112932601D01*
X122096000Y-112972601D02*
X121682000Y-112972601D01*
X122096000Y-113012601D02*
X121632000Y-113012601D01*
X122096000Y-113052601D02*
X121585000Y-113052601D01*
X122096000Y-113092601D02*
X121540000Y-113092601D01*
X122096000Y-113132601D02*
X121498000Y-113132601D01*
X122096000Y-113172601D02*
X121458000Y-113172601D01*
X122096000Y-113212601D02*
X121420000Y-113212601D01*
X122096000Y-113252601D02*
X121384000Y-113252601D01*
X122096000Y-113292601D02*
X121349000Y-113292601D01*
X122096000Y-113332601D02*
X121317000Y-113332601D01*
X122096000Y-113372601D02*
X121286000Y-113372601D01*
X122096000Y-113412601D02*
X121256000Y-113412601D01*
X122096000Y-113452601D02*
X121228000Y-113452601D01*
X122096000Y-113492601D02*
X121201000Y-113492601D01*
X122096000Y-113532601D02*
X121176000Y-113532601D01*
X122096000Y-113572601D02*
X121151000Y-113572601D01*
X122096000Y-113612601D02*
X121128000Y-113612601D01*
X122096000Y-113652601D02*
X121106001Y-113652601D01*
X122096000Y-113692601D02*
X121085000Y-113692601D01*
X122096000Y-113732601D02*
X121065999Y-113732601D01*
X122096000Y-113772601D02*
X121047000Y-113772601D01*
X122096000Y-113812601D02*
X121029001Y-113812601D01*
X122096000Y-113852601D02*
X121012000Y-113852601D01*
X122096000Y-113892601D02*
X120996000Y-113892601D01*
X122096000Y-113932601D02*
X120982000Y-113932601D01*
X122096000Y-113973601D02*
X120968000Y-113973601D01*
X122096000Y-114013601D02*
X120954000Y-114013601D01*
X122096000Y-114053601D02*
X120942000Y-114053601D01*
X122096000Y-114093601D02*
X120931000Y-114093601D01*
X122096000Y-114133600D02*
X120920000Y-114133601D01*
X122096000Y-114173600D02*
X120911001Y-114173601D01*
X122096000Y-114453602D02*
X120864999Y-114453601D01*
X122096001Y-114213601D02*
X120902000Y-114213600D01*
X122096001Y-114253601D02*
X120894000Y-114253601D01*
X122096001Y-114293601D02*
X120886000Y-114293601D01*
X122096001Y-114333601D02*
X120880000Y-114333600D01*
X122096001Y-114373601D02*
X120874001Y-114373601D01*
X122096001Y-114413601D02*
X120869000Y-114413600D01*
X123306000Y-112572601D02*
X122566000Y-112572601D01*
X123473000Y-112612601D02*
X122399000Y-112612601D01*
X123600000Y-112652601D02*
X122272000Y-112652601D01*
X123704001Y-112692601D02*
X122167999Y-112692601D01*
X123795000Y-112732601D02*
X122077000Y-112732601D01*
X123876000Y-112772601D02*
X121996000Y-112772601D01*
X123949000Y-112812601D02*
X121923000Y-112812601D01*
X124016000Y-112852601D02*
X123776000Y-112852601D01*
X124078000Y-112892601D02*
X123776000Y-112892601D01*
X124131000Y-116923402D02*
X124131000Y-116523402D01*
X124136000Y-112932601D02*
X123776000Y-112932601D01*
X124190000Y-112972601D02*
X123776000Y-112972601D01*
X124240000Y-113012601D02*
X123776000Y-113012601D01*
X124287000Y-113052601D02*
X123776000Y-113052601D01*
X124331000Y-116723402D02*
X123931000Y-116723402D01*
X124332000Y-113092601D02*
X123776000Y-113092601D01*
X124374000Y-113132601D02*
X123776000Y-113132601D01*
X124414000Y-113172601D02*
X123776000Y-113172601D01*
X124452000Y-113212601D02*
X123776000Y-113212601D01*
X124488000Y-113252601D02*
X123776000Y-113252601D01*
X124523000Y-113292601D02*
X123776000Y-113292601D01*
X124555000Y-113332601D02*
X123776000Y-113332601D01*
X124586000Y-113372601D02*
X123776000Y-113372601D01*
X124616000Y-113412601D02*
X123776000Y-113412601D01*
X124644000Y-113452601D02*
X123776000Y-113452601D01*
X124671000Y-113492601D02*
X123776000Y-113492601D01*
X124696000Y-113532601D02*
X123776000Y-113532601D01*
X124721000Y-113572601D02*
X123776000Y-113572601D01*
X124744000Y-113612601D02*
X123776000Y-113612601D01*
X124765999Y-113652601D02*
X123776000Y-113652601D01*
X124787000Y-113692601D02*
X123776000Y-113692601D01*
X124806001Y-113732601D02*
X123776000Y-113732601D01*
X124825000Y-113772601D02*
X123776000Y-113772601D01*
X124842999Y-113812601D02*
X123776000Y-113812601D01*
X124860000Y-113852601D02*
X123776000Y-113852601D01*
X124876000Y-113892601D02*
X123776000Y-113892601D01*
X124890000Y-113932601D02*
X123776000Y-113932601D01*
X124904000Y-113973601D02*
X123776000Y-113973601D01*
X124918000Y-114013601D02*
X123776000Y-114013601D01*
X124930000Y-114053601D02*
X123776000Y-114053601D01*
X124941000Y-114093601D02*
X123776000Y-114093601D01*
X124952000Y-114133601D02*
X123776000Y-114133600D01*
X124961000Y-114173600D02*
X123776000Y-114173600D01*
X124970000Y-114213600D02*
X123776000Y-114213600D01*
X124978000Y-114253601D02*
X123776000Y-114253600D01*
X124986000Y-114293601D02*
X123776000Y-114293600D01*
X124992000Y-114333600D02*
X123776000Y-114333600D01*
X124998000Y-114373600D02*
X123776000Y-114373600D01*
X125003001Y-114413601D02*
X123776000Y-114413600D01*
X125007000Y-114453602D02*
X123775999Y-114453601D01*
X125010000Y-114493602D02*
X120861999Y-114493601D01*
X125013000Y-114533602D02*
X120859000Y-114533602D01*
X125015000Y-114573601D02*
X120857000Y-114573601D01*
X125016000Y-114613601D02*
X120856000Y-114613601D01*
X125016000Y-114653601D02*
X120856000Y-114653601D01*
X125056000Y-114653601D02*
G75*
G02*
X120816000Y-114653601I-2120000J0D01*
G01*
X120816000Y-114653601D02*
G75*
G02*
X125056000Y-114653601I2120000J0D01*
G01*
%TO.C,F1*%
X190783200Y-91710000D02*
X193883200Y-91710000D01*
X190783200Y-109710000D02*
X193283200Y-109710000D01*
X190783200Y-115710000D02*
X190783200Y-91710000D01*
X193283199Y-108210000D02*
X198283201Y-108210000D01*
X193283200Y-93709999D02*
X193883200Y-93710000D01*
X193283200Y-97710000D02*
X190783200Y-97710000D01*
X193283200Y-99210000D02*
X198283200Y-99210000D01*
X193283200Y-113709999D02*
X193283200Y-93709999D01*
X193883200Y-113709999D02*
X193283200Y-113709999D01*
X193883200Y-115710000D02*
X190783200Y-115710000D01*
X195783200Y-99210000D02*
X195783200Y-108210000D01*
X197683200Y-91710000D02*
X200783200Y-91710000D01*
X197683200Y-93710000D02*
X198283201Y-93710000D01*
X198283201Y-93710000D02*
X198283201Y-113710000D01*
X198283201Y-113710000D02*
X197683200Y-113709999D01*
X200783200Y-91710000D02*
X200783200Y-115710000D01*
X200783200Y-97710000D02*
X198283200Y-97710000D01*
X200783200Y-109710000D02*
X198283200Y-109710000D01*
X200783200Y-115710000D02*
X197683200Y-115710000D01*
%TO.C,C15*%
X136731001Y-107871001D02*
X140891001Y-107871001D01*
X136731001Y-107911001D02*
X140891001Y-107911001D01*
X136732001Y-107951001D02*
X140890001Y-107951001D01*
X136734001Y-107991000D02*
X140888001Y-107991000D01*
X136737001Y-108031000D02*
X140885002Y-108031001D01*
X136740001Y-108071000D02*
X137971002Y-108071001D01*
X136744000Y-108111001D02*
X137971001Y-108111002D01*
X136749001Y-108151002D02*
X137971001Y-108151002D01*
X136755001Y-108191002D02*
X137971001Y-108191002D01*
X136761001Y-108231001D02*
X137971001Y-108231002D01*
X136769001Y-108271001D02*
X137971001Y-108271002D01*
X136777001Y-108311002D02*
X137971001Y-108311002D01*
X136786001Y-108351002D02*
X137971001Y-108351002D01*
X136795001Y-108391001D02*
X137971001Y-108391002D01*
X136806001Y-108431001D02*
X137971001Y-108431001D01*
X136817001Y-108471001D02*
X137971001Y-108471001D01*
X136829001Y-108511001D02*
X137971001Y-108511001D01*
X136843001Y-108551001D02*
X137971001Y-108551001D01*
X136857001Y-108592001D02*
X137971001Y-108592001D01*
X136871001Y-108632001D02*
X137971001Y-108632001D01*
X136887001Y-108672001D02*
X137971001Y-108672001D01*
X136904002Y-108712001D02*
X137971001Y-108712001D01*
X136922001Y-108752001D02*
X137971001Y-108752001D01*
X136941000Y-108792001D02*
X137971001Y-108792001D01*
X136960001Y-108832001D02*
X137971001Y-108832001D01*
X136981002Y-108872001D02*
X137971001Y-108872001D01*
X137003001Y-108912001D02*
X137971001Y-108912001D01*
X137026001Y-108952001D02*
X137971001Y-108952001D01*
X137051001Y-108992001D02*
X137971001Y-108992001D01*
X137076001Y-109032001D02*
X137971001Y-109032001D01*
X137103001Y-109072001D02*
X137971001Y-109072001D01*
X137131001Y-109112001D02*
X137971001Y-109112001D01*
X137161001Y-109152001D02*
X137971001Y-109152001D01*
X137192001Y-109192001D02*
X137971001Y-109192001D01*
X137224001Y-109232001D02*
X137971001Y-109232001D01*
X137259001Y-109272001D02*
X137971001Y-109272001D01*
X137295001Y-109312001D02*
X137971001Y-109312001D01*
X137333001Y-109352001D02*
X137971001Y-109352001D01*
X137373001Y-109392001D02*
X137971001Y-109392001D01*
X137415001Y-109432001D02*
X137971001Y-109432001D01*
X137416001Y-105801200D02*
X137816001Y-105801200D01*
X137460001Y-109472001D02*
X137971001Y-109472001D01*
X137507001Y-109512001D02*
X137971001Y-109512001D01*
X137557001Y-109552001D02*
X137971001Y-109552001D01*
X137611001Y-109592001D02*
X137971001Y-109592001D01*
X137616001Y-105601200D02*
X137616001Y-106001200D01*
X137669001Y-109632001D02*
X137971001Y-109632001D01*
X137731001Y-109672001D02*
X137971001Y-109672001D01*
X137798001Y-109712001D02*
X139824001Y-109712001D01*
X137871001Y-109752001D02*
X139751001Y-109752001D01*
X137952001Y-109792001D02*
X139670001Y-109792001D01*
X138043000Y-109832001D02*
X139579002Y-109832001D01*
X138147001Y-109872001D02*
X139475001Y-109872001D01*
X138274001Y-109912001D02*
X139348001Y-109912001D01*
X138441001Y-109952001D02*
X139181001Y-109952001D01*
X139651000Y-108111001D02*
X140878001Y-108111002D01*
X139651000Y-108151001D02*
X140873000Y-108151001D01*
X139651000Y-108191001D02*
X140867001Y-108191002D01*
X139651000Y-108231001D02*
X140861001Y-108231001D01*
X139651000Y-108271001D02*
X140853001Y-108271001D01*
X139651000Y-108311001D02*
X140845001Y-108311002D01*
X139651001Y-108071000D02*
X140882002Y-108071001D01*
X139651001Y-108351002D02*
X140836000Y-108351001D01*
X139651001Y-108391002D02*
X140827001Y-108391001D01*
X139651001Y-108431001D02*
X140816001Y-108431001D01*
X139651001Y-108471001D02*
X140805001Y-108471001D01*
X139651001Y-108511001D02*
X140793001Y-108511001D01*
X139651001Y-108551001D02*
X140779001Y-108551001D01*
X139651001Y-108592001D02*
X140765001Y-108592001D01*
X139651001Y-108632001D02*
X140751001Y-108632001D01*
X139651001Y-108672001D02*
X140735001Y-108672001D01*
X139651001Y-108712001D02*
X140718000Y-108712001D01*
X139651001Y-108752001D02*
X140700001Y-108752001D01*
X139651001Y-108792001D02*
X140681002Y-108792001D01*
X139651001Y-108832001D02*
X140662001Y-108832001D01*
X139651001Y-108872001D02*
X140641000Y-108872001D01*
X139651001Y-108912001D02*
X140619001Y-108912001D01*
X139651001Y-108952001D02*
X140596001Y-108952001D01*
X139651001Y-108992001D02*
X140571001Y-108992001D01*
X139651001Y-109032001D02*
X140546001Y-109032001D01*
X139651001Y-109072001D02*
X140519001Y-109072001D01*
X139651001Y-109112001D02*
X140491001Y-109112001D01*
X139651001Y-109152001D02*
X140461001Y-109152001D01*
X139651001Y-109192001D02*
X140430001Y-109192001D01*
X139651001Y-109232001D02*
X140398001Y-109232001D01*
X139651001Y-109272001D02*
X140363001Y-109272001D01*
X139651001Y-109312001D02*
X140327001Y-109312001D01*
X139651001Y-109352001D02*
X140289001Y-109352001D01*
X139651001Y-109392001D02*
X140249001Y-109392001D01*
X139651001Y-109432001D02*
X140207001Y-109432001D01*
X139651001Y-109472001D02*
X140162001Y-109472001D01*
X139651001Y-109512001D02*
X140115001Y-109512001D01*
X139651001Y-109552001D02*
X140065001Y-109552001D01*
X139651001Y-109592001D02*
X140011001Y-109592001D01*
X139651001Y-109632001D02*
X139953001Y-109632001D01*
X139651001Y-109672001D02*
X139891001Y-109672001D01*
X140931001Y-107871001D02*
G75*
G02*
X136691001Y-107871001I-2120000J0D01*
G01*
X136691001Y-107871001D02*
G75*
G02*
X140931001Y-107871001I2120000J0D01*
G01*
%TO.C,F2*%
X151709000Y-117485000D02*
X151709001Y-107285000D01*
X155809000Y-107285000D02*
X151709001Y-107285000D01*
X155809000Y-117485000D02*
X151709000Y-117485000D01*
X155809000Y-117485000D02*
X155809000Y-107285000D01*
%TO.C,C12*%
X113073599Y-74347000D02*
X113473599Y-74347000D01*
X113273599Y-74547000D02*
X113273599Y-74147000D01*
X115343400Y-75232000D02*
X115343400Y-71072000D01*
X115383400Y-75232000D02*
X115383400Y-71072000D01*
X115423400Y-75231000D02*
X115423400Y-71073000D01*
X115463399Y-75229000D02*
X115463399Y-71075000D01*
X115503399Y-75226000D02*
X115503400Y-71077999D01*
X115543399Y-72312000D02*
X115543400Y-71080999D01*
X115543399Y-75223000D02*
X115543400Y-73991999D01*
X115583400Y-72312001D02*
X115583401Y-71085000D01*
X115583400Y-75219001D02*
X115583401Y-73992000D01*
X115623400Y-72312001D02*
X115623400Y-71090001D01*
X115623401Y-75214000D02*
X115623401Y-73992000D01*
X115663400Y-72312001D02*
X115663401Y-71096000D01*
X115663401Y-75208000D02*
X115663401Y-73992000D01*
X115703400Y-72312001D02*
X115703400Y-71102000D01*
X115703400Y-75202000D02*
X115703401Y-73992000D01*
X115743400Y-72312001D02*
X115743400Y-71110000D01*
X115743400Y-75194000D02*
X115743401Y-73992000D01*
X115783400Y-72312001D02*
X115783401Y-71118000D01*
X115783401Y-75186000D02*
X115783401Y-73992000D01*
X115823401Y-72312000D02*
X115823400Y-71127001D01*
X115823401Y-75177000D02*
X115823401Y-73992000D01*
X115863400Y-75168000D02*
X115863401Y-73992000D01*
X115863401Y-72312000D02*
X115863400Y-71136000D01*
X115903400Y-72312000D02*
X115903400Y-71147000D01*
X115903400Y-75157000D02*
X115903400Y-73992000D01*
X115943400Y-72312000D02*
X115943400Y-71158000D01*
X115943400Y-75146000D02*
X115943400Y-73992000D01*
X115983400Y-72312000D02*
X115983400Y-71170000D01*
X115983400Y-75134000D02*
X115983400Y-73992000D01*
X116023400Y-72312000D02*
X116023400Y-71184000D01*
X116023400Y-75120000D02*
X116023400Y-73992000D01*
X116064400Y-72312000D02*
X116064400Y-71198000D01*
X116064400Y-75106000D02*
X116064400Y-73992000D01*
X116104400Y-72312000D02*
X116104400Y-71212000D01*
X116104400Y-75092000D02*
X116104400Y-73992000D01*
X116144400Y-72312000D02*
X116144400Y-71228000D01*
X116144400Y-75076000D02*
X116144400Y-73992000D01*
X116184400Y-72312000D02*
X116184400Y-71245001D01*
X116184400Y-75058999D02*
X116184400Y-73992000D01*
X116224400Y-72312000D02*
X116224400Y-71263000D01*
X116224400Y-75041000D02*
X116224400Y-73992000D01*
X116264400Y-72312000D02*
X116264400Y-71281999D01*
X116264400Y-75022001D02*
X116264400Y-73992000D01*
X116304400Y-72312000D02*
X116304400Y-71301000D01*
X116304400Y-75003000D02*
X116304400Y-73992000D01*
X116344400Y-72312000D02*
X116344400Y-71322001D01*
X116344400Y-74981999D02*
X116344400Y-73992000D01*
X116384400Y-72312000D02*
X116384400Y-71344000D01*
X116384400Y-74960000D02*
X116384400Y-73992000D01*
X116424400Y-72312000D02*
X116424400Y-71367000D01*
X116424400Y-74937000D02*
X116424400Y-73992000D01*
X116464400Y-72312000D02*
X116464400Y-71392000D01*
X116464400Y-74912000D02*
X116464400Y-73992000D01*
X116504400Y-72312000D02*
X116504400Y-71417000D01*
X116504400Y-74887000D02*
X116504400Y-73992000D01*
X116544400Y-72312000D02*
X116544400Y-71444000D01*
X116544400Y-74860000D02*
X116544400Y-73992000D01*
X116584400Y-72312000D02*
X116584400Y-71472000D01*
X116584400Y-74832000D02*
X116584400Y-73992000D01*
X116624400Y-72312000D02*
X116624400Y-71502000D01*
X116624400Y-74802000D02*
X116624400Y-73992000D01*
X116664400Y-72312000D02*
X116664400Y-71533000D01*
X116664400Y-74771000D02*
X116664400Y-73992000D01*
X116704400Y-72312000D02*
X116704400Y-71565000D01*
X116704400Y-74739000D02*
X116704400Y-73992000D01*
X116744400Y-72312000D02*
X116744400Y-71600000D01*
X116744400Y-74704000D02*
X116744400Y-73992000D01*
X116784400Y-72312000D02*
X116784400Y-71636000D01*
X116784400Y-74668000D02*
X116784400Y-73992000D01*
X116824400Y-72312000D02*
X116824400Y-71674000D01*
X116824400Y-74630000D02*
X116824400Y-73992000D01*
X116864400Y-72312000D02*
X116864400Y-71714000D01*
X116864400Y-74590000D02*
X116864400Y-73992000D01*
X116904400Y-72312000D02*
X116904400Y-71756000D01*
X116904400Y-74548000D02*
X116904400Y-73992000D01*
X116944400Y-72312000D02*
X116944400Y-71801000D01*
X116944400Y-74503000D02*
X116944400Y-73992000D01*
X116984400Y-72312000D02*
X116984400Y-71848000D01*
X116984400Y-74456000D02*
X116984400Y-73992000D01*
X117024400Y-72312000D02*
X117024400Y-71898000D01*
X117024400Y-74406000D02*
X117024400Y-73992000D01*
X117064400Y-72312000D02*
X117064400Y-71952000D01*
X117064400Y-74352000D02*
X117064400Y-73992000D01*
X117104400Y-72312000D02*
X117104400Y-72010000D01*
X117104400Y-74294000D02*
X117104400Y-73992000D01*
X117144400Y-72312000D02*
X117144400Y-72072000D01*
X117144400Y-74232000D02*
X117144400Y-73992000D01*
X117184400Y-74165000D02*
X117184400Y-72139000D01*
X117224400Y-74092000D02*
X117224400Y-72212000D01*
X117264400Y-74011000D02*
X117264400Y-72293000D01*
X117304400Y-73920001D02*
X117304400Y-72383999D01*
X117344400Y-73816000D02*
X117344400Y-72488000D01*
X117384400Y-73689000D02*
X117384400Y-72615000D01*
X117424400Y-73522000D02*
X117424400Y-72782000D01*
X117463400Y-73152000D02*
G75*
G02*
X113223400Y-73152000I-2120000J0D01*
G01*
X113223400Y-73152000D02*
G75*
G02*
X117463400Y-73152000I2120000J0D01*
G01*
%TO.C,C4*%
X126232000Y-73629000D02*
X124974000Y-73629000D01*
X126232000Y-75469000D02*
X124974000Y-75469000D01*
%TO.C,C9*%
X117825000Y-109234000D02*
X117825000Y-107976000D01*
X119665000Y-109234000D02*
X119665000Y-107976000D01*
D13*
%TO.C,U4*%
X103832000Y-76144000D02*
X103832000Y-87213000D01*
X103832000Y-76144000D02*
X103832000Y-104653999D01*
X103832000Y-87213000D02*
X103832000Y-93924000D01*
X103832000Y-93924000D02*
X103832000Y-104653999D01*
X103832000Y-104653999D02*
X154782000Y-104653999D01*
X103832000Y-104653999D02*
X154782000Y-104653999D01*
X154782000Y-76144000D02*
X103832000Y-76144000D01*
X154782000Y-76144000D02*
X103832000Y-76144000D01*
X154782000Y-76144000D02*
X154782000Y-81514000D01*
X154782000Y-81514000D02*
X154782000Y-99204000D01*
X154782000Y-99204000D02*
X154782000Y-104653999D01*
X154782000Y-104653999D02*
X154782000Y-76144000D01*
D14*
X113892000Y-75574000D02*
G75*
G02*
X113692000Y-75574000I-100000J0D01*
G01*
X113692000Y-75574000D02*
G75*
G02*
X113892000Y-75574000I100000J0D01*
G01*
D11*
%TO.C,Q1*%
X125117000Y-70430000D02*
X121517000Y-70430000D01*
X121478522Y-70418478D02*
G75*
G02*
X123317000Y-65979999I1838478J1838478D01*
G01*
X123317000Y-65980000D02*
G75*
G02*
X125155478Y-70418478I0J-2600000D01*
G01*
%TO.C,C10*%
X114349000Y-105399600D02*
X114109000Y-105399600D01*
X114349000Y-105439600D02*
X114047000Y-105439600D01*
X114349000Y-105479600D02*
X113989000Y-105479600D01*
X114349000Y-105519600D02*
X113935000Y-105519600D01*
X114349000Y-105559600D02*
X113885000Y-105559600D01*
X114349000Y-105599600D02*
X113838000Y-105599600D01*
X114349000Y-105639600D02*
X113793000Y-105639600D01*
X114349000Y-105679600D02*
X113751000Y-105679600D01*
X114349000Y-105719600D02*
X113711000Y-105719600D01*
X114349000Y-105759600D02*
X113673000Y-105759600D01*
X114349000Y-105799600D02*
X113637000Y-105799600D01*
X114349000Y-105839600D02*
X113602000Y-105839600D01*
X114349000Y-105879600D02*
X113570000Y-105879600D01*
X114349000Y-105919600D02*
X113539000Y-105919600D01*
X114349000Y-105959600D02*
X113509000Y-105959600D01*
X114349000Y-105999600D02*
X113481000Y-105999600D01*
X114349000Y-106039600D02*
X113454000Y-106039600D01*
X114349000Y-106079600D02*
X113429000Y-106079600D01*
X114349000Y-106119600D02*
X113404000Y-106119600D01*
X114349000Y-106159600D02*
X113381000Y-106159600D01*
X114349000Y-106199600D02*
X113359001Y-106199600D01*
X114349000Y-106239600D02*
X113338000Y-106239600D01*
X114349000Y-106279600D02*
X113318999Y-106279600D01*
X114349000Y-106319600D02*
X113300000Y-106319600D01*
X114349000Y-106359600D02*
X113282001Y-106359600D01*
X114349000Y-106399600D02*
X113265000Y-106399600D01*
X114349000Y-106439600D02*
X113249000Y-106439600D01*
X114349000Y-106479600D02*
X113235000Y-106479600D01*
X114349000Y-106520600D02*
X113221000Y-106520600D01*
X114349000Y-106560600D02*
X113207000Y-106560600D01*
X114349000Y-106600600D02*
X113195000Y-106600600D01*
X114349000Y-106640600D02*
X113184000Y-106640600D01*
X114349000Y-106680599D02*
X113173000Y-106680600D01*
X114349000Y-106720599D02*
X113164001Y-106720600D01*
X114349000Y-107000601D02*
X113117999Y-107000600D01*
X114349001Y-106760600D02*
X113155000Y-106760599D01*
X114349001Y-106800600D02*
X113147000Y-106800600D01*
X114349001Y-106840600D02*
X113139000Y-106840600D01*
X114349001Y-106880600D02*
X113133000Y-106880599D01*
X114349001Y-106920600D02*
X113127001Y-106920600D01*
X114349001Y-106960600D02*
X113122000Y-106960599D01*
X115559000Y-105119600D02*
X114819000Y-105119600D01*
X115726000Y-105159600D02*
X114652000Y-105159600D01*
X115853000Y-105199600D02*
X114525000Y-105199600D01*
X115957001Y-105239600D02*
X114420999Y-105239600D01*
X116048000Y-105279600D02*
X114330000Y-105279600D01*
X116129000Y-105319600D02*
X114249000Y-105319600D01*
X116202000Y-105359600D02*
X114176000Y-105359600D01*
X116269000Y-105399600D02*
X116029000Y-105399600D01*
X116331000Y-105439600D02*
X116029000Y-105439600D01*
X116384000Y-109470401D02*
X116384000Y-109070401D01*
X116389000Y-105479600D02*
X116029000Y-105479600D01*
X116443000Y-105519600D02*
X116029000Y-105519600D01*
X116493000Y-105559600D02*
X116029000Y-105559600D01*
X116540000Y-105599600D02*
X116029000Y-105599600D01*
X116584000Y-109270401D02*
X116184000Y-109270401D01*
X116585000Y-105639600D02*
X116029000Y-105639600D01*
X116627000Y-105679600D02*
X116029000Y-105679600D01*
X116667000Y-105719600D02*
X116029000Y-105719600D01*
X116705000Y-105759600D02*
X116029000Y-105759600D01*
X116741000Y-105799600D02*
X116029000Y-105799600D01*
X116776000Y-105839600D02*
X116029000Y-105839600D01*
X116808000Y-105879600D02*
X116029000Y-105879600D01*
X116839000Y-105919600D02*
X116029000Y-105919600D01*
X116869000Y-105959600D02*
X116029000Y-105959600D01*
X116897000Y-105999600D02*
X116029000Y-105999600D01*
X116924000Y-106039600D02*
X116029000Y-106039600D01*
X116949000Y-106079600D02*
X116029000Y-106079600D01*
X116974000Y-106119600D02*
X116029000Y-106119600D01*
X116997000Y-106159600D02*
X116029000Y-106159600D01*
X117018999Y-106199600D02*
X116029000Y-106199600D01*
X117040000Y-106239600D02*
X116029000Y-106239600D01*
X117059001Y-106279600D02*
X116029000Y-106279600D01*
X117078000Y-106319600D02*
X116029000Y-106319600D01*
X117095999Y-106359600D02*
X116029000Y-106359600D01*
X117113000Y-106399600D02*
X116029000Y-106399600D01*
X117129000Y-106439600D02*
X116029000Y-106439600D01*
X117143000Y-106479600D02*
X116029000Y-106479600D01*
X117157000Y-106520600D02*
X116029000Y-106520600D01*
X117171000Y-106560600D02*
X116029000Y-106560600D01*
X117183000Y-106600600D02*
X116029000Y-106600600D01*
X117194000Y-106640600D02*
X116029000Y-106640600D01*
X117205000Y-106680600D02*
X116029000Y-106680599D01*
X117214000Y-106720599D02*
X116029000Y-106720599D01*
X117223000Y-106760599D02*
X116029000Y-106760599D01*
X117231000Y-106800600D02*
X116029000Y-106800599D01*
X117239000Y-106840600D02*
X116029000Y-106840599D01*
X117245000Y-106880599D02*
X116029000Y-106880599D01*
X117251000Y-106920599D02*
X116029000Y-106920599D01*
X117256001Y-106960600D02*
X116029000Y-106960599D01*
X117260000Y-107000601D02*
X116028999Y-107000600D01*
X117263000Y-107040601D02*
X113114999Y-107040600D01*
X117266000Y-107080601D02*
X113112000Y-107080601D01*
X117268000Y-107120600D02*
X113110000Y-107120600D01*
X117269000Y-107160600D02*
X113109000Y-107160600D01*
X117269000Y-107200600D02*
X113109000Y-107200600D01*
X117309000Y-107200600D02*
G75*
G02*
X113069000Y-107200600I-2120000J0D01*
G01*
X113069000Y-107200600D02*
G75*
G02*
X117309000Y-107200600I2120000J0D01*
G01*
%TO.C,C2*%
X117952000Y-115183000D02*
X117952000Y-113925000D01*
X119792000Y-115183000D02*
X119792000Y-113925000D01*
%TO.C,U5*%
X140332001Y-68731498D02*
X140332001Y-71531499D01*
X140332001Y-73931500D02*
X140332001Y-73531499D01*
X140332001Y-73931500D02*
X168532001Y-73931500D01*
X146282000Y-74131499D02*
X144282001Y-74131500D01*
X168532001Y-73931500D02*
X168532002Y-68731499D01*
X168532002Y-68731499D02*
X140332001Y-68731498D01*
%TO.C,C3*%
X128239000Y-108718000D02*
X128239000Y-109976000D01*
X130079000Y-108718000D02*
X130079000Y-109976000D01*
%TO.C,U2*%
X108397999Y-121599000D02*
X108397999Y-118939000D01*
X131318000Y-118939000D02*
X108397999Y-118939000D01*
X131318000Y-121599000D02*
X108397999Y-121599000D01*
X131318000Y-121599000D02*
X131318000Y-118939000D01*
X133918000Y-118939000D02*
X132588000Y-118939000D01*
X133918000Y-120269000D02*
X133918000Y-118939000D01*
%TD*%
M02*
