%FSLAX45Y45*%
G04 Gerber Fmt 4.5, Leading zero omitted, Abs format (unit mm)*
G04 Created by KiCad (PCBNEW (5.0.2)-1) date 08/16/24 20:28:11*
%MOMM*%
%LPD*%
G01*
G04 APERTURE LIST*
%ADD10C,0.150000*%
%ADD11C,0.200000*%
%ADD12C,0.300000*%
G04 APERTURE END LIST*
D10*
X17392650Y-14274800D02*
X16916400Y-14274800D01*
X17741900Y-13925550D02*
X17392650Y-14274800D01*
X17741900Y-8407400D02*
X17741900Y-13925550D01*
X17335500Y-8001000D02*
X17741900Y-8407400D01*
X17221200Y-8001000D02*
X17335500Y-8001000D01*
X16814800Y-8001000D02*
X17221200Y-8001000D01*
X9626600Y-8382000D02*
X10007600Y-8001000D01*
X9626600Y-13944600D02*
X9626600Y-8382000D01*
X9956800Y-14274800D02*
X9626600Y-13944600D01*
X16916400Y-14274800D02*
X9956800Y-14274800D01*
X10007600Y-8001000D02*
X16814800Y-8001000D01*
D11*
D12*
X9905528Y-14748014D02*
X9905528Y-14448014D01*
X9976957Y-14448014D01*
X10019814Y-14462300D01*
X10048386Y-14490871D01*
X10062671Y-14519443D01*
X10076957Y-14576586D01*
X10076957Y-14619443D01*
X10062671Y-14676586D01*
X10048386Y-14705157D01*
X10019814Y-14733729D01*
X9976957Y-14748014D01*
X9905528Y-14748014D01*
X10205528Y-14748014D02*
X10205528Y-14548014D01*
X10205528Y-14605157D02*
X10219814Y-14576586D01*
X10234100Y-14562300D01*
X10262671Y-14548014D01*
X10291243Y-14548014D01*
X10391243Y-14748014D02*
X10391243Y-14548014D01*
X10391243Y-14448014D02*
X10376957Y-14462300D01*
X10391243Y-14476586D01*
X10405528Y-14462300D01*
X10391243Y-14448014D01*
X10391243Y-14476586D01*
X10576957Y-14748014D02*
X10548386Y-14733729D01*
X10534100Y-14705157D01*
X10534100Y-14448014D01*
X10734100Y-14748014D02*
X10705528Y-14733729D01*
X10691243Y-14705157D01*
X10691243Y-14448014D01*
X11076957Y-14748014D02*
X11076957Y-14448014D01*
X11176957Y-14662300D01*
X11276957Y-14448014D01*
X11276957Y-14748014D01*
X11548386Y-14748014D02*
X11548386Y-14590871D01*
X11534100Y-14562300D01*
X11505528Y-14548014D01*
X11448386Y-14548014D01*
X11419814Y-14562300D01*
X11548386Y-14733729D02*
X11519814Y-14748014D01*
X11448386Y-14748014D01*
X11419814Y-14733729D01*
X11405528Y-14705157D01*
X11405528Y-14676586D01*
X11419814Y-14648014D01*
X11448386Y-14633729D01*
X11519814Y-14633729D01*
X11548386Y-14619443D01*
X11691243Y-14548014D02*
X11691243Y-14848014D01*
X11691243Y-14562300D02*
X11719814Y-14548014D01*
X11776957Y-14548014D01*
X11805528Y-14562300D01*
X11819814Y-14576586D01*
X11834100Y-14605157D01*
X11834100Y-14690871D01*
X11819814Y-14719443D01*
X11805528Y-14733729D01*
X11776957Y-14748014D01*
X11719814Y-14748014D01*
X11691243Y-14733729D01*
X11962671Y-14719443D02*
X11976957Y-14733729D01*
X11962671Y-14748014D01*
X11948386Y-14733729D01*
X11962671Y-14719443D01*
X11962671Y-14748014D01*
X11962671Y-14562300D02*
X11976957Y-14576586D01*
X11962671Y-14590871D01*
X11948386Y-14576586D01*
X11962671Y-14562300D01*
X11962671Y-14590871D01*
M02*
