G04 #@! TF.GenerationSoftware,KiCad,Pcbnew,(5.0.2)-1*
G04 #@! TF.CreationDate,2024-08-16T20:27:31+02:00*
G04 #@! TF.ProjectId,MashMachine,4d617368-4d61-4636-9869-6e652e6b6963,rev?*
G04 #@! TF.SameCoordinates,Original*
G04 #@! TF.FileFunction,Copper,L2,Bot*
G04 #@! TF.FilePolarity,Positive*
%FSLAX46Y46*%
G04 Gerber Fmt 4.6, Leading zero omitted, Abs format (unit mm)*
G04 Created by KiCad (PCBNEW (5.0.2)-1) date 08/16/24 20:27:31*
%MOMM*%
%LPD*%
G01*
G04 APERTURE LIST*
G04 #@! TA.AperFunction,ComponentPad*
%ADD10R,2.000000X2.000000*%
G04 #@! TD*
G04 #@! TA.AperFunction,ComponentPad*
%ADD11C,2.000000*%
G04 #@! TD*
G04 #@! TA.AperFunction,ComponentPad*
%ADD12R,1.524000X1.524000*%
G04 #@! TD*
G04 #@! TA.AperFunction,ComponentPad*
%ADD13C,1.524000*%
G04 #@! TD*
G04 #@! TA.AperFunction,ComponentPad*
%ADD14C,1.600000*%
G04 #@! TD*
G04 #@! TA.AperFunction,ComponentPad*
%ADD15O,1.600000X1.600000*%
G04 #@! TD*
G04 #@! TA.AperFunction,ComponentPad*
%ADD16R,1.800000X1.800000*%
G04 #@! TD*
G04 #@! TA.AperFunction,ComponentPad*
%ADD17C,1.800000*%
G04 #@! TD*
G04 #@! TA.AperFunction,ComponentPad*
%ADD18C,5.600000*%
G04 #@! TD*
G04 #@! TA.AperFunction,ComponentPad*
%ADD19O,1.700000X1.700000*%
G04 #@! TD*
G04 #@! TA.AperFunction,ComponentPad*
%ADD20R,1.700000X1.700000*%
G04 #@! TD*
G04 #@! TA.AperFunction,ComponentPad*
%ADD21R,1.905000X2.000000*%
G04 #@! TD*
G04 #@! TA.AperFunction,ComponentPad*
%ADD22O,1.905000X2.000000*%
G04 #@! TD*
G04 #@! TA.AperFunction,ComponentPad*
%ADD23R,3.200000X2.000000*%
G04 #@! TD*
G04 #@! TA.AperFunction,Conductor*
%ADD24C,0.250000*%
G04 #@! TD*
G04 #@! TA.AperFunction,NonConductor*
%ADD25C,0.254000*%
G04 #@! TD*
G04 APERTURE END LIST*
D10*
G04 #@! TO.P,ESP32,1*
G04 #@! TO.N,N/C*
X109072000Y-89154000D03*
D11*
G04 #@! TO.P,ESP32,2*
G04 #@! TO.N,Net-(BZ1-Pad2)*
X111612000Y-89154000D03*
G04 #@! TO.P,ESP32,3*
G04 #@! TO.N,N/C*
X114152000Y-89154000D03*
G04 #@! TO.P,ESP32,4*
X116692000Y-89154000D03*
G04 #@! TO.P,ESP32,5*
G04 #@! TO.N,Net-(J2-Pad2)*
X119232000Y-89154000D03*
G04 #@! TO.P,ESP32,6*
G04 #@! TO.N,Net-(SW1-PadB)*
X121772000Y-89154000D03*
G04 #@! TO.P,ESP32,7*
G04 #@! TO.N,N/C*
X124312000Y-89154000D03*
G04 #@! TO.P,ESP32,8*
X126852000Y-89154000D03*
G04 #@! TO.P,ESP32,9*
X129392000Y-89154000D03*
G04 #@! TO.P,ESP32,10*
X131932000Y-89154000D03*
G04 #@! TO.P,ESP32,11*
G04 #@! TO.N,Net-(Brd1-Pad4)*
X134472000Y-89154000D03*
G04 #@! TO.P,ESP32,12*
G04 #@! TO.N,N/C*
X137012000Y-89154000D03*
G04 #@! TO.P,ESP32,13*
X139552000Y-89154000D03*
G04 #@! TO.P,ESP32,14*
G04 #@! TO.N,Net-(Brd1-Pad3)*
X142092000Y-89154000D03*
G04 #@! TO.P,ESP32,15*
G04 #@! TO.N,N/C*
X144632000Y-89154000D03*
G04 #@! TO.P,ESP32,30*
G04 #@! TO.N,Net-(Brd1-Pad2)*
X109072000Y-114554000D03*
G04 #@! TO.P,ESP32,29*
G04 #@! TO.N,Net-(BZ1-Pad2)*
X111612000Y-114554000D03*
G04 #@! TO.P,ESP32,28*
G04 #@! TO.N,Net-(SW1-PadA)*
X114152000Y-114554000D03*
G04 #@! TO.P,ESP32,27*
G04 #@! TO.N,N/C*
X116692000Y-114554000D03*
G04 #@! TO.P,ESP32,26*
G04 #@! TO.N,Net-(ON1-Pad2)*
X119232000Y-114554000D03*
G04 #@! TO.P,ESP32,25*
G04 #@! TO.N,N/C*
X121772000Y-114554000D03*
G04 #@! TO.P,ESP32,24*
G04 #@! TO.N,Net-(DC1-Pad2)*
X124312000Y-114554000D03*
G04 #@! TO.P,ESP32,23*
G04 #@! TO.N,Net-(SW1-PadS2)*
X126852000Y-114554000D03*
G04 #@! TO.P,ESP32,22*
G04 #@! TO.N,Net-(BZ1-Pad1)*
X129392000Y-114554000D03*
G04 #@! TO.P,ESP32,21*
G04 #@! TO.N,Net-(J1-Pad2)*
X131932000Y-114554000D03*
G04 #@! TO.P,ESP32,20*
G04 #@! TO.N,N/C*
X134472000Y-114554000D03*
G04 #@! TO.P,ESP32,19*
X137012000Y-114554000D03*
G04 #@! TO.P,ESP32,18*
X139552000Y-114554000D03*
G04 #@! TO.P,ESP32,17*
X142092000Y-114554000D03*
G04 #@! TO.P,ESP32,16*
X144632000Y-114554000D03*
G04 #@! TD*
D12*
G04 #@! TO.P,Brd2,1*
G04 #@! TO.N,Net-(BZ1-Pad2)*
X147955000Y-94297500D03*
D13*
G04 #@! TO.P,Brd2,2*
G04 #@! TO.N,Net-(Brd1-Pad2)*
X150495000Y-94297500D03*
G04 #@! TO.P,Brd2,3*
G04 #@! TO.N,Net-(Brd1-Pad3)*
X153035000Y-94297500D03*
G04 #@! TO.P,Brd2,4*
G04 #@! TO.N,Net-(Brd1-Pad4)*
X155575000Y-94297500D03*
G04 #@! TD*
D12*
G04 #@! TO.P,Brd1,1*
G04 #@! TO.N,Net-(BZ1-Pad2)*
X111883261Y-94273441D03*
D13*
G04 #@! TO.P,Brd1,2*
G04 #@! TO.N,Net-(Brd1-Pad2)*
X114423261Y-94273441D03*
G04 #@! TO.P,Brd1,3*
G04 #@! TO.N,Net-(Brd1-Pad3)*
X116963261Y-94273441D03*
G04 #@! TO.P,Brd1,4*
G04 #@! TO.N,Net-(Brd1-Pad4)*
X119503261Y-94273441D03*
G04 #@! TD*
D10*
G04 #@! TO.P,BZ1,1*
G04 #@! TO.N,Net-(BZ1-Pad1)*
X107833160Y-132948680D03*
D11*
G04 #@! TO.P,BZ1,2*
G04 #@! TO.N,Net-(BZ1-Pad2)*
X115433160Y-132948680D03*
G04 #@! TD*
D14*
G04 #@! TO.P,R1,1*
G04 #@! TO.N,Net-(BZ1-Pad2)*
X120726200Y-139443190D03*
D15*
G04 #@! TO.P,R1,2*
G04 #@! TO.N,Net-(DC1-Pad1)*
X128346200Y-139443190D03*
G04 #@! TD*
G04 #@! TO.P,R2,2*
G04 #@! TO.N,Net-(ON1-Pad1)*
X128369060Y-136392650D03*
D14*
G04 #@! TO.P,R2,1*
G04 #@! TO.N,Net-(BZ1-Pad2)*
X120749060Y-136392650D03*
G04 #@! TD*
D16*
G04 #@! TO.P,DC,1*
G04 #@! TO.N,Net-(DC1-Pad1)*
X120523000Y-131191000D03*
D17*
G04 #@! TO.P,DC,2*
G04 #@! TO.N,Net-(DC1-Pad2)*
X123063000Y-131191000D03*
G04 #@! TD*
D18*
G04 #@! TO.P,,1*
G04 #@! TO.N,N/C*
X101092000Y-137541000D03*
G04 #@! TD*
G04 #@! TO.P,,1*
G04 #@! TO.N,N/C*
X151511000Y-137033000D03*
G04 #@! TD*
G04 #@! TO.P,,1*
G04 #@! TO.N,N/C*
X101600000Y-84201000D03*
G04 #@! TD*
G04 #@! TO.P,,1*
G04 #@! TO.N,N/C*
X171831000Y-85217000D03*
G04 #@! TD*
D19*
G04 #@! TO.P,Element Temp,3*
G04 #@! TO.N,Net-(Brd1-Pad2)*
X174244000Y-102235000D03*
G04 #@! TO.P,Element Temp,2*
G04 #@! TO.N,Net-(J1-Pad2)*
X174244000Y-104775000D03*
D20*
G04 #@! TO.P,Element Temp,1*
G04 #@! TO.N,Net-(BZ1-Pad2)*
X174244000Y-107315000D03*
G04 #@! TD*
G04 #@! TO.P,MashTemp,1*
G04 #@! TO.N,Net-(BZ1-Pad2)*
X174307500Y-116713000D03*
D19*
G04 #@! TO.P,MashTemp,2*
G04 #@! TO.N,Net-(J2-Pad2)*
X174307500Y-114173000D03*
G04 #@! TO.P,MashTemp,3*
G04 #@! TO.N,Net-(Brd1-Pad2)*
X174307500Y-111633000D03*
G04 #@! TD*
D20*
G04 #@! TO.P,SSR Out,1*
G04 #@! TO.N,Net-(J3-Pad1)*
X174180500Y-96329500D03*
D19*
G04 #@! TO.P,SSR Out,2*
G04 #@! TO.N,Net-(Brd1-Pad2)*
X174180500Y-93789500D03*
G04 #@! TD*
D17*
G04 #@! TO.P,ON,2*
G04 #@! TO.N,Net-(ON1-Pad2)*
X127889000Y-131191000D03*
D16*
G04 #@! TO.P,ON,1*
G04 #@! TO.N,Net-(ON1-Pad1)*
X125349000Y-131191000D03*
G04 #@! TD*
D21*
G04 #@! TO.P,IRLZ44N,1*
G04 #@! TO.N,Net-(DC1-Pad2)*
X141605000Y-138684000D03*
D22*
G04 #@! TO.P,IRLZ44N,2*
G04 #@! TO.N,Net-(J3-Pad1)*
X139065000Y-138684000D03*
G04 #@! TO.P,IRLZ44N,3*
G04 #@! TO.N,Net-(BZ1-Pad2)*
X136525000Y-138684000D03*
G04 #@! TD*
D11*
G04 #@! TO.P,SW,S1*
G04 #@! TO.N,Net-(Brd1-Pad2)*
X171916500Y-136762500D03*
G04 #@! TO.P,SW,S2*
G04 #@! TO.N,Net-(SW1-PadS2)*
X171916500Y-131762500D03*
D23*
G04 #@! TO.P,SW,MP*
G04 #@! TO.N,N/C*
X164916500Y-139862500D03*
X164916500Y-128662500D03*
D11*
G04 #@! TO.P,SW,B*
G04 #@! TO.N,Net-(SW1-PadB)*
X157416500Y-136762500D03*
G04 #@! TO.P,SW,C*
G04 #@! TO.N,Net-(BZ1-Pad2)*
X157416500Y-134262500D03*
D10*
G04 #@! TO.P,SW,A*
G04 #@! TO.N,Net-(SW1-PadA)*
X157416500Y-131762500D03*
G04 #@! TD*
D24*
G04 #@! TO.N,Net-(Brd1-Pad2)*
X173241501Y-135437499D02*
X173241501Y-124954499D01*
X171916500Y-136762500D02*
X173241501Y-135437499D01*
X175157499Y-112482999D02*
X174307500Y-111633000D01*
X175482501Y-112808001D02*
X175157499Y-112482999D01*
X175482501Y-122713499D02*
X175482501Y-112808001D01*
X173241501Y-124954499D02*
X175482501Y-122713499D01*
X175093999Y-103084999D02*
X174244000Y-102235000D01*
X175419001Y-103410001D02*
X175093999Y-103084999D01*
X175419001Y-110521499D02*
X175419001Y-103410001D01*
X174307500Y-111633000D02*
X175419001Y-110521499D01*
X175030499Y-94639499D02*
X174180500Y-93789500D01*
X175355501Y-94964501D02*
X175030499Y-94639499D01*
X175355501Y-101123499D02*
X175355501Y-94964501D01*
X174244000Y-102235000D02*
X175355501Y-101123499D01*
G04 #@! TO.N,Net-(Brd1-Pad3)*
X116963261Y-94273441D02*
X119118380Y-96428560D01*
X143091999Y-90153999D02*
X142092000Y-89154000D01*
X143417001Y-90479001D02*
X143091999Y-90153999D01*
X153365263Y-90479001D02*
X143417001Y-90479001D01*
X156662001Y-93775739D02*
X153365263Y-90479001D01*
X156662001Y-94819261D02*
X156662001Y-93775739D01*
X155052702Y-96428560D02*
X156662001Y-94819261D01*
X119118380Y-96428560D02*
X155052702Y-96428560D01*
G04 #@! TO.N,Net-(Brd1-Pad4)*
X139269399Y-94273441D02*
X140365361Y-93177479D01*
X119503261Y-94273441D02*
X139269399Y-94273441D01*
X154454979Y-93177479D02*
X155575000Y-94297500D01*
X140365361Y-93177479D02*
X154454979Y-93177479D01*
G04 #@! TO.N,Net-(BZ1-Pad1)*
X107833160Y-131698680D02*
X118785320Y-120746520D01*
X107833160Y-132948680D02*
X107833160Y-131698680D01*
X123006440Y-120746520D02*
X129508840Y-114244120D01*
X118785320Y-120746520D02*
X123006440Y-120746520D01*
G04 #@! TO.N,Net-(BZ1-Pad2)*
X111728840Y-88844120D02*
X113503851Y-87069109D01*
X174244000Y-108415000D02*
X174244000Y-107315000D01*
X173132499Y-109526501D02*
X174244000Y-108415000D01*
X173132499Y-116637999D02*
X173132499Y-109526501D01*
X173207500Y-116713000D02*
X173132499Y-116637999D01*
X174307500Y-116713000D02*
X173207500Y-116713000D01*
X171502891Y-107315000D02*
X151257000Y-87069109D01*
X174244000Y-107315000D02*
X171502891Y-107315000D01*
X113503851Y-87069109D02*
X151257000Y-87069109D01*
G04 #@! TO.N,Net-(DC1-Pad2)*
X123164600Y-132611112D02*
X123164600Y-131338320D01*
X123243809Y-132690321D02*
X123164600Y-132611112D01*
X136612401Y-132690321D02*
X123243809Y-132690321D01*
X141599920Y-137677840D02*
X136612401Y-132690321D01*
X141599920Y-138927840D02*
X141599920Y-137677840D01*
G04 #@! TO.N,Net-(DC1-Pad1)*
X120624600Y-131721590D02*
X120624600Y-131338320D01*
X128346200Y-139443190D02*
X120624600Y-131721590D01*
G04 #@! TO.N,Net-(J3-Pad1)*
X139065000Y-139934000D02*
X140318501Y-141187501D01*
X139065000Y-138684000D02*
X139065000Y-139934000D01*
X174744501Y-92614499D02*
X173616499Y-92614499D01*
X140318501Y-141187501D02*
X169452501Y-141187501D01*
X173616499Y-92614499D02*
X172275500Y-93955498D01*
X169452501Y-141187501D02*
X175932511Y-134707491D01*
X175932511Y-134707491D02*
X175932511Y-93802509D01*
X175932511Y-93802509D02*
X174744501Y-92614499D01*
X173080500Y-96329500D02*
X174180500Y-96329500D01*
X172275500Y-95524500D02*
X173080500Y-96329500D01*
X172275500Y-93955498D02*
X172275500Y-95524500D01*
G04 #@! TO.N,Net-(SW1-PadS2)*
X128501140Y-112976660D02*
X152211180Y-112976660D01*
X127088900Y-114388900D02*
X128501140Y-112976660D01*
X170916501Y-132762499D02*
X171916500Y-131762500D01*
X165591499Y-138087501D02*
X170916501Y-132762499D01*
X156780499Y-138087501D02*
X165591499Y-138087501D01*
X154636001Y-135943003D02*
X156780499Y-138087501D01*
X154636001Y-115401481D02*
X154636001Y-135943003D01*
X152211180Y-112976660D02*
X154636001Y-115401481D01*
G04 #@! TO.N,Net-(SW1-PadB)*
X158416499Y-135762501D02*
X157416500Y-136762500D01*
X158741501Y-135437499D02*
X158416499Y-135762501D01*
X158741501Y-95218829D02*
X158741501Y-135437499D01*
X151041791Y-87519119D02*
X158741501Y-95218829D01*
X123213841Y-87519119D02*
X151041791Y-87519119D01*
X121888840Y-88844120D02*
X123213841Y-87519119D01*
G04 #@! TO.N,Net-(SW1-PadA)*
X116251149Y-112526651D02*
X155925091Y-112526651D01*
X114388900Y-114388900D02*
X116251149Y-112526651D01*
X157416500Y-114018060D02*
X157416500Y-131762500D01*
X155925091Y-112526651D02*
X157416500Y-114018060D01*
G04 #@! TD*
D25*
G36*
X176709000Y-84368092D02*
X176709001Y-138961407D01*
X173632410Y-142038000D01*
X99862091Y-142038000D01*
X96976000Y-139151910D01*
X96976000Y-138213956D01*
X97654965Y-138213956D01*
X97657000Y-138218911D01*
X97657000Y-138224264D01*
X97916391Y-138850490D01*
X98174122Y-139478027D01*
X98179918Y-139486701D01*
X98179947Y-139486771D01*
X98180001Y-139486825D01*
X98185797Y-139495499D01*
X98195428Y-139502252D01*
X99130748Y-140437572D01*
X99137501Y-140447203D01*
X99142444Y-140449268D01*
X99146229Y-140453053D01*
X99772446Y-140712440D01*
X100398434Y-140973936D01*
X100403792Y-140973952D01*
X100408736Y-140976000D01*
X101086529Y-140976000D01*
X101764956Y-140978035D01*
X101769911Y-140976000D01*
X101775264Y-140976000D01*
X102401490Y-140716609D01*
X103029027Y-140458878D01*
X103037701Y-140453082D01*
X103037771Y-140453053D01*
X103037825Y-140452999D01*
X103046499Y-140447203D01*
X103053252Y-140437572D01*
X103988572Y-139502252D01*
X103998203Y-139495499D01*
X104000268Y-139490556D01*
X104004053Y-139486771D01*
X104140337Y-139157751D01*
X119291200Y-139157751D01*
X119291200Y-139728629D01*
X119509666Y-140256052D01*
X119913338Y-140659724D01*
X120440761Y-140878190D01*
X121011639Y-140878190D01*
X121539062Y-140659724D01*
X121942734Y-140256052D01*
X122161200Y-139728629D01*
X122161200Y-139157751D01*
X121942734Y-138630328D01*
X121539062Y-138226656D01*
X121011639Y-138008190D01*
X120440761Y-138008190D01*
X119913338Y-138226656D01*
X119509666Y-138630328D01*
X119291200Y-139157751D01*
X104140337Y-139157751D01*
X104263440Y-138860554D01*
X104524936Y-138234566D01*
X104524952Y-138229208D01*
X104527000Y-138224264D01*
X104527000Y-137546471D01*
X104529035Y-136868044D01*
X104527000Y-136863089D01*
X104527000Y-136857736D01*
X104267609Y-136231510D01*
X104216560Y-136107211D01*
X119314060Y-136107211D01*
X119314060Y-136678089D01*
X119532526Y-137205512D01*
X119936198Y-137609184D01*
X120463621Y-137827650D01*
X121034499Y-137827650D01*
X121561922Y-137609184D01*
X121965594Y-137205512D01*
X122184060Y-136678089D01*
X122184060Y-136107211D01*
X121965594Y-135579788D01*
X121561922Y-135176116D01*
X121034499Y-134957650D01*
X120463621Y-134957650D01*
X119936198Y-135176116D01*
X119532526Y-135579788D01*
X119314060Y-136107211D01*
X104216560Y-136107211D01*
X104009878Y-135603973D01*
X104004082Y-135595299D01*
X104004053Y-135595229D01*
X104003999Y-135595175D01*
X103998203Y-135586501D01*
X103988572Y-135579748D01*
X103053252Y-134644428D01*
X103046499Y-134634797D01*
X103041556Y-134632732D01*
X103037771Y-134628947D01*
X102411554Y-134369560D01*
X101785566Y-134108064D01*
X101780208Y-134108048D01*
X101775264Y-134106000D01*
X101097471Y-134106000D01*
X100419044Y-134103965D01*
X100414089Y-134106000D01*
X100408736Y-134106000D01*
X99782510Y-134365391D01*
X99154973Y-134623122D01*
X99146299Y-134628918D01*
X99146229Y-134628947D01*
X99146175Y-134629001D01*
X99137501Y-134634797D01*
X99130748Y-134644428D01*
X98195428Y-135579748D01*
X98185797Y-135586501D01*
X98183732Y-135591444D01*
X98179947Y-135595229D01*
X97920560Y-136221446D01*
X97659064Y-136847434D01*
X97659048Y-136852792D01*
X97657000Y-136857736D01*
X97657000Y-137535529D01*
X97654965Y-138213956D01*
X96976000Y-138213956D01*
X96976000Y-131948680D01*
X106185720Y-131948680D01*
X106185720Y-133948680D01*
X106235003Y-134196445D01*
X106375351Y-134406489D01*
X106585395Y-134546837D01*
X106833160Y-134596120D01*
X108833160Y-134596120D01*
X109080925Y-134546837D01*
X109290969Y-134406489D01*
X109431317Y-134196445D01*
X109480600Y-133948680D01*
X109480600Y-132623458D01*
X113798160Y-132623458D01*
X113798160Y-133273902D01*
X114047074Y-133874833D01*
X114507007Y-134334766D01*
X115107938Y-134583680D01*
X115758382Y-134583680D01*
X116359313Y-134334766D01*
X116819246Y-133874833D01*
X117068160Y-133273902D01*
X117068160Y-132623458D01*
X116819246Y-132022527D01*
X116359313Y-131562594D01*
X115758382Y-131313680D01*
X115107938Y-131313680D01*
X114507007Y-131562594D01*
X114047074Y-132022527D01*
X113798160Y-132623458D01*
X109480600Y-132623458D01*
X109480600Y-131948680D01*
X109431317Y-131700915D01*
X109290969Y-131490871D01*
X109185945Y-131420696D01*
X119100122Y-121506520D01*
X122931593Y-121506520D01*
X123006440Y-121521408D01*
X123081287Y-121506520D01*
X123081292Y-121506520D01*
X123302977Y-121462424D01*
X123554369Y-121294449D01*
X123596771Y-121230990D01*
X128764125Y-116063637D01*
X129066778Y-116189000D01*
X129717222Y-116189000D01*
X130318153Y-115940086D01*
X130662000Y-115596239D01*
X131005847Y-115940086D01*
X131606778Y-116189000D01*
X132257222Y-116189000D01*
X132858153Y-115940086D01*
X133202000Y-115596239D01*
X133545847Y-115940086D01*
X133592581Y-115959444D01*
X133597736Y-115973387D01*
X133874263Y-116076120D01*
X134146778Y-116189000D01*
X134178100Y-116189000D01*
X134207461Y-116199908D01*
X134502247Y-116189000D01*
X134797222Y-116189000D01*
X134826158Y-116177014D01*
X134857460Y-116175856D01*
X135346264Y-115973387D01*
X135351419Y-115959444D01*
X135398153Y-115940086D01*
X135742000Y-115596239D01*
X136085847Y-115940086D01*
X136132581Y-115959444D01*
X136137736Y-115973387D01*
X136414263Y-116076120D01*
X136686778Y-116189000D01*
X136718100Y-116189000D01*
X136747461Y-116199908D01*
X137042247Y-116189000D01*
X137337222Y-116189000D01*
X137366158Y-116177014D01*
X137397460Y-116175856D01*
X137886264Y-115973387D01*
X137891419Y-115959444D01*
X137938153Y-115940086D01*
X138282000Y-115596239D01*
X138625847Y-115940086D01*
X138672581Y-115959444D01*
X138677736Y-115973387D01*
X138954263Y-116076120D01*
X139226778Y-116189000D01*
X139258100Y-116189000D01*
X139287461Y-116199908D01*
X139582247Y-116189000D01*
X139877222Y-116189000D01*
X139906158Y-116177014D01*
X139937460Y-116175856D01*
X140426264Y-115973387D01*
X140431419Y-115959444D01*
X140478153Y-115940086D01*
X140822000Y-115596239D01*
X141165847Y-115940086D01*
X141212581Y-115959444D01*
X141217736Y-115973387D01*
X141494263Y-116076120D01*
X141766778Y-116189000D01*
X141798100Y-116189000D01*
X141827461Y-116199908D01*
X142122247Y-116189000D01*
X142417222Y-116189000D01*
X142446158Y-116177014D01*
X142477460Y-116175856D01*
X142966264Y-115973387D01*
X142971419Y-115959444D01*
X143018153Y-115940086D01*
X143362000Y-115596239D01*
X143705847Y-115940086D01*
X143752581Y-115959444D01*
X143757736Y-115973387D01*
X144034263Y-116076120D01*
X144306778Y-116189000D01*
X144338100Y-116189000D01*
X144367461Y-116199908D01*
X144662247Y-116189000D01*
X144957222Y-116189000D01*
X144986158Y-116177014D01*
X145017460Y-116175856D01*
X145506264Y-115973387D01*
X145511419Y-115959444D01*
X145558153Y-115940086D01*
X146018086Y-115480153D01*
X146037444Y-115433419D01*
X146051387Y-115428264D01*
X146154120Y-115151737D01*
X146267000Y-114879222D01*
X146267000Y-114847900D01*
X146277908Y-114818539D01*
X146267000Y-114523753D01*
X146267000Y-114228778D01*
X146255014Y-114199842D01*
X146253856Y-114168540D01*
X146074966Y-113736660D01*
X151896379Y-113736660D01*
X153876001Y-115716283D01*
X153876002Y-134540178D01*
X153472252Y-134136428D01*
X153465499Y-134126797D01*
X153460556Y-134124732D01*
X153456771Y-134120947D01*
X152830554Y-133861560D01*
X152204566Y-133600064D01*
X152199208Y-133600048D01*
X152194264Y-133598000D01*
X151516471Y-133598000D01*
X150838044Y-133595965D01*
X150833089Y-133598000D01*
X150827736Y-133598000D01*
X150201510Y-133857391D01*
X149573973Y-134115122D01*
X149565299Y-134120918D01*
X149565229Y-134120947D01*
X149565175Y-134121001D01*
X149556501Y-134126797D01*
X149549748Y-134136428D01*
X148614428Y-135071748D01*
X148604797Y-135078501D01*
X148602732Y-135083444D01*
X148598947Y-135087229D01*
X148339560Y-135713446D01*
X148078064Y-136339434D01*
X148078048Y-136344792D01*
X148076000Y-136349736D01*
X148076000Y-137027529D01*
X148073965Y-137705956D01*
X148076000Y-137710911D01*
X148076000Y-137716264D01*
X148335391Y-138342490D01*
X148593122Y-138970027D01*
X148598918Y-138978701D01*
X148598947Y-138978771D01*
X148599001Y-138978825D01*
X148604797Y-138987499D01*
X148614428Y-138994252D01*
X149549748Y-139929572D01*
X149556501Y-139939203D01*
X149561444Y-139941268D01*
X149565229Y-139945053D01*
X150191446Y-140204440D01*
X150725425Y-140427501D01*
X140633303Y-140427501D01*
X140508623Y-140302821D01*
X140652500Y-140331440D01*
X142557500Y-140331440D01*
X142805265Y-140282157D01*
X143015309Y-140141809D01*
X143155657Y-139931765D01*
X143204940Y-139684000D01*
X143204940Y-137684000D01*
X143155657Y-137436235D01*
X143015309Y-137226191D01*
X142805265Y-137085843D01*
X142557500Y-137036560D01*
X142033442Y-137036560D01*
X137202732Y-132205851D01*
X137160330Y-132142392D01*
X136908938Y-131974417D01*
X136687253Y-131930321D01*
X136687248Y-131930321D01*
X136612401Y-131915433D01*
X136537554Y-131930321D01*
X129244235Y-131930321D01*
X129424000Y-131496330D01*
X129424000Y-130885670D01*
X129190310Y-130321493D01*
X128758507Y-129889690D01*
X128194330Y-129656000D01*
X127583670Y-129656000D01*
X127019493Y-129889690D01*
X126850275Y-130058908D01*
X126847157Y-130043235D01*
X126706809Y-129833191D01*
X126496765Y-129692843D01*
X126249000Y-129643560D01*
X124449000Y-129643560D01*
X124201235Y-129692843D01*
X123991191Y-129833191D01*
X123945055Y-129902238D01*
X123932507Y-129889690D01*
X123368330Y-129656000D01*
X122757670Y-129656000D01*
X122193493Y-129889690D01*
X122024275Y-130058908D01*
X122021157Y-130043235D01*
X121880809Y-129833191D01*
X121670765Y-129692843D01*
X121423000Y-129643560D01*
X119623000Y-129643560D01*
X119375235Y-129692843D01*
X119165191Y-129833191D01*
X119024843Y-130043235D01*
X118975560Y-130291000D01*
X118975560Y-132091000D01*
X119024843Y-132338765D01*
X119165191Y-132548809D01*
X119375235Y-132689157D01*
X119623000Y-132738440D01*
X120566649Y-132738440D01*
X126947512Y-139119305D01*
X126883087Y-139443190D01*
X126994460Y-140003099D01*
X127311623Y-140477767D01*
X127786291Y-140794930D01*
X128204867Y-140878190D01*
X128487533Y-140878190D01*
X128906109Y-140794930D01*
X129380777Y-140477767D01*
X129697940Y-140003099D01*
X129809313Y-139443190D01*
X129697940Y-138883281D01*
X129380777Y-138408613D01*
X128906109Y-138091450D01*
X128487533Y-138008190D01*
X128204867Y-138008190D01*
X128022315Y-138044502D01*
X127547117Y-137569305D01*
X127809151Y-137744390D01*
X128227727Y-137827650D01*
X128510393Y-137827650D01*
X128928969Y-137744390D01*
X129403637Y-137427227D01*
X129720800Y-136952559D01*
X129832173Y-136392650D01*
X129720800Y-135832741D01*
X129403637Y-135358073D01*
X128928969Y-135040910D01*
X128510393Y-134957650D01*
X128227727Y-134957650D01*
X127809151Y-135040910D01*
X127334483Y-135358073D01*
X127017320Y-135832741D01*
X126905947Y-136392650D01*
X127017320Y-136952559D01*
X127192405Y-137214593D01*
X123428133Y-133450321D01*
X136297600Y-133450321D01*
X140146136Y-137298858D01*
X140076491Y-137403088D01*
X139684411Y-137141109D01*
X139065000Y-137017900D01*
X138445590Y-137141109D01*
X137920477Y-137491977D01*
X137795000Y-137679767D01*
X137669523Y-137491977D01*
X137144411Y-137141109D01*
X136525000Y-137017900D01*
X135905590Y-137141109D01*
X135380477Y-137491977D01*
X135029609Y-138017089D01*
X134937500Y-138480150D01*
X134937500Y-138887849D01*
X135029609Y-139350910D01*
X135380477Y-139876023D01*
X135905589Y-140226891D01*
X136525000Y-140350100D01*
X137144410Y-140226891D01*
X137669523Y-139876023D01*
X137795000Y-139688233D01*
X137920477Y-139876023D01*
X138333470Y-140151976D01*
X138349097Y-140230537D01*
X138428987Y-140350100D01*
X138517072Y-140481929D01*
X138580528Y-140524329D01*
X139728172Y-141671974D01*
X139770572Y-141735430D01*
X140021964Y-141903405D01*
X140243649Y-141947501D01*
X140243653Y-141947501D01*
X140318500Y-141962389D01*
X140393347Y-141947501D01*
X169377654Y-141947501D01*
X169452501Y-141962389D01*
X169527348Y-141947501D01*
X169527353Y-141947501D01*
X169749038Y-141903405D01*
X170000430Y-141735430D01*
X170042832Y-141671971D01*
X176416984Y-135297820D01*
X176480440Y-135255420D01*
X176648415Y-135004028D01*
X176692511Y-134782343D01*
X176692511Y-134782339D01*
X176707399Y-134707492D01*
X176692511Y-134632645D01*
X176692511Y-93877356D01*
X176707399Y-93802509D01*
X176692511Y-93727662D01*
X176692511Y-93727657D01*
X176648415Y-93505972D01*
X176480440Y-93254580D01*
X176416984Y-93212180D01*
X175334832Y-92130029D01*
X175292430Y-92066570D01*
X175041038Y-91898595D01*
X174819353Y-91854499D01*
X174819348Y-91854499D01*
X174744501Y-91839611D01*
X174669654Y-91854499D01*
X173691346Y-91854499D01*
X173616499Y-91839611D01*
X173541652Y-91854499D01*
X173541647Y-91854499D01*
X173319962Y-91898595D01*
X173068570Y-92066570D01*
X173026170Y-92130026D01*
X171791030Y-93365167D01*
X171727571Y-93407569D01*
X171559596Y-93658962D01*
X171515500Y-93880647D01*
X171515500Y-93880651D01*
X171500612Y-93955498D01*
X171515500Y-94030345D01*
X171515501Y-95449649D01*
X171500612Y-95524500D01*
X171559597Y-95821037D01*
X171635566Y-95934732D01*
X171727572Y-96072429D01*
X171791028Y-96114829D01*
X172490171Y-96813973D01*
X172532571Y-96877429D01*
X172683060Y-96977983D01*
X172683060Y-97179500D01*
X172732343Y-97427265D01*
X172872691Y-97637309D01*
X173082735Y-97777657D01*
X173330500Y-97826940D01*
X174595502Y-97826940D01*
X174595501Y-100790826D01*
X174390256Y-100750000D01*
X174097744Y-100750000D01*
X173664582Y-100836161D01*
X173173375Y-101164375D01*
X172845161Y-101655582D01*
X172729908Y-102235000D01*
X172845161Y-102814418D01*
X173173375Y-103305625D01*
X173471761Y-103505000D01*
X173173375Y-103704375D01*
X172845161Y-104195582D01*
X172729908Y-104775000D01*
X172845161Y-105354418D01*
X173173375Y-105845625D01*
X173191619Y-105857816D01*
X173146235Y-105866843D01*
X172936191Y-106007191D01*
X172795843Y-106217235D01*
X172746560Y-106465000D01*
X172746560Y-106555000D01*
X171817693Y-106555000D01*
X151847331Y-86584639D01*
X151804929Y-86521180D01*
X151553537Y-86353205D01*
X151331852Y-86309109D01*
X151331847Y-86309109D01*
X151257000Y-86294221D01*
X151182153Y-86309109D01*
X113578699Y-86309109D01*
X113503851Y-86294221D01*
X113429003Y-86309109D01*
X113428999Y-86309109D01*
X113207314Y-86353205D01*
X112955922Y-86521180D01*
X112913522Y-86584636D01*
X111966876Y-87531283D01*
X111937222Y-87519000D01*
X111286778Y-87519000D01*
X110685847Y-87767914D01*
X110624717Y-87829044D01*
X110610327Y-87794302D01*
X110565236Y-87749211D01*
X110529809Y-87696191D01*
X110476791Y-87660765D01*
X110431699Y-87615673D01*
X110372785Y-87591270D01*
X110319765Y-87555843D01*
X110257224Y-87543403D01*
X110198310Y-87519000D01*
X110134541Y-87519000D01*
X110072000Y-87506560D01*
X108072000Y-87506560D01*
X108009459Y-87519000D01*
X107945690Y-87519000D01*
X107886776Y-87543403D01*
X107824235Y-87555843D01*
X107771215Y-87591270D01*
X107712301Y-87615673D01*
X107667209Y-87660765D01*
X107614191Y-87696191D01*
X107578764Y-87749211D01*
X107533673Y-87794302D01*
X107509271Y-87853214D01*
X107473843Y-87906235D01*
X107461403Y-87968778D01*
X107437000Y-88027691D01*
X107437000Y-88091459D01*
X107424560Y-88154000D01*
X107424560Y-90154000D01*
X107437000Y-90216541D01*
X107437000Y-90280309D01*
X107461403Y-90339222D01*
X107473843Y-90401765D01*
X107509271Y-90454786D01*
X107533673Y-90513698D01*
X107578764Y-90558789D01*
X107614191Y-90611809D01*
X107667209Y-90647235D01*
X107712301Y-90692327D01*
X107771215Y-90716730D01*
X107824235Y-90752157D01*
X107886776Y-90764597D01*
X107945690Y-90789000D01*
X108009459Y-90789000D01*
X108072000Y-90801440D01*
X110072000Y-90801440D01*
X110134541Y-90789000D01*
X110198310Y-90789000D01*
X110257224Y-90764597D01*
X110319765Y-90752157D01*
X110372785Y-90716730D01*
X110431699Y-90692327D01*
X110476791Y-90647235D01*
X110529809Y-90611809D01*
X110565236Y-90558789D01*
X110610327Y-90513698D01*
X110624717Y-90478956D01*
X110685847Y-90540086D01*
X111286778Y-90789000D01*
X111937222Y-90789000D01*
X112538153Y-90540086D01*
X112882000Y-90196239D01*
X113225847Y-90540086D01*
X113272581Y-90559444D01*
X113277736Y-90573387D01*
X113554263Y-90676120D01*
X113826778Y-90789000D01*
X113858100Y-90789000D01*
X113887461Y-90799908D01*
X114182247Y-90789000D01*
X114477222Y-90789000D01*
X114506158Y-90777014D01*
X114537460Y-90775856D01*
X115026264Y-90573387D01*
X115031419Y-90559444D01*
X115078153Y-90540086D01*
X115422000Y-90196239D01*
X115765847Y-90540086D01*
X115812581Y-90559444D01*
X115817736Y-90573387D01*
X116094263Y-90676120D01*
X116366778Y-90789000D01*
X116398100Y-90789000D01*
X116427461Y-90799908D01*
X116722247Y-90789000D01*
X117017222Y-90789000D01*
X117046158Y-90777014D01*
X117077460Y-90775856D01*
X117566264Y-90573387D01*
X117571419Y-90559444D01*
X117618153Y-90540086D01*
X117962000Y-90196239D01*
X118305847Y-90540086D01*
X118906778Y-90789000D01*
X119557222Y-90789000D01*
X120158153Y-90540086D01*
X120502000Y-90196239D01*
X120845847Y-90540086D01*
X121446778Y-90789000D01*
X122097222Y-90789000D01*
X122698153Y-90540086D01*
X123042000Y-90196239D01*
X123385847Y-90540086D01*
X123432581Y-90559444D01*
X123437736Y-90573387D01*
X123714263Y-90676120D01*
X123986778Y-90789000D01*
X124018100Y-90789000D01*
X124047461Y-90799908D01*
X124342247Y-90789000D01*
X124637222Y-90789000D01*
X124666158Y-90777014D01*
X124697460Y-90775856D01*
X125186264Y-90573387D01*
X125191419Y-90559444D01*
X125238153Y-90540086D01*
X125582000Y-90196239D01*
X125925847Y-90540086D01*
X125972581Y-90559444D01*
X125977736Y-90573387D01*
X126254263Y-90676120D01*
X126526778Y-90789000D01*
X126558100Y-90789000D01*
X126587461Y-90799908D01*
X126882247Y-90789000D01*
X127177222Y-90789000D01*
X127206158Y-90777014D01*
X127237460Y-90775856D01*
X127726264Y-90573387D01*
X127731419Y-90559444D01*
X127778153Y-90540086D01*
X128122000Y-90196239D01*
X128465847Y-90540086D01*
X128512581Y-90559444D01*
X128517736Y-90573387D01*
X128794263Y-90676120D01*
X129066778Y-90789000D01*
X129098100Y-90789000D01*
X129127461Y-90799908D01*
X129422247Y-90789000D01*
X129717222Y-90789000D01*
X129746158Y-90777014D01*
X129777460Y-90775856D01*
X130266264Y-90573387D01*
X130271419Y-90559444D01*
X130318153Y-90540086D01*
X130662000Y-90196239D01*
X131005847Y-90540086D01*
X131052581Y-90559444D01*
X131057736Y-90573387D01*
X131334263Y-90676120D01*
X131606778Y-90789000D01*
X131638100Y-90789000D01*
X131667461Y-90799908D01*
X131962247Y-90789000D01*
X132257222Y-90789000D01*
X132286158Y-90777014D01*
X132317460Y-90775856D01*
X132806264Y-90573387D01*
X132811419Y-90559444D01*
X132858153Y-90540086D01*
X133202000Y-90196239D01*
X133545847Y-90540086D01*
X134146778Y-90789000D01*
X134797222Y-90789000D01*
X135398153Y-90540086D01*
X135742000Y-90196239D01*
X136085847Y-90540086D01*
X136132581Y-90559444D01*
X136137736Y-90573387D01*
X136414263Y-90676120D01*
X136686778Y-90789000D01*
X136718100Y-90789000D01*
X136747461Y-90799908D01*
X137042247Y-90789000D01*
X137337222Y-90789000D01*
X137366158Y-90777014D01*
X137397460Y-90775856D01*
X137886264Y-90573387D01*
X137891419Y-90559444D01*
X137938153Y-90540086D01*
X138282000Y-90196239D01*
X138625847Y-90540086D01*
X138672581Y-90559444D01*
X138677736Y-90573387D01*
X138954263Y-90676120D01*
X139226778Y-90789000D01*
X139258100Y-90789000D01*
X139287461Y-90799908D01*
X139582247Y-90789000D01*
X139877222Y-90789000D01*
X139906158Y-90777014D01*
X139937460Y-90775856D01*
X140426264Y-90573387D01*
X140431419Y-90559444D01*
X140478153Y-90540086D01*
X140822000Y-90196239D01*
X141165847Y-90540086D01*
X141766778Y-90789000D01*
X142417222Y-90789000D01*
X142583375Y-90720177D01*
X142607526Y-90744328D01*
X142607529Y-90744330D01*
X142826670Y-90963471D01*
X142869072Y-91026930D01*
X143120464Y-91194905D01*
X143342149Y-91239001D01*
X143342153Y-91239001D01*
X143417000Y-91253889D01*
X143491847Y-91239001D01*
X153050462Y-91239001D01*
X154228940Y-92417479D01*
X140440207Y-92417479D01*
X140365360Y-92402591D01*
X140290513Y-92417479D01*
X140290509Y-92417479D01*
X140068824Y-92461575D01*
X140068822Y-92461576D01*
X140068823Y-92461576D01*
X139880887Y-92587150D01*
X139880885Y-92587152D01*
X139817432Y-92629550D01*
X139775034Y-92693004D01*
X138954598Y-93513441D01*
X120700561Y-93513441D01*
X120687581Y-93482104D01*
X120294598Y-93089121D01*
X119781142Y-92876441D01*
X119225380Y-92876441D01*
X118711924Y-93089121D01*
X118318941Y-93482104D01*
X118233261Y-93688954D01*
X118147581Y-93482104D01*
X117754598Y-93089121D01*
X117241142Y-92876441D01*
X116685380Y-92876441D01*
X116171924Y-93089121D01*
X115778941Y-93482104D01*
X115693261Y-93688954D01*
X115607581Y-93482104D01*
X115214598Y-93089121D01*
X114701142Y-92876441D01*
X114145380Y-92876441D01*
X113631924Y-93089121D01*
X113278914Y-93442131D01*
X113243418Y-93263676D01*
X113103070Y-93053632D01*
X112893026Y-92913284D01*
X112645261Y-92864001D01*
X111121261Y-92864001D01*
X110873496Y-92913284D01*
X110663452Y-93053632D01*
X110523104Y-93263676D01*
X110473821Y-93511441D01*
X110473821Y-95035441D01*
X110523104Y-95283206D01*
X110663452Y-95493250D01*
X110873496Y-95633598D01*
X111121261Y-95682881D01*
X112645261Y-95682881D01*
X112893026Y-95633598D01*
X113103070Y-95493250D01*
X113243418Y-95283206D01*
X113278914Y-95104751D01*
X113631924Y-95457761D01*
X114145380Y-95670441D01*
X114701142Y-95670441D01*
X115214598Y-95457761D01*
X115607581Y-95064778D01*
X115693261Y-94857928D01*
X115778941Y-95064778D01*
X116171924Y-95457761D01*
X116685380Y-95670441D01*
X117241142Y-95670441D01*
X117272479Y-95657461D01*
X118528051Y-96913033D01*
X118570451Y-96976489D01*
X118821843Y-97144464D01*
X119043528Y-97188560D01*
X119043532Y-97188560D01*
X119118380Y-97203448D01*
X119193228Y-97188560D01*
X154977855Y-97188560D01*
X155052702Y-97203448D01*
X155127549Y-97188560D01*
X155127554Y-97188560D01*
X155349239Y-97144464D01*
X155600631Y-96976489D01*
X155643033Y-96913030D01*
X157146477Y-95409588D01*
X157209930Y-95367190D01*
X157252328Y-95303737D01*
X157252330Y-95303735D01*
X157377904Y-95115799D01*
X157377905Y-95115798D01*
X157408725Y-94960856D01*
X157981501Y-95533632D01*
X157981501Y-113495682D01*
X157964429Y-113470131D01*
X157900973Y-113427731D01*
X156515422Y-112042181D01*
X156473020Y-111978722D01*
X156221628Y-111810747D01*
X155999943Y-111766651D01*
X155999938Y-111766651D01*
X155925091Y-111751763D01*
X155850244Y-111766651D01*
X116325997Y-111766651D01*
X116251149Y-111751763D01*
X116176301Y-111766651D01*
X116176297Y-111766651D01*
X116002754Y-111801171D01*
X115954611Y-111810747D01*
X115776830Y-111929537D01*
X115703220Y-111978722D01*
X115660820Y-112042178D01*
X114694146Y-113008853D01*
X114477222Y-112919000D01*
X113826778Y-112919000D01*
X113225847Y-113167914D01*
X112882000Y-113511761D01*
X112538153Y-113167914D01*
X111937222Y-112919000D01*
X111286778Y-112919000D01*
X110685847Y-113167914D01*
X110342000Y-113511761D01*
X109998153Y-113167914D01*
X109397222Y-112919000D01*
X108746778Y-112919000D01*
X108145847Y-113167914D01*
X107685914Y-113627847D01*
X107437000Y-114228778D01*
X107437000Y-114879222D01*
X107685914Y-115480153D01*
X108145847Y-115940086D01*
X108746778Y-116189000D01*
X109397222Y-116189000D01*
X109998153Y-115940086D01*
X110342000Y-115596239D01*
X110685847Y-115940086D01*
X111286778Y-116189000D01*
X111937222Y-116189000D01*
X112538153Y-115940086D01*
X112882000Y-115596239D01*
X113225847Y-115940086D01*
X113826778Y-116189000D01*
X114477222Y-116189000D01*
X115078153Y-115940086D01*
X115422000Y-115596239D01*
X115765847Y-115940086D01*
X115812581Y-115959444D01*
X115817736Y-115973387D01*
X116094263Y-116076120D01*
X116366778Y-116189000D01*
X116398100Y-116189000D01*
X116427461Y-116199908D01*
X116722247Y-116189000D01*
X117017222Y-116189000D01*
X117046158Y-116177014D01*
X117077460Y-116175856D01*
X117566264Y-115973387D01*
X117571419Y-115959444D01*
X117618153Y-115940086D01*
X117962000Y-115596239D01*
X118305847Y-115940086D01*
X118906778Y-116189000D01*
X119557222Y-116189000D01*
X120158153Y-115940086D01*
X120502000Y-115596239D01*
X120845847Y-115940086D01*
X120892581Y-115959444D01*
X120897736Y-115973387D01*
X121174263Y-116076120D01*
X121446778Y-116189000D01*
X121478100Y-116189000D01*
X121507461Y-116199908D01*
X121802247Y-116189000D01*
X122097222Y-116189000D01*
X122126158Y-116177014D01*
X122157460Y-116175856D01*
X122646264Y-115973387D01*
X122651419Y-115959444D01*
X122698153Y-115940086D01*
X123042000Y-115596239D01*
X123385847Y-115940086D01*
X123986778Y-116189000D01*
X124637222Y-116189000D01*
X125238153Y-115940086D01*
X125582000Y-115596239D01*
X125925847Y-115940086D01*
X126500177Y-116177981D01*
X122691639Y-119986520D01*
X118860166Y-119986520D01*
X118785319Y-119971632D01*
X118710472Y-119986520D01*
X118710468Y-119986520D01*
X118488783Y-120030616D01*
X118237391Y-120198591D01*
X118194991Y-120262047D01*
X107348688Y-131108351D01*
X107285232Y-131150751D01*
X107242832Y-131214207D01*
X107242831Y-131214208D01*
X107184678Y-131301240D01*
X106833160Y-131301240D01*
X106585395Y-131350523D01*
X106375351Y-131490871D01*
X106235003Y-131700915D01*
X106185720Y-131948680D01*
X96976000Y-131948680D01*
X96976000Y-84114090D01*
X98584063Y-82506028D01*
X98428560Y-82881446D01*
X98167064Y-83507434D01*
X98167048Y-83512792D01*
X98165000Y-83517736D01*
X98165000Y-84195529D01*
X98162965Y-84873956D01*
X98165000Y-84878911D01*
X98165000Y-84884264D01*
X98424391Y-85510490D01*
X98682122Y-86138027D01*
X98687918Y-86146701D01*
X98687947Y-86146771D01*
X98688001Y-86146825D01*
X98693797Y-86155499D01*
X98703428Y-86162252D01*
X99638748Y-87097572D01*
X99645501Y-87107203D01*
X99650444Y-87109268D01*
X99654229Y-87113053D01*
X100280446Y-87372440D01*
X100906434Y-87633936D01*
X100911792Y-87633952D01*
X100916736Y-87636000D01*
X101594529Y-87636000D01*
X102272956Y-87638035D01*
X102277911Y-87636000D01*
X102283264Y-87636000D01*
X102909490Y-87376609D01*
X103537027Y-87118878D01*
X103545701Y-87113082D01*
X103545771Y-87113053D01*
X103545825Y-87112999D01*
X103554499Y-87107203D01*
X103561252Y-87097572D01*
X104496572Y-86162252D01*
X104506203Y-86155499D01*
X104508268Y-86150556D01*
X104512053Y-86146771D01*
X104618429Y-85889956D01*
X168393965Y-85889956D01*
X168396000Y-85894911D01*
X168396000Y-85900264D01*
X168655391Y-86526490D01*
X168913122Y-87154027D01*
X168918918Y-87162701D01*
X168918947Y-87162771D01*
X168919001Y-87162825D01*
X168924797Y-87171499D01*
X168934428Y-87178252D01*
X169869748Y-88113572D01*
X169876501Y-88123203D01*
X169881444Y-88125268D01*
X169885229Y-88129053D01*
X170511446Y-88388440D01*
X171137434Y-88649936D01*
X171142792Y-88649952D01*
X171147736Y-88652000D01*
X171825529Y-88652000D01*
X172503956Y-88654035D01*
X172508911Y-88652000D01*
X172514264Y-88652000D01*
X173140490Y-88392609D01*
X173768027Y-88134878D01*
X173776701Y-88129082D01*
X173776771Y-88129053D01*
X173776825Y-88128999D01*
X173785499Y-88123203D01*
X173792252Y-88113572D01*
X174727572Y-87178252D01*
X174737203Y-87171499D01*
X174739268Y-87166556D01*
X174743053Y-87162771D01*
X175002440Y-86536554D01*
X175263936Y-85910566D01*
X175263952Y-85905208D01*
X175266000Y-85900264D01*
X175266000Y-85222471D01*
X175268035Y-84544044D01*
X175266000Y-84539089D01*
X175266000Y-84533736D01*
X175006609Y-83907510D01*
X174748878Y-83279973D01*
X174743082Y-83271299D01*
X174743053Y-83271229D01*
X174742999Y-83271175D01*
X174737203Y-83262501D01*
X174727572Y-83255748D01*
X173792252Y-82320428D01*
X173785499Y-82310797D01*
X173780556Y-82308732D01*
X173776771Y-82304947D01*
X173150554Y-82045560D01*
X172524566Y-81784064D01*
X172519208Y-81784048D01*
X172514264Y-81782000D01*
X171836471Y-81782000D01*
X171158044Y-81779965D01*
X171153089Y-81782000D01*
X171147736Y-81782000D01*
X170521510Y-82041391D01*
X169893973Y-82299122D01*
X169885299Y-82304918D01*
X169885229Y-82304947D01*
X169885175Y-82305001D01*
X169876501Y-82310797D01*
X169869748Y-82320428D01*
X168934428Y-83255748D01*
X168924797Y-83262501D01*
X168922732Y-83267444D01*
X168918947Y-83271229D01*
X168659560Y-83897446D01*
X168398064Y-84523434D01*
X168398048Y-84528792D01*
X168396000Y-84533736D01*
X168396000Y-85211529D01*
X168393965Y-85889956D01*
X104618429Y-85889956D01*
X104771440Y-85520554D01*
X105032936Y-84894566D01*
X105032952Y-84889208D01*
X105035000Y-84884264D01*
X105035000Y-84206471D01*
X105037035Y-83528044D01*
X105035000Y-83523089D01*
X105035000Y-83517736D01*
X104775609Y-82891510D01*
X104517878Y-82263973D01*
X104512082Y-82255299D01*
X104512053Y-82255229D01*
X104511999Y-82255175D01*
X104506203Y-82246501D01*
X104496572Y-82239748D01*
X103561252Y-81304428D01*
X103554499Y-81294797D01*
X103549556Y-81292732D01*
X103545771Y-81288947D01*
X102919554Y-81029560D01*
X102293566Y-80768064D01*
X102288208Y-80768048D01*
X102283264Y-80766000D01*
X101605471Y-80766000D01*
X100927044Y-80763965D01*
X100922089Y-80766000D01*
X100916736Y-80766000D01*
X100290510Y-81025391D01*
X99907326Y-81182766D01*
X100370092Y-80720000D01*
X173060910Y-80720000D01*
X176709000Y-84368092D01*
X176709000Y-84368092D01*
G37*
X176709000Y-84368092D02*
X176709001Y-138961407D01*
X173632410Y-142038000D01*
X99862091Y-142038000D01*
X96976000Y-139151910D01*
X96976000Y-138213956D01*
X97654965Y-138213956D01*
X97657000Y-138218911D01*
X97657000Y-138224264D01*
X97916391Y-138850490D01*
X98174122Y-139478027D01*
X98179918Y-139486701D01*
X98179947Y-139486771D01*
X98180001Y-139486825D01*
X98185797Y-139495499D01*
X98195428Y-139502252D01*
X99130748Y-140437572D01*
X99137501Y-140447203D01*
X99142444Y-140449268D01*
X99146229Y-140453053D01*
X99772446Y-140712440D01*
X100398434Y-140973936D01*
X100403792Y-140973952D01*
X100408736Y-140976000D01*
X101086529Y-140976000D01*
X101764956Y-140978035D01*
X101769911Y-140976000D01*
X101775264Y-140976000D01*
X102401490Y-140716609D01*
X103029027Y-140458878D01*
X103037701Y-140453082D01*
X103037771Y-140453053D01*
X103037825Y-140452999D01*
X103046499Y-140447203D01*
X103053252Y-140437572D01*
X103988572Y-139502252D01*
X103998203Y-139495499D01*
X104000268Y-139490556D01*
X104004053Y-139486771D01*
X104140337Y-139157751D01*
X119291200Y-139157751D01*
X119291200Y-139728629D01*
X119509666Y-140256052D01*
X119913338Y-140659724D01*
X120440761Y-140878190D01*
X121011639Y-140878190D01*
X121539062Y-140659724D01*
X121942734Y-140256052D01*
X122161200Y-139728629D01*
X122161200Y-139157751D01*
X121942734Y-138630328D01*
X121539062Y-138226656D01*
X121011639Y-138008190D01*
X120440761Y-138008190D01*
X119913338Y-138226656D01*
X119509666Y-138630328D01*
X119291200Y-139157751D01*
X104140337Y-139157751D01*
X104263440Y-138860554D01*
X104524936Y-138234566D01*
X104524952Y-138229208D01*
X104527000Y-138224264D01*
X104527000Y-137546471D01*
X104529035Y-136868044D01*
X104527000Y-136863089D01*
X104527000Y-136857736D01*
X104267609Y-136231510D01*
X104216560Y-136107211D01*
X119314060Y-136107211D01*
X119314060Y-136678089D01*
X119532526Y-137205512D01*
X119936198Y-137609184D01*
X120463621Y-137827650D01*
X121034499Y-137827650D01*
X121561922Y-137609184D01*
X121965594Y-137205512D01*
X122184060Y-136678089D01*
X122184060Y-136107211D01*
X121965594Y-135579788D01*
X121561922Y-135176116D01*
X121034499Y-134957650D01*
X120463621Y-134957650D01*
X119936198Y-135176116D01*
X119532526Y-135579788D01*
X119314060Y-136107211D01*
X104216560Y-136107211D01*
X104009878Y-135603973D01*
X104004082Y-135595299D01*
X104004053Y-135595229D01*
X104003999Y-135595175D01*
X103998203Y-135586501D01*
X103988572Y-135579748D01*
X103053252Y-134644428D01*
X103046499Y-134634797D01*
X103041556Y-134632732D01*
X103037771Y-134628947D01*
X102411554Y-134369560D01*
X101785566Y-134108064D01*
X101780208Y-134108048D01*
X101775264Y-134106000D01*
X101097471Y-134106000D01*
X100419044Y-134103965D01*
X100414089Y-134106000D01*
X100408736Y-134106000D01*
X99782510Y-134365391D01*
X99154973Y-134623122D01*
X99146299Y-134628918D01*
X99146229Y-134628947D01*
X99146175Y-134629001D01*
X99137501Y-134634797D01*
X99130748Y-134644428D01*
X98195428Y-135579748D01*
X98185797Y-135586501D01*
X98183732Y-135591444D01*
X98179947Y-135595229D01*
X97920560Y-136221446D01*
X97659064Y-136847434D01*
X97659048Y-136852792D01*
X97657000Y-136857736D01*
X97657000Y-137535529D01*
X97654965Y-138213956D01*
X96976000Y-138213956D01*
X96976000Y-131948680D01*
X106185720Y-131948680D01*
X106185720Y-133948680D01*
X106235003Y-134196445D01*
X106375351Y-134406489D01*
X106585395Y-134546837D01*
X106833160Y-134596120D01*
X108833160Y-134596120D01*
X109080925Y-134546837D01*
X109290969Y-134406489D01*
X109431317Y-134196445D01*
X109480600Y-133948680D01*
X109480600Y-132623458D01*
X113798160Y-132623458D01*
X113798160Y-133273902D01*
X114047074Y-133874833D01*
X114507007Y-134334766D01*
X115107938Y-134583680D01*
X115758382Y-134583680D01*
X116359313Y-134334766D01*
X116819246Y-133874833D01*
X117068160Y-133273902D01*
X117068160Y-132623458D01*
X116819246Y-132022527D01*
X116359313Y-131562594D01*
X115758382Y-131313680D01*
X115107938Y-131313680D01*
X114507007Y-131562594D01*
X114047074Y-132022527D01*
X113798160Y-132623458D01*
X109480600Y-132623458D01*
X109480600Y-131948680D01*
X109431317Y-131700915D01*
X109290969Y-131490871D01*
X109185945Y-131420696D01*
X119100122Y-121506520D01*
X122931593Y-121506520D01*
X123006440Y-121521408D01*
X123081287Y-121506520D01*
X123081292Y-121506520D01*
X123302977Y-121462424D01*
X123554369Y-121294449D01*
X123596771Y-121230990D01*
X128764125Y-116063637D01*
X129066778Y-116189000D01*
X129717222Y-116189000D01*
X130318153Y-115940086D01*
X130662000Y-115596239D01*
X131005847Y-115940086D01*
X131606778Y-116189000D01*
X132257222Y-116189000D01*
X132858153Y-115940086D01*
X133202000Y-115596239D01*
X133545847Y-115940086D01*
X133592581Y-115959444D01*
X133597736Y-115973387D01*
X133874263Y-116076120D01*
X134146778Y-116189000D01*
X134178100Y-116189000D01*
X134207461Y-116199908D01*
X134502247Y-116189000D01*
X134797222Y-116189000D01*
X134826158Y-116177014D01*
X134857460Y-116175856D01*
X135346264Y-115973387D01*
X135351419Y-115959444D01*
X135398153Y-115940086D01*
X135742000Y-115596239D01*
X136085847Y-115940086D01*
X136132581Y-115959444D01*
X136137736Y-115973387D01*
X136414263Y-116076120D01*
X136686778Y-116189000D01*
X136718100Y-116189000D01*
X136747461Y-116199908D01*
X137042247Y-116189000D01*
X137337222Y-116189000D01*
X137366158Y-116177014D01*
X137397460Y-116175856D01*
X137886264Y-115973387D01*
X137891419Y-115959444D01*
X137938153Y-115940086D01*
X138282000Y-115596239D01*
X138625847Y-115940086D01*
X138672581Y-115959444D01*
X138677736Y-115973387D01*
X138954263Y-116076120D01*
X139226778Y-116189000D01*
X139258100Y-116189000D01*
X139287461Y-116199908D01*
X139582247Y-116189000D01*
X139877222Y-116189000D01*
X139906158Y-116177014D01*
X139937460Y-116175856D01*
X140426264Y-115973387D01*
X140431419Y-115959444D01*
X140478153Y-115940086D01*
X140822000Y-115596239D01*
X141165847Y-115940086D01*
X141212581Y-115959444D01*
X141217736Y-115973387D01*
X141494263Y-116076120D01*
X141766778Y-116189000D01*
X141798100Y-116189000D01*
X141827461Y-116199908D01*
X142122247Y-116189000D01*
X142417222Y-116189000D01*
X142446158Y-116177014D01*
X142477460Y-116175856D01*
X142966264Y-115973387D01*
X142971419Y-115959444D01*
X143018153Y-115940086D01*
X143362000Y-115596239D01*
X143705847Y-115940086D01*
X143752581Y-115959444D01*
X143757736Y-115973387D01*
X144034263Y-116076120D01*
X144306778Y-116189000D01*
X144338100Y-116189000D01*
X144367461Y-116199908D01*
X144662247Y-116189000D01*
X144957222Y-116189000D01*
X144986158Y-116177014D01*
X145017460Y-116175856D01*
X145506264Y-115973387D01*
X145511419Y-115959444D01*
X145558153Y-115940086D01*
X146018086Y-115480153D01*
X146037444Y-115433419D01*
X146051387Y-115428264D01*
X146154120Y-115151737D01*
X146267000Y-114879222D01*
X146267000Y-114847900D01*
X146277908Y-114818539D01*
X146267000Y-114523753D01*
X146267000Y-114228778D01*
X146255014Y-114199842D01*
X146253856Y-114168540D01*
X146074966Y-113736660D01*
X151896379Y-113736660D01*
X153876001Y-115716283D01*
X153876002Y-134540178D01*
X153472252Y-134136428D01*
X153465499Y-134126797D01*
X153460556Y-134124732D01*
X153456771Y-134120947D01*
X152830554Y-133861560D01*
X152204566Y-133600064D01*
X152199208Y-133600048D01*
X152194264Y-133598000D01*
X151516471Y-133598000D01*
X150838044Y-133595965D01*
X150833089Y-133598000D01*
X150827736Y-133598000D01*
X150201510Y-133857391D01*
X149573973Y-134115122D01*
X149565299Y-134120918D01*
X149565229Y-134120947D01*
X149565175Y-134121001D01*
X149556501Y-134126797D01*
X149549748Y-134136428D01*
X148614428Y-135071748D01*
X148604797Y-135078501D01*
X148602732Y-135083444D01*
X148598947Y-135087229D01*
X148339560Y-135713446D01*
X148078064Y-136339434D01*
X148078048Y-136344792D01*
X148076000Y-136349736D01*
X148076000Y-137027529D01*
X148073965Y-137705956D01*
X148076000Y-137710911D01*
X148076000Y-137716264D01*
X148335391Y-138342490D01*
X148593122Y-138970027D01*
X148598918Y-138978701D01*
X148598947Y-138978771D01*
X148599001Y-138978825D01*
X148604797Y-138987499D01*
X148614428Y-138994252D01*
X149549748Y-139929572D01*
X149556501Y-139939203D01*
X149561444Y-139941268D01*
X149565229Y-139945053D01*
X150191446Y-140204440D01*
X150725425Y-140427501D01*
X140633303Y-140427501D01*
X140508623Y-140302821D01*
X140652500Y-140331440D01*
X142557500Y-140331440D01*
X142805265Y-140282157D01*
X143015309Y-140141809D01*
X143155657Y-139931765D01*
X143204940Y-139684000D01*
X143204940Y-137684000D01*
X143155657Y-137436235D01*
X143015309Y-137226191D01*
X142805265Y-137085843D01*
X142557500Y-137036560D01*
X142033442Y-137036560D01*
X137202732Y-132205851D01*
X137160330Y-132142392D01*
X136908938Y-131974417D01*
X136687253Y-131930321D01*
X136687248Y-131930321D01*
X136612401Y-131915433D01*
X136537554Y-131930321D01*
X129244235Y-131930321D01*
X129424000Y-131496330D01*
X129424000Y-130885670D01*
X129190310Y-130321493D01*
X128758507Y-129889690D01*
X128194330Y-129656000D01*
X127583670Y-129656000D01*
X127019493Y-129889690D01*
X126850275Y-130058908D01*
X126847157Y-130043235D01*
X126706809Y-129833191D01*
X126496765Y-129692843D01*
X126249000Y-129643560D01*
X124449000Y-129643560D01*
X124201235Y-129692843D01*
X123991191Y-129833191D01*
X123945055Y-129902238D01*
X123932507Y-129889690D01*
X123368330Y-129656000D01*
X122757670Y-129656000D01*
X122193493Y-129889690D01*
X122024275Y-130058908D01*
X122021157Y-130043235D01*
X121880809Y-129833191D01*
X121670765Y-129692843D01*
X121423000Y-129643560D01*
X119623000Y-129643560D01*
X119375235Y-129692843D01*
X119165191Y-129833191D01*
X119024843Y-130043235D01*
X118975560Y-130291000D01*
X118975560Y-132091000D01*
X119024843Y-132338765D01*
X119165191Y-132548809D01*
X119375235Y-132689157D01*
X119623000Y-132738440D01*
X120566649Y-132738440D01*
X126947512Y-139119305D01*
X126883087Y-139443190D01*
X126994460Y-140003099D01*
X127311623Y-140477767D01*
X127786291Y-140794930D01*
X128204867Y-140878190D01*
X128487533Y-140878190D01*
X128906109Y-140794930D01*
X129380777Y-140477767D01*
X129697940Y-140003099D01*
X129809313Y-139443190D01*
X129697940Y-138883281D01*
X129380777Y-138408613D01*
X128906109Y-138091450D01*
X128487533Y-138008190D01*
X128204867Y-138008190D01*
X128022315Y-138044502D01*
X127547117Y-137569305D01*
X127809151Y-137744390D01*
X128227727Y-137827650D01*
X128510393Y-137827650D01*
X128928969Y-137744390D01*
X129403637Y-137427227D01*
X129720800Y-136952559D01*
X129832173Y-136392650D01*
X129720800Y-135832741D01*
X129403637Y-135358073D01*
X128928969Y-135040910D01*
X128510393Y-134957650D01*
X128227727Y-134957650D01*
X127809151Y-135040910D01*
X127334483Y-135358073D01*
X127017320Y-135832741D01*
X126905947Y-136392650D01*
X127017320Y-136952559D01*
X127192405Y-137214593D01*
X123428133Y-133450321D01*
X136297600Y-133450321D01*
X140146136Y-137298858D01*
X140076491Y-137403088D01*
X139684411Y-137141109D01*
X139065000Y-137017900D01*
X138445590Y-137141109D01*
X137920477Y-137491977D01*
X137795000Y-137679767D01*
X137669523Y-137491977D01*
X137144411Y-137141109D01*
X136525000Y-137017900D01*
X135905590Y-137141109D01*
X135380477Y-137491977D01*
X135029609Y-138017089D01*
X134937500Y-138480150D01*
X134937500Y-138887849D01*
X135029609Y-139350910D01*
X135380477Y-139876023D01*
X135905589Y-140226891D01*
X136525000Y-140350100D01*
X137144410Y-140226891D01*
X137669523Y-139876023D01*
X137795000Y-139688233D01*
X137920477Y-139876023D01*
X138333470Y-140151976D01*
X138349097Y-140230537D01*
X138428987Y-140350100D01*
X138517072Y-140481929D01*
X138580528Y-140524329D01*
X139728172Y-141671974D01*
X139770572Y-141735430D01*
X140021964Y-141903405D01*
X140243649Y-141947501D01*
X140243653Y-141947501D01*
X140318500Y-141962389D01*
X140393347Y-141947501D01*
X169377654Y-141947501D01*
X169452501Y-141962389D01*
X169527348Y-141947501D01*
X169527353Y-141947501D01*
X169749038Y-141903405D01*
X170000430Y-141735430D01*
X170042832Y-141671971D01*
X176416984Y-135297820D01*
X176480440Y-135255420D01*
X176648415Y-135004028D01*
X176692511Y-134782343D01*
X176692511Y-134782339D01*
X176707399Y-134707492D01*
X176692511Y-134632645D01*
X176692511Y-93877356D01*
X176707399Y-93802509D01*
X176692511Y-93727662D01*
X176692511Y-93727657D01*
X176648415Y-93505972D01*
X176480440Y-93254580D01*
X176416984Y-93212180D01*
X175334832Y-92130029D01*
X175292430Y-92066570D01*
X175041038Y-91898595D01*
X174819353Y-91854499D01*
X174819348Y-91854499D01*
X174744501Y-91839611D01*
X174669654Y-91854499D01*
X173691346Y-91854499D01*
X173616499Y-91839611D01*
X173541652Y-91854499D01*
X173541647Y-91854499D01*
X173319962Y-91898595D01*
X173068570Y-92066570D01*
X173026170Y-92130026D01*
X171791030Y-93365167D01*
X171727571Y-93407569D01*
X171559596Y-93658962D01*
X171515500Y-93880647D01*
X171515500Y-93880651D01*
X171500612Y-93955498D01*
X171515500Y-94030345D01*
X171515501Y-95449649D01*
X171500612Y-95524500D01*
X171559597Y-95821037D01*
X171635566Y-95934732D01*
X171727572Y-96072429D01*
X171791028Y-96114829D01*
X172490171Y-96813973D01*
X172532571Y-96877429D01*
X172683060Y-96977983D01*
X172683060Y-97179500D01*
X172732343Y-97427265D01*
X172872691Y-97637309D01*
X173082735Y-97777657D01*
X173330500Y-97826940D01*
X174595502Y-97826940D01*
X174595501Y-100790826D01*
X174390256Y-100750000D01*
X174097744Y-100750000D01*
X173664582Y-100836161D01*
X173173375Y-101164375D01*
X172845161Y-101655582D01*
X172729908Y-102235000D01*
X172845161Y-102814418D01*
X173173375Y-103305625D01*
X173471761Y-103505000D01*
X173173375Y-103704375D01*
X172845161Y-104195582D01*
X172729908Y-104775000D01*
X172845161Y-105354418D01*
X173173375Y-105845625D01*
X173191619Y-105857816D01*
X173146235Y-105866843D01*
X172936191Y-106007191D01*
X172795843Y-106217235D01*
X172746560Y-106465000D01*
X172746560Y-106555000D01*
X171817693Y-106555000D01*
X151847331Y-86584639D01*
X151804929Y-86521180D01*
X151553537Y-86353205D01*
X151331852Y-86309109D01*
X151331847Y-86309109D01*
X151257000Y-86294221D01*
X151182153Y-86309109D01*
X113578699Y-86309109D01*
X113503851Y-86294221D01*
X113429003Y-86309109D01*
X113428999Y-86309109D01*
X113207314Y-86353205D01*
X112955922Y-86521180D01*
X112913522Y-86584636D01*
X111966876Y-87531283D01*
X111937222Y-87519000D01*
X111286778Y-87519000D01*
X110685847Y-87767914D01*
X110624717Y-87829044D01*
X110610327Y-87794302D01*
X110565236Y-87749211D01*
X110529809Y-87696191D01*
X110476791Y-87660765D01*
X110431699Y-87615673D01*
X110372785Y-87591270D01*
X110319765Y-87555843D01*
X110257224Y-87543403D01*
X110198310Y-87519000D01*
X110134541Y-87519000D01*
X110072000Y-87506560D01*
X108072000Y-87506560D01*
X108009459Y-87519000D01*
X107945690Y-87519000D01*
X107886776Y-87543403D01*
X107824235Y-87555843D01*
X107771215Y-87591270D01*
X107712301Y-87615673D01*
X107667209Y-87660765D01*
X107614191Y-87696191D01*
X107578764Y-87749211D01*
X107533673Y-87794302D01*
X107509271Y-87853214D01*
X107473843Y-87906235D01*
X107461403Y-87968778D01*
X107437000Y-88027691D01*
X107437000Y-88091459D01*
X107424560Y-88154000D01*
X107424560Y-90154000D01*
X107437000Y-90216541D01*
X107437000Y-90280309D01*
X107461403Y-90339222D01*
X107473843Y-90401765D01*
X107509271Y-90454786D01*
X107533673Y-90513698D01*
X107578764Y-90558789D01*
X107614191Y-90611809D01*
X107667209Y-90647235D01*
X107712301Y-90692327D01*
X107771215Y-90716730D01*
X107824235Y-90752157D01*
X107886776Y-90764597D01*
X107945690Y-90789000D01*
X108009459Y-90789000D01*
X108072000Y-90801440D01*
X110072000Y-90801440D01*
X110134541Y-90789000D01*
X110198310Y-90789000D01*
X110257224Y-90764597D01*
X110319765Y-90752157D01*
X110372785Y-90716730D01*
X110431699Y-90692327D01*
X110476791Y-90647235D01*
X110529809Y-90611809D01*
X110565236Y-90558789D01*
X110610327Y-90513698D01*
X110624717Y-90478956D01*
X110685847Y-90540086D01*
X111286778Y-90789000D01*
X111937222Y-90789000D01*
X112538153Y-90540086D01*
X112882000Y-90196239D01*
X113225847Y-90540086D01*
X113272581Y-90559444D01*
X113277736Y-90573387D01*
X113554263Y-90676120D01*
X113826778Y-90789000D01*
X113858100Y-90789000D01*
X113887461Y-90799908D01*
X114182247Y-90789000D01*
X114477222Y-90789000D01*
X114506158Y-90777014D01*
X114537460Y-90775856D01*
X115026264Y-90573387D01*
X115031419Y-90559444D01*
X115078153Y-90540086D01*
X115422000Y-90196239D01*
X115765847Y-90540086D01*
X115812581Y-90559444D01*
X115817736Y-90573387D01*
X116094263Y-90676120D01*
X116366778Y-90789000D01*
X116398100Y-90789000D01*
X116427461Y-90799908D01*
X116722247Y-90789000D01*
X117017222Y-90789000D01*
X117046158Y-90777014D01*
X117077460Y-90775856D01*
X117566264Y-90573387D01*
X117571419Y-90559444D01*
X117618153Y-90540086D01*
X117962000Y-90196239D01*
X118305847Y-90540086D01*
X118906778Y-90789000D01*
X119557222Y-90789000D01*
X120158153Y-90540086D01*
X120502000Y-90196239D01*
X120845847Y-90540086D01*
X121446778Y-90789000D01*
X122097222Y-90789000D01*
X122698153Y-90540086D01*
X123042000Y-90196239D01*
X123385847Y-90540086D01*
X123432581Y-90559444D01*
X123437736Y-90573387D01*
X123714263Y-90676120D01*
X123986778Y-90789000D01*
X124018100Y-90789000D01*
X124047461Y-90799908D01*
X124342247Y-90789000D01*
X124637222Y-90789000D01*
X124666158Y-90777014D01*
X124697460Y-90775856D01*
X125186264Y-90573387D01*
X125191419Y-90559444D01*
X125238153Y-90540086D01*
X125582000Y-90196239D01*
X125925847Y-90540086D01*
X125972581Y-90559444D01*
X125977736Y-90573387D01*
X126254263Y-90676120D01*
X126526778Y-90789000D01*
X126558100Y-90789000D01*
X126587461Y-90799908D01*
X126882247Y-90789000D01*
X127177222Y-90789000D01*
X127206158Y-90777014D01*
X127237460Y-90775856D01*
X127726264Y-90573387D01*
X127731419Y-90559444D01*
X127778153Y-90540086D01*
X128122000Y-90196239D01*
X128465847Y-90540086D01*
X128512581Y-90559444D01*
X128517736Y-90573387D01*
X128794263Y-90676120D01*
X129066778Y-90789000D01*
X129098100Y-90789000D01*
X129127461Y-90799908D01*
X129422247Y-90789000D01*
X129717222Y-90789000D01*
X129746158Y-90777014D01*
X129777460Y-90775856D01*
X130266264Y-90573387D01*
X130271419Y-90559444D01*
X130318153Y-90540086D01*
X130662000Y-90196239D01*
X131005847Y-90540086D01*
X131052581Y-90559444D01*
X131057736Y-90573387D01*
X131334263Y-90676120D01*
X131606778Y-90789000D01*
X131638100Y-90789000D01*
X131667461Y-90799908D01*
X131962247Y-90789000D01*
X132257222Y-90789000D01*
X132286158Y-90777014D01*
X132317460Y-90775856D01*
X132806264Y-90573387D01*
X132811419Y-90559444D01*
X132858153Y-90540086D01*
X133202000Y-90196239D01*
X133545847Y-90540086D01*
X134146778Y-90789000D01*
X134797222Y-90789000D01*
X135398153Y-90540086D01*
X135742000Y-90196239D01*
X136085847Y-90540086D01*
X136132581Y-90559444D01*
X136137736Y-90573387D01*
X136414263Y-90676120D01*
X136686778Y-90789000D01*
X136718100Y-90789000D01*
X136747461Y-90799908D01*
X137042247Y-90789000D01*
X137337222Y-90789000D01*
X137366158Y-90777014D01*
X137397460Y-90775856D01*
X137886264Y-90573387D01*
X137891419Y-90559444D01*
X137938153Y-90540086D01*
X138282000Y-90196239D01*
X138625847Y-90540086D01*
X138672581Y-90559444D01*
X138677736Y-90573387D01*
X138954263Y-90676120D01*
X139226778Y-90789000D01*
X139258100Y-90789000D01*
X139287461Y-90799908D01*
X139582247Y-90789000D01*
X139877222Y-90789000D01*
X139906158Y-90777014D01*
X139937460Y-90775856D01*
X140426264Y-90573387D01*
X140431419Y-90559444D01*
X140478153Y-90540086D01*
X140822000Y-90196239D01*
X141165847Y-90540086D01*
X141766778Y-90789000D01*
X142417222Y-90789000D01*
X142583375Y-90720177D01*
X142607526Y-90744328D01*
X142607529Y-90744330D01*
X142826670Y-90963471D01*
X142869072Y-91026930D01*
X143120464Y-91194905D01*
X143342149Y-91239001D01*
X143342153Y-91239001D01*
X143417000Y-91253889D01*
X143491847Y-91239001D01*
X153050462Y-91239001D01*
X154228940Y-92417479D01*
X140440207Y-92417479D01*
X140365360Y-92402591D01*
X140290513Y-92417479D01*
X140290509Y-92417479D01*
X140068824Y-92461575D01*
X140068822Y-92461576D01*
X140068823Y-92461576D01*
X139880887Y-92587150D01*
X139880885Y-92587152D01*
X139817432Y-92629550D01*
X139775034Y-92693004D01*
X138954598Y-93513441D01*
X120700561Y-93513441D01*
X120687581Y-93482104D01*
X120294598Y-93089121D01*
X119781142Y-92876441D01*
X119225380Y-92876441D01*
X118711924Y-93089121D01*
X118318941Y-93482104D01*
X118233261Y-93688954D01*
X118147581Y-93482104D01*
X117754598Y-93089121D01*
X117241142Y-92876441D01*
X116685380Y-92876441D01*
X116171924Y-93089121D01*
X115778941Y-93482104D01*
X115693261Y-93688954D01*
X115607581Y-93482104D01*
X115214598Y-93089121D01*
X114701142Y-92876441D01*
X114145380Y-92876441D01*
X113631924Y-93089121D01*
X113278914Y-93442131D01*
X113243418Y-93263676D01*
X113103070Y-93053632D01*
X112893026Y-92913284D01*
X112645261Y-92864001D01*
X111121261Y-92864001D01*
X110873496Y-92913284D01*
X110663452Y-93053632D01*
X110523104Y-93263676D01*
X110473821Y-93511441D01*
X110473821Y-95035441D01*
X110523104Y-95283206D01*
X110663452Y-95493250D01*
X110873496Y-95633598D01*
X111121261Y-95682881D01*
X112645261Y-95682881D01*
X112893026Y-95633598D01*
X113103070Y-95493250D01*
X113243418Y-95283206D01*
X113278914Y-95104751D01*
X113631924Y-95457761D01*
X114145380Y-95670441D01*
X114701142Y-95670441D01*
X115214598Y-95457761D01*
X115607581Y-95064778D01*
X115693261Y-94857928D01*
X115778941Y-95064778D01*
X116171924Y-95457761D01*
X116685380Y-95670441D01*
X117241142Y-95670441D01*
X117272479Y-95657461D01*
X118528051Y-96913033D01*
X118570451Y-96976489D01*
X118821843Y-97144464D01*
X119043528Y-97188560D01*
X119043532Y-97188560D01*
X119118380Y-97203448D01*
X119193228Y-97188560D01*
X154977855Y-97188560D01*
X155052702Y-97203448D01*
X155127549Y-97188560D01*
X155127554Y-97188560D01*
X155349239Y-97144464D01*
X155600631Y-96976489D01*
X155643033Y-96913030D01*
X157146477Y-95409588D01*
X157209930Y-95367190D01*
X157252328Y-95303737D01*
X157252330Y-95303735D01*
X157377904Y-95115799D01*
X157377905Y-95115798D01*
X157408725Y-94960856D01*
X157981501Y-95533632D01*
X157981501Y-113495682D01*
X157964429Y-113470131D01*
X157900973Y-113427731D01*
X156515422Y-112042181D01*
X156473020Y-111978722D01*
X156221628Y-111810747D01*
X155999943Y-111766651D01*
X155999938Y-111766651D01*
X155925091Y-111751763D01*
X155850244Y-111766651D01*
X116325997Y-111766651D01*
X116251149Y-111751763D01*
X116176301Y-111766651D01*
X116176297Y-111766651D01*
X116002754Y-111801171D01*
X115954611Y-111810747D01*
X115776830Y-111929537D01*
X115703220Y-111978722D01*
X115660820Y-112042178D01*
X114694146Y-113008853D01*
X114477222Y-112919000D01*
X113826778Y-112919000D01*
X113225847Y-113167914D01*
X112882000Y-113511761D01*
X112538153Y-113167914D01*
X111937222Y-112919000D01*
X111286778Y-112919000D01*
X110685847Y-113167914D01*
X110342000Y-113511761D01*
X109998153Y-113167914D01*
X109397222Y-112919000D01*
X108746778Y-112919000D01*
X108145847Y-113167914D01*
X107685914Y-113627847D01*
X107437000Y-114228778D01*
X107437000Y-114879222D01*
X107685914Y-115480153D01*
X108145847Y-115940086D01*
X108746778Y-116189000D01*
X109397222Y-116189000D01*
X109998153Y-115940086D01*
X110342000Y-115596239D01*
X110685847Y-115940086D01*
X111286778Y-116189000D01*
X111937222Y-116189000D01*
X112538153Y-115940086D01*
X112882000Y-115596239D01*
X113225847Y-115940086D01*
X113826778Y-116189000D01*
X114477222Y-116189000D01*
X115078153Y-115940086D01*
X115422000Y-115596239D01*
X115765847Y-115940086D01*
X115812581Y-115959444D01*
X115817736Y-115973387D01*
X116094263Y-116076120D01*
X116366778Y-116189000D01*
X116398100Y-116189000D01*
X116427461Y-116199908D01*
X116722247Y-116189000D01*
X117017222Y-116189000D01*
X117046158Y-116177014D01*
X117077460Y-116175856D01*
X117566264Y-115973387D01*
X117571419Y-115959444D01*
X117618153Y-115940086D01*
X117962000Y-115596239D01*
X118305847Y-115940086D01*
X118906778Y-116189000D01*
X119557222Y-116189000D01*
X120158153Y-115940086D01*
X120502000Y-115596239D01*
X120845847Y-115940086D01*
X120892581Y-115959444D01*
X120897736Y-115973387D01*
X121174263Y-116076120D01*
X121446778Y-116189000D01*
X121478100Y-116189000D01*
X121507461Y-116199908D01*
X121802247Y-116189000D01*
X122097222Y-116189000D01*
X122126158Y-116177014D01*
X122157460Y-116175856D01*
X122646264Y-115973387D01*
X122651419Y-115959444D01*
X122698153Y-115940086D01*
X123042000Y-115596239D01*
X123385847Y-115940086D01*
X123986778Y-116189000D01*
X124637222Y-116189000D01*
X125238153Y-115940086D01*
X125582000Y-115596239D01*
X125925847Y-115940086D01*
X126500177Y-116177981D01*
X122691639Y-119986520D01*
X118860166Y-119986520D01*
X118785319Y-119971632D01*
X118710472Y-119986520D01*
X118710468Y-119986520D01*
X118488783Y-120030616D01*
X118237391Y-120198591D01*
X118194991Y-120262047D01*
X107348688Y-131108351D01*
X107285232Y-131150751D01*
X107242832Y-131214207D01*
X107242831Y-131214208D01*
X107184678Y-131301240D01*
X106833160Y-131301240D01*
X106585395Y-131350523D01*
X106375351Y-131490871D01*
X106235003Y-131700915D01*
X106185720Y-131948680D01*
X96976000Y-131948680D01*
X96976000Y-84114090D01*
X98584063Y-82506028D01*
X98428560Y-82881446D01*
X98167064Y-83507434D01*
X98167048Y-83512792D01*
X98165000Y-83517736D01*
X98165000Y-84195529D01*
X98162965Y-84873956D01*
X98165000Y-84878911D01*
X98165000Y-84884264D01*
X98424391Y-85510490D01*
X98682122Y-86138027D01*
X98687918Y-86146701D01*
X98687947Y-86146771D01*
X98688001Y-86146825D01*
X98693797Y-86155499D01*
X98703428Y-86162252D01*
X99638748Y-87097572D01*
X99645501Y-87107203D01*
X99650444Y-87109268D01*
X99654229Y-87113053D01*
X100280446Y-87372440D01*
X100906434Y-87633936D01*
X100911792Y-87633952D01*
X100916736Y-87636000D01*
X101594529Y-87636000D01*
X102272956Y-87638035D01*
X102277911Y-87636000D01*
X102283264Y-87636000D01*
X102909490Y-87376609D01*
X103537027Y-87118878D01*
X103545701Y-87113082D01*
X103545771Y-87113053D01*
X103545825Y-87112999D01*
X103554499Y-87107203D01*
X103561252Y-87097572D01*
X104496572Y-86162252D01*
X104506203Y-86155499D01*
X104508268Y-86150556D01*
X104512053Y-86146771D01*
X104618429Y-85889956D01*
X168393965Y-85889956D01*
X168396000Y-85894911D01*
X168396000Y-85900264D01*
X168655391Y-86526490D01*
X168913122Y-87154027D01*
X168918918Y-87162701D01*
X168918947Y-87162771D01*
X168919001Y-87162825D01*
X168924797Y-87171499D01*
X168934428Y-87178252D01*
X169869748Y-88113572D01*
X169876501Y-88123203D01*
X169881444Y-88125268D01*
X169885229Y-88129053D01*
X170511446Y-88388440D01*
X171137434Y-88649936D01*
X171142792Y-88649952D01*
X171147736Y-88652000D01*
X171825529Y-88652000D01*
X172503956Y-88654035D01*
X172508911Y-88652000D01*
X172514264Y-88652000D01*
X173140490Y-88392609D01*
X173768027Y-88134878D01*
X173776701Y-88129082D01*
X173776771Y-88129053D01*
X173776825Y-88128999D01*
X173785499Y-88123203D01*
X173792252Y-88113572D01*
X174727572Y-87178252D01*
X174737203Y-87171499D01*
X174739268Y-87166556D01*
X174743053Y-87162771D01*
X175002440Y-86536554D01*
X175263936Y-85910566D01*
X175263952Y-85905208D01*
X175266000Y-85900264D01*
X175266000Y-85222471D01*
X175268035Y-84544044D01*
X175266000Y-84539089D01*
X175266000Y-84533736D01*
X175006609Y-83907510D01*
X174748878Y-83279973D01*
X174743082Y-83271299D01*
X174743053Y-83271229D01*
X174742999Y-83271175D01*
X174737203Y-83262501D01*
X174727572Y-83255748D01*
X173792252Y-82320428D01*
X173785499Y-82310797D01*
X173780556Y-82308732D01*
X173776771Y-82304947D01*
X173150554Y-82045560D01*
X172524566Y-81784064D01*
X172519208Y-81784048D01*
X172514264Y-81782000D01*
X171836471Y-81782000D01*
X171158044Y-81779965D01*
X171153089Y-81782000D01*
X171147736Y-81782000D01*
X170521510Y-82041391D01*
X169893973Y-82299122D01*
X169885299Y-82304918D01*
X169885229Y-82304947D01*
X169885175Y-82305001D01*
X169876501Y-82310797D01*
X169869748Y-82320428D01*
X168934428Y-83255748D01*
X168924797Y-83262501D01*
X168922732Y-83267444D01*
X168918947Y-83271229D01*
X168659560Y-83897446D01*
X168398064Y-84523434D01*
X168398048Y-84528792D01*
X168396000Y-84533736D01*
X168396000Y-85211529D01*
X168393965Y-85889956D01*
X104618429Y-85889956D01*
X104771440Y-85520554D01*
X105032936Y-84894566D01*
X105032952Y-84889208D01*
X105035000Y-84884264D01*
X105035000Y-84206471D01*
X105037035Y-83528044D01*
X105035000Y-83523089D01*
X105035000Y-83517736D01*
X104775609Y-82891510D01*
X104517878Y-82263973D01*
X104512082Y-82255299D01*
X104512053Y-82255229D01*
X104511999Y-82255175D01*
X104506203Y-82246501D01*
X104496572Y-82239748D01*
X103561252Y-81304428D01*
X103554499Y-81294797D01*
X103549556Y-81292732D01*
X103545771Y-81288947D01*
X102919554Y-81029560D01*
X102293566Y-80768064D01*
X102288208Y-80768048D01*
X102283264Y-80766000D01*
X101605471Y-80766000D01*
X100927044Y-80763965D01*
X100922089Y-80766000D01*
X100916736Y-80766000D01*
X100290510Y-81025391D01*
X99907326Y-81182766D01*
X100370092Y-80720000D01*
X173060910Y-80720000D01*
X176709000Y-84368092D01*
G36*
X172481501Y-135122696D02*
X172407875Y-135196323D01*
X172241722Y-135127500D01*
X171591278Y-135127500D01*
X170990347Y-135376414D01*
X170530414Y-135836347D01*
X170281500Y-136437278D01*
X170281500Y-137087722D01*
X170530414Y-137688653D01*
X170990347Y-138148586D01*
X171291764Y-138273437D01*
X169137700Y-140427501D01*
X167163940Y-140427501D01*
X167163940Y-138862500D01*
X167151500Y-138799959D01*
X167151500Y-138736190D01*
X167127097Y-138677276D01*
X167114657Y-138614735D01*
X167079230Y-138561715D01*
X167054827Y-138502801D01*
X167009735Y-138457709D01*
X166974309Y-138404691D01*
X166921289Y-138369264D01*
X166876198Y-138324173D01*
X166817286Y-138299771D01*
X166764265Y-138264343D01*
X166701722Y-138251903D01*
X166642809Y-138227500D01*
X166579041Y-138227500D01*
X166535051Y-138218750D01*
X171425125Y-133328677D01*
X171591278Y-133397500D01*
X172241722Y-133397500D01*
X172481501Y-133298180D01*
X172481501Y-135122696D01*
X172481501Y-135122696D01*
G37*
X172481501Y-135122696D02*
X172407875Y-135196323D01*
X172241722Y-135127500D01*
X171591278Y-135127500D01*
X170990347Y-135376414D01*
X170530414Y-135836347D01*
X170281500Y-136437278D01*
X170281500Y-137087722D01*
X170530414Y-137688653D01*
X170990347Y-138148586D01*
X171291764Y-138273437D01*
X169137700Y-140427501D01*
X167163940Y-140427501D01*
X167163940Y-138862500D01*
X167151500Y-138799959D01*
X167151500Y-138736190D01*
X167127097Y-138677276D01*
X167114657Y-138614735D01*
X167079230Y-138561715D01*
X167054827Y-138502801D01*
X167009735Y-138457709D01*
X166974309Y-138404691D01*
X166921289Y-138369264D01*
X166876198Y-138324173D01*
X166817286Y-138299771D01*
X166764265Y-138264343D01*
X166701722Y-138251903D01*
X166642809Y-138227500D01*
X166579041Y-138227500D01*
X166535051Y-138218750D01*
X171425125Y-133328677D01*
X171591278Y-133397500D01*
X172241722Y-133397500D01*
X172481501Y-133298180D01*
X172481501Y-135122696D01*
G36*
X156190170Y-138571974D02*
X156232570Y-138635430D01*
X156483962Y-138803405D01*
X156705647Y-138847501D01*
X156705651Y-138847501D01*
X156780498Y-138862389D01*
X156855345Y-138847501D01*
X162672043Y-138847501D01*
X162669060Y-138862500D01*
X162669060Y-140427501D01*
X152292037Y-140427501D01*
X152820490Y-140208609D01*
X153448027Y-139950878D01*
X153456701Y-139945082D01*
X153456771Y-139945053D01*
X153456825Y-139944999D01*
X153465499Y-139939203D01*
X153472252Y-139929572D01*
X154407572Y-138994252D01*
X154417203Y-138987499D01*
X154419268Y-138982556D01*
X154423053Y-138978771D01*
X154682440Y-138352554D01*
X154943936Y-137726566D01*
X154943952Y-137721208D01*
X154946000Y-137716264D01*
X154946000Y-137327803D01*
X156190170Y-138571974D01*
X156190170Y-138571974D01*
G37*
X156190170Y-138571974D02*
X156232570Y-138635430D01*
X156483962Y-138803405D01*
X156705647Y-138847501D01*
X156705651Y-138847501D01*
X156780498Y-138862389D01*
X156855345Y-138847501D01*
X162672043Y-138847501D01*
X162669060Y-138862500D01*
X162669060Y-140427501D01*
X152292037Y-140427501D01*
X152820490Y-140208609D01*
X153448027Y-139950878D01*
X153456701Y-139945082D01*
X153456771Y-139945053D01*
X153456825Y-139944999D01*
X153465499Y-139939203D01*
X153472252Y-139929572D01*
X154407572Y-138994252D01*
X154417203Y-138987499D01*
X154419268Y-138982556D01*
X154423053Y-138978771D01*
X154682440Y-138352554D01*
X154943936Y-137726566D01*
X154943952Y-137721208D01*
X154946000Y-137716264D01*
X154946000Y-137327803D01*
X156190170Y-138571974D01*
G36*
X170912562Y-107799473D02*
X170954962Y-107862929D01*
X171206354Y-108030904D01*
X171428039Y-108075000D01*
X171428043Y-108075000D01*
X171502891Y-108089888D01*
X171577739Y-108075000D01*
X172746560Y-108075000D01*
X172746560Y-108165000D01*
X172795843Y-108412765D01*
X172936191Y-108622809D01*
X172951296Y-108632902D01*
X172648027Y-108936172D01*
X172584571Y-108978572D01*
X172542171Y-109042028D01*
X172542170Y-109042029D01*
X172416596Y-109229964D01*
X172357611Y-109526501D01*
X172372500Y-109601353D01*
X172372499Y-116563152D01*
X172357611Y-116637999D01*
X172372499Y-116712846D01*
X172372499Y-116712850D01*
X172416595Y-116934535D01*
X172584570Y-117185928D01*
X172629530Y-117215969D01*
X172659571Y-117260929D01*
X172810060Y-117361483D01*
X172810060Y-117563000D01*
X172859343Y-117810765D01*
X172999691Y-118020809D01*
X173209735Y-118161157D01*
X173457500Y-118210440D01*
X174722501Y-118210440D01*
X174722501Y-122398697D01*
X172757029Y-124364170D01*
X172693573Y-124406570D01*
X172651173Y-124470026D01*
X172651172Y-124470027D01*
X172525598Y-124657962D01*
X172466613Y-124954499D01*
X172481502Y-125029351D01*
X172481501Y-130226820D01*
X172241722Y-130127500D01*
X171591278Y-130127500D01*
X170990347Y-130376414D01*
X170530414Y-130836347D01*
X170281500Y-131437278D01*
X170281500Y-132087722D01*
X170350323Y-132253875D01*
X165276698Y-137327501D01*
X158952180Y-137327501D01*
X159051500Y-137087722D01*
X159051500Y-136437278D01*
X158982677Y-136271125D01*
X159006828Y-136246974D01*
X159006830Y-136246971D01*
X159225971Y-136027830D01*
X159289430Y-135985428D01*
X159457405Y-135734036D01*
X159501501Y-135512351D01*
X159501501Y-135512347D01*
X159516389Y-135437500D01*
X159501501Y-135362653D01*
X159501501Y-127662500D01*
X162669060Y-127662500D01*
X162669060Y-129662500D01*
X162681500Y-129725041D01*
X162681500Y-129788810D01*
X162705903Y-129847724D01*
X162718343Y-129910265D01*
X162753770Y-129963285D01*
X162778173Y-130022199D01*
X162823265Y-130067291D01*
X162858691Y-130120309D01*
X162911711Y-130155736D01*
X162956802Y-130200827D01*
X163015714Y-130225229D01*
X163068735Y-130260657D01*
X163131278Y-130273097D01*
X163190191Y-130297500D01*
X163253959Y-130297500D01*
X163316500Y-130309940D01*
X166516500Y-130309940D01*
X166579041Y-130297500D01*
X166642809Y-130297500D01*
X166701722Y-130273097D01*
X166764265Y-130260657D01*
X166817286Y-130225229D01*
X166876198Y-130200827D01*
X166921289Y-130155736D01*
X166974309Y-130120309D01*
X167009735Y-130067291D01*
X167054827Y-130022199D01*
X167079230Y-129963285D01*
X167114657Y-129910265D01*
X167127097Y-129847724D01*
X167151500Y-129788810D01*
X167151500Y-129725041D01*
X167163940Y-129662500D01*
X167163940Y-127662500D01*
X167151500Y-127599959D01*
X167151500Y-127536190D01*
X167127097Y-127477276D01*
X167114657Y-127414735D01*
X167079230Y-127361715D01*
X167054827Y-127302801D01*
X167009735Y-127257709D01*
X166974309Y-127204691D01*
X166921289Y-127169264D01*
X166876198Y-127124173D01*
X166817286Y-127099771D01*
X166764265Y-127064343D01*
X166701722Y-127051903D01*
X166642809Y-127027500D01*
X166579041Y-127027500D01*
X166516500Y-127015060D01*
X163316500Y-127015060D01*
X163253959Y-127027500D01*
X163190191Y-127027500D01*
X163131278Y-127051903D01*
X163068735Y-127064343D01*
X163015714Y-127099771D01*
X162956802Y-127124173D01*
X162911711Y-127169264D01*
X162858691Y-127204691D01*
X162823265Y-127257709D01*
X162778173Y-127302801D01*
X162753770Y-127361715D01*
X162718343Y-127414735D01*
X162705903Y-127477276D01*
X162681500Y-127536190D01*
X162681500Y-127599959D01*
X162669060Y-127662500D01*
X159501501Y-127662500D01*
X159501501Y-96388411D01*
X170912562Y-107799473D01*
X170912562Y-107799473D01*
G37*
X170912562Y-107799473D02*
X170954962Y-107862929D01*
X171206354Y-108030904D01*
X171428039Y-108075000D01*
X171428043Y-108075000D01*
X171502891Y-108089888D01*
X171577739Y-108075000D01*
X172746560Y-108075000D01*
X172746560Y-108165000D01*
X172795843Y-108412765D01*
X172936191Y-108622809D01*
X172951296Y-108632902D01*
X172648027Y-108936172D01*
X172584571Y-108978572D01*
X172542171Y-109042028D01*
X172542170Y-109042029D01*
X172416596Y-109229964D01*
X172357611Y-109526501D01*
X172372500Y-109601353D01*
X172372499Y-116563152D01*
X172357611Y-116637999D01*
X172372499Y-116712846D01*
X172372499Y-116712850D01*
X172416595Y-116934535D01*
X172584570Y-117185928D01*
X172629530Y-117215969D01*
X172659571Y-117260929D01*
X172810060Y-117361483D01*
X172810060Y-117563000D01*
X172859343Y-117810765D01*
X172999691Y-118020809D01*
X173209735Y-118161157D01*
X173457500Y-118210440D01*
X174722501Y-118210440D01*
X174722501Y-122398697D01*
X172757029Y-124364170D01*
X172693573Y-124406570D01*
X172651173Y-124470026D01*
X172651172Y-124470027D01*
X172525598Y-124657962D01*
X172466613Y-124954499D01*
X172481502Y-125029351D01*
X172481501Y-130226820D01*
X172241722Y-130127500D01*
X171591278Y-130127500D01*
X170990347Y-130376414D01*
X170530414Y-130836347D01*
X170281500Y-131437278D01*
X170281500Y-132087722D01*
X170350323Y-132253875D01*
X165276698Y-137327501D01*
X158952180Y-137327501D01*
X159051500Y-137087722D01*
X159051500Y-136437278D01*
X158982677Y-136271125D01*
X159006828Y-136246974D01*
X159006830Y-136246971D01*
X159225971Y-136027830D01*
X159289430Y-135985428D01*
X159457405Y-135734036D01*
X159501501Y-135512351D01*
X159501501Y-135512347D01*
X159516389Y-135437500D01*
X159501501Y-135362653D01*
X159501501Y-127662500D01*
X162669060Y-127662500D01*
X162669060Y-129662500D01*
X162681500Y-129725041D01*
X162681500Y-129788810D01*
X162705903Y-129847724D01*
X162718343Y-129910265D01*
X162753770Y-129963285D01*
X162778173Y-130022199D01*
X162823265Y-130067291D01*
X162858691Y-130120309D01*
X162911711Y-130155736D01*
X162956802Y-130200827D01*
X163015714Y-130225229D01*
X163068735Y-130260657D01*
X163131278Y-130273097D01*
X163190191Y-130297500D01*
X163253959Y-130297500D01*
X163316500Y-130309940D01*
X166516500Y-130309940D01*
X166579041Y-130297500D01*
X166642809Y-130297500D01*
X166701722Y-130273097D01*
X166764265Y-130260657D01*
X166817286Y-130225229D01*
X166876198Y-130200827D01*
X166921289Y-130155736D01*
X166974309Y-130120309D01*
X167009735Y-130067291D01*
X167054827Y-130022199D01*
X167079230Y-129963285D01*
X167114657Y-129910265D01*
X167127097Y-129847724D01*
X167151500Y-129788810D01*
X167151500Y-129725041D01*
X167163940Y-129662500D01*
X167163940Y-127662500D01*
X167151500Y-127599959D01*
X167151500Y-127536190D01*
X167127097Y-127477276D01*
X167114657Y-127414735D01*
X167079230Y-127361715D01*
X167054827Y-127302801D01*
X167009735Y-127257709D01*
X166974309Y-127204691D01*
X166921289Y-127169264D01*
X166876198Y-127124173D01*
X166817286Y-127099771D01*
X166764265Y-127064343D01*
X166701722Y-127051903D01*
X166642809Y-127027500D01*
X166579041Y-127027500D01*
X166516500Y-127015060D01*
X163316500Y-127015060D01*
X163253959Y-127027500D01*
X163190191Y-127027500D01*
X163131278Y-127051903D01*
X163068735Y-127064343D01*
X163015714Y-127099771D01*
X162956802Y-127124173D01*
X162911711Y-127169264D01*
X162858691Y-127204691D01*
X162823265Y-127257709D01*
X162778173Y-127302801D01*
X162753770Y-127361715D01*
X162718343Y-127414735D01*
X162705903Y-127477276D01*
X162681500Y-127536190D01*
X162681500Y-127599959D01*
X162669060Y-127662500D01*
X159501501Y-127662500D01*
X159501501Y-96388411D01*
X170912562Y-107799473D01*
G36*
X156656500Y-114332862D02*
X156656501Y-130115060D01*
X156416500Y-130115060D01*
X156168735Y-130164343D01*
X155958691Y-130304691D01*
X155818343Y-130514735D01*
X155769060Y-130762500D01*
X155769060Y-132762500D01*
X155818343Y-133010265D01*
X155958691Y-133220309D01*
X156071245Y-133295516D01*
X156030414Y-133336347D01*
X155781500Y-133937278D01*
X155781500Y-134587722D01*
X156030414Y-135188653D01*
X156354261Y-135512500D01*
X156030414Y-135836347D01*
X155905563Y-136137764D01*
X155396001Y-135628202D01*
X155396001Y-115476329D01*
X155410889Y-115401481D01*
X155396001Y-115326633D01*
X155396001Y-115326629D01*
X155351905Y-115104944D01*
X155351905Y-115104943D01*
X155226330Y-114917008D01*
X155183930Y-114853552D01*
X155120474Y-114811152D01*
X153595972Y-113286651D01*
X155610290Y-113286651D01*
X156656500Y-114332862D01*
X156656500Y-114332862D01*
G37*
X156656500Y-114332862D02*
X156656501Y-130115060D01*
X156416500Y-130115060D01*
X156168735Y-130164343D01*
X155958691Y-130304691D01*
X155818343Y-130514735D01*
X155769060Y-130762500D01*
X155769060Y-132762500D01*
X155818343Y-133010265D01*
X155958691Y-133220309D01*
X156071245Y-133295516D01*
X156030414Y-133336347D01*
X155781500Y-133937278D01*
X155781500Y-134587722D01*
X156030414Y-135188653D01*
X156354261Y-135512500D01*
X156030414Y-135836347D01*
X155905563Y-136137764D01*
X155396001Y-135628202D01*
X155396001Y-115476329D01*
X155410889Y-115401481D01*
X155396001Y-115326633D01*
X155396001Y-115326629D01*
X155351905Y-115104944D01*
X155351905Y-115104943D01*
X155226330Y-114917008D01*
X155183930Y-114853552D01*
X155120474Y-114811152D01*
X153595972Y-113286651D01*
X155610290Y-113286651D01*
X156656500Y-114332862D01*
G36*
X175172511Y-134392689D02*
X173988751Y-135576449D01*
X174001501Y-135512351D01*
X174001501Y-135512347D01*
X174016389Y-135437500D01*
X174001501Y-135362653D01*
X174001501Y-125269300D01*
X175172511Y-124098290D01*
X175172511Y-134392689D01*
X175172511Y-134392689D01*
G37*
X175172511Y-134392689D02*
X173988751Y-135576449D01*
X174001501Y-135512351D01*
X174001501Y-135512347D01*
X174016389Y-135437500D01*
X174001501Y-135362653D01*
X174001501Y-125269300D01*
X175172511Y-124098290D01*
X175172511Y-134392689D01*
G36*
X117962000Y-113511761D02*
X117736890Y-113286651D01*
X118187110Y-113286651D01*
X117962000Y-113511761D01*
X117962000Y-113511761D01*
G37*
X117962000Y-113511761D02*
X117736890Y-113286651D01*
X118187110Y-113286651D01*
X117962000Y-113511761D01*
G36*
X120502000Y-113511761D02*
X120276890Y-113286651D01*
X120727110Y-113286651D01*
X120502000Y-113511761D01*
X120502000Y-113511761D01*
G37*
X120502000Y-113511761D02*
X120276890Y-113286651D01*
X120727110Y-113286651D01*
X120502000Y-113511761D01*
G36*
X123042000Y-113511761D02*
X122816890Y-113286651D01*
X123267110Y-113286651D01*
X123042000Y-113511761D01*
X123042000Y-113511761D01*
G37*
X123042000Y-113511761D02*
X122816890Y-113286651D01*
X123267110Y-113286651D01*
X123042000Y-113511761D01*
G36*
X125582000Y-113511761D02*
X125356890Y-113286651D01*
X125807110Y-113286651D01*
X125582000Y-113511761D01*
X125582000Y-113511761D01*
G37*
X125582000Y-113511761D02*
X125356890Y-113286651D01*
X125807110Y-113286651D01*
X125582000Y-113511761D01*
G36*
X174659001Y-110188826D02*
X174453756Y-110148000D01*
X174161244Y-110148000D01*
X173892499Y-110201457D01*
X173892499Y-109841302D01*
X174659001Y-109074801D01*
X174659001Y-110188826D01*
X174659001Y-110188826D01*
G37*
X174659001Y-110188826D02*
X174453756Y-110148000D01*
X174161244Y-110148000D01*
X173892499Y-110201457D01*
X173892499Y-109841302D01*
X174659001Y-109074801D01*
X174659001Y-110188826D01*
G36*
X151850680Y-95088837D02*
X152243663Y-95481820D01*
X152694494Y-95668560D01*
X150835506Y-95668560D01*
X151286337Y-95481820D01*
X151679320Y-95088837D01*
X151765000Y-94881987D01*
X151850680Y-95088837D01*
X151850680Y-95088837D01*
G37*
X151850680Y-95088837D02*
X152243663Y-95481820D01*
X152694494Y-95668560D01*
X150835506Y-95668560D01*
X151286337Y-95481820D01*
X151679320Y-95088837D01*
X151765000Y-94881987D01*
X151850680Y-95088837D01*
G36*
X146545560Y-95059500D02*
X146594843Y-95307265D01*
X146735191Y-95517309D01*
X146945235Y-95657657D01*
X147000049Y-95668560D01*
X119785683Y-95668560D01*
X120294598Y-95457761D01*
X120687581Y-95064778D01*
X120700561Y-95033441D01*
X139194552Y-95033441D01*
X139269399Y-95048329D01*
X139344246Y-95033441D01*
X139344251Y-95033441D01*
X139565936Y-94989345D01*
X139817328Y-94821370D01*
X139859730Y-94757912D01*
X140680164Y-93937479D01*
X146545560Y-93937479D01*
X146545560Y-95059500D01*
X146545560Y-95059500D01*
G37*
X146545560Y-95059500D02*
X146594843Y-95307265D01*
X146735191Y-95517309D01*
X146945235Y-95657657D01*
X147000049Y-95668560D01*
X119785683Y-95668560D01*
X120294598Y-95457761D01*
X120687581Y-95064778D01*
X120700561Y-95033441D01*
X139194552Y-95033441D01*
X139269399Y-95048329D01*
X139344246Y-95033441D01*
X139344251Y-95033441D01*
X139565936Y-94989345D01*
X139817328Y-94821370D01*
X139859730Y-94757912D01*
X140680164Y-93937479D01*
X146545560Y-93937479D01*
X146545560Y-95059500D01*
G36*
X149703663Y-95481820D02*
X150154494Y-95668560D01*
X148909951Y-95668560D01*
X148964765Y-95657657D01*
X149174809Y-95517309D01*
X149315157Y-95307265D01*
X149350653Y-95128810D01*
X149703663Y-95481820D01*
X149703663Y-95481820D01*
G37*
X149703663Y-95481820D02*
X150154494Y-95668560D01*
X148909951Y-95668560D01*
X148964765Y-95657657D01*
X149174809Y-95517309D01*
X149315157Y-95307265D01*
X149350653Y-95128810D01*
X149703663Y-95481820D01*
G36*
X154390680Y-95088837D02*
X154783663Y-95481820D01*
X154883349Y-95523111D01*
X154737901Y-95668560D01*
X153375506Y-95668560D01*
X153826337Y-95481820D01*
X154219320Y-95088837D01*
X154305000Y-94881987D01*
X154390680Y-95088837D01*
X154390680Y-95088837D01*
G37*
X154390680Y-95088837D02*
X154783663Y-95481820D01*
X154883349Y-95523111D01*
X154737901Y-95668560D01*
X153375506Y-95668560D01*
X153826337Y-95481820D01*
X154219320Y-95088837D01*
X154305000Y-94881987D01*
X154390680Y-95088837D01*
G36*
X173109875Y-94860125D02*
X173128119Y-94872316D01*
X173082735Y-94881343D01*
X173035500Y-94912905D01*
X173035500Y-94748815D01*
X173109875Y-94860125D01*
X173109875Y-94860125D01*
G37*
X173109875Y-94860125D02*
X173128119Y-94872316D01*
X173082735Y-94881343D01*
X173035500Y-94912905D01*
X173035500Y-94748815D01*
X173109875Y-94860125D01*
G36*
X152166872Y-89719001D02*
X146167680Y-89719001D01*
X146267000Y-89479222D01*
X146267000Y-89447900D01*
X146277908Y-89418539D01*
X146267000Y-89123753D01*
X146267000Y-88828778D01*
X146255014Y-88799842D01*
X146253856Y-88768540D01*
X146051387Y-88279736D01*
X146049718Y-88279119D01*
X150726990Y-88279119D01*
X152166872Y-89719001D01*
X152166872Y-89719001D01*
G37*
X152166872Y-89719001D02*
X146167680Y-89719001D01*
X146267000Y-89479222D01*
X146267000Y-89447900D01*
X146277908Y-89418539D01*
X146267000Y-89123753D01*
X146267000Y-88828778D01*
X146255014Y-88799842D01*
X146253856Y-88768540D01*
X146051387Y-88279736D01*
X146049718Y-88279119D01*
X150726990Y-88279119D01*
X152166872Y-89719001D01*
G36*
X117962000Y-88111761D02*
X117679348Y-87829109D01*
X118244652Y-87829109D01*
X117962000Y-88111761D01*
X117962000Y-88111761D01*
G37*
X117962000Y-88111761D02*
X117679348Y-87829109D01*
X118244652Y-87829109D01*
X117962000Y-88111761D01*
G36*
X120502000Y-88111761D02*
X120219348Y-87829109D01*
X120784652Y-87829109D01*
X120502000Y-88111761D01*
X120502000Y-88111761D01*
G37*
X120502000Y-88111761D02*
X120219348Y-87829109D01*
X120784652Y-87829109D01*
X120502000Y-88111761D01*
G36*
X115422000Y-88111761D02*
X115139348Y-87829109D01*
X115704652Y-87829109D01*
X115422000Y-88111761D01*
X115422000Y-88111761D01*
G37*
X115422000Y-88111761D02*
X115139348Y-87829109D01*
X115704652Y-87829109D01*
X115422000Y-88111761D01*
M02*
