M48
;DRILL file {KiCad (5.0.2)-1} date 08/16/24 20:28:10
;FORMAT={-:-/ absolute / metric / decimal}
FMAT,2
METRIC,TZ
T1C0.762
T2C0.800
T3C0.900
T4C1.000
T5C1.020
T6C1.100
T7C1.500
T8C3.200
%
G90
G05
T1
X147.955Y-94.297
X150.495Y-94.297
X153.035Y-94.297
X155.575Y-94.297
X111.883Y-94.273
X114.423Y-94.273
X116.963Y-94.273
X119.503Y-94.273
T2
X120.726Y-139.443
X128.346Y-139.443
X120.749Y-136.393
X128.369Y-136.393
T3
X120.523Y-131.191
X123.063Y-131.191
X125.349Y-131.191
X127.889Y-131.191
T4
X107.833Y-132.949
X115.433Y-132.949
X174.308Y-111.633
X174.308Y-114.173
X174.308Y-116.713
X157.416Y-131.762
X157.416Y-134.262
X157.416Y-136.762
X171.916Y-131.762
X171.916Y-136.762
X174.18Y-93.789
X174.18Y-96.329
X174.244Y-102.235
X174.244Y-104.775
X174.244Y-107.315
T5
X109.072Y-89.154
X109.072Y-114.554
X111.612Y-89.154
X111.612Y-114.554
X114.152Y-89.154
X114.152Y-114.554
X116.692Y-89.154
X116.692Y-114.554
X119.232Y-89.154
X119.232Y-114.554
X121.772Y-89.154
X121.772Y-114.554
X124.312Y-89.154
X124.312Y-114.554
X126.852Y-89.154
X126.852Y-114.554
X129.392Y-89.154
X129.392Y-114.554
X131.932Y-89.154
X131.932Y-114.554
X134.472Y-89.154
X134.472Y-114.554
X137.012Y-89.154
X137.012Y-114.554
X139.552Y-89.154
X139.552Y-114.554
X142.092Y-89.154
X142.092Y-114.554
X144.632Y-89.154
X144.632Y-114.554
T6
X136.525Y-138.684
X139.065Y-138.684
X141.605Y-138.684
T8
X101.092Y-137.541
X171.831Y-85.217
X101.6Y-84.201
X151.511Y-137.033
T7
X164.266Y-128.662G85X165.566Y-128.662
G05
X164.266Y-139.862G85X165.566Y-139.862
G05
T0
M30
