G04 #@! TF.GenerationSoftware,KiCad,Pcbnew,(5.0.2)-1*
G04 #@! TF.CreationDate,2024-08-16T20:27:31+02:00*
G04 #@! TF.ProjectId,MashMachine,4d617368-4d61-4636-9869-6e652e6b6963,rev?*
G04 #@! TF.SameCoordinates,Original*
G04 #@! TF.FileFunction,Copper,L1,Top*
G04 #@! TF.FilePolarity,Positive*
%FSLAX46Y46*%
G04 Gerber Fmt 4.6, Leading zero omitted, Abs format (unit mm)*
G04 Created by KiCad (PCBNEW (5.0.2)-1) date 08/16/24 20:27:31*
%MOMM*%
%LPD*%
G01*
G04 APERTURE LIST*
G04 #@! TA.AperFunction,ComponentPad*
%ADD10R,2.000000X2.000000*%
G04 #@! TD*
G04 #@! TA.AperFunction,ComponentPad*
%ADD11C,2.000000*%
G04 #@! TD*
G04 #@! TA.AperFunction,ComponentPad*
%ADD12R,1.524000X1.524000*%
G04 #@! TD*
G04 #@! TA.AperFunction,ComponentPad*
%ADD13C,1.524000*%
G04 #@! TD*
G04 #@! TA.AperFunction,ComponentPad*
%ADD14C,1.600000*%
G04 #@! TD*
G04 #@! TA.AperFunction,ComponentPad*
%ADD15O,1.600000X1.600000*%
G04 #@! TD*
G04 #@! TA.AperFunction,ComponentPad*
%ADD16R,1.800000X1.800000*%
G04 #@! TD*
G04 #@! TA.AperFunction,ComponentPad*
%ADD17C,1.800000*%
G04 #@! TD*
G04 #@! TA.AperFunction,ComponentPad*
%ADD18C,5.600000*%
G04 #@! TD*
G04 #@! TA.AperFunction,ComponentPad*
%ADD19O,1.700000X1.700000*%
G04 #@! TD*
G04 #@! TA.AperFunction,ComponentPad*
%ADD20R,1.700000X1.700000*%
G04 #@! TD*
G04 #@! TA.AperFunction,ComponentPad*
%ADD21R,1.905000X2.000000*%
G04 #@! TD*
G04 #@! TA.AperFunction,ComponentPad*
%ADD22O,1.905000X2.000000*%
G04 #@! TD*
G04 #@! TA.AperFunction,ComponentPad*
%ADD23R,3.200000X2.000000*%
G04 #@! TD*
G04 #@! TA.AperFunction,Conductor*
%ADD24C,0.250000*%
G04 #@! TD*
G04 #@! TA.AperFunction,NonConductor*
%ADD25C,0.254000*%
G04 #@! TD*
G04 APERTURE END LIST*
D10*
G04 #@! TO.P,ESP32,1*
G04 #@! TO.N,N/C*
X109072000Y-89154000D03*
D11*
G04 #@! TO.P,ESP32,2*
G04 #@! TO.N,Net-(BZ1-Pad2)*
X111612000Y-89154000D03*
G04 #@! TO.P,ESP32,3*
G04 #@! TO.N,N/C*
X114152000Y-89154000D03*
G04 #@! TO.P,ESP32,4*
X116692000Y-89154000D03*
G04 #@! TO.P,ESP32,5*
G04 #@! TO.N,Net-(J2-Pad2)*
X119232000Y-89154000D03*
G04 #@! TO.P,ESP32,6*
G04 #@! TO.N,Net-(SW1-PadB)*
X121772000Y-89154000D03*
G04 #@! TO.P,ESP32,7*
G04 #@! TO.N,N/C*
X124312000Y-89154000D03*
G04 #@! TO.P,ESP32,8*
X126852000Y-89154000D03*
G04 #@! TO.P,ESP32,9*
X129392000Y-89154000D03*
G04 #@! TO.P,ESP32,10*
X131932000Y-89154000D03*
G04 #@! TO.P,ESP32,11*
G04 #@! TO.N,Net-(Brd1-Pad4)*
X134472000Y-89154000D03*
G04 #@! TO.P,ESP32,12*
G04 #@! TO.N,N/C*
X137012000Y-89154000D03*
G04 #@! TO.P,ESP32,13*
X139552000Y-89154000D03*
G04 #@! TO.P,ESP32,14*
G04 #@! TO.N,Net-(Brd1-Pad3)*
X142092000Y-89154000D03*
G04 #@! TO.P,ESP32,15*
G04 #@! TO.N,N/C*
X144632000Y-89154000D03*
G04 #@! TO.P,ESP32,30*
G04 #@! TO.N,Net-(Brd1-Pad2)*
X109072000Y-114554000D03*
G04 #@! TO.P,ESP32,29*
G04 #@! TO.N,Net-(BZ1-Pad2)*
X111612000Y-114554000D03*
G04 #@! TO.P,ESP32,28*
G04 #@! TO.N,Net-(SW1-PadA)*
X114152000Y-114554000D03*
G04 #@! TO.P,ESP32,27*
G04 #@! TO.N,N/C*
X116692000Y-114554000D03*
G04 #@! TO.P,ESP32,26*
G04 #@! TO.N,Net-(ON1-Pad2)*
X119232000Y-114554000D03*
G04 #@! TO.P,ESP32,25*
G04 #@! TO.N,N/C*
X121772000Y-114554000D03*
G04 #@! TO.P,ESP32,24*
G04 #@! TO.N,Net-(DC1-Pad2)*
X124312000Y-114554000D03*
G04 #@! TO.P,ESP32,23*
G04 #@! TO.N,Net-(SW1-PadS2)*
X126852000Y-114554000D03*
G04 #@! TO.P,ESP32,22*
G04 #@! TO.N,Net-(BZ1-Pad1)*
X129392000Y-114554000D03*
G04 #@! TO.P,ESP32,21*
G04 #@! TO.N,Net-(J1-Pad2)*
X131932000Y-114554000D03*
G04 #@! TO.P,ESP32,20*
G04 #@! TO.N,N/C*
X134472000Y-114554000D03*
G04 #@! TO.P,ESP32,19*
X137012000Y-114554000D03*
G04 #@! TO.P,ESP32,18*
X139552000Y-114554000D03*
G04 #@! TO.P,ESP32,17*
X142092000Y-114554000D03*
G04 #@! TO.P,ESP32,16*
X144632000Y-114554000D03*
G04 #@! TD*
D12*
G04 #@! TO.P,Brd2,1*
G04 #@! TO.N,Net-(BZ1-Pad2)*
X147955000Y-94297500D03*
D13*
G04 #@! TO.P,Brd2,2*
G04 #@! TO.N,Net-(Brd1-Pad2)*
X150495000Y-94297500D03*
G04 #@! TO.P,Brd2,3*
G04 #@! TO.N,Net-(Brd1-Pad3)*
X153035000Y-94297500D03*
G04 #@! TO.P,Brd2,4*
G04 #@! TO.N,Net-(Brd1-Pad4)*
X155575000Y-94297500D03*
G04 #@! TD*
D12*
G04 #@! TO.P,Brd1,1*
G04 #@! TO.N,Net-(BZ1-Pad2)*
X111883261Y-94273441D03*
D13*
G04 #@! TO.P,Brd1,2*
G04 #@! TO.N,Net-(Brd1-Pad2)*
X114423261Y-94273441D03*
G04 #@! TO.P,Brd1,3*
G04 #@! TO.N,Net-(Brd1-Pad3)*
X116963261Y-94273441D03*
G04 #@! TO.P,Brd1,4*
G04 #@! TO.N,Net-(Brd1-Pad4)*
X119503261Y-94273441D03*
G04 #@! TD*
D10*
G04 #@! TO.P,BZ1,1*
G04 #@! TO.N,Net-(BZ1-Pad1)*
X107833160Y-132948680D03*
D11*
G04 #@! TO.P,BZ1,2*
G04 #@! TO.N,Net-(BZ1-Pad2)*
X115433160Y-132948680D03*
G04 #@! TD*
D14*
G04 #@! TO.P,R1,1*
G04 #@! TO.N,Net-(BZ1-Pad2)*
X120726200Y-139443190D03*
D15*
G04 #@! TO.P,R1,2*
G04 #@! TO.N,Net-(DC1-Pad1)*
X128346200Y-139443190D03*
G04 #@! TD*
G04 #@! TO.P,R2,2*
G04 #@! TO.N,Net-(ON1-Pad1)*
X128369060Y-136392650D03*
D14*
G04 #@! TO.P,R2,1*
G04 #@! TO.N,Net-(BZ1-Pad2)*
X120749060Y-136392650D03*
G04 #@! TD*
D16*
G04 #@! TO.P,DC,1*
G04 #@! TO.N,Net-(DC1-Pad1)*
X120523000Y-131191000D03*
D17*
G04 #@! TO.P,DC,2*
G04 #@! TO.N,Net-(DC1-Pad2)*
X123063000Y-131191000D03*
G04 #@! TD*
D18*
G04 #@! TO.P,,1*
G04 #@! TO.N,N/C*
X101092000Y-137541000D03*
G04 #@! TD*
G04 #@! TO.P,,1*
G04 #@! TO.N,N/C*
X151511000Y-137033000D03*
G04 #@! TD*
G04 #@! TO.P,,1*
G04 #@! TO.N,N/C*
X101600000Y-84201000D03*
G04 #@! TD*
G04 #@! TO.P,,1*
G04 #@! TO.N,N/C*
X171831000Y-85217000D03*
G04 #@! TD*
D19*
G04 #@! TO.P,Element Temp,3*
G04 #@! TO.N,Net-(Brd1-Pad2)*
X174244000Y-102235000D03*
G04 #@! TO.P,Element Temp,2*
G04 #@! TO.N,Net-(J1-Pad2)*
X174244000Y-104775000D03*
D20*
G04 #@! TO.P,Element Temp,1*
G04 #@! TO.N,Net-(BZ1-Pad2)*
X174244000Y-107315000D03*
G04 #@! TD*
G04 #@! TO.P,MashTemp,1*
G04 #@! TO.N,Net-(BZ1-Pad2)*
X174307500Y-116713000D03*
D19*
G04 #@! TO.P,MashTemp,2*
G04 #@! TO.N,Net-(J2-Pad2)*
X174307500Y-114173000D03*
G04 #@! TO.P,MashTemp,3*
G04 #@! TO.N,Net-(Brd1-Pad2)*
X174307500Y-111633000D03*
G04 #@! TD*
D20*
G04 #@! TO.P,SSR Out,1*
G04 #@! TO.N,Net-(J3-Pad1)*
X174180500Y-96329500D03*
D19*
G04 #@! TO.P,SSR Out,2*
G04 #@! TO.N,Net-(Brd1-Pad2)*
X174180500Y-93789500D03*
G04 #@! TD*
D17*
G04 #@! TO.P,ON,2*
G04 #@! TO.N,Net-(ON1-Pad2)*
X127889000Y-131191000D03*
D16*
G04 #@! TO.P,ON,1*
G04 #@! TO.N,Net-(ON1-Pad1)*
X125349000Y-131191000D03*
G04 #@! TD*
D21*
G04 #@! TO.P,IRLZ44N,1*
G04 #@! TO.N,Net-(DC1-Pad2)*
X141605000Y-138684000D03*
D22*
G04 #@! TO.P,IRLZ44N,2*
G04 #@! TO.N,Net-(J3-Pad1)*
X139065000Y-138684000D03*
G04 #@! TO.P,IRLZ44N,3*
G04 #@! TO.N,Net-(BZ1-Pad2)*
X136525000Y-138684000D03*
G04 #@! TD*
D11*
G04 #@! TO.P,SW,S1*
G04 #@! TO.N,Net-(Brd1-Pad2)*
X171916500Y-136762500D03*
G04 #@! TO.P,SW,S2*
G04 #@! TO.N,Net-(SW1-PadS2)*
X171916500Y-131762500D03*
D23*
G04 #@! TO.P,SW,MP*
G04 #@! TO.N,N/C*
X164916500Y-139862500D03*
X164916500Y-128662500D03*
D11*
G04 #@! TO.P,SW,B*
G04 #@! TO.N,Net-(SW1-PadB)*
X157416500Y-136762500D03*
G04 #@! TO.P,SW,C*
G04 #@! TO.N,Net-(BZ1-Pad2)*
X157416500Y-134262500D03*
D10*
G04 #@! TO.P,SW,A*
G04 #@! TO.N,Net-(SW1-PadA)*
X157416500Y-131762500D03*
G04 #@! TD*
D24*
G04 #@! TO.N,Net-(Brd1-Pad2)*
X115185260Y-95035440D02*
X114423261Y-94273441D01*
X115510262Y-95360442D02*
X115185260Y-95035440D01*
X109188840Y-114244120D02*
X119595220Y-103837740D01*
X115510262Y-99752782D02*
X119595220Y-103837740D01*
X115510262Y-95360442D02*
X115510262Y-99752782D01*
X115510262Y-95360442D02*
X115907820Y-95758000D01*
X149034500Y-95758000D02*
X146304000Y-95758000D01*
X150495000Y-94297500D02*
X149034500Y-95758000D01*
X115907820Y-95758000D02*
X146304000Y-95758000D01*
X172641260Y-103837740D02*
X174244000Y-102235000D01*
X119595220Y-103837740D02*
X172641260Y-103837740D01*
G04 #@! TO.N,Net-(Brd1-Pad3)*
X150492460Y-91754960D02*
X153035000Y-94297500D01*
X142600000Y-89154000D02*
X145200960Y-91754960D01*
X145200960Y-91754960D02*
X150492460Y-91754960D01*
G04 #@! TO.N,Net-(Brd1-Pad4)*
X136377000Y-87249000D02*
X134472000Y-89154000D01*
X147595262Y-87249000D02*
X136377000Y-87249000D01*
X153881763Y-93535501D02*
X147595262Y-87249000D01*
X154813001Y-93535501D02*
X153881763Y-93535501D01*
X155575000Y-94297500D02*
X154813001Y-93535501D01*
G04 #@! TO.N,Net-(BZ1-Pad2)*
X120726200Y-136415510D02*
X120749060Y-136392650D01*
X120726200Y-139443190D02*
X120726200Y-136415510D01*
X117305090Y-132948680D02*
X115433160Y-132948680D01*
X120749060Y-136392650D02*
X117305090Y-132948680D01*
X115433160Y-117948440D02*
X111728840Y-114244120D01*
X115433160Y-132948680D02*
X115433160Y-117948440D01*
X112120000Y-94036702D02*
X111883261Y-94273441D01*
X111612000Y-94002180D02*
X111883261Y-94273441D01*
X111612000Y-89154000D02*
X111612000Y-94002180D01*
X121136082Y-94297500D02*
X147955000Y-94297500D01*
X120025022Y-93186440D02*
X121136082Y-94297500D01*
X111958262Y-93186440D02*
X120025022Y-93186440D01*
X111883261Y-94273441D02*
X111883261Y-93261441D01*
X111883261Y-93261441D02*
X111958262Y-93186440D01*
X142143600Y-133256660D02*
X156410660Y-133256660D01*
X121851201Y-140568191D02*
X133677069Y-140568191D01*
X120726200Y-139443190D02*
X121851201Y-140568191D01*
X133677069Y-140568191D02*
X135317420Y-138927840D01*
X135317420Y-138927840D02*
X136519920Y-138927840D01*
X136519920Y-138927840D02*
X136519920Y-138880340D01*
X156410660Y-133256660D02*
X157416500Y-134262500D01*
X136519920Y-138880340D02*
X142143600Y-133256660D01*
X107746999Y-99421703D02*
X107746999Y-115366999D01*
X111883261Y-94273441D02*
X111883261Y-95285441D01*
X111883261Y-95285441D02*
X107746999Y-99421703D01*
X110612001Y-115553999D02*
X111612000Y-114554000D01*
X110286999Y-115879001D02*
X110612001Y-115553999D01*
X108259001Y-115879001D02*
X110286999Y-115879001D01*
X107746999Y-115366999D02*
X108259001Y-115879001D01*
G04 #@! TO.N,Net-(DC1-Pad2)*
X123164600Y-132611112D02*
X123164600Y-131338320D01*
X123164600Y-132853192D02*
X123164600Y-132611112D01*
X127829059Y-137517651D02*
X123164600Y-132853192D01*
X128909061Y-137517651D02*
X127829059Y-137517651D01*
X129494061Y-136932651D02*
X128909061Y-137517651D01*
X129494061Y-120723554D02*
X129494061Y-136932651D01*
X124428840Y-115658333D02*
X129494061Y-120723554D01*
X124428840Y-114244120D02*
X124428840Y-115658333D01*
G04 #@! TO.N,Net-(J1-Pad2)*
X141517960Y-104775000D02*
X174244000Y-104775000D01*
X132048840Y-114244120D02*
X141517960Y-104775000D01*
G04 #@! TO.N,Net-(J2-Pad2)*
X119232000Y-89154000D02*
X121645000Y-86741000D01*
X175157499Y-113323001D02*
X174307500Y-114173000D01*
X175482501Y-112997999D02*
X175157499Y-113323001D01*
X175482501Y-93352499D02*
X175482501Y-112997999D01*
X168871002Y-86741000D02*
X175482501Y-93352499D01*
X121645000Y-86741000D02*
X168871002Y-86741000D01*
G04 #@! TO.N,Net-(J3-Pad1)*
X139059920Y-138927840D02*
X139059920Y-138975340D01*
G04 #@! TO.N,Net-(ON1-Pad1)*
X128369060Y-134503160D02*
X125331220Y-131465320D01*
X128369060Y-136392650D02*
X128369060Y-134503160D01*
G04 #@! TO.N,Net-(ON1-Pad2)*
X127871220Y-130192528D02*
X129009140Y-129054608D01*
X127871220Y-131465320D02*
X127871220Y-130192528D01*
X129009140Y-129054608D02*
X129009140Y-120934480D01*
X129009140Y-120934480D02*
X126077980Y-118003320D01*
X123108040Y-118003320D02*
X119348840Y-114244120D01*
X126077980Y-118003320D02*
X123108040Y-118003320D01*
G04 #@! TD*
D25*
G36*
X176709000Y-84368092D02*
X176709001Y-138961407D01*
X173632410Y-142038000D01*
X99862091Y-142038000D01*
X96976000Y-139151910D01*
X96976000Y-138213956D01*
X97654965Y-138213956D01*
X97657000Y-138218911D01*
X97657000Y-138224264D01*
X97916391Y-138850490D01*
X98174122Y-139478027D01*
X98179918Y-139486701D01*
X98179947Y-139486771D01*
X98180001Y-139486825D01*
X98185797Y-139495499D01*
X98195428Y-139502252D01*
X99130748Y-140437572D01*
X99137501Y-140447203D01*
X99142444Y-140449268D01*
X99146229Y-140453053D01*
X99772446Y-140712440D01*
X100398434Y-140973936D01*
X100403792Y-140973952D01*
X100408736Y-140976000D01*
X101086529Y-140976000D01*
X101764956Y-140978035D01*
X101769911Y-140976000D01*
X101775264Y-140976000D01*
X102401490Y-140716609D01*
X103029027Y-140458878D01*
X103037701Y-140453082D01*
X103037771Y-140453053D01*
X103037825Y-140452999D01*
X103046499Y-140447203D01*
X103053252Y-140437572D01*
X103988572Y-139502252D01*
X103998203Y-139495499D01*
X104000268Y-139490556D01*
X104004053Y-139486771D01*
X104263440Y-138860554D01*
X104524936Y-138234566D01*
X104524952Y-138229208D01*
X104527000Y-138224264D01*
X104527000Y-137546471D01*
X104529035Y-136868044D01*
X104527000Y-136863089D01*
X104527000Y-136857736D01*
X104267609Y-136231510D01*
X104009878Y-135603973D01*
X104004082Y-135595299D01*
X104004053Y-135595229D01*
X104003999Y-135595175D01*
X103998203Y-135586501D01*
X103988572Y-135579748D01*
X103053252Y-134644428D01*
X103046499Y-134634797D01*
X103041556Y-134632732D01*
X103037771Y-134628947D01*
X102411554Y-134369560D01*
X101785566Y-134108064D01*
X101780208Y-134108048D01*
X101775264Y-134106000D01*
X101097471Y-134106000D01*
X100419044Y-134103965D01*
X100414089Y-134106000D01*
X100408736Y-134106000D01*
X99782510Y-134365391D01*
X99154973Y-134623122D01*
X99146299Y-134628918D01*
X99146229Y-134628947D01*
X99146175Y-134629001D01*
X99137501Y-134634797D01*
X99130748Y-134644428D01*
X98195428Y-135579748D01*
X98185797Y-135586501D01*
X98183732Y-135591444D01*
X98179947Y-135595229D01*
X97920560Y-136221446D01*
X97659064Y-136847434D01*
X97659048Y-136852792D01*
X97657000Y-136857736D01*
X97657000Y-137535529D01*
X97654965Y-138213956D01*
X96976000Y-138213956D01*
X96976000Y-131948680D01*
X106185720Y-131948680D01*
X106185720Y-133948680D01*
X106235003Y-134196445D01*
X106375351Y-134406489D01*
X106585395Y-134546837D01*
X106833160Y-134596120D01*
X108833160Y-134596120D01*
X109080925Y-134546837D01*
X109290969Y-134406489D01*
X109431317Y-134196445D01*
X109480600Y-133948680D01*
X109480600Y-131948680D01*
X109431317Y-131700915D01*
X109290969Y-131490871D01*
X109080925Y-131350523D01*
X108833160Y-131301240D01*
X106833160Y-131301240D01*
X106585395Y-131350523D01*
X106375351Y-131490871D01*
X106235003Y-131700915D01*
X106185720Y-131948680D01*
X96976000Y-131948680D01*
X96976000Y-99421703D01*
X106972111Y-99421703D01*
X106986999Y-99496550D01*
X106987000Y-115292147D01*
X106972111Y-115366999D01*
X107031096Y-115663536D01*
X107156046Y-115850536D01*
X107199071Y-115914928D01*
X107262526Y-115957328D01*
X107668672Y-116363473D01*
X107711072Y-116426930D01*
X107962464Y-116594905D01*
X108184149Y-116639001D01*
X108184153Y-116639001D01*
X108259000Y-116653889D01*
X108333847Y-116639001D01*
X110212152Y-116639001D01*
X110286999Y-116653889D01*
X110361846Y-116639001D01*
X110361851Y-116639001D01*
X110583536Y-116594905D01*
X110834928Y-116426930D01*
X110877330Y-116363471D01*
X111120624Y-116120177D01*
X111286778Y-116189000D01*
X111937222Y-116189000D01*
X112405112Y-115995193D01*
X114673161Y-118263243D01*
X114673160Y-131493771D01*
X114507007Y-131562594D01*
X114047074Y-132022527D01*
X113798160Y-132623458D01*
X113798160Y-133273902D01*
X114047074Y-133874833D01*
X114507007Y-134334766D01*
X115107938Y-134583680D01*
X115758382Y-134583680D01*
X116359313Y-134334766D01*
X116819246Y-133874833D01*
X116888069Y-133708680D01*
X116990289Y-133708680D01*
X119335956Y-136054348D01*
X119314060Y-136107211D01*
X119314060Y-136678089D01*
X119532526Y-137205512D01*
X119936198Y-137609184D01*
X119966201Y-137621611D01*
X119966200Y-138204760D01*
X119913338Y-138226656D01*
X119509666Y-138630328D01*
X119291200Y-139157751D01*
X119291200Y-139728629D01*
X119509666Y-140256052D01*
X119913338Y-140659724D01*
X120440761Y-140878190D01*
X121011639Y-140878190D01*
X121064502Y-140856294D01*
X121260872Y-141052664D01*
X121303272Y-141116120D01*
X121366728Y-141158520D01*
X121554663Y-141284095D01*
X121602806Y-141293671D01*
X121776349Y-141328191D01*
X121776353Y-141328191D01*
X121851201Y-141343079D01*
X121926049Y-141328191D01*
X133602222Y-141328191D01*
X133677069Y-141343079D01*
X133751916Y-141328191D01*
X133751921Y-141328191D01*
X133973606Y-141284095D01*
X134224998Y-141116120D01*
X134267400Y-141052661D01*
X135418579Y-139901482D01*
X135905589Y-140226891D01*
X136525000Y-140350100D01*
X137144410Y-140226891D01*
X137669523Y-139876023D01*
X137795000Y-139688233D01*
X137920477Y-139876023D01*
X138445589Y-140226891D01*
X139065000Y-140350100D01*
X139684410Y-140226891D01*
X140076491Y-139964912D01*
X140194691Y-140141809D01*
X140404735Y-140282157D01*
X140652500Y-140331440D01*
X142557500Y-140331440D01*
X142805265Y-140282157D01*
X143015309Y-140141809D01*
X143155657Y-139931765D01*
X143204940Y-139684000D01*
X143204940Y-137684000D01*
X143155657Y-137436235D01*
X143015309Y-137226191D01*
X142805265Y-137085843D01*
X142557500Y-137036560D01*
X140652500Y-137036560D01*
X140404735Y-137085843D01*
X140194691Y-137226191D01*
X140076491Y-137403088D01*
X139684411Y-137141109D01*
X139392097Y-137082964D01*
X142458402Y-134016660D01*
X149813714Y-134016660D01*
X149573973Y-134115122D01*
X149565299Y-134120918D01*
X149565229Y-134120947D01*
X149565175Y-134121001D01*
X149556501Y-134126797D01*
X149549748Y-134136428D01*
X148614428Y-135071748D01*
X148604797Y-135078501D01*
X148602732Y-135083444D01*
X148598947Y-135087229D01*
X148339560Y-135713446D01*
X148078064Y-136339434D01*
X148078048Y-136344792D01*
X148076000Y-136349736D01*
X148076000Y-137027529D01*
X148073965Y-137705956D01*
X148076000Y-137710911D01*
X148076000Y-137716264D01*
X148335391Y-138342490D01*
X148593122Y-138970027D01*
X148598918Y-138978701D01*
X148598947Y-138978771D01*
X148599001Y-138978825D01*
X148604797Y-138987499D01*
X148614428Y-138994252D01*
X149549748Y-139929572D01*
X149556501Y-139939203D01*
X149561444Y-139941268D01*
X149565229Y-139945053D01*
X150191446Y-140204440D01*
X150817434Y-140465936D01*
X150822792Y-140465952D01*
X150827736Y-140468000D01*
X151505529Y-140468000D01*
X152183956Y-140470035D01*
X152188911Y-140468000D01*
X152194264Y-140468000D01*
X152820490Y-140208609D01*
X153448027Y-139950878D01*
X153456701Y-139945082D01*
X153456771Y-139945053D01*
X153456825Y-139944999D01*
X153465499Y-139939203D01*
X153472252Y-139929572D01*
X154407572Y-138994252D01*
X154417203Y-138987499D01*
X154419268Y-138982556D01*
X154423053Y-138978771D01*
X154471213Y-138862500D01*
X162669060Y-138862500D01*
X162669060Y-140862500D01*
X162681500Y-140925041D01*
X162681500Y-140988810D01*
X162705903Y-141047724D01*
X162718343Y-141110265D01*
X162753770Y-141163285D01*
X162778173Y-141222199D01*
X162823265Y-141267291D01*
X162858691Y-141320309D01*
X162911711Y-141355736D01*
X162956802Y-141400827D01*
X163015714Y-141425229D01*
X163068735Y-141460657D01*
X163131278Y-141473097D01*
X163190191Y-141497500D01*
X163253959Y-141497500D01*
X163316500Y-141509940D01*
X166516500Y-141509940D01*
X166579041Y-141497500D01*
X166642809Y-141497500D01*
X166701722Y-141473097D01*
X166764265Y-141460657D01*
X166817286Y-141425229D01*
X166876198Y-141400827D01*
X166921289Y-141355736D01*
X166974309Y-141320309D01*
X167009735Y-141267291D01*
X167054827Y-141222199D01*
X167079230Y-141163285D01*
X167114657Y-141110265D01*
X167127097Y-141047724D01*
X167151500Y-140988810D01*
X167151500Y-140925041D01*
X167163940Y-140862500D01*
X167163940Y-138862500D01*
X167151500Y-138799959D01*
X167151500Y-138736190D01*
X167127097Y-138677276D01*
X167114657Y-138614735D01*
X167079230Y-138561715D01*
X167054827Y-138502801D01*
X167009735Y-138457709D01*
X166974309Y-138404691D01*
X166921289Y-138369264D01*
X166876198Y-138324173D01*
X166817286Y-138299771D01*
X166764265Y-138264343D01*
X166701722Y-138251903D01*
X166642809Y-138227500D01*
X166579041Y-138227500D01*
X166516500Y-138215060D01*
X163316500Y-138215060D01*
X163253959Y-138227500D01*
X163190191Y-138227500D01*
X163131278Y-138251903D01*
X163068735Y-138264343D01*
X163015714Y-138299771D01*
X162956802Y-138324173D01*
X162911711Y-138369264D01*
X162858691Y-138404691D01*
X162823265Y-138457709D01*
X162778173Y-138502801D01*
X162753770Y-138561715D01*
X162718343Y-138614735D01*
X162705903Y-138677276D01*
X162681500Y-138736190D01*
X162681500Y-138799959D01*
X162669060Y-138862500D01*
X154471213Y-138862500D01*
X154682440Y-138352554D01*
X154943936Y-137726566D01*
X154943952Y-137721208D01*
X154946000Y-137716264D01*
X154946000Y-137038471D01*
X154948035Y-136360044D01*
X154946000Y-136355089D01*
X154946000Y-136349736D01*
X154686609Y-135723510D01*
X154428878Y-135095973D01*
X154423082Y-135087299D01*
X154423053Y-135087229D01*
X154422999Y-135087175D01*
X154417203Y-135078501D01*
X154407572Y-135071748D01*
X153472252Y-134136428D01*
X153465499Y-134126797D01*
X153460556Y-134124732D01*
X153456771Y-134120947D01*
X153205000Y-134016660D01*
X155781500Y-134016660D01*
X155781500Y-134587722D01*
X156030414Y-135188653D01*
X156354261Y-135512500D01*
X156030414Y-135836347D01*
X155781500Y-136437278D01*
X155781500Y-137087722D01*
X156030414Y-137688653D01*
X156490347Y-138148586D01*
X157091278Y-138397500D01*
X157741722Y-138397500D01*
X158342653Y-138148586D01*
X158802586Y-137688653D01*
X159051500Y-137087722D01*
X159051500Y-136437278D01*
X170281500Y-136437278D01*
X170281500Y-137087722D01*
X170530414Y-137688653D01*
X170990347Y-138148586D01*
X171591278Y-138397500D01*
X172241722Y-138397500D01*
X172842653Y-138148586D01*
X173302586Y-137688653D01*
X173551500Y-137087722D01*
X173551500Y-136437278D01*
X173302586Y-135836347D01*
X172842653Y-135376414D01*
X172241722Y-135127500D01*
X171591278Y-135127500D01*
X170990347Y-135376414D01*
X170530414Y-135836347D01*
X170281500Y-136437278D01*
X159051500Y-136437278D01*
X158802586Y-135836347D01*
X158478739Y-135512500D01*
X158802586Y-135188653D01*
X159051500Y-134587722D01*
X159051500Y-133937278D01*
X158802586Y-133336347D01*
X158761755Y-133295516D01*
X158874309Y-133220309D01*
X159014657Y-133010265D01*
X159063940Y-132762500D01*
X159063940Y-131437278D01*
X170281500Y-131437278D01*
X170281500Y-132087722D01*
X170530414Y-132688653D01*
X170990347Y-133148586D01*
X171591278Y-133397500D01*
X172241722Y-133397500D01*
X172842653Y-133148586D01*
X173302586Y-132688653D01*
X173551500Y-132087722D01*
X173551500Y-131437278D01*
X173302586Y-130836347D01*
X172842653Y-130376414D01*
X172241722Y-130127500D01*
X171591278Y-130127500D01*
X170990347Y-130376414D01*
X170530414Y-130836347D01*
X170281500Y-131437278D01*
X159063940Y-131437278D01*
X159063940Y-130762500D01*
X159014657Y-130514735D01*
X158874309Y-130304691D01*
X158664265Y-130164343D01*
X158416500Y-130115060D01*
X156416500Y-130115060D01*
X156168735Y-130164343D01*
X155958691Y-130304691D01*
X155818343Y-130514735D01*
X155769060Y-130762500D01*
X155769060Y-132496660D01*
X142218448Y-132496660D01*
X142143600Y-132481772D01*
X142068752Y-132496660D01*
X142068748Y-132496660D01*
X141847063Y-132540756D01*
X141595671Y-132708731D01*
X141553271Y-132772187D01*
X137168353Y-137157106D01*
X137144411Y-137141109D01*
X136525000Y-137017900D01*
X135905590Y-137141109D01*
X135380477Y-137491977D01*
X135029609Y-138017089D01*
X134986248Y-138235078D01*
X134769491Y-138379911D01*
X134727091Y-138443367D01*
X133362268Y-139808191D01*
X129736710Y-139808191D01*
X129809313Y-139443190D01*
X129697940Y-138883281D01*
X129380777Y-138408613D01*
X129138699Y-138246862D01*
X129205598Y-138233555D01*
X129456990Y-138065580D01*
X129499392Y-138002121D01*
X129978534Y-137522980D01*
X130041990Y-137480580D01*
X130209965Y-137229188D01*
X130254061Y-137007503D01*
X130254061Y-137007498D01*
X130268949Y-136932651D01*
X130254061Y-136857804D01*
X130254061Y-127662500D01*
X162669060Y-127662500D01*
X162669060Y-129662500D01*
X162681500Y-129725041D01*
X162681500Y-129788810D01*
X162705903Y-129847724D01*
X162718343Y-129910265D01*
X162753770Y-129963285D01*
X162778173Y-130022199D01*
X162823265Y-130067291D01*
X162858691Y-130120309D01*
X162911711Y-130155736D01*
X162956802Y-130200827D01*
X163015714Y-130225229D01*
X163068735Y-130260657D01*
X163131278Y-130273097D01*
X163190191Y-130297500D01*
X163253959Y-130297500D01*
X163316500Y-130309940D01*
X166516500Y-130309940D01*
X166579041Y-130297500D01*
X166642809Y-130297500D01*
X166701722Y-130273097D01*
X166764265Y-130260657D01*
X166817286Y-130225229D01*
X166876198Y-130200827D01*
X166921289Y-130155736D01*
X166974309Y-130120309D01*
X167009735Y-130067291D01*
X167054827Y-130022199D01*
X167079230Y-129963285D01*
X167114657Y-129910265D01*
X167127097Y-129847724D01*
X167151500Y-129788810D01*
X167151500Y-129725041D01*
X167163940Y-129662500D01*
X167163940Y-127662500D01*
X167151500Y-127599959D01*
X167151500Y-127536190D01*
X167127097Y-127477276D01*
X167114657Y-127414735D01*
X167079230Y-127361715D01*
X167054827Y-127302801D01*
X167009735Y-127257709D01*
X166974309Y-127204691D01*
X166921289Y-127169264D01*
X166876198Y-127124173D01*
X166817286Y-127099771D01*
X166764265Y-127064343D01*
X166701722Y-127051903D01*
X166642809Y-127027500D01*
X166579041Y-127027500D01*
X166516500Y-127015060D01*
X163316500Y-127015060D01*
X163253959Y-127027500D01*
X163190191Y-127027500D01*
X163131278Y-127051903D01*
X163068735Y-127064343D01*
X163015714Y-127099771D01*
X162956802Y-127124173D01*
X162911711Y-127169264D01*
X162858691Y-127204691D01*
X162823265Y-127257709D01*
X162778173Y-127302801D01*
X162753770Y-127361715D01*
X162718343Y-127414735D01*
X162705903Y-127477276D01*
X162681500Y-127536190D01*
X162681500Y-127599959D01*
X162669060Y-127662500D01*
X130254061Y-127662500D01*
X130254061Y-120798400D01*
X130268949Y-120723553D01*
X130254061Y-120648706D01*
X130254061Y-120648702D01*
X130209965Y-120427017D01*
X130041990Y-120175625D01*
X129978534Y-120133225D01*
X125511774Y-115666465D01*
X125582000Y-115596239D01*
X125925847Y-115940086D01*
X126526778Y-116189000D01*
X127177222Y-116189000D01*
X127778153Y-115940086D01*
X128122000Y-115596239D01*
X128465847Y-115940086D01*
X129066778Y-116189000D01*
X129717222Y-116189000D01*
X130318153Y-115940086D01*
X130662000Y-115596239D01*
X131005847Y-115940086D01*
X131606778Y-116189000D01*
X132257222Y-116189000D01*
X132858153Y-115940086D01*
X133202000Y-115596239D01*
X133545847Y-115940086D01*
X133592581Y-115959444D01*
X133597736Y-115973387D01*
X133874263Y-116076120D01*
X134146778Y-116189000D01*
X134178100Y-116189000D01*
X134207461Y-116199908D01*
X134502247Y-116189000D01*
X134797222Y-116189000D01*
X134826158Y-116177014D01*
X134857460Y-116175856D01*
X135346264Y-115973387D01*
X135351419Y-115959444D01*
X135398153Y-115940086D01*
X135742000Y-115596239D01*
X136085847Y-115940086D01*
X136132581Y-115959444D01*
X136137736Y-115973387D01*
X136414263Y-116076120D01*
X136686778Y-116189000D01*
X136718100Y-116189000D01*
X136747461Y-116199908D01*
X137042247Y-116189000D01*
X137337222Y-116189000D01*
X137366158Y-116177014D01*
X137397460Y-116175856D01*
X137886264Y-115973387D01*
X137891419Y-115959444D01*
X137938153Y-115940086D01*
X138282000Y-115596239D01*
X138625847Y-115940086D01*
X138672581Y-115959444D01*
X138677736Y-115973387D01*
X138954263Y-116076120D01*
X139226778Y-116189000D01*
X139258100Y-116189000D01*
X139287461Y-116199908D01*
X139582247Y-116189000D01*
X139877222Y-116189000D01*
X139906158Y-116177014D01*
X139937460Y-116175856D01*
X140426264Y-115973387D01*
X140431419Y-115959444D01*
X140478153Y-115940086D01*
X140822000Y-115596239D01*
X141165847Y-115940086D01*
X141212581Y-115959444D01*
X141217736Y-115973387D01*
X141494263Y-116076120D01*
X141766778Y-116189000D01*
X141798100Y-116189000D01*
X141827461Y-116199908D01*
X142122247Y-116189000D01*
X142417222Y-116189000D01*
X142446158Y-116177014D01*
X142477460Y-116175856D01*
X142966264Y-115973387D01*
X142971419Y-115959444D01*
X143018153Y-115940086D01*
X143362000Y-115596239D01*
X143705847Y-115940086D01*
X143752581Y-115959444D01*
X143757736Y-115973387D01*
X144034263Y-116076120D01*
X144306778Y-116189000D01*
X144338100Y-116189000D01*
X144367461Y-116199908D01*
X144662247Y-116189000D01*
X144957222Y-116189000D01*
X144986158Y-116177014D01*
X145017460Y-116175856D01*
X145506264Y-115973387D01*
X145511419Y-115959444D01*
X145558153Y-115940086D01*
X146018086Y-115480153D01*
X146037444Y-115433419D01*
X146051387Y-115428264D01*
X146154120Y-115151737D01*
X146267000Y-114879222D01*
X146267000Y-114847900D01*
X146277908Y-114818539D01*
X146267000Y-114523753D01*
X146267000Y-114228778D01*
X146255014Y-114199842D01*
X146253856Y-114168540D01*
X146051387Y-113679736D01*
X146037444Y-113674581D01*
X146018086Y-113627847D01*
X145558153Y-113167914D01*
X145511419Y-113148556D01*
X145506264Y-113134613D01*
X145229737Y-113031880D01*
X144957222Y-112919000D01*
X144925900Y-112919000D01*
X144896539Y-112908092D01*
X144601753Y-112919000D01*
X144306778Y-112919000D01*
X144277842Y-112930986D01*
X144246540Y-112932144D01*
X143757736Y-113134613D01*
X143752581Y-113148556D01*
X143705847Y-113167914D01*
X143362000Y-113511761D01*
X143018153Y-113167914D01*
X142971419Y-113148556D01*
X142966264Y-113134613D01*
X142689737Y-113031880D01*
X142417222Y-112919000D01*
X142385900Y-112919000D01*
X142356539Y-112908092D01*
X142061753Y-112919000D01*
X141766778Y-112919000D01*
X141737842Y-112930986D01*
X141706540Y-112932144D01*
X141217736Y-113134613D01*
X141212581Y-113148556D01*
X141165847Y-113167914D01*
X140822000Y-113511761D01*
X140478153Y-113167914D01*
X140431419Y-113148556D01*
X140426264Y-113134613D01*
X140149737Y-113031880D01*
X139877222Y-112919000D01*
X139845900Y-112919000D01*
X139816539Y-112908092D01*
X139521753Y-112919000D01*
X139226778Y-112919000D01*
X139197842Y-112930986D01*
X139166540Y-112932144D01*
X138677736Y-113134613D01*
X138672581Y-113148556D01*
X138625847Y-113167914D01*
X138282000Y-113511761D01*
X137938153Y-113167914D01*
X137891419Y-113148556D01*
X137886264Y-113134613D01*
X137609737Y-113031880D01*
X137337222Y-112919000D01*
X137305900Y-112919000D01*
X137276539Y-112908092D01*
X136981753Y-112919000D01*
X136686778Y-112919000D01*
X136657842Y-112930986D01*
X136626540Y-112932144D01*
X136137736Y-113134613D01*
X136132581Y-113148556D01*
X136085847Y-113167914D01*
X135742000Y-113511761D01*
X135398153Y-113167914D01*
X135351419Y-113148556D01*
X135346264Y-113134613D01*
X135069737Y-113031880D01*
X134797222Y-112919000D01*
X134765900Y-112919000D01*
X134736539Y-112908092D01*
X134449030Y-112918731D01*
X141832762Y-105535000D01*
X172965822Y-105535000D01*
X173173375Y-105845625D01*
X173191619Y-105857816D01*
X173146235Y-105866843D01*
X172936191Y-106007191D01*
X172795843Y-106217235D01*
X172746560Y-106465000D01*
X172746560Y-108165000D01*
X172795843Y-108412765D01*
X172936191Y-108622809D01*
X173146235Y-108763157D01*
X173394000Y-108812440D01*
X174722502Y-108812440D01*
X174722502Y-110201457D01*
X174453756Y-110148000D01*
X174161244Y-110148000D01*
X173728082Y-110234161D01*
X173236875Y-110562375D01*
X172908661Y-111053582D01*
X172793408Y-111633000D01*
X172908661Y-112212418D01*
X173236875Y-112703625D01*
X173535261Y-112903000D01*
X173236875Y-113102375D01*
X172908661Y-113593582D01*
X172793408Y-114173000D01*
X172908661Y-114752418D01*
X173236875Y-115243625D01*
X173255119Y-115255816D01*
X173209735Y-115264843D01*
X172999691Y-115405191D01*
X172859343Y-115615235D01*
X172810060Y-115863000D01*
X172810060Y-117563000D01*
X172859343Y-117810765D01*
X172999691Y-118020809D01*
X173209735Y-118161157D01*
X173457500Y-118210440D01*
X175157500Y-118210440D01*
X175405265Y-118161157D01*
X175615309Y-118020809D01*
X175755657Y-117810765D01*
X175804940Y-117563000D01*
X175804940Y-115863000D01*
X175755657Y-115615235D01*
X175615309Y-115405191D01*
X175405265Y-115264843D01*
X175359881Y-115255816D01*
X175378125Y-115243625D01*
X175706339Y-114752418D01*
X175821592Y-114173000D01*
X175748709Y-113806592D01*
X175966971Y-113588330D01*
X176030430Y-113545928D01*
X176198405Y-113294536D01*
X176242501Y-113072851D01*
X176242501Y-113072847D01*
X176257389Y-112998000D01*
X176242501Y-112923153D01*
X176242501Y-93427347D01*
X176257389Y-93352499D01*
X176242501Y-93277651D01*
X176242501Y-93277647D01*
X176198405Y-93055962D01*
X176030430Y-92804570D01*
X175966974Y-92762170D01*
X171856897Y-88652094D01*
X172503956Y-88654035D01*
X172508911Y-88652000D01*
X172514264Y-88652000D01*
X173140490Y-88392609D01*
X173768027Y-88134878D01*
X173776701Y-88129082D01*
X173776771Y-88129053D01*
X173776825Y-88128999D01*
X173785499Y-88123203D01*
X173792252Y-88113572D01*
X174727572Y-87178252D01*
X174737203Y-87171499D01*
X174739268Y-87166556D01*
X174743053Y-87162771D01*
X175002440Y-86536554D01*
X175263936Y-85910566D01*
X175263952Y-85905208D01*
X175266000Y-85900264D01*
X175266000Y-85222471D01*
X175268035Y-84544044D01*
X175266000Y-84539089D01*
X175266000Y-84533736D01*
X175006609Y-83907510D01*
X174748878Y-83279973D01*
X174743082Y-83271299D01*
X174743053Y-83271229D01*
X174742999Y-83271175D01*
X174737203Y-83262501D01*
X174727572Y-83255748D01*
X173792252Y-82320428D01*
X173785499Y-82310797D01*
X173780556Y-82308732D01*
X173776771Y-82304947D01*
X173150554Y-82045560D01*
X172524566Y-81784064D01*
X172519208Y-81784048D01*
X172514264Y-81782000D01*
X171836471Y-81782000D01*
X171158044Y-81779965D01*
X171153089Y-81782000D01*
X171147736Y-81782000D01*
X170521510Y-82041391D01*
X169893973Y-82299122D01*
X169885299Y-82304918D01*
X169885229Y-82304947D01*
X169885175Y-82305001D01*
X169876501Y-82310797D01*
X169869748Y-82320428D01*
X168934428Y-83255748D01*
X168924797Y-83262501D01*
X168922732Y-83267444D01*
X168918947Y-83271229D01*
X168659560Y-83897446D01*
X168398064Y-84523434D01*
X168398048Y-84528792D01*
X168396000Y-84533736D01*
X168396000Y-85211529D01*
X168393965Y-85889956D01*
X168396000Y-85894911D01*
X168396000Y-85900264D01*
X168429442Y-85981000D01*
X121719846Y-85981000D01*
X121644999Y-85966112D01*
X121570152Y-85981000D01*
X121570148Y-85981000D01*
X121348463Y-86025096D01*
X121348461Y-86025097D01*
X121348462Y-86025097D01*
X121160526Y-86150671D01*
X121160524Y-86150673D01*
X121097071Y-86193071D01*
X121054673Y-86256524D01*
X119723375Y-87587823D01*
X119557222Y-87519000D01*
X118906778Y-87519000D01*
X118305847Y-87767914D01*
X117962000Y-88111761D01*
X117618153Y-87767914D01*
X117571419Y-87748556D01*
X117566264Y-87734613D01*
X117289737Y-87631880D01*
X117017222Y-87519000D01*
X116985900Y-87519000D01*
X116956539Y-87508092D01*
X116661753Y-87519000D01*
X116366778Y-87519000D01*
X116337842Y-87530986D01*
X116306540Y-87532144D01*
X115817736Y-87734613D01*
X115812581Y-87748556D01*
X115765847Y-87767914D01*
X115422000Y-88111761D01*
X115078153Y-87767914D01*
X115031419Y-87748556D01*
X115026264Y-87734613D01*
X114749737Y-87631880D01*
X114477222Y-87519000D01*
X114445900Y-87519000D01*
X114416539Y-87508092D01*
X114121753Y-87519000D01*
X113826778Y-87519000D01*
X113797842Y-87530986D01*
X113766540Y-87532144D01*
X113277736Y-87734613D01*
X113272581Y-87748556D01*
X113225847Y-87767914D01*
X112882000Y-88111761D01*
X112538153Y-87767914D01*
X111937222Y-87519000D01*
X111286778Y-87519000D01*
X110685847Y-87767914D01*
X110624717Y-87829044D01*
X110610327Y-87794302D01*
X110565236Y-87749211D01*
X110529809Y-87696191D01*
X110476791Y-87660765D01*
X110431699Y-87615673D01*
X110372785Y-87591270D01*
X110319765Y-87555843D01*
X110257224Y-87543403D01*
X110198310Y-87519000D01*
X110134541Y-87519000D01*
X110072000Y-87506560D01*
X108072000Y-87506560D01*
X108009459Y-87519000D01*
X107945690Y-87519000D01*
X107886776Y-87543403D01*
X107824235Y-87555843D01*
X107771215Y-87591270D01*
X107712301Y-87615673D01*
X107667209Y-87660765D01*
X107614191Y-87696191D01*
X107578764Y-87749211D01*
X107533673Y-87794302D01*
X107509271Y-87853214D01*
X107473843Y-87906235D01*
X107461403Y-87968778D01*
X107437000Y-88027691D01*
X107437000Y-88091459D01*
X107424560Y-88154000D01*
X107424560Y-90154000D01*
X107437000Y-90216541D01*
X107437000Y-90280309D01*
X107461403Y-90339222D01*
X107473843Y-90401765D01*
X107509271Y-90454786D01*
X107533673Y-90513698D01*
X107578764Y-90558789D01*
X107614191Y-90611809D01*
X107667209Y-90647235D01*
X107712301Y-90692327D01*
X107771215Y-90716730D01*
X107824235Y-90752157D01*
X107886776Y-90764597D01*
X107945690Y-90789000D01*
X108009459Y-90789000D01*
X108072000Y-90801440D01*
X110072000Y-90801440D01*
X110134541Y-90789000D01*
X110198310Y-90789000D01*
X110257224Y-90764597D01*
X110319765Y-90752157D01*
X110372785Y-90716730D01*
X110431699Y-90692327D01*
X110476791Y-90647235D01*
X110529809Y-90611809D01*
X110565236Y-90558789D01*
X110610327Y-90513698D01*
X110624717Y-90478956D01*
X110685847Y-90540086D01*
X110852000Y-90608909D01*
X110852001Y-92927647D01*
X110663452Y-93053632D01*
X110523104Y-93263676D01*
X110473821Y-93511441D01*
X110473821Y-95035441D01*
X110523104Y-95283206D01*
X110638297Y-95455603D01*
X107262529Y-98831372D01*
X107199070Y-98873774D01*
X107031095Y-99125167D01*
X106986999Y-99346852D01*
X106986999Y-99346856D01*
X106972111Y-99421703D01*
X96976000Y-99421703D01*
X96976000Y-84114090D01*
X98584063Y-82506028D01*
X98428560Y-82881446D01*
X98167064Y-83507434D01*
X98167048Y-83512792D01*
X98165000Y-83517736D01*
X98165000Y-84195529D01*
X98162965Y-84873956D01*
X98165000Y-84878911D01*
X98165000Y-84884264D01*
X98424391Y-85510490D01*
X98682122Y-86138027D01*
X98687918Y-86146701D01*
X98687947Y-86146771D01*
X98688001Y-86146825D01*
X98693797Y-86155499D01*
X98703428Y-86162252D01*
X99638748Y-87097572D01*
X99645501Y-87107203D01*
X99650444Y-87109268D01*
X99654229Y-87113053D01*
X100280446Y-87372440D01*
X100906434Y-87633936D01*
X100911792Y-87633952D01*
X100916736Y-87636000D01*
X101594529Y-87636000D01*
X102272956Y-87638035D01*
X102277911Y-87636000D01*
X102283264Y-87636000D01*
X102909490Y-87376609D01*
X103537027Y-87118878D01*
X103545701Y-87113082D01*
X103545771Y-87113053D01*
X103545825Y-87112999D01*
X103554499Y-87107203D01*
X103561252Y-87097572D01*
X104496572Y-86162252D01*
X104506203Y-86155499D01*
X104508268Y-86150556D01*
X104512053Y-86146771D01*
X104771440Y-85520554D01*
X105032936Y-84894566D01*
X105032952Y-84889208D01*
X105035000Y-84884264D01*
X105035000Y-84206471D01*
X105037035Y-83528044D01*
X105035000Y-83523089D01*
X105035000Y-83517736D01*
X104775609Y-82891510D01*
X104517878Y-82263973D01*
X104512082Y-82255299D01*
X104512053Y-82255229D01*
X104511999Y-82255175D01*
X104506203Y-82246501D01*
X104496572Y-82239748D01*
X103561252Y-81304428D01*
X103554499Y-81294797D01*
X103549556Y-81292732D01*
X103545771Y-81288947D01*
X102919554Y-81029560D01*
X102293566Y-80768064D01*
X102288208Y-80768048D01*
X102283264Y-80766000D01*
X101605471Y-80766000D01*
X100927044Y-80763965D01*
X100922089Y-80766000D01*
X100916736Y-80766000D01*
X100290510Y-81025391D01*
X99907326Y-81182766D01*
X100370092Y-80720000D01*
X173060910Y-80720000D01*
X176709000Y-84368092D01*
X176709000Y-84368092D01*
G37*
X176709000Y-84368092D02*
X176709001Y-138961407D01*
X173632410Y-142038000D01*
X99862091Y-142038000D01*
X96976000Y-139151910D01*
X96976000Y-138213956D01*
X97654965Y-138213956D01*
X97657000Y-138218911D01*
X97657000Y-138224264D01*
X97916391Y-138850490D01*
X98174122Y-139478027D01*
X98179918Y-139486701D01*
X98179947Y-139486771D01*
X98180001Y-139486825D01*
X98185797Y-139495499D01*
X98195428Y-139502252D01*
X99130748Y-140437572D01*
X99137501Y-140447203D01*
X99142444Y-140449268D01*
X99146229Y-140453053D01*
X99772446Y-140712440D01*
X100398434Y-140973936D01*
X100403792Y-140973952D01*
X100408736Y-140976000D01*
X101086529Y-140976000D01*
X101764956Y-140978035D01*
X101769911Y-140976000D01*
X101775264Y-140976000D01*
X102401490Y-140716609D01*
X103029027Y-140458878D01*
X103037701Y-140453082D01*
X103037771Y-140453053D01*
X103037825Y-140452999D01*
X103046499Y-140447203D01*
X103053252Y-140437572D01*
X103988572Y-139502252D01*
X103998203Y-139495499D01*
X104000268Y-139490556D01*
X104004053Y-139486771D01*
X104263440Y-138860554D01*
X104524936Y-138234566D01*
X104524952Y-138229208D01*
X104527000Y-138224264D01*
X104527000Y-137546471D01*
X104529035Y-136868044D01*
X104527000Y-136863089D01*
X104527000Y-136857736D01*
X104267609Y-136231510D01*
X104009878Y-135603973D01*
X104004082Y-135595299D01*
X104004053Y-135595229D01*
X104003999Y-135595175D01*
X103998203Y-135586501D01*
X103988572Y-135579748D01*
X103053252Y-134644428D01*
X103046499Y-134634797D01*
X103041556Y-134632732D01*
X103037771Y-134628947D01*
X102411554Y-134369560D01*
X101785566Y-134108064D01*
X101780208Y-134108048D01*
X101775264Y-134106000D01*
X101097471Y-134106000D01*
X100419044Y-134103965D01*
X100414089Y-134106000D01*
X100408736Y-134106000D01*
X99782510Y-134365391D01*
X99154973Y-134623122D01*
X99146299Y-134628918D01*
X99146229Y-134628947D01*
X99146175Y-134629001D01*
X99137501Y-134634797D01*
X99130748Y-134644428D01*
X98195428Y-135579748D01*
X98185797Y-135586501D01*
X98183732Y-135591444D01*
X98179947Y-135595229D01*
X97920560Y-136221446D01*
X97659064Y-136847434D01*
X97659048Y-136852792D01*
X97657000Y-136857736D01*
X97657000Y-137535529D01*
X97654965Y-138213956D01*
X96976000Y-138213956D01*
X96976000Y-131948680D01*
X106185720Y-131948680D01*
X106185720Y-133948680D01*
X106235003Y-134196445D01*
X106375351Y-134406489D01*
X106585395Y-134546837D01*
X106833160Y-134596120D01*
X108833160Y-134596120D01*
X109080925Y-134546837D01*
X109290969Y-134406489D01*
X109431317Y-134196445D01*
X109480600Y-133948680D01*
X109480600Y-131948680D01*
X109431317Y-131700915D01*
X109290969Y-131490871D01*
X109080925Y-131350523D01*
X108833160Y-131301240D01*
X106833160Y-131301240D01*
X106585395Y-131350523D01*
X106375351Y-131490871D01*
X106235003Y-131700915D01*
X106185720Y-131948680D01*
X96976000Y-131948680D01*
X96976000Y-99421703D01*
X106972111Y-99421703D01*
X106986999Y-99496550D01*
X106987000Y-115292147D01*
X106972111Y-115366999D01*
X107031096Y-115663536D01*
X107156046Y-115850536D01*
X107199071Y-115914928D01*
X107262526Y-115957328D01*
X107668672Y-116363473D01*
X107711072Y-116426930D01*
X107962464Y-116594905D01*
X108184149Y-116639001D01*
X108184153Y-116639001D01*
X108259000Y-116653889D01*
X108333847Y-116639001D01*
X110212152Y-116639001D01*
X110286999Y-116653889D01*
X110361846Y-116639001D01*
X110361851Y-116639001D01*
X110583536Y-116594905D01*
X110834928Y-116426930D01*
X110877330Y-116363471D01*
X111120624Y-116120177D01*
X111286778Y-116189000D01*
X111937222Y-116189000D01*
X112405112Y-115995193D01*
X114673161Y-118263243D01*
X114673160Y-131493771D01*
X114507007Y-131562594D01*
X114047074Y-132022527D01*
X113798160Y-132623458D01*
X113798160Y-133273902D01*
X114047074Y-133874833D01*
X114507007Y-134334766D01*
X115107938Y-134583680D01*
X115758382Y-134583680D01*
X116359313Y-134334766D01*
X116819246Y-133874833D01*
X116888069Y-133708680D01*
X116990289Y-133708680D01*
X119335956Y-136054348D01*
X119314060Y-136107211D01*
X119314060Y-136678089D01*
X119532526Y-137205512D01*
X119936198Y-137609184D01*
X119966201Y-137621611D01*
X119966200Y-138204760D01*
X119913338Y-138226656D01*
X119509666Y-138630328D01*
X119291200Y-139157751D01*
X119291200Y-139728629D01*
X119509666Y-140256052D01*
X119913338Y-140659724D01*
X120440761Y-140878190D01*
X121011639Y-140878190D01*
X121064502Y-140856294D01*
X121260872Y-141052664D01*
X121303272Y-141116120D01*
X121366728Y-141158520D01*
X121554663Y-141284095D01*
X121602806Y-141293671D01*
X121776349Y-141328191D01*
X121776353Y-141328191D01*
X121851201Y-141343079D01*
X121926049Y-141328191D01*
X133602222Y-141328191D01*
X133677069Y-141343079D01*
X133751916Y-141328191D01*
X133751921Y-141328191D01*
X133973606Y-141284095D01*
X134224998Y-141116120D01*
X134267400Y-141052661D01*
X135418579Y-139901482D01*
X135905589Y-140226891D01*
X136525000Y-140350100D01*
X137144410Y-140226891D01*
X137669523Y-139876023D01*
X137795000Y-139688233D01*
X137920477Y-139876023D01*
X138445589Y-140226891D01*
X139065000Y-140350100D01*
X139684410Y-140226891D01*
X140076491Y-139964912D01*
X140194691Y-140141809D01*
X140404735Y-140282157D01*
X140652500Y-140331440D01*
X142557500Y-140331440D01*
X142805265Y-140282157D01*
X143015309Y-140141809D01*
X143155657Y-139931765D01*
X143204940Y-139684000D01*
X143204940Y-137684000D01*
X143155657Y-137436235D01*
X143015309Y-137226191D01*
X142805265Y-137085843D01*
X142557500Y-137036560D01*
X140652500Y-137036560D01*
X140404735Y-137085843D01*
X140194691Y-137226191D01*
X140076491Y-137403088D01*
X139684411Y-137141109D01*
X139392097Y-137082964D01*
X142458402Y-134016660D01*
X149813714Y-134016660D01*
X149573973Y-134115122D01*
X149565299Y-134120918D01*
X149565229Y-134120947D01*
X149565175Y-134121001D01*
X149556501Y-134126797D01*
X149549748Y-134136428D01*
X148614428Y-135071748D01*
X148604797Y-135078501D01*
X148602732Y-135083444D01*
X148598947Y-135087229D01*
X148339560Y-135713446D01*
X148078064Y-136339434D01*
X148078048Y-136344792D01*
X148076000Y-136349736D01*
X148076000Y-137027529D01*
X148073965Y-137705956D01*
X148076000Y-137710911D01*
X148076000Y-137716264D01*
X148335391Y-138342490D01*
X148593122Y-138970027D01*
X148598918Y-138978701D01*
X148598947Y-138978771D01*
X148599001Y-138978825D01*
X148604797Y-138987499D01*
X148614428Y-138994252D01*
X149549748Y-139929572D01*
X149556501Y-139939203D01*
X149561444Y-139941268D01*
X149565229Y-139945053D01*
X150191446Y-140204440D01*
X150817434Y-140465936D01*
X150822792Y-140465952D01*
X150827736Y-140468000D01*
X151505529Y-140468000D01*
X152183956Y-140470035D01*
X152188911Y-140468000D01*
X152194264Y-140468000D01*
X152820490Y-140208609D01*
X153448027Y-139950878D01*
X153456701Y-139945082D01*
X153456771Y-139945053D01*
X153456825Y-139944999D01*
X153465499Y-139939203D01*
X153472252Y-139929572D01*
X154407572Y-138994252D01*
X154417203Y-138987499D01*
X154419268Y-138982556D01*
X154423053Y-138978771D01*
X154471213Y-138862500D01*
X162669060Y-138862500D01*
X162669060Y-140862500D01*
X162681500Y-140925041D01*
X162681500Y-140988810D01*
X162705903Y-141047724D01*
X162718343Y-141110265D01*
X162753770Y-141163285D01*
X162778173Y-141222199D01*
X162823265Y-141267291D01*
X162858691Y-141320309D01*
X162911711Y-141355736D01*
X162956802Y-141400827D01*
X163015714Y-141425229D01*
X163068735Y-141460657D01*
X163131278Y-141473097D01*
X163190191Y-141497500D01*
X163253959Y-141497500D01*
X163316500Y-141509940D01*
X166516500Y-141509940D01*
X166579041Y-141497500D01*
X166642809Y-141497500D01*
X166701722Y-141473097D01*
X166764265Y-141460657D01*
X166817286Y-141425229D01*
X166876198Y-141400827D01*
X166921289Y-141355736D01*
X166974309Y-141320309D01*
X167009735Y-141267291D01*
X167054827Y-141222199D01*
X167079230Y-141163285D01*
X167114657Y-141110265D01*
X167127097Y-141047724D01*
X167151500Y-140988810D01*
X167151500Y-140925041D01*
X167163940Y-140862500D01*
X167163940Y-138862500D01*
X167151500Y-138799959D01*
X167151500Y-138736190D01*
X167127097Y-138677276D01*
X167114657Y-138614735D01*
X167079230Y-138561715D01*
X167054827Y-138502801D01*
X167009735Y-138457709D01*
X166974309Y-138404691D01*
X166921289Y-138369264D01*
X166876198Y-138324173D01*
X166817286Y-138299771D01*
X166764265Y-138264343D01*
X166701722Y-138251903D01*
X166642809Y-138227500D01*
X166579041Y-138227500D01*
X166516500Y-138215060D01*
X163316500Y-138215060D01*
X163253959Y-138227500D01*
X163190191Y-138227500D01*
X163131278Y-138251903D01*
X163068735Y-138264343D01*
X163015714Y-138299771D01*
X162956802Y-138324173D01*
X162911711Y-138369264D01*
X162858691Y-138404691D01*
X162823265Y-138457709D01*
X162778173Y-138502801D01*
X162753770Y-138561715D01*
X162718343Y-138614735D01*
X162705903Y-138677276D01*
X162681500Y-138736190D01*
X162681500Y-138799959D01*
X162669060Y-138862500D01*
X154471213Y-138862500D01*
X154682440Y-138352554D01*
X154943936Y-137726566D01*
X154943952Y-137721208D01*
X154946000Y-137716264D01*
X154946000Y-137038471D01*
X154948035Y-136360044D01*
X154946000Y-136355089D01*
X154946000Y-136349736D01*
X154686609Y-135723510D01*
X154428878Y-135095973D01*
X154423082Y-135087299D01*
X154423053Y-135087229D01*
X154422999Y-135087175D01*
X154417203Y-135078501D01*
X154407572Y-135071748D01*
X153472252Y-134136428D01*
X153465499Y-134126797D01*
X153460556Y-134124732D01*
X153456771Y-134120947D01*
X153205000Y-134016660D01*
X155781500Y-134016660D01*
X155781500Y-134587722D01*
X156030414Y-135188653D01*
X156354261Y-135512500D01*
X156030414Y-135836347D01*
X155781500Y-136437278D01*
X155781500Y-137087722D01*
X156030414Y-137688653D01*
X156490347Y-138148586D01*
X157091278Y-138397500D01*
X157741722Y-138397500D01*
X158342653Y-138148586D01*
X158802586Y-137688653D01*
X159051500Y-137087722D01*
X159051500Y-136437278D01*
X170281500Y-136437278D01*
X170281500Y-137087722D01*
X170530414Y-137688653D01*
X170990347Y-138148586D01*
X171591278Y-138397500D01*
X172241722Y-138397500D01*
X172842653Y-138148586D01*
X173302586Y-137688653D01*
X173551500Y-137087722D01*
X173551500Y-136437278D01*
X173302586Y-135836347D01*
X172842653Y-135376414D01*
X172241722Y-135127500D01*
X171591278Y-135127500D01*
X170990347Y-135376414D01*
X170530414Y-135836347D01*
X170281500Y-136437278D01*
X159051500Y-136437278D01*
X158802586Y-135836347D01*
X158478739Y-135512500D01*
X158802586Y-135188653D01*
X159051500Y-134587722D01*
X159051500Y-133937278D01*
X158802586Y-133336347D01*
X158761755Y-133295516D01*
X158874309Y-133220309D01*
X159014657Y-133010265D01*
X159063940Y-132762500D01*
X159063940Y-131437278D01*
X170281500Y-131437278D01*
X170281500Y-132087722D01*
X170530414Y-132688653D01*
X170990347Y-133148586D01*
X171591278Y-133397500D01*
X172241722Y-133397500D01*
X172842653Y-133148586D01*
X173302586Y-132688653D01*
X173551500Y-132087722D01*
X173551500Y-131437278D01*
X173302586Y-130836347D01*
X172842653Y-130376414D01*
X172241722Y-130127500D01*
X171591278Y-130127500D01*
X170990347Y-130376414D01*
X170530414Y-130836347D01*
X170281500Y-131437278D01*
X159063940Y-131437278D01*
X159063940Y-130762500D01*
X159014657Y-130514735D01*
X158874309Y-130304691D01*
X158664265Y-130164343D01*
X158416500Y-130115060D01*
X156416500Y-130115060D01*
X156168735Y-130164343D01*
X155958691Y-130304691D01*
X155818343Y-130514735D01*
X155769060Y-130762500D01*
X155769060Y-132496660D01*
X142218448Y-132496660D01*
X142143600Y-132481772D01*
X142068752Y-132496660D01*
X142068748Y-132496660D01*
X141847063Y-132540756D01*
X141595671Y-132708731D01*
X141553271Y-132772187D01*
X137168353Y-137157106D01*
X137144411Y-137141109D01*
X136525000Y-137017900D01*
X135905590Y-137141109D01*
X135380477Y-137491977D01*
X135029609Y-138017089D01*
X134986248Y-138235078D01*
X134769491Y-138379911D01*
X134727091Y-138443367D01*
X133362268Y-139808191D01*
X129736710Y-139808191D01*
X129809313Y-139443190D01*
X129697940Y-138883281D01*
X129380777Y-138408613D01*
X129138699Y-138246862D01*
X129205598Y-138233555D01*
X129456990Y-138065580D01*
X129499392Y-138002121D01*
X129978534Y-137522980D01*
X130041990Y-137480580D01*
X130209965Y-137229188D01*
X130254061Y-137007503D01*
X130254061Y-137007498D01*
X130268949Y-136932651D01*
X130254061Y-136857804D01*
X130254061Y-127662500D01*
X162669060Y-127662500D01*
X162669060Y-129662500D01*
X162681500Y-129725041D01*
X162681500Y-129788810D01*
X162705903Y-129847724D01*
X162718343Y-129910265D01*
X162753770Y-129963285D01*
X162778173Y-130022199D01*
X162823265Y-130067291D01*
X162858691Y-130120309D01*
X162911711Y-130155736D01*
X162956802Y-130200827D01*
X163015714Y-130225229D01*
X163068735Y-130260657D01*
X163131278Y-130273097D01*
X163190191Y-130297500D01*
X163253959Y-130297500D01*
X163316500Y-130309940D01*
X166516500Y-130309940D01*
X166579041Y-130297500D01*
X166642809Y-130297500D01*
X166701722Y-130273097D01*
X166764265Y-130260657D01*
X166817286Y-130225229D01*
X166876198Y-130200827D01*
X166921289Y-130155736D01*
X166974309Y-130120309D01*
X167009735Y-130067291D01*
X167054827Y-130022199D01*
X167079230Y-129963285D01*
X167114657Y-129910265D01*
X167127097Y-129847724D01*
X167151500Y-129788810D01*
X167151500Y-129725041D01*
X167163940Y-129662500D01*
X167163940Y-127662500D01*
X167151500Y-127599959D01*
X167151500Y-127536190D01*
X167127097Y-127477276D01*
X167114657Y-127414735D01*
X167079230Y-127361715D01*
X167054827Y-127302801D01*
X167009735Y-127257709D01*
X166974309Y-127204691D01*
X166921289Y-127169264D01*
X166876198Y-127124173D01*
X166817286Y-127099771D01*
X166764265Y-127064343D01*
X166701722Y-127051903D01*
X166642809Y-127027500D01*
X166579041Y-127027500D01*
X166516500Y-127015060D01*
X163316500Y-127015060D01*
X163253959Y-127027500D01*
X163190191Y-127027500D01*
X163131278Y-127051903D01*
X163068735Y-127064343D01*
X163015714Y-127099771D01*
X162956802Y-127124173D01*
X162911711Y-127169264D01*
X162858691Y-127204691D01*
X162823265Y-127257709D01*
X162778173Y-127302801D01*
X162753770Y-127361715D01*
X162718343Y-127414735D01*
X162705903Y-127477276D01*
X162681500Y-127536190D01*
X162681500Y-127599959D01*
X162669060Y-127662500D01*
X130254061Y-127662500D01*
X130254061Y-120798400D01*
X130268949Y-120723553D01*
X130254061Y-120648706D01*
X130254061Y-120648702D01*
X130209965Y-120427017D01*
X130041990Y-120175625D01*
X129978534Y-120133225D01*
X125511774Y-115666465D01*
X125582000Y-115596239D01*
X125925847Y-115940086D01*
X126526778Y-116189000D01*
X127177222Y-116189000D01*
X127778153Y-115940086D01*
X128122000Y-115596239D01*
X128465847Y-115940086D01*
X129066778Y-116189000D01*
X129717222Y-116189000D01*
X130318153Y-115940086D01*
X130662000Y-115596239D01*
X131005847Y-115940086D01*
X131606778Y-116189000D01*
X132257222Y-116189000D01*
X132858153Y-115940086D01*
X133202000Y-115596239D01*
X133545847Y-115940086D01*
X133592581Y-115959444D01*
X133597736Y-115973387D01*
X133874263Y-116076120D01*
X134146778Y-116189000D01*
X134178100Y-116189000D01*
X134207461Y-116199908D01*
X134502247Y-116189000D01*
X134797222Y-116189000D01*
X134826158Y-116177014D01*
X134857460Y-116175856D01*
X135346264Y-115973387D01*
X135351419Y-115959444D01*
X135398153Y-115940086D01*
X135742000Y-115596239D01*
X136085847Y-115940086D01*
X136132581Y-115959444D01*
X136137736Y-115973387D01*
X136414263Y-116076120D01*
X136686778Y-116189000D01*
X136718100Y-116189000D01*
X136747461Y-116199908D01*
X137042247Y-116189000D01*
X137337222Y-116189000D01*
X137366158Y-116177014D01*
X137397460Y-116175856D01*
X137886264Y-115973387D01*
X137891419Y-115959444D01*
X137938153Y-115940086D01*
X138282000Y-115596239D01*
X138625847Y-115940086D01*
X138672581Y-115959444D01*
X138677736Y-115973387D01*
X138954263Y-116076120D01*
X139226778Y-116189000D01*
X139258100Y-116189000D01*
X139287461Y-116199908D01*
X139582247Y-116189000D01*
X139877222Y-116189000D01*
X139906158Y-116177014D01*
X139937460Y-116175856D01*
X140426264Y-115973387D01*
X140431419Y-115959444D01*
X140478153Y-115940086D01*
X140822000Y-115596239D01*
X141165847Y-115940086D01*
X141212581Y-115959444D01*
X141217736Y-115973387D01*
X141494263Y-116076120D01*
X141766778Y-116189000D01*
X141798100Y-116189000D01*
X141827461Y-116199908D01*
X142122247Y-116189000D01*
X142417222Y-116189000D01*
X142446158Y-116177014D01*
X142477460Y-116175856D01*
X142966264Y-115973387D01*
X142971419Y-115959444D01*
X143018153Y-115940086D01*
X143362000Y-115596239D01*
X143705847Y-115940086D01*
X143752581Y-115959444D01*
X143757736Y-115973387D01*
X144034263Y-116076120D01*
X144306778Y-116189000D01*
X144338100Y-116189000D01*
X144367461Y-116199908D01*
X144662247Y-116189000D01*
X144957222Y-116189000D01*
X144986158Y-116177014D01*
X145017460Y-116175856D01*
X145506264Y-115973387D01*
X145511419Y-115959444D01*
X145558153Y-115940086D01*
X146018086Y-115480153D01*
X146037444Y-115433419D01*
X146051387Y-115428264D01*
X146154120Y-115151737D01*
X146267000Y-114879222D01*
X146267000Y-114847900D01*
X146277908Y-114818539D01*
X146267000Y-114523753D01*
X146267000Y-114228778D01*
X146255014Y-114199842D01*
X146253856Y-114168540D01*
X146051387Y-113679736D01*
X146037444Y-113674581D01*
X146018086Y-113627847D01*
X145558153Y-113167914D01*
X145511419Y-113148556D01*
X145506264Y-113134613D01*
X145229737Y-113031880D01*
X144957222Y-112919000D01*
X144925900Y-112919000D01*
X144896539Y-112908092D01*
X144601753Y-112919000D01*
X144306778Y-112919000D01*
X144277842Y-112930986D01*
X144246540Y-112932144D01*
X143757736Y-113134613D01*
X143752581Y-113148556D01*
X143705847Y-113167914D01*
X143362000Y-113511761D01*
X143018153Y-113167914D01*
X142971419Y-113148556D01*
X142966264Y-113134613D01*
X142689737Y-113031880D01*
X142417222Y-112919000D01*
X142385900Y-112919000D01*
X142356539Y-112908092D01*
X142061753Y-112919000D01*
X141766778Y-112919000D01*
X141737842Y-112930986D01*
X141706540Y-112932144D01*
X141217736Y-113134613D01*
X141212581Y-113148556D01*
X141165847Y-113167914D01*
X140822000Y-113511761D01*
X140478153Y-113167914D01*
X140431419Y-113148556D01*
X140426264Y-113134613D01*
X140149737Y-113031880D01*
X139877222Y-112919000D01*
X139845900Y-112919000D01*
X139816539Y-112908092D01*
X139521753Y-112919000D01*
X139226778Y-112919000D01*
X139197842Y-112930986D01*
X139166540Y-112932144D01*
X138677736Y-113134613D01*
X138672581Y-113148556D01*
X138625847Y-113167914D01*
X138282000Y-113511761D01*
X137938153Y-113167914D01*
X137891419Y-113148556D01*
X137886264Y-113134613D01*
X137609737Y-113031880D01*
X137337222Y-112919000D01*
X137305900Y-112919000D01*
X137276539Y-112908092D01*
X136981753Y-112919000D01*
X136686778Y-112919000D01*
X136657842Y-112930986D01*
X136626540Y-112932144D01*
X136137736Y-113134613D01*
X136132581Y-113148556D01*
X136085847Y-113167914D01*
X135742000Y-113511761D01*
X135398153Y-113167914D01*
X135351419Y-113148556D01*
X135346264Y-113134613D01*
X135069737Y-113031880D01*
X134797222Y-112919000D01*
X134765900Y-112919000D01*
X134736539Y-112908092D01*
X134449030Y-112918731D01*
X141832762Y-105535000D01*
X172965822Y-105535000D01*
X173173375Y-105845625D01*
X173191619Y-105857816D01*
X173146235Y-105866843D01*
X172936191Y-106007191D01*
X172795843Y-106217235D01*
X172746560Y-106465000D01*
X172746560Y-108165000D01*
X172795843Y-108412765D01*
X172936191Y-108622809D01*
X173146235Y-108763157D01*
X173394000Y-108812440D01*
X174722502Y-108812440D01*
X174722502Y-110201457D01*
X174453756Y-110148000D01*
X174161244Y-110148000D01*
X173728082Y-110234161D01*
X173236875Y-110562375D01*
X172908661Y-111053582D01*
X172793408Y-111633000D01*
X172908661Y-112212418D01*
X173236875Y-112703625D01*
X173535261Y-112903000D01*
X173236875Y-113102375D01*
X172908661Y-113593582D01*
X172793408Y-114173000D01*
X172908661Y-114752418D01*
X173236875Y-115243625D01*
X173255119Y-115255816D01*
X173209735Y-115264843D01*
X172999691Y-115405191D01*
X172859343Y-115615235D01*
X172810060Y-115863000D01*
X172810060Y-117563000D01*
X172859343Y-117810765D01*
X172999691Y-118020809D01*
X173209735Y-118161157D01*
X173457500Y-118210440D01*
X175157500Y-118210440D01*
X175405265Y-118161157D01*
X175615309Y-118020809D01*
X175755657Y-117810765D01*
X175804940Y-117563000D01*
X175804940Y-115863000D01*
X175755657Y-115615235D01*
X175615309Y-115405191D01*
X175405265Y-115264843D01*
X175359881Y-115255816D01*
X175378125Y-115243625D01*
X175706339Y-114752418D01*
X175821592Y-114173000D01*
X175748709Y-113806592D01*
X175966971Y-113588330D01*
X176030430Y-113545928D01*
X176198405Y-113294536D01*
X176242501Y-113072851D01*
X176242501Y-113072847D01*
X176257389Y-112998000D01*
X176242501Y-112923153D01*
X176242501Y-93427347D01*
X176257389Y-93352499D01*
X176242501Y-93277651D01*
X176242501Y-93277647D01*
X176198405Y-93055962D01*
X176030430Y-92804570D01*
X175966974Y-92762170D01*
X171856897Y-88652094D01*
X172503956Y-88654035D01*
X172508911Y-88652000D01*
X172514264Y-88652000D01*
X173140490Y-88392609D01*
X173768027Y-88134878D01*
X173776701Y-88129082D01*
X173776771Y-88129053D01*
X173776825Y-88128999D01*
X173785499Y-88123203D01*
X173792252Y-88113572D01*
X174727572Y-87178252D01*
X174737203Y-87171499D01*
X174739268Y-87166556D01*
X174743053Y-87162771D01*
X175002440Y-86536554D01*
X175263936Y-85910566D01*
X175263952Y-85905208D01*
X175266000Y-85900264D01*
X175266000Y-85222471D01*
X175268035Y-84544044D01*
X175266000Y-84539089D01*
X175266000Y-84533736D01*
X175006609Y-83907510D01*
X174748878Y-83279973D01*
X174743082Y-83271299D01*
X174743053Y-83271229D01*
X174742999Y-83271175D01*
X174737203Y-83262501D01*
X174727572Y-83255748D01*
X173792252Y-82320428D01*
X173785499Y-82310797D01*
X173780556Y-82308732D01*
X173776771Y-82304947D01*
X173150554Y-82045560D01*
X172524566Y-81784064D01*
X172519208Y-81784048D01*
X172514264Y-81782000D01*
X171836471Y-81782000D01*
X171158044Y-81779965D01*
X171153089Y-81782000D01*
X171147736Y-81782000D01*
X170521510Y-82041391D01*
X169893973Y-82299122D01*
X169885299Y-82304918D01*
X169885229Y-82304947D01*
X169885175Y-82305001D01*
X169876501Y-82310797D01*
X169869748Y-82320428D01*
X168934428Y-83255748D01*
X168924797Y-83262501D01*
X168922732Y-83267444D01*
X168918947Y-83271229D01*
X168659560Y-83897446D01*
X168398064Y-84523434D01*
X168398048Y-84528792D01*
X168396000Y-84533736D01*
X168396000Y-85211529D01*
X168393965Y-85889956D01*
X168396000Y-85894911D01*
X168396000Y-85900264D01*
X168429442Y-85981000D01*
X121719846Y-85981000D01*
X121644999Y-85966112D01*
X121570152Y-85981000D01*
X121570148Y-85981000D01*
X121348463Y-86025096D01*
X121348461Y-86025097D01*
X121348462Y-86025097D01*
X121160526Y-86150671D01*
X121160524Y-86150673D01*
X121097071Y-86193071D01*
X121054673Y-86256524D01*
X119723375Y-87587823D01*
X119557222Y-87519000D01*
X118906778Y-87519000D01*
X118305847Y-87767914D01*
X117962000Y-88111761D01*
X117618153Y-87767914D01*
X117571419Y-87748556D01*
X117566264Y-87734613D01*
X117289737Y-87631880D01*
X117017222Y-87519000D01*
X116985900Y-87519000D01*
X116956539Y-87508092D01*
X116661753Y-87519000D01*
X116366778Y-87519000D01*
X116337842Y-87530986D01*
X116306540Y-87532144D01*
X115817736Y-87734613D01*
X115812581Y-87748556D01*
X115765847Y-87767914D01*
X115422000Y-88111761D01*
X115078153Y-87767914D01*
X115031419Y-87748556D01*
X115026264Y-87734613D01*
X114749737Y-87631880D01*
X114477222Y-87519000D01*
X114445900Y-87519000D01*
X114416539Y-87508092D01*
X114121753Y-87519000D01*
X113826778Y-87519000D01*
X113797842Y-87530986D01*
X113766540Y-87532144D01*
X113277736Y-87734613D01*
X113272581Y-87748556D01*
X113225847Y-87767914D01*
X112882000Y-88111761D01*
X112538153Y-87767914D01*
X111937222Y-87519000D01*
X111286778Y-87519000D01*
X110685847Y-87767914D01*
X110624717Y-87829044D01*
X110610327Y-87794302D01*
X110565236Y-87749211D01*
X110529809Y-87696191D01*
X110476791Y-87660765D01*
X110431699Y-87615673D01*
X110372785Y-87591270D01*
X110319765Y-87555843D01*
X110257224Y-87543403D01*
X110198310Y-87519000D01*
X110134541Y-87519000D01*
X110072000Y-87506560D01*
X108072000Y-87506560D01*
X108009459Y-87519000D01*
X107945690Y-87519000D01*
X107886776Y-87543403D01*
X107824235Y-87555843D01*
X107771215Y-87591270D01*
X107712301Y-87615673D01*
X107667209Y-87660765D01*
X107614191Y-87696191D01*
X107578764Y-87749211D01*
X107533673Y-87794302D01*
X107509271Y-87853214D01*
X107473843Y-87906235D01*
X107461403Y-87968778D01*
X107437000Y-88027691D01*
X107437000Y-88091459D01*
X107424560Y-88154000D01*
X107424560Y-90154000D01*
X107437000Y-90216541D01*
X107437000Y-90280309D01*
X107461403Y-90339222D01*
X107473843Y-90401765D01*
X107509271Y-90454786D01*
X107533673Y-90513698D01*
X107578764Y-90558789D01*
X107614191Y-90611809D01*
X107667209Y-90647235D01*
X107712301Y-90692327D01*
X107771215Y-90716730D01*
X107824235Y-90752157D01*
X107886776Y-90764597D01*
X107945690Y-90789000D01*
X108009459Y-90789000D01*
X108072000Y-90801440D01*
X110072000Y-90801440D01*
X110134541Y-90789000D01*
X110198310Y-90789000D01*
X110257224Y-90764597D01*
X110319765Y-90752157D01*
X110372785Y-90716730D01*
X110431699Y-90692327D01*
X110476791Y-90647235D01*
X110529809Y-90611809D01*
X110565236Y-90558789D01*
X110610327Y-90513698D01*
X110624717Y-90478956D01*
X110685847Y-90540086D01*
X110852000Y-90608909D01*
X110852001Y-92927647D01*
X110663452Y-93053632D01*
X110523104Y-93263676D01*
X110473821Y-93511441D01*
X110473821Y-95035441D01*
X110523104Y-95283206D01*
X110638297Y-95455603D01*
X107262529Y-98831372D01*
X107199070Y-98873774D01*
X107031095Y-99125167D01*
X106986999Y-99346852D01*
X106986999Y-99346856D01*
X106972111Y-99421703D01*
X96976000Y-99421703D01*
X96976000Y-84114090D01*
X98584063Y-82506028D01*
X98428560Y-82881446D01*
X98167064Y-83507434D01*
X98167048Y-83512792D01*
X98165000Y-83517736D01*
X98165000Y-84195529D01*
X98162965Y-84873956D01*
X98165000Y-84878911D01*
X98165000Y-84884264D01*
X98424391Y-85510490D01*
X98682122Y-86138027D01*
X98687918Y-86146701D01*
X98687947Y-86146771D01*
X98688001Y-86146825D01*
X98693797Y-86155499D01*
X98703428Y-86162252D01*
X99638748Y-87097572D01*
X99645501Y-87107203D01*
X99650444Y-87109268D01*
X99654229Y-87113053D01*
X100280446Y-87372440D01*
X100906434Y-87633936D01*
X100911792Y-87633952D01*
X100916736Y-87636000D01*
X101594529Y-87636000D01*
X102272956Y-87638035D01*
X102277911Y-87636000D01*
X102283264Y-87636000D01*
X102909490Y-87376609D01*
X103537027Y-87118878D01*
X103545701Y-87113082D01*
X103545771Y-87113053D01*
X103545825Y-87112999D01*
X103554499Y-87107203D01*
X103561252Y-87097572D01*
X104496572Y-86162252D01*
X104506203Y-86155499D01*
X104508268Y-86150556D01*
X104512053Y-86146771D01*
X104771440Y-85520554D01*
X105032936Y-84894566D01*
X105032952Y-84889208D01*
X105035000Y-84884264D01*
X105035000Y-84206471D01*
X105037035Y-83528044D01*
X105035000Y-83523089D01*
X105035000Y-83517736D01*
X104775609Y-82891510D01*
X104517878Y-82263973D01*
X104512082Y-82255299D01*
X104512053Y-82255229D01*
X104511999Y-82255175D01*
X104506203Y-82246501D01*
X104496572Y-82239748D01*
X103561252Y-81304428D01*
X103554499Y-81294797D01*
X103549556Y-81292732D01*
X103545771Y-81288947D01*
X102919554Y-81029560D01*
X102293566Y-80768064D01*
X102288208Y-80768048D01*
X102283264Y-80766000D01*
X101605471Y-80766000D01*
X100927044Y-80763965D01*
X100922089Y-80766000D01*
X100916736Y-80766000D01*
X100290510Y-81025391D01*
X99907326Y-81182766D01*
X100370092Y-80720000D01*
X173060910Y-80720000D01*
X176709000Y-84368092D01*
G36*
X118305847Y-115940086D02*
X118906778Y-116189000D01*
X119557222Y-116189000D01*
X120025112Y-115995193D01*
X122517710Y-118487792D01*
X122560111Y-118551249D01*
X122811503Y-118719224D01*
X123033188Y-118763320D01*
X123033192Y-118763320D01*
X123108040Y-118778208D01*
X123182888Y-118763320D01*
X125763179Y-118763320D01*
X128249141Y-121249283D01*
X128249140Y-128739806D01*
X127386748Y-129602199D01*
X127323292Y-129644599D01*
X127280892Y-129708055D01*
X127280891Y-129708056D01*
X127213116Y-129809489D01*
X127019493Y-129889690D01*
X126850275Y-130058908D01*
X126847157Y-130043235D01*
X126706809Y-129833191D01*
X126496765Y-129692843D01*
X126249000Y-129643560D01*
X124449000Y-129643560D01*
X124201235Y-129692843D01*
X123991191Y-129833191D01*
X123945055Y-129902238D01*
X123932507Y-129889690D01*
X123368330Y-129656000D01*
X122757670Y-129656000D01*
X122193493Y-129889690D01*
X122024275Y-130058908D01*
X122021157Y-130043235D01*
X121880809Y-129833191D01*
X121670765Y-129692843D01*
X121423000Y-129643560D01*
X119623000Y-129643560D01*
X119375235Y-129692843D01*
X119165191Y-129833191D01*
X119024843Y-130043235D01*
X118975560Y-130291000D01*
X118975560Y-132091000D01*
X119024843Y-132338765D01*
X119165191Y-132548809D01*
X119375235Y-132689157D01*
X119623000Y-132738440D01*
X121423000Y-132738440D01*
X121670765Y-132689157D01*
X121880809Y-132548809D01*
X122021157Y-132338765D01*
X122024275Y-132323092D01*
X122193493Y-132492310D01*
X122404600Y-132579753D01*
X122404600Y-132778345D01*
X122389712Y-132853192D01*
X122404600Y-132928039D01*
X122404600Y-132928043D01*
X122448696Y-133149728D01*
X122616671Y-133401121D01*
X122680130Y-133443523D01*
X127238730Y-138002124D01*
X127281130Y-138065580D01*
X127532522Y-138233555D01*
X127564189Y-138239854D01*
X127311623Y-138408613D01*
X126994460Y-138883281D01*
X126883087Y-139443190D01*
X126955690Y-139808191D01*
X122166003Y-139808191D01*
X122139304Y-139781492D01*
X122161200Y-139728629D01*
X122161200Y-139157751D01*
X121942734Y-138630328D01*
X121539062Y-138226656D01*
X121486200Y-138204760D01*
X121486200Y-137640549D01*
X121561922Y-137609184D01*
X121965594Y-137205512D01*
X122184060Y-136678089D01*
X122184060Y-136107211D01*
X121965594Y-135579788D01*
X121561922Y-135176116D01*
X121034499Y-134957650D01*
X120463621Y-134957650D01*
X120410758Y-134979546D01*
X117895421Y-132464210D01*
X117853019Y-132400751D01*
X117601627Y-132232776D01*
X117379942Y-132188680D01*
X117379937Y-132188680D01*
X117305090Y-132173792D01*
X117230243Y-132188680D01*
X116888069Y-132188680D01*
X116819246Y-132022527D01*
X116359313Y-131562594D01*
X116193160Y-131493771D01*
X116193160Y-118023288D01*
X116208048Y-117948440D01*
X116193160Y-117873592D01*
X116193160Y-117873588D01*
X116149064Y-117651903D01*
X115981089Y-117400511D01*
X115917633Y-117358111D01*
X114669060Y-116109538D01*
X115078153Y-115940086D01*
X115422000Y-115596239D01*
X115765847Y-115940086D01*
X115812581Y-115959444D01*
X115817736Y-115973387D01*
X116094263Y-116076120D01*
X116366778Y-116189000D01*
X116398100Y-116189000D01*
X116427461Y-116199908D01*
X116722247Y-116189000D01*
X117017222Y-116189000D01*
X117046158Y-116177014D01*
X117077460Y-116175856D01*
X117566264Y-115973387D01*
X117571419Y-115959444D01*
X117618153Y-115940086D01*
X117962000Y-115596239D01*
X118305847Y-115940086D01*
X118305847Y-115940086D01*
G37*
X118305847Y-115940086D02*
X118906778Y-116189000D01*
X119557222Y-116189000D01*
X120025112Y-115995193D01*
X122517710Y-118487792D01*
X122560111Y-118551249D01*
X122811503Y-118719224D01*
X123033188Y-118763320D01*
X123033192Y-118763320D01*
X123108040Y-118778208D01*
X123182888Y-118763320D01*
X125763179Y-118763320D01*
X128249141Y-121249283D01*
X128249140Y-128739806D01*
X127386748Y-129602199D01*
X127323292Y-129644599D01*
X127280892Y-129708055D01*
X127280891Y-129708056D01*
X127213116Y-129809489D01*
X127019493Y-129889690D01*
X126850275Y-130058908D01*
X126847157Y-130043235D01*
X126706809Y-129833191D01*
X126496765Y-129692843D01*
X126249000Y-129643560D01*
X124449000Y-129643560D01*
X124201235Y-129692843D01*
X123991191Y-129833191D01*
X123945055Y-129902238D01*
X123932507Y-129889690D01*
X123368330Y-129656000D01*
X122757670Y-129656000D01*
X122193493Y-129889690D01*
X122024275Y-130058908D01*
X122021157Y-130043235D01*
X121880809Y-129833191D01*
X121670765Y-129692843D01*
X121423000Y-129643560D01*
X119623000Y-129643560D01*
X119375235Y-129692843D01*
X119165191Y-129833191D01*
X119024843Y-130043235D01*
X118975560Y-130291000D01*
X118975560Y-132091000D01*
X119024843Y-132338765D01*
X119165191Y-132548809D01*
X119375235Y-132689157D01*
X119623000Y-132738440D01*
X121423000Y-132738440D01*
X121670765Y-132689157D01*
X121880809Y-132548809D01*
X122021157Y-132338765D01*
X122024275Y-132323092D01*
X122193493Y-132492310D01*
X122404600Y-132579753D01*
X122404600Y-132778345D01*
X122389712Y-132853192D01*
X122404600Y-132928039D01*
X122404600Y-132928043D01*
X122448696Y-133149728D01*
X122616671Y-133401121D01*
X122680130Y-133443523D01*
X127238730Y-138002124D01*
X127281130Y-138065580D01*
X127532522Y-138233555D01*
X127564189Y-138239854D01*
X127311623Y-138408613D01*
X126994460Y-138883281D01*
X126883087Y-139443190D01*
X126955690Y-139808191D01*
X122166003Y-139808191D01*
X122139304Y-139781492D01*
X122161200Y-139728629D01*
X122161200Y-139157751D01*
X121942734Y-138630328D01*
X121539062Y-138226656D01*
X121486200Y-138204760D01*
X121486200Y-137640549D01*
X121561922Y-137609184D01*
X121965594Y-137205512D01*
X122184060Y-136678089D01*
X122184060Y-136107211D01*
X121965594Y-135579788D01*
X121561922Y-135176116D01*
X121034499Y-134957650D01*
X120463621Y-134957650D01*
X120410758Y-134979546D01*
X117895421Y-132464210D01*
X117853019Y-132400751D01*
X117601627Y-132232776D01*
X117379942Y-132188680D01*
X117379937Y-132188680D01*
X117305090Y-132173792D01*
X117230243Y-132188680D01*
X116888069Y-132188680D01*
X116819246Y-132022527D01*
X116359313Y-131562594D01*
X116193160Y-131493771D01*
X116193160Y-118023288D01*
X116208048Y-117948440D01*
X116193160Y-117873592D01*
X116193160Y-117873588D01*
X116149064Y-117651903D01*
X115981089Y-117400511D01*
X115917633Y-117358111D01*
X114669060Y-116109538D01*
X115078153Y-115940086D01*
X115422000Y-115596239D01*
X115765847Y-115940086D01*
X115812581Y-115959444D01*
X115817736Y-115973387D01*
X116094263Y-116076120D01*
X116366778Y-116189000D01*
X116398100Y-116189000D01*
X116427461Y-116199908D01*
X116722247Y-116189000D01*
X117017222Y-116189000D01*
X117046158Y-116177014D01*
X117077460Y-116175856D01*
X117566264Y-115973387D01*
X117571419Y-115959444D01*
X117618153Y-115940086D01*
X117962000Y-115596239D01*
X118305847Y-115940086D01*
G36*
X123991191Y-132548809D02*
X124201235Y-132689157D01*
X124449000Y-132738440D01*
X125529539Y-132738440D01*
X127609061Y-134817963D01*
X127609061Y-135174606D01*
X127334483Y-135358073D01*
X127098082Y-135711872D01*
X123924600Y-132538391D01*
X123924600Y-132495585D01*
X123932507Y-132492310D01*
X123945055Y-132479762D01*
X123991191Y-132548809D01*
X123991191Y-132548809D01*
G37*
X123991191Y-132548809D02*
X124201235Y-132689157D01*
X124449000Y-132738440D01*
X125529539Y-132738440D01*
X127609061Y-134817963D01*
X127609061Y-135174606D01*
X127334483Y-135358073D01*
X127098082Y-135711872D01*
X123924600Y-132538391D01*
X123924600Y-132495585D01*
X123932507Y-132492310D01*
X123945055Y-132479762D01*
X123991191Y-132548809D01*
G36*
X128734062Y-133793360D02*
X127666702Y-132726000D01*
X128194330Y-132726000D01*
X128734062Y-132502436D01*
X128734062Y-133793360D01*
X128734062Y-133793360D01*
G37*
X128734062Y-133793360D02*
X127666702Y-132726000D01*
X128194330Y-132726000D01*
X128734062Y-132502436D01*
X128734062Y-133793360D01*
G36*
X123385847Y-115940086D02*
X123824450Y-116121762D01*
X123837899Y-116141888D01*
X123880912Y-116206262D01*
X123944368Y-116248662D01*
X124939026Y-117243320D01*
X123422842Y-117243320D01*
X122297409Y-116117887D01*
X122646264Y-115973387D01*
X122651419Y-115959444D01*
X122698153Y-115940086D01*
X123042000Y-115596239D01*
X123385847Y-115940086D01*
X123385847Y-115940086D01*
G37*
X123385847Y-115940086D02*
X123824450Y-116121762D01*
X123837899Y-116141888D01*
X123880912Y-116206262D01*
X123944368Y-116248662D01*
X124939026Y-117243320D01*
X123422842Y-117243320D01*
X122297409Y-116117887D01*
X122646264Y-115973387D01*
X122651419Y-115959444D01*
X122698153Y-115940086D01*
X123042000Y-115596239D01*
X123385847Y-115940086D01*
G36*
X132286876Y-112931283D02*
X132257222Y-112919000D01*
X131606778Y-112919000D01*
X131005847Y-113167914D01*
X130662000Y-113511761D01*
X130318153Y-113167914D01*
X129717222Y-112919000D01*
X129066778Y-112919000D01*
X128465847Y-113167914D01*
X128122000Y-113511761D01*
X127778153Y-113167914D01*
X127177222Y-112919000D01*
X126526778Y-112919000D01*
X125925847Y-113167914D01*
X125582000Y-113511761D01*
X125238153Y-113167914D01*
X124637222Y-112919000D01*
X123986778Y-112919000D01*
X123385847Y-113167914D01*
X123042000Y-113511761D01*
X122698153Y-113167914D01*
X122651419Y-113148556D01*
X122646264Y-113134613D01*
X122369737Y-113031880D01*
X122097222Y-112919000D01*
X122065900Y-112919000D01*
X122036539Y-112908092D01*
X121741753Y-112919000D01*
X121446778Y-112919000D01*
X121417842Y-112930986D01*
X121386540Y-112932144D01*
X120897736Y-113134613D01*
X120892581Y-113148556D01*
X120845847Y-113167914D01*
X120502000Y-113511761D01*
X120158153Y-113167914D01*
X119557222Y-112919000D01*
X118906778Y-112919000D01*
X118305847Y-113167914D01*
X117962000Y-113511761D01*
X117618153Y-113167914D01*
X117571419Y-113148556D01*
X117566264Y-113134613D01*
X117289737Y-113031880D01*
X117017222Y-112919000D01*
X116985900Y-112919000D01*
X116956539Y-112908092D01*
X116661753Y-112919000D01*
X116366778Y-112919000D01*
X116337842Y-112930986D01*
X116306540Y-112932144D01*
X115817736Y-113134613D01*
X115812581Y-113148556D01*
X115765847Y-113167914D01*
X115422000Y-113511761D01*
X115078153Y-113167914D01*
X114477222Y-112919000D01*
X113826778Y-112919000D01*
X113225847Y-113167914D01*
X112882000Y-113511761D01*
X112538153Y-113167914D01*
X111937222Y-112919000D01*
X111588761Y-112919000D01*
X119910022Y-104597740D01*
X140620418Y-104597740D01*
X132286876Y-112931283D01*
X132286876Y-112931283D01*
G37*
X132286876Y-112931283D02*
X132257222Y-112919000D01*
X131606778Y-112919000D01*
X131005847Y-113167914D01*
X130662000Y-113511761D01*
X130318153Y-113167914D01*
X129717222Y-112919000D01*
X129066778Y-112919000D01*
X128465847Y-113167914D01*
X128122000Y-113511761D01*
X127778153Y-113167914D01*
X127177222Y-112919000D01*
X126526778Y-112919000D01*
X125925847Y-113167914D01*
X125582000Y-113511761D01*
X125238153Y-113167914D01*
X124637222Y-112919000D01*
X123986778Y-112919000D01*
X123385847Y-113167914D01*
X123042000Y-113511761D01*
X122698153Y-113167914D01*
X122651419Y-113148556D01*
X122646264Y-113134613D01*
X122369737Y-113031880D01*
X122097222Y-112919000D01*
X122065900Y-112919000D01*
X122036539Y-112908092D01*
X121741753Y-112919000D01*
X121446778Y-112919000D01*
X121417842Y-112930986D01*
X121386540Y-112932144D01*
X120897736Y-113134613D01*
X120892581Y-113148556D01*
X120845847Y-113167914D01*
X120502000Y-113511761D01*
X120158153Y-113167914D01*
X119557222Y-112919000D01*
X118906778Y-112919000D01*
X118305847Y-113167914D01*
X117962000Y-113511761D01*
X117618153Y-113167914D01*
X117571419Y-113148556D01*
X117566264Y-113134613D01*
X117289737Y-113031880D01*
X117017222Y-112919000D01*
X116985900Y-112919000D01*
X116956539Y-112908092D01*
X116661753Y-112919000D01*
X116366778Y-112919000D01*
X116337842Y-112930986D01*
X116306540Y-112932144D01*
X115817736Y-113134613D01*
X115812581Y-113148556D01*
X115765847Y-113167914D01*
X115422000Y-113511761D01*
X115078153Y-113167914D01*
X114477222Y-112919000D01*
X113826778Y-112919000D01*
X113225847Y-113167914D01*
X112882000Y-113511761D01*
X112538153Y-113167914D01*
X111937222Y-112919000D01*
X111588761Y-112919000D01*
X119910022Y-104597740D01*
X140620418Y-104597740D01*
X132286876Y-112931283D01*
G36*
X113631924Y-95457761D02*
X114145380Y-95670441D01*
X114701142Y-95670441D01*
X114732480Y-95657461D01*
X114750262Y-95675243D01*
X114750263Y-99677930D01*
X114735374Y-99752782D01*
X114794359Y-100049319D01*
X114853351Y-100137606D01*
X114962334Y-100300711D01*
X115025790Y-100343111D01*
X118520418Y-103837740D01*
X109426876Y-112931283D01*
X109397222Y-112919000D01*
X108746778Y-112919000D01*
X108506999Y-113018320D01*
X108506999Y-99736504D01*
X112367734Y-95875770D01*
X112431190Y-95833370D01*
X112531744Y-95682881D01*
X112645261Y-95682881D01*
X112893026Y-95633598D01*
X113103070Y-95493250D01*
X113243418Y-95283206D01*
X113278914Y-95104751D01*
X113631924Y-95457761D01*
X113631924Y-95457761D01*
G37*
X113631924Y-95457761D02*
X114145380Y-95670441D01*
X114701142Y-95670441D01*
X114732480Y-95657461D01*
X114750262Y-95675243D01*
X114750263Y-99677930D01*
X114735374Y-99752782D01*
X114794359Y-100049319D01*
X114853351Y-100137606D01*
X114962334Y-100300711D01*
X115025790Y-100343111D01*
X118520418Y-103837740D01*
X109426876Y-112931283D01*
X109397222Y-112919000D01*
X108746778Y-112919000D01*
X108506999Y-113018320D01*
X108506999Y-99736504D01*
X112367734Y-95875770D01*
X112431190Y-95833370D01*
X112531744Y-95682881D01*
X112645261Y-95682881D01*
X112893026Y-95633598D01*
X113103070Y-95493250D01*
X113243418Y-95283206D01*
X113278914Y-95104751D01*
X113631924Y-95457761D01*
G36*
X173508034Y-92452834D02*
X173109875Y-92718875D01*
X172781661Y-93210082D01*
X172666408Y-93789500D01*
X172781661Y-94368918D01*
X173109875Y-94860125D01*
X173128119Y-94872316D01*
X173082735Y-94881343D01*
X172872691Y-95021691D01*
X172732343Y-95231735D01*
X172683060Y-95479500D01*
X172683060Y-97179500D01*
X172732343Y-97427265D01*
X172872691Y-97637309D01*
X173082735Y-97777657D01*
X173330500Y-97826940D01*
X174722501Y-97826940D01*
X174722501Y-100816088D01*
X174390256Y-100750000D01*
X174097744Y-100750000D01*
X173664582Y-100836161D01*
X173173375Y-101164375D01*
X172845161Y-101655582D01*
X172729908Y-102235000D01*
X172802791Y-102601408D01*
X172326459Y-103077740D01*
X119910022Y-103077740D01*
X116270262Y-99437981D01*
X116270262Y-96518000D01*
X148959653Y-96518000D01*
X149034500Y-96532888D01*
X149109347Y-96518000D01*
X149109352Y-96518000D01*
X149331037Y-96473904D01*
X149582429Y-96305929D01*
X149624831Y-96242470D01*
X150185782Y-95681520D01*
X150217119Y-95694500D01*
X150772881Y-95694500D01*
X151286337Y-95481820D01*
X151679320Y-95088837D01*
X151765000Y-94881987D01*
X151850680Y-95088837D01*
X152243663Y-95481820D01*
X152757119Y-95694500D01*
X153312881Y-95694500D01*
X153826337Y-95481820D01*
X154219320Y-95088837D01*
X154305000Y-94881987D01*
X154390680Y-95088837D01*
X154783663Y-95481820D01*
X155297119Y-95694500D01*
X155852881Y-95694500D01*
X156366337Y-95481820D01*
X156759320Y-95088837D01*
X156972000Y-94575381D01*
X156972000Y-94019619D01*
X156759320Y-93506163D01*
X156366337Y-93113180D01*
X155852881Y-92900500D01*
X155297119Y-92900500D01*
X155256067Y-92917504D01*
X155109538Y-92819597D01*
X154887853Y-92775501D01*
X154887848Y-92775501D01*
X154813001Y-92760613D01*
X154738154Y-92775501D01*
X154196565Y-92775501D01*
X148922063Y-87501000D01*
X168556201Y-87501000D01*
X173508034Y-92452834D01*
X173508034Y-92452834D01*
G37*
X173508034Y-92452834D02*
X173109875Y-92718875D01*
X172781661Y-93210082D01*
X172666408Y-93789500D01*
X172781661Y-94368918D01*
X173109875Y-94860125D01*
X173128119Y-94872316D01*
X173082735Y-94881343D01*
X172872691Y-95021691D01*
X172732343Y-95231735D01*
X172683060Y-95479500D01*
X172683060Y-97179500D01*
X172732343Y-97427265D01*
X172872691Y-97637309D01*
X173082735Y-97777657D01*
X173330500Y-97826940D01*
X174722501Y-97826940D01*
X174722501Y-100816088D01*
X174390256Y-100750000D01*
X174097744Y-100750000D01*
X173664582Y-100836161D01*
X173173375Y-101164375D01*
X172845161Y-101655582D01*
X172729908Y-102235000D01*
X172802791Y-102601408D01*
X172326459Y-103077740D01*
X119910022Y-103077740D01*
X116270262Y-99437981D01*
X116270262Y-96518000D01*
X148959653Y-96518000D01*
X149034500Y-96532888D01*
X149109347Y-96518000D01*
X149109352Y-96518000D01*
X149331037Y-96473904D01*
X149582429Y-96305929D01*
X149624831Y-96242470D01*
X150185782Y-95681520D01*
X150217119Y-95694500D01*
X150772881Y-95694500D01*
X151286337Y-95481820D01*
X151679320Y-95088837D01*
X151765000Y-94881987D01*
X151850680Y-95088837D01*
X152243663Y-95481820D01*
X152757119Y-95694500D01*
X153312881Y-95694500D01*
X153826337Y-95481820D01*
X154219320Y-95088837D01*
X154305000Y-94881987D01*
X154390680Y-95088837D01*
X154783663Y-95481820D01*
X155297119Y-95694500D01*
X155852881Y-95694500D01*
X156366337Y-95481820D01*
X156759320Y-95088837D01*
X156972000Y-94575381D01*
X156972000Y-94019619D01*
X156759320Y-93506163D01*
X156366337Y-93113180D01*
X155852881Y-92900500D01*
X155297119Y-92900500D01*
X155256067Y-92917504D01*
X155109538Y-92819597D01*
X154887853Y-92775501D01*
X154887848Y-92775501D01*
X154813001Y-92760613D01*
X154738154Y-92775501D01*
X154196565Y-92775501D01*
X148922063Y-87501000D01*
X168556201Y-87501000D01*
X173508034Y-92452834D01*
G36*
X118291281Y-94998000D02*
X118175241Y-94998000D01*
X118233261Y-94857928D01*
X118291281Y-94998000D01*
X118291281Y-94998000D01*
G37*
X118291281Y-94998000D02*
X118175241Y-94998000D01*
X118233261Y-94857928D01*
X118291281Y-94998000D01*
G36*
X120816491Y-94998000D02*
X120715241Y-94998000D01*
X120737190Y-94945012D01*
X120816491Y-94998000D01*
X120816491Y-94998000D01*
G37*
X120816491Y-94998000D02*
X120715241Y-94998000D01*
X120737190Y-94945012D01*
X120816491Y-94998000D01*
G36*
X141165847Y-90540086D02*
X141766778Y-90789000D01*
X142417222Y-90789000D01*
X142942586Y-90571387D01*
X144610630Y-92239432D01*
X144653031Y-92302889D01*
X144904423Y-92470864D01*
X145126108Y-92514960D01*
X145126113Y-92514960D01*
X145200960Y-92529848D01*
X145275807Y-92514960D01*
X150177659Y-92514960D01*
X150563199Y-92900500D01*
X150217119Y-92900500D01*
X149703663Y-93113180D01*
X149350653Y-93466190D01*
X149315157Y-93287735D01*
X149174809Y-93077691D01*
X148964765Y-92937343D01*
X148717000Y-92888060D01*
X147193000Y-92888060D01*
X146945235Y-92937343D01*
X146735191Y-93077691D01*
X146594843Y-93287735D01*
X146545560Y-93535500D01*
X146545560Y-93537500D01*
X121450884Y-93537500D01*
X120615353Y-92701970D01*
X120572951Y-92638511D01*
X120321559Y-92470536D01*
X120099874Y-92426440D01*
X120099869Y-92426440D01*
X120025022Y-92411552D01*
X119950175Y-92426440D01*
X112372000Y-92426440D01*
X112372000Y-90608909D01*
X112538153Y-90540086D01*
X112882000Y-90196239D01*
X113225847Y-90540086D01*
X113272581Y-90559444D01*
X113277736Y-90573387D01*
X113554263Y-90676120D01*
X113826778Y-90789000D01*
X113858100Y-90789000D01*
X113887461Y-90799908D01*
X114182247Y-90789000D01*
X114477222Y-90789000D01*
X114506158Y-90777014D01*
X114537460Y-90775856D01*
X115026264Y-90573387D01*
X115031419Y-90559444D01*
X115078153Y-90540086D01*
X115422000Y-90196239D01*
X115765847Y-90540086D01*
X115812581Y-90559444D01*
X115817736Y-90573387D01*
X116094263Y-90676120D01*
X116366778Y-90789000D01*
X116398100Y-90789000D01*
X116427461Y-90799908D01*
X116722247Y-90789000D01*
X117017222Y-90789000D01*
X117046158Y-90777014D01*
X117077460Y-90775856D01*
X117566264Y-90573387D01*
X117571419Y-90559444D01*
X117618153Y-90540086D01*
X117962000Y-90196239D01*
X118305847Y-90540086D01*
X118906778Y-90789000D01*
X119557222Y-90789000D01*
X120158153Y-90540086D01*
X120502000Y-90196239D01*
X120845847Y-90540086D01*
X121446778Y-90789000D01*
X122097222Y-90789000D01*
X122698153Y-90540086D01*
X123042000Y-90196239D01*
X123385847Y-90540086D01*
X123432581Y-90559444D01*
X123437736Y-90573387D01*
X123714263Y-90676120D01*
X123986778Y-90789000D01*
X124018100Y-90789000D01*
X124047461Y-90799908D01*
X124342247Y-90789000D01*
X124637222Y-90789000D01*
X124666158Y-90777014D01*
X124697460Y-90775856D01*
X125186264Y-90573387D01*
X125191419Y-90559444D01*
X125238153Y-90540086D01*
X125582000Y-90196239D01*
X125925847Y-90540086D01*
X125972581Y-90559444D01*
X125977736Y-90573387D01*
X126254263Y-90676120D01*
X126526778Y-90789000D01*
X126558100Y-90789000D01*
X126587461Y-90799908D01*
X126882247Y-90789000D01*
X127177222Y-90789000D01*
X127206158Y-90777014D01*
X127237460Y-90775856D01*
X127726264Y-90573387D01*
X127731419Y-90559444D01*
X127778153Y-90540086D01*
X128122000Y-90196239D01*
X128465847Y-90540086D01*
X128512581Y-90559444D01*
X128517736Y-90573387D01*
X128794263Y-90676120D01*
X129066778Y-90789000D01*
X129098100Y-90789000D01*
X129127461Y-90799908D01*
X129422247Y-90789000D01*
X129717222Y-90789000D01*
X129746158Y-90777014D01*
X129777460Y-90775856D01*
X130266264Y-90573387D01*
X130271419Y-90559444D01*
X130318153Y-90540086D01*
X130662000Y-90196239D01*
X131005847Y-90540086D01*
X131052581Y-90559444D01*
X131057736Y-90573387D01*
X131334263Y-90676120D01*
X131606778Y-90789000D01*
X131638100Y-90789000D01*
X131667461Y-90799908D01*
X131962247Y-90789000D01*
X132257222Y-90789000D01*
X132286158Y-90777014D01*
X132317460Y-90775856D01*
X132806264Y-90573387D01*
X132811419Y-90559444D01*
X132858153Y-90540086D01*
X133202000Y-90196239D01*
X133545847Y-90540086D01*
X134146778Y-90789000D01*
X134797222Y-90789000D01*
X135398153Y-90540086D01*
X135742000Y-90196239D01*
X136085847Y-90540086D01*
X136132581Y-90559444D01*
X136137736Y-90573387D01*
X136414263Y-90676120D01*
X136686778Y-90789000D01*
X136718100Y-90789000D01*
X136747461Y-90799908D01*
X137042247Y-90789000D01*
X137337222Y-90789000D01*
X137366158Y-90777014D01*
X137397460Y-90775856D01*
X137886264Y-90573387D01*
X137891419Y-90559444D01*
X137938153Y-90540086D01*
X138282000Y-90196239D01*
X138625847Y-90540086D01*
X138672581Y-90559444D01*
X138677736Y-90573387D01*
X138954263Y-90676120D01*
X139226778Y-90789000D01*
X139258100Y-90789000D01*
X139287461Y-90799908D01*
X139582247Y-90789000D01*
X139877222Y-90789000D01*
X139906158Y-90777014D01*
X139937460Y-90775856D01*
X140426264Y-90573387D01*
X140431419Y-90559444D01*
X140478153Y-90540086D01*
X140822000Y-90196239D01*
X141165847Y-90540086D01*
X141165847Y-90540086D01*
G37*
X141165847Y-90540086D02*
X141766778Y-90789000D01*
X142417222Y-90789000D01*
X142942586Y-90571387D01*
X144610630Y-92239432D01*
X144653031Y-92302889D01*
X144904423Y-92470864D01*
X145126108Y-92514960D01*
X145126113Y-92514960D01*
X145200960Y-92529848D01*
X145275807Y-92514960D01*
X150177659Y-92514960D01*
X150563199Y-92900500D01*
X150217119Y-92900500D01*
X149703663Y-93113180D01*
X149350653Y-93466190D01*
X149315157Y-93287735D01*
X149174809Y-93077691D01*
X148964765Y-92937343D01*
X148717000Y-92888060D01*
X147193000Y-92888060D01*
X146945235Y-92937343D01*
X146735191Y-93077691D01*
X146594843Y-93287735D01*
X146545560Y-93535500D01*
X146545560Y-93537500D01*
X121450884Y-93537500D01*
X120615353Y-92701970D01*
X120572951Y-92638511D01*
X120321559Y-92470536D01*
X120099874Y-92426440D01*
X120099869Y-92426440D01*
X120025022Y-92411552D01*
X119950175Y-92426440D01*
X112372000Y-92426440D01*
X112372000Y-90608909D01*
X112538153Y-90540086D01*
X112882000Y-90196239D01*
X113225847Y-90540086D01*
X113272581Y-90559444D01*
X113277736Y-90573387D01*
X113554263Y-90676120D01*
X113826778Y-90789000D01*
X113858100Y-90789000D01*
X113887461Y-90799908D01*
X114182247Y-90789000D01*
X114477222Y-90789000D01*
X114506158Y-90777014D01*
X114537460Y-90775856D01*
X115026264Y-90573387D01*
X115031419Y-90559444D01*
X115078153Y-90540086D01*
X115422000Y-90196239D01*
X115765847Y-90540086D01*
X115812581Y-90559444D01*
X115817736Y-90573387D01*
X116094263Y-90676120D01*
X116366778Y-90789000D01*
X116398100Y-90789000D01*
X116427461Y-90799908D01*
X116722247Y-90789000D01*
X117017222Y-90789000D01*
X117046158Y-90777014D01*
X117077460Y-90775856D01*
X117566264Y-90573387D01*
X117571419Y-90559444D01*
X117618153Y-90540086D01*
X117962000Y-90196239D01*
X118305847Y-90540086D01*
X118906778Y-90789000D01*
X119557222Y-90789000D01*
X120158153Y-90540086D01*
X120502000Y-90196239D01*
X120845847Y-90540086D01*
X121446778Y-90789000D01*
X122097222Y-90789000D01*
X122698153Y-90540086D01*
X123042000Y-90196239D01*
X123385847Y-90540086D01*
X123432581Y-90559444D01*
X123437736Y-90573387D01*
X123714263Y-90676120D01*
X123986778Y-90789000D01*
X124018100Y-90789000D01*
X124047461Y-90799908D01*
X124342247Y-90789000D01*
X124637222Y-90789000D01*
X124666158Y-90777014D01*
X124697460Y-90775856D01*
X125186264Y-90573387D01*
X125191419Y-90559444D01*
X125238153Y-90540086D01*
X125582000Y-90196239D01*
X125925847Y-90540086D01*
X125972581Y-90559444D01*
X125977736Y-90573387D01*
X126254263Y-90676120D01*
X126526778Y-90789000D01*
X126558100Y-90789000D01*
X126587461Y-90799908D01*
X126882247Y-90789000D01*
X127177222Y-90789000D01*
X127206158Y-90777014D01*
X127237460Y-90775856D01*
X127726264Y-90573387D01*
X127731419Y-90559444D01*
X127778153Y-90540086D01*
X128122000Y-90196239D01*
X128465847Y-90540086D01*
X128512581Y-90559444D01*
X128517736Y-90573387D01*
X128794263Y-90676120D01*
X129066778Y-90789000D01*
X129098100Y-90789000D01*
X129127461Y-90799908D01*
X129422247Y-90789000D01*
X129717222Y-90789000D01*
X129746158Y-90777014D01*
X129777460Y-90775856D01*
X130266264Y-90573387D01*
X130271419Y-90559444D01*
X130318153Y-90540086D01*
X130662000Y-90196239D01*
X131005847Y-90540086D01*
X131052581Y-90559444D01*
X131057736Y-90573387D01*
X131334263Y-90676120D01*
X131606778Y-90789000D01*
X131638100Y-90789000D01*
X131667461Y-90799908D01*
X131962247Y-90789000D01*
X132257222Y-90789000D01*
X132286158Y-90777014D01*
X132317460Y-90775856D01*
X132806264Y-90573387D01*
X132811419Y-90559444D01*
X132858153Y-90540086D01*
X133202000Y-90196239D01*
X133545847Y-90540086D01*
X134146778Y-90789000D01*
X134797222Y-90789000D01*
X135398153Y-90540086D01*
X135742000Y-90196239D01*
X136085847Y-90540086D01*
X136132581Y-90559444D01*
X136137736Y-90573387D01*
X136414263Y-90676120D01*
X136686778Y-90789000D01*
X136718100Y-90789000D01*
X136747461Y-90799908D01*
X137042247Y-90789000D01*
X137337222Y-90789000D01*
X137366158Y-90777014D01*
X137397460Y-90775856D01*
X137886264Y-90573387D01*
X137891419Y-90559444D01*
X137938153Y-90540086D01*
X138282000Y-90196239D01*
X138625847Y-90540086D01*
X138672581Y-90559444D01*
X138677736Y-90573387D01*
X138954263Y-90676120D01*
X139226778Y-90789000D01*
X139258100Y-90789000D01*
X139287461Y-90799908D01*
X139582247Y-90789000D01*
X139877222Y-90789000D01*
X139906158Y-90777014D01*
X139937460Y-90775856D01*
X140426264Y-90573387D01*
X140431419Y-90559444D01*
X140478153Y-90540086D01*
X140822000Y-90196239D01*
X141165847Y-90540086D01*
G36*
X150266420Y-90994960D02*
X145515762Y-90994960D01*
X145214883Y-90694081D01*
X145506264Y-90573387D01*
X145511419Y-90559444D01*
X145558153Y-90540086D01*
X146018086Y-90080153D01*
X146037444Y-90033419D01*
X146051387Y-90028264D01*
X146154120Y-89751737D01*
X146267000Y-89479222D01*
X146267000Y-89447900D01*
X146277908Y-89418539D01*
X146267000Y-89123753D01*
X146267000Y-88828778D01*
X146255014Y-88799842D01*
X146253856Y-88768540D01*
X146051387Y-88279736D01*
X146037444Y-88274581D01*
X146018086Y-88227847D01*
X145799239Y-88009000D01*
X147280461Y-88009000D01*
X150266420Y-90994960D01*
X150266420Y-90994960D01*
G37*
X150266420Y-90994960D02*
X145515762Y-90994960D01*
X145214883Y-90694081D01*
X145506264Y-90573387D01*
X145511419Y-90559444D01*
X145558153Y-90540086D01*
X146018086Y-90080153D01*
X146037444Y-90033419D01*
X146051387Y-90028264D01*
X146154120Y-89751737D01*
X146267000Y-89479222D01*
X146267000Y-89447900D01*
X146277908Y-89418539D01*
X146267000Y-89123753D01*
X146267000Y-88828778D01*
X146255014Y-88799842D01*
X146253856Y-88768540D01*
X146051387Y-88279736D01*
X146037444Y-88274581D01*
X146018086Y-88227847D01*
X145799239Y-88009000D01*
X147280461Y-88009000D01*
X150266420Y-90994960D01*
G36*
X134963375Y-87587823D02*
X134797222Y-87519000D01*
X134146778Y-87519000D01*
X133545847Y-87767914D01*
X133202000Y-88111761D01*
X132858153Y-87767914D01*
X132811419Y-87748556D01*
X132806264Y-87734613D01*
X132529737Y-87631880D01*
X132257222Y-87519000D01*
X132225900Y-87519000D01*
X132196539Y-87508092D01*
X131901753Y-87519000D01*
X131606778Y-87519000D01*
X131577842Y-87530986D01*
X131546540Y-87532144D01*
X131057736Y-87734613D01*
X131052581Y-87748556D01*
X131005847Y-87767914D01*
X130662000Y-88111761D01*
X130318153Y-87767914D01*
X130271419Y-87748556D01*
X130266264Y-87734613D01*
X129989737Y-87631880D01*
X129717222Y-87519000D01*
X129685900Y-87519000D01*
X129656539Y-87508092D01*
X129361753Y-87519000D01*
X129066778Y-87519000D01*
X129037842Y-87530986D01*
X129006540Y-87532144D01*
X128517736Y-87734613D01*
X128512581Y-87748556D01*
X128465847Y-87767914D01*
X128122000Y-88111761D01*
X127778153Y-87767914D01*
X127731419Y-87748556D01*
X127726264Y-87734613D01*
X127449737Y-87631880D01*
X127177222Y-87519000D01*
X127145900Y-87519000D01*
X127116539Y-87508092D01*
X126821753Y-87519000D01*
X126526778Y-87519000D01*
X126497842Y-87530986D01*
X126466540Y-87532144D01*
X125977736Y-87734613D01*
X125972581Y-87748556D01*
X125925847Y-87767914D01*
X125582000Y-88111761D01*
X125238153Y-87767914D01*
X125191419Y-87748556D01*
X125186264Y-87734613D01*
X124909737Y-87631880D01*
X124637222Y-87519000D01*
X124605900Y-87519000D01*
X124576539Y-87508092D01*
X124281753Y-87519000D01*
X123986778Y-87519000D01*
X123957842Y-87530986D01*
X123926540Y-87532144D01*
X123437736Y-87734613D01*
X123432581Y-87748556D01*
X123385847Y-87767914D01*
X123042000Y-88111761D01*
X122698153Y-87767914D01*
X122097222Y-87519000D01*
X121941803Y-87519000D01*
X121959803Y-87501000D01*
X135050198Y-87501000D01*
X134963375Y-87587823D01*
X134963375Y-87587823D01*
G37*
X134963375Y-87587823D02*
X134797222Y-87519000D01*
X134146778Y-87519000D01*
X133545847Y-87767914D01*
X133202000Y-88111761D01*
X132858153Y-87767914D01*
X132811419Y-87748556D01*
X132806264Y-87734613D01*
X132529737Y-87631880D01*
X132257222Y-87519000D01*
X132225900Y-87519000D01*
X132196539Y-87508092D01*
X131901753Y-87519000D01*
X131606778Y-87519000D01*
X131577842Y-87530986D01*
X131546540Y-87532144D01*
X131057736Y-87734613D01*
X131052581Y-87748556D01*
X131005847Y-87767914D01*
X130662000Y-88111761D01*
X130318153Y-87767914D01*
X130271419Y-87748556D01*
X130266264Y-87734613D01*
X129989737Y-87631880D01*
X129717222Y-87519000D01*
X129685900Y-87519000D01*
X129656539Y-87508092D01*
X129361753Y-87519000D01*
X129066778Y-87519000D01*
X129037842Y-87530986D01*
X129006540Y-87532144D01*
X128517736Y-87734613D01*
X128512581Y-87748556D01*
X128465847Y-87767914D01*
X128122000Y-88111761D01*
X127778153Y-87767914D01*
X127731419Y-87748556D01*
X127726264Y-87734613D01*
X127449737Y-87631880D01*
X127177222Y-87519000D01*
X127145900Y-87519000D01*
X127116539Y-87508092D01*
X126821753Y-87519000D01*
X126526778Y-87519000D01*
X126497842Y-87530986D01*
X126466540Y-87532144D01*
X125977736Y-87734613D01*
X125972581Y-87748556D01*
X125925847Y-87767914D01*
X125582000Y-88111761D01*
X125238153Y-87767914D01*
X125191419Y-87748556D01*
X125186264Y-87734613D01*
X124909737Y-87631880D01*
X124637222Y-87519000D01*
X124605900Y-87519000D01*
X124576539Y-87508092D01*
X124281753Y-87519000D01*
X123986778Y-87519000D01*
X123957842Y-87530986D01*
X123926540Y-87532144D01*
X123437736Y-87734613D01*
X123432581Y-87748556D01*
X123385847Y-87767914D01*
X123042000Y-88111761D01*
X122698153Y-87767914D01*
X122097222Y-87519000D01*
X121941803Y-87519000D01*
X121959803Y-87501000D01*
X135050198Y-87501000D01*
X134963375Y-87587823D01*
G36*
X138282000Y-88111761D02*
X138179239Y-88009000D01*
X138384761Y-88009000D01*
X138282000Y-88111761D01*
X138282000Y-88111761D01*
G37*
X138282000Y-88111761D02*
X138179239Y-88009000D01*
X138384761Y-88009000D01*
X138282000Y-88111761D01*
G36*
X140822000Y-88111761D02*
X140719239Y-88009000D01*
X140924761Y-88009000D01*
X140822000Y-88111761D01*
X140822000Y-88111761D01*
G37*
X140822000Y-88111761D02*
X140719239Y-88009000D01*
X140924761Y-88009000D01*
X140822000Y-88111761D01*
G36*
X143362000Y-88111761D02*
X143259239Y-88009000D01*
X143464761Y-88009000D01*
X143362000Y-88111761D01*
X143362000Y-88111761D01*
G37*
X143362000Y-88111761D02*
X143259239Y-88009000D01*
X143464761Y-88009000D01*
X143362000Y-88111761D01*
M02*
