G04 #@! TF.GenerationSoftware,KiCad,Pcbnew,(5.0.2)-1*
G04 #@! TF.CreationDate,2024-08-16T20:27:31+02:00*
G04 #@! TF.ProjectId,MashMachine,4d617368-4d61-4636-9869-6e652e6b6963,rev?*
G04 #@! TF.SameCoordinates,Original*
G04 #@! TF.FileFunction,Legend,Top*
G04 #@! TF.FilePolarity,Positive*
%FSLAX46Y46*%
G04 Gerber Fmt 4.6, Leading zero omitted, Abs format (unit mm)*
G04 Created by KiCad (PCBNEW (5.0.2)-1) date 08/16/24 20:27:31*
%MOMM*%
%LPD*%
G01*
G04 APERTURE LIST*
%ADD10C,0.300000*%
%ADD11C,0.150000*%
%ADD12C,0.120000*%
%ADD13R,2.204000X2.204000*%
%ADD14C,2.204000*%
%ADD15R,1.626000X1.626000*%
%ADD16C,1.626000*%
%ADD17R,2.102000X2.102000*%
%ADD18C,2.102000*%
%ADD19C,1.702000*%
%ADD20O,1.702000X1.702000*%
%ADD21R,1.902000X1.902000*%
%ADD22C,1.902000*%
%ADD23C,5.702000*%
%ADD24O,1.802000X1.802000*%
%ADD25R,1.802000X1.802000*%
%ADD26R,2.007000X2.102000*%
%ADD27O,2.007000X2.102000*%
%ADD28R,3.302000X2.102000*%
G04 APERTURE END LIST*
D10*
X116641642Y-84030357D02*
X117141642Y-84030357D01*
X117257714Y-84816071D02*
X116543428Y-84816071D01*
X116730928Y-83316071D01*
X117445214Y-83316071D01*
X117900571Y-84816071D02*
X118025571Y-83816071D01*
X118007714Y-83958928D02*
X118088071Y-83887500D01*
X118239857Y-83816071D01*
X118454142Y-83816071D01*
X118588071Y-83887500D01*
X118641642Y-84030357D01*
X118543428Y-84816071D01*
X118641642Y-84030357D02*
X118730928Y-83887500D01*
X118882714Y-83816071D01*
X119096999Y-83816071D01*
X119230928Y-83887500D01*
X119284499Y-84030357D01*
X119186285Y-84816071D01*
X119900571Y-84816071D02*
X120025571Y-83816071D01*
X120088071Y-83316071D02*
X120007714Y-83387500D01*
X120070214Y-83458928D01*
X120150571Y-83387500D01*
X120088071Y-83316071D01*
X120070214Y-83458928D01*
X120829142Y-84816071D02*
X120695214Y-84744642D01*
X120641642Y-84601785D01*
X120802357Y-83316071D01*
X122525571Y-84387500D02*
X123239857Y-84387500D01*
X122329142Y-84816071D02*
X123016642Y-83316071D01*
X123329142Y-84816071D01*
X123954142Y-83816071D02*
X123829142Y-84816071D01*
X123936285Y-83958928D02*
X124016642Y-83887500D01*
X124168428Y-83816071D01*
X124382714Y-83816071D01*
X124516642Y-83887500D01*
X124570214Y-84030357D01*
X124471999Y-84816071D01*
X125829142Y-84816071D02*
X126016642Y-83316071D01*
X125838071Y-84744642D02*
X125686285Y-84816071D01*
X125400571Y-84816071D01*
X125266642Y-84744642D01*
X125204142Y-84673214D01*
X125150571Y-84530357D01*
X125204142Y-84101785D01*
X125293428Y-83958928D01*
X125373785Y-83887500D01*
X125525571Y-83816071D01*
X125811285Y-83816071D01*
X125945214Y-83887500D01*
X126543428Y-84816071D02*
X126668428Y-83816071D01*
X126632714Y-84101785D02*
X126721999Y-83958928D01*
X126802357Y-83887500D01*
X126954142Y-83816071D01*
X127096999Y-83816071D01*
X128052357Y-84744642D02*
X127900571Y-84816071D01*
X127614857Y-84816071D01*
X127480928Y-84744642D01*
X127427357Y-84601785D01*
X127498785Y-84030357D01*
X127588071Y-83887500D01*
X127739857Y-83816071D01*
X128025571Y-83816071D01*
X128159499Y-83887500D01*
X128213071Y-84030357D01*
X128195214Y-84173214D01*
X127463071Y-84316071D01*
X129400571Y-84816071D02*
X129498785Y-84030357D01*
X129445214Y-83887500D01*
X129311285Y-83816071D01*
X129025571Y-83816071D01*
X128873785Y-83887500D01*
X129409499Y-84744642D02*
X129257714Y-84816071D01*
X128900571Y-84816071D01*
X128766642Y-84744642D01*
X128713071Y-84601785D01*
X128730928Y-84458928D01*
X128820214Y-84316071D01*
X128971999Y-84244642D01*
X129329142Y-84244642D01*
X129480928Y-84173214D01*
X130052357Y-84744642D02*
X130186285Y-84816071D01*
X130471999Y-84816071D01*
X130623785Y-84744642D01*
X130713071Y-84601785D01*
X130721999Y-84530357D01*
X130668428Y-84387500D01*
X130534499Y-84316071D01*
X130320214Y-84316071D01*
X130186285Y-84244642D01*
X130132714Y-84101785D01*
X130141642Y-84030357D01*
X130230928Y-83887500D01*
X130382714Y-83816071D01*
X130596999Y-83816071D01*
X130730928Y-83887500D01*
X131266642Y-84744642D02*
X131400571Y-84816071D01*
X131686285Y-84816071D01*
X131838071Y-84744642D01*
X131927357Y-84601785D01*
X131936285Y-84530357D01*
X131882714Y-84387500D01*
X131748785Y-84316071D01*
X131534499Y-84316071D01*
X131400571Y-84244642D01*
X131346999Y-84101785D01*
X131355928Y-84030357D01*
X131445214Y-83887500D01*
X131596999Y-83816071D01*
X131811285Y-83816071D01*
X131945214Y-83887500D01*
X132757714Y-84816071D02*
X132623785Y-84744642D01*
X132561285Y-84673214D01*
X132507714Y-84530357D01*
X132561285Y-84101785D01*
X132650571Y-83958928D01*
X132730928Y-83887500D01*
X132882714Y-83816071D01*
X133096999Y-83816071D01*
X133230928Y-83887500D01*
X133293428Y-83958928D01*
X133347000Y-84101785D01*
X133293428Y-84530357D01*
X133204142Y-84673214D01*
X133123785Y-84744642D01*
X132971999Y-84816071D01*
X132757714Y-84816071D01*
X134025571Y-83816071D02*
X133900571Y-84816071D01*
X134007714Y-83958928D02*
X134088071Y-83887500D01*
X134239857Y-83816071D01*
X134454142Y-83816071D01*
X134588071Y-83887500D01*
X134641642Y-84030357D01*
X134543428Y-84816071D01*
X136472000Y-84244642D02*
X137614857Y-84244642D01*
X139400571Y-84816071D02*
X139588071Y-83316071D01*
X139954142Y-84387500D01*
X140588071Y-83316071D01*
X140400571Y-84816071D01*
X141757714Y-84816071D02*
X141855928Y-84030357D01*
X141802357Y-83887500D01*
X141668428Y-83816071D01*
X141382714Y-83816071D01*
X141230928Y-83887500D01*
X141766642Y-84744642D02*
X141614857Y-84816071D01*
X141257714Y-84816071D01*
X141123785Y-84744642D01*
X141070214Y-84601785D01*
X141088071Y-84458928D01*
X141177357Y-84316071D01*
X141329142Y-84244642D01*
X141686285Y-84244642D01*
X141838071Y-84173214D01*
X142409500Y-84744642D02*
X142543428Y-84816071D01*
X142829142Y-84816071D01*
X142980928Y-84744642D01*
X143070214Y-84601785D01*
X143079142Y-84530357D01*
X143025571Y-84387500D01*
X142891642Y-84316071D01*
X142677357Y-84316071D01*
X142543428Y-84244642D01*
X142489857Y-84101785D01*
X142498785Y-84030357D01*
X142588071Y-83887500D01*
X142739857Y-83816071D01*
X142954142Y-83816071D01*
X143088071Y-83887500D01*
X143686285Y-84816071D02*
X143873785Y-83316071D01*
X144329142Y-84816071D02*
X144427357Y-84030357D01*
X144373785Y-83887500D01*
X144239857Y-83816071D01*
X144025571Y-83816071D01*
X143873785Y-83887500D01*
X143793428Y-83958928D01*
X146186285Y-84816071D02*
X146373785Y-83316071D01*
X146739857Y-84387500D01*
X147373785Y-83316071D01*
X147186285Y-84816071D01*
X148543428Y-84816071D02*
X148641642Y-84030357D01*
X148588071Y-83887500D01*
X148454142Y-83816071D01*
X148168428Y-83816071D01*
X148016642Y-83887500D01*
X148552357Y-84744642D02*
X148400571Y-84816071D01*
X148043428Y-84816071D01*
X147909500Y-84744642D01*
X147855928Y-84601785D01*
X147873785Y-84458928D01*
X147963071Y-84316071D01*
X148114857Y-84244642D01*
X148472000Y-84244642D01*
X148623785Y-84173214D01*
X149909500Y-84744642D02*
X149757714Y-84816071D01*
X149472000Y-84816071D01*
X149338071Y-84744642D01*
X149275571Y-84673214D01*
X149222000Y-84530357D01*
X149275571Y-84101785D01*
X149364857Y-83958928D01*
X149445214Y-83887500D01*
X149597000Y-83816071D01*
X149882714Y-83816071D01*
X150016642Y-83887500D01*
X150543428Y-84816071D02*
X150730928Y-83316071D01*
X151186285Y-84816071D02*
X151284500Y-84030357D01*
X151230928Y-83887500D01*
X151097000Y-83816071D01*
X150882714Y-83816071D01*
X150730928Y-83887500D01*
X150650571Y-83958928D01*
X151900571Y-84816071D02*
X152025571Y-83816071D01*
X152088071Y-83316071D02*
X152007714Y-83387500D01*
X152070214Y-83458928D01*
X152150571Y-83387500D01*
X152088071Y-83316071D01*
X152070214Y-83458928D01*
X152739857Y-83816071D02*
X152614857Y-84816071D01*
X152722000Y-83958928D02*
X152802357Y-83887500D01*
X152954142Y-83816071D01*
X153168428Y-83816071D01*
X153302357Y-83887500D01*
X153355928Y-84030357D01*
X153257714Y-84816071D01*
X154552357Y-84744642D02*
X154400571Y-84816071D01*
X154114857Y-84816071D01*
X153980928Y-84744642D01*
X153927357Y-84601785D01*
X153998785Y-84030357D01*
X154088071Y-83887500D01*
X154239857Y-83816071D01*
X154525571Y-83816071D01*
X154659500Y-83887500D01*
X154713071Y-84030357D01*
X154695214Y-84173214D01*
X153963071Y-84316071D01*
D11*
G04 #@! TO.C,Brd2*
X167767000Y-115125500D02*
X167767000Y-117729000D01*
X135763000Y-115125500D02*
X135763000Y-117729000D01*
X133858000Y-92138500D02*
X134429500Y-92138500D01*
X169545000Y-92138500D02*
X169545000Y-126809500D01*
X133858000Y-126809500D02*
X169545000Y-126809500D01*
X133858000Y-92138500D02*
X133858000Y-126809500D01*
X134429500Y-92138500D02*
X169545000Y-92138500D01*
X146431000Y-93281500D02*
X146431000Y-95821500D01*
X146431000Y-95821500D02*
X157099000Y-95821500D01*
X157099000Y-95821500D02*
X157099000Y-92773500D01*
X157099000Y-92773500D02*
X146431000Y-92773500D01*
X146431000Y-92773500D02*
X146431000Y-93281500D01*
X135763000Y-96329500D02*
X167767000Y-96329500D01*
X167767000Y-96329500D02*
X167767000Y-115125500D01*
X167767000Y-117729000D02*
X135763000Y-117729000D01*
X135763000Y-115125500D02*
X135763000Y-96329500D01*
G04 #@! TO.C,Brd1*
X131695261Y-115101441D02*
X131695261Y-117704941D01*
X99691261Y-115101441D02*
X99691261Y-117704941D01*
X97786261Y-92114441D02*
X98357761Y-92114441D01*
X133473261Y-92114441D02*
X133473261Y-126785441D01*
X97786261Y-126785441D02*
X133473261Y-126785441D01*
X97786261Y-92114441D02*
X97786261Y-126785441D01*
X98357761Y-92114441D02*
X133473261Y-92114441D01*
X110359261Y-93257441D02*
X110359261Y-95797441D01*
X110359261Y-95797441D02*
X121027261Y-95797441D01*
X121027261Y-95797441D02*
X121027261Y-92749441D01*
X121027261Y-92749441D02*
X110359261Y-92749441D01*
X110359261Y-92749441D02*
X110359261Y-93257441D01*
X99691261Y-96305441D02*
X131695261Y-96305441D01*
X131695261Y-96305441D02*
X131695261Y-115101441D01*
X131695261Y-117704941D02*
X99691261Y-117704941D01*
X99691261Y-115101441D02*
X99691261Y-96305441D01*
D12*
G04 #@! TO.C,DC*
X123465335Y-130112392D02*
G75*
G03X120233000Y-129955484I-1672335J-1078608D01*
G01*
X123465335Y-132269608D02*
G75*
G02X120233000Y-132426516I-1672335J1078608D01*
G01*
X122834130Y-130111163D02*
G75*
G03X120752039Y-130111000I-1041130J-1079837D01*
G01*
X122834130Y-132270837D02*
G75*
G02X120752039Y-132271000I-1041130J1079837D01*
G01*
X120233000Y-129955000D02*
X120233000Y-130111000D01*
X120233000Y-132271000D02*
X120233000Y-132427000D01*
G04 #@! TO.C,ON*
X125059000Y-132271000D02*
X125059000Y-132427000D01*
X125059000Y-129955000D02*
X125059000Y-130111000D01*
X127660130Y-132270837D02*
G75*
G02X125578039Y-132271000I-1041130J1079837D01*
G01*
X127660130Y-130111163D02*
G75*
G03X125578039Y-130111000I-1041130J-1079837D01*
G01*
X128291335Y-132269608D02*
G75*
G02X125059000Y-132426516I-1672335J1078608D01*
G01*
X128291335Y-130112392D02*
G75*
G03X125059000Y-129955484I-1672335J-1078608D01*
G01*
G04 #@! TO.C,SW*
X164416500Y-134262500D02*
X165416500Y-134262500D01*
X164916500Y-133762500D02*
X164916500Y-134762500D01*
X171016500Y-137762500D02*
X171016500Y-140162500D01*
X171016500Y-132962500D02*
X171016500Y-135562500D01*
X171016500Y-128362500D02*
X171016500Y-130762500D01*
X157716500Y-130162500D02*
X157416500Y-130462500D01*
X157116500Y-130162500D02*
X157716500Y-130162500D01*
X157416500Y-130462500D02*
X157116500Y-130162500D01*
X158816500Y-128362500D02*
X158816500Y-140162500D01*
X162916500Y-128362500D02*
X158816500Y-128362500D01*
X162916500Y-140162500D02*
X158816500Y-140162500D01*
X171016500Y-140162500D02*
X166916500Y-140162500D01*
X166916500Y-128362500D02*
X171016500Y-128362500D01*
X167916500Y-134262500D02*
G75*
G03X167916500Y-134262500I-3000000J0D01*
G01*
G04 #@! TO.C,Brd2*
D11*
X149328333Y-106918071D02*
X149471190Y-106965690D01*
X149518809Y-107013309D01*
X149566428Y-107108547D01*
X149566428Y-107251404D01*
X149518809Y-107346642D01*
X149471190Y-107394261D01*
X149375952Y-107441880D01*
X148995000Y-107441880D01*
X148995000Y-106441880D01*
X149328333Y-106441880D01*
X149423571Y-106489500D01*
X149471190Y-106537119D01*
X149518809Y-106632357D01*
X149518809Y-106727595D01*
X149471190Y-106822833D01*
X149423571Y-106870452D01*
X149328333Y-106918071D01*
X148995000Y-106918071D01*
X149995000Y-107441880D02*
X149995000Y-106775214D01*
X149995000Y-106965690D02*
X150042619Y-106870452D01*
X150090238Y-106822833D01*
X150185476Y-106775214D01*
X150280714Y-106775214D01*
X151042619Y-107441880D02*
X151042619Y-106441880D01*
X151042619Y-107394261D02*
X150947380Y-107441880D01*
X150756904Y-107441880D01*
X150661666Y-107394261D01*
X150614047Y-107346642D01*
X150566428Y-107251404D01*
X150566428Y-106965690D01*
X150614047Y-106870452D01*
X150661666Y-106822833D01*
X150756904Y-106775214D01*
X150947380Y-106775214D01*
X151042619Y-106822833D01*
X151471190Y-106537119D02*
X151518809Y-106489500D01*
X151614047Y-106441880D01*
X151852142Y-106441880D01*
X151947380Y-106489500D01*
X151995000Y-106537119D01*
X152042619Y-106632357D01*
X152042619Y-106727595D01*
X151995000Y-106870452D01*
X151423571Y-107441880D01*
X152042619Y-107441880D01*
G04 #@! TO.C,Brd1*
X113256594Y-106894012D02*
X113399451Y-106941631D01*
X113447070Y-106989250D01*
X113494689Y-107084488D01*
X113494689Y-107227345D01*
X113447070Y-107322583D01*
X113399451Y-107370202D01*
X113304213Y-107417821D01*
X112923261Y-107417821D01*
X112923261Y-106417821D01*
X113256594Y-106417821D01*
X113351832Y-106465441D01*
X113399451Y-106513060D01*
X113447070Y-106608298D01*
X113447070Y-106703536D01*
X113399451Y-106798774D01*
X113351832Y-106846393D01*
X113256594Y-106894012D01*
X112923261Y-106894012D01*
X113923261Y-107417821D02*
X113923261Y-106751155D01*
X113923261Y-106941631D02*
X113970880Y-106846393D01*
X114018499Y-106798774D01*
X114113737Y-106751155D01*
X114208975Y-106751155D01*
X114970880Y-107417821D02*
X114970880Y-106417821D01*
X114970880Y-107370202D02*
X114875641Y-107417821D01*
X114685165Y-107417821D01*
X114589927Y-107370202D01*
X114542308Y-107322583D01*
X114494689Y-107227345D01*
X114494689Y-106941631D01*
X114542308Y-106846393D01*
X114589927Y-106798774D01*
X114685165Y-106751155D01*
X114875641Y-106751155D01*
X114970880Y-106798774D01*
X115970880Y-107417821D02*
X115399451Y-107417821D01*
X115685165Y-107417821D02*
X115685165Y-106417821D01*
X115589927Y-106560679D01*
X115494689Y-106655917D01*
X115399451Y-106703536D01*
G04 #@! TO.C,DC*
X121031095Y-128683380D02*
X121031095Y-127683380D01*
X121269190Y-127683380D01*
X121412047Y-127731000D01*
X121507285Y-127826238D01*
X121554904Y-127921476D01*
X121602523Y-128111952D01*
X121602523Y-128254809D01*
X121554904Y-128445285D01*
X121507285Y-128540523D01*
X121412047Y-128635761D01*
X121269190Y-128683380D01*
X121031095Y-128683380D01*
X122602523Y-128588142D02*
X122554904Y-128635761D01*
X122412047Y-128683380D01*
X122316809Y-128683380D01*
X122173952Y-128635761D01*
X122078714Y-128540523D01*
X122031095Y-128445285D01*
X121983476Y-128254809D01*
X121983476Y-128111952D01*
X122031095Y-127921476D01*
X122078714Y-127826238D01*
X122173952Y-127731000D01*
X122316809Y-127683380D01*
X122412047Y-127683380D01*
X122554904Y-127731000D01*
X122602523Y-127778619D01*
G04 #@! TO.C,*
G04 #@! TO.C,ON*
X125999952Y-127683380D02*
X126190428Y-127683380D01*
X126285666Y-127731000D01*
X126380904Y-127826238D01*
X126428523Y-128016714D01*
X126428523Y-128350047D01*
X126380904Y-128540523D01*
X126285666Y-128635761D01*
X126190428Y-128683380D01*
X125999952Y-128683380D01*
X125904714Y-128635761D01*
X125809476Y-128540523D01*
X125761857Y-128350047D01*
X125761857Y-128016714D01*
X125809476Y-127826238D01*
X125904714Y-127731000D01*
X125999952Y-127683380D01*
X126857095Y-128683380D02*
X126857095Y-127683380D01*
X127428523Y-128683380D01*
X127428523Y-127683380D01*
G04 #@! TO.C,SW*
X153701857Y-129055761D02*
X153844714Y-129103380D01*
X154082809Y-129103380D01*
X154178047Y-129055761D01*
X154225666Y-129008142D01*
X154273285Y-128912904D01*
X154273285Y-128817666D01*
X154225666Y-128722428D01*
X154178047Y-128674809D01*
X154082809Y-128627190D01*
X153892333Y-128579571D01*
X153797095Y-128531952D01*
X153749476Y-128484333D01*
X153701857Y-128389095D01*
X153701857Y-128293857D01*
X153749476Y-128198619D01*
X153797095Y-128151000D01*
X153892333Y-128103380D01*
X154130428Y-128103380D01*
X154273285Y-128151000D01*
X154606619Y-128103380D02*
X154844714Y-129103380D01*
X155035190Y-128389095D01*
X155225666Y-129103380D01*
X155463761Y-128103380D01*
G04 #@! TD*
%LPC*%
D13*
G04 #@! TO.C,ESP32*
X109072000Y-89154000D03*
D14*
X111612000Y-89154000D03*
X114152000Y-89154000D03*
X116692000Y-89154000D03*
X119232000Y-89154000D03*
X121772000Y-89154000D03*
X124312000Y-89154000D03*
X126852000Y-89154000D03*
X129392000Y-89154000D03*
X131932000Y-89154000D03*
X134472000Y-89154000D03*
X137012000Y-89154000D03*
X139552000Y-89154000D03*
X142092000Y-89154000D03*
X144632000Y-89154000D03*
X109072000Y-114554000D03*
X111612000Y-114554000D03*
X114152000Y-114554000D03*
X116692000Y-114554000D03*
X119232000Y-114554000D03*
X121772000Y-114554000D03*
X124312000Y-114554000D03*
X126852000Y-114554000D03*
X129392000Y-114554000D03*
X131932000Y-114554000D03*
X134472000Y-114554000D03*
X137012000Y-114554000D03*
X139552000Y-114554000D03*
X142092000Y-114554000D03*
X144632000Y-114554000D03*
G04 #@! TD*
D15*
G04 #@! TO.C,Brd2*
X147955000Y-94297500D03*
D16*
X150495000Y-94297500D03*
X153035000Y-94297500D03*
X155575000Y-94297500D03*
G04 #@! TD*
D15*
G04 #@! TO.C,Brd1*
X111883261Y-94273441D03*
D16*
X114423261Y-94273441D03*
X116963261Y-94273441D03*
X119503261Y-94273441D03*
G04 #@! TD*
D17*
G04 #@! TO.C,BZ1*
X107833160Y-132948680D03*
D18*
X115433160Y-132948680D03*
G04 #@! TD*
D19*
G04 #@! TO.C,R1*
X120726200Y-139443190D03*
D20*
X128346200Y-139443190D03*
G04 #@! TD*
G04 #@! TO.C,R2*
X128369060Y-136392650D03*
D19*
X120749060Y-136392650D03*
G04 #@! TD*
D21*
G04 #@! TO.C,DC*
X120523000Y-131191000D03*
D22*
X123063000Y-131191000D03*
G04 #@! TD*
D23*
G04 #@! TO.C,*
X101092000Y-137541000D03*
G04 #@! TD*
G04 #@! TO.C,*
X151511000Y-137033000D03*
G04 #@! TD*
G04 #@! TO.C,*
X101600000Y-84201000D03*
G04 #@! TD*
G04 #@! TO.C,*
X171831000Y-85217000D03*
G04 #@! TD*
D24*
G04 #@! TO.C,Element Temp*
X174244000Y-102235000D03*
X174244000Y-104775000D03*
D25*
X174244000Y-107315000D03*
G04 #@! TD*
G04 #@! TO.C,MashTemp*
X174307500Y-116713000D03*
D24*
X174307500Y-114173000D03*
X174307500Y-111633000D03*
G04 #@! TD*
D25*
G04 #@! TO.C,SSR Out*
X174180500Y-96329500D03*
D24*
X174180500Y-93789500D03*
G04 #@! TD*
D22*
G04 #@! TO.C,ON*
X127889000Y-131191000D03*
D21*
X125349000Y-131191000D03*
G04 #@! TD*
D26*
G04 #@! TO.C,IRLZ44N*
X141605000Y-138684000D03*
D27*
X139065000Y-138684000D03*
X136525000Y-138684000D03*
G04 #@! TD*
D18*
G04 #@! TO.C,SW*
X171916500Y-136762500D03*
X171916500Y-131762500D03*
D28*
X164916500Y-139862500D03*
X164916500Y-128662500D03*
D18*
X157416500Y-136762500D03*
X157416500Y-134262500D03*
D17*
X157416500Y-131762500D03*
G04 #@! TD*
M02*
