%TF.GenerationSoftware,KiCad,Pcbnew,9.0.0*%
%TF.CreationDate,2026-03-05T15:16:03+01:00*%
%TF.ProjectId,MashMachine V2.1 PT100,4d617368-4d61-4636-9869-6e652056322e,rev?*%
%TF.SameCoordinates,Original*%
%TF.FileFunction,Soldermask,Top*%
%TF.FilePolarity,Negative*%
%FSLAX46Y46*%
G04 Gerber Fmt 4.6, Leading zero omitted, Abs format (unit mm)*
G04 Created by KiCad (PCBNEW 9.0.0) date 2026-03-05 15:16:03*
%MOMM*%
%LPD*%
G01*
G04 APERTURE LIST*
G04 Aperture macros list*
%AMRoundRect*
0 Rectangle with rounded corners*
0 $1 Rounding radius*
0 $2 $3 $4 $5 $6 $7 $8 $9 X,Y pos of 4 corners*
0 Add a 4 corners polygon primitive as box body*
4,1,4,$2,$3,$4,$5,$6,$7,$8,$9,$2,$3,0*
0 Add four circle primitives for the rounded corners*
1,1,$1+$1,$2,$3*
1,1,$1+$1,$4,$5*
1,1,$1+$1,$6,$7*
1,1,$1+$1,$8,$9*
0 Add four rect primitives between the rounded corners*
20,1,$1+$1,$2,$3,$4,$5,0*
20,1,$1+$1,$4,$5,$6,$7,0*
20,1,$1+$1,$6,$7,$8,$9,0*
20,1,$1+$1,$8,$9,$2,$3,0*%
G04 Aperture macros list end*
%ADD10C,3.000000*%
%ADD11C,5.000000*%
%ADD12C,1.524000*%
%ADD13R,1.524000X1.524000*%
%ADD14R,1.200000X1.200000*%
%ADD15C,1.200000*%
%ADD16C,1.600000*%
%ADD17R,1.800000X1.800000*%
%ADD18C,1.800000*%
%ADD19C,2.000000*%
%ADD20C,5.600000*%
%ADD21R,1.050000X1.500000*%
%ADD22O,1.050000X1.500000*%
%ADD23R,2.000000X2.000000*%
%ADD24R,3.200000X2.000000*%
%ADD25R,1.600000X1.600000*%
%ADD26O,1.600000X1.600000*%
%ADD27C,1.400000*%
%ADD28O,1.400000X1.400000*%
%ADD29C,2.200000*%
%ADD30R,1.500000X2.000000*%
%ADD31O,1.500000X2.000000*%
%ADD32O,1.200000X2.000000*%
%ADD33R,2.000000X1.700000*%
%ADD34O,2.000000X1.700000*%
%ADD35RoundRect,0.250000X0.600000X0.750000X-0.600000X0.750000X-0.600000X-0.750000X0.600000X-0.750000X0*%
%ADD36O,1.700000X2.000000*%
%ADD37R,1.700000X1.700000*%
%ADD38O,1.700000X1.700000*%
%ADD39C,4.000000*%
%ADD40O,2.500000X4.000000*%
%ADD41C,1.270000*%
%ADD42RoundRect,0.210000X-0.840000X-0.840000X0.840000X-0.840000X0.840000X0.840000X-0.840000X0.840000X0*%
%ADD43C,2.100000*%
%ADD44RoundRect,0.249600X-0.950400X-0.950400X0.950400X-0.950400X0.950400X0.950400X-0.950400X0.950400X0*%
%ADD45C,2.400000*%
G04 APERTURE END LIST*
D10*
%TO.C,U3*%
X107404000Y-69342000D03*
X134904000Y-69342000D03*
%TD*%
D11*
%TO.C,Brd1*%
X136445000Y-120163200D03*
X136445000Y-91563200D03*
X105945000Y-120163200D03*
X105945000Y-91563200D03*
D12*
X125095000Y-90373200D03*
X122555000Y-90373200D03*
X120015000Y-90373200D03*
D13*
X117475000Y-90373200D03*
%TD*%
D14*
%TO.C,C22*%
X119888000Y-80474600D03*
D15*
X119888000Y-78474600D03*
%TD*%
D16*
%TO.C,C21*%
X115570000Y-78252000D03*
X115570000Y-80752000D03*
%TD*%
D17*
%TO.C,DC1*%
X110871000Y-129793999D03*
D18*
X110871000Y-127253999D03*
%TD*%
D19*
%TO.C,SW3*%
X165426000Y-132028000D03*
X165426000Y-125528000D03*
X169926000Y-132028000D03*
X169926000Y-125528000D03*
%TD*%
D20*
%TO.C,H1*%
X197612000Y-59055000D03*
%TD*%
%TO.C,H3*%
X105460800Y-132435600D03*
%TD*%
D13*
%TO.C,Brd2*%
X153619200Y-90373200D03*
D12*
X156159200Y-90373200D03*
X158699200Y-90373200D03*
X161239200Y-90373200D03*
D11*
X142089200Y-91563200D03*
X142089200Y-120163200D03*
X172589200Y-91563200D03*
X172589200Y-120163200D03*
%TD*%
D17*
%TO.C,LED1*%
X119788000Y-129793998D03*
D18*
X119788000Y-127253998D03*
%TD*%
D17*
%TO.C,LED3*%
X124206000Y-129794000D03*
D18*
X124206000Y-127254000D03*
%TD*%
D21*
%TO.C,Air_temp1*%
X137033000Y-130429000D03*
D22*
X138303000Y-130429000D03*
X139573000Y-130429000D03*
%TD*%
D23*
%TO.C,SW1*%
X192046000Y-129286000D03*
D19*
X192046000Y-124286000D03*
X192046000Y-126786000D03*
D24*
X184545999Y-132386000D03*
X184545999Y-121186000D03*
D19*
X177546000Y-124286000D03*
X177546000Y-129286000D03*
%TD*%
D20*
%TO.C,H2*%
X105410000Y-59055000D03*
%TD*%
D25*
%TO.C,RN1*%
X131826000Y-133477000D03*
D26*
X129286000Y-133477000D03*
X126746000Y-133477000D03*
X124206000Y-133477000D03*
X121666000Y-133477000D03*
X119126000Y-133477000D03*
X116586000Y-133477000D03*
X114046000Y-133477000D03*
X111506000Y-133477000D03*
%TD*%
D17*
%TO.C,OnOff1*%
X115343001Y-129794000D03*
D18*
X115343001Y-127254000D03*
%TD*%
D20*
%TO.C,H4*%
X197662800Y-132588000D03*
%TD*%
D16*
%TO.C,C8*%
X174893999Y-127516001D03*
X174893999Y-125016001D03*
%TD*%
D27*
%TO.C,R10*%
X130556000Y-71120000D03*
D28*
X128016000Y-71120000D03*
%TD*%
D16*
%TO.C,C20*%
X152772000Y-126288800D03*
X150272000Y-126288800D03*
%TD*%
D27*
%TO.C,R5*%
X127254000Y-78232000D03*
D28*
X127254000Y-75692000D03*
%TD*%
D27*
%TO.C,R7*%
X105156000Y-77348000D03*
D28*
X105156000Y-79248000D03*
%TD*%
D14*
%TO.C,C16*%
X159911800Y-129803400D03*
D15*
X157911800Y-129803400D03*
%TD*%
D18*
%TO.C,RV1*%
X189230000Y-79248000D03*
X187230000Y-71747999D03*
%TD*%
D29*
%TO.C,C14*%
X197358000Y-80405000D03*
X197358000Y-65405000D03*
%TD*%
D27*
%TO.C,R6*%
X129540000Y-78232000D03*
D28*
X129540000Y-75692000D03*
%TD*%
D27*
%TO.C,R8*%
X124421500Y-71137500D03*
D28*
X121881500Y-71137500D03*
%TD*%
D30*
%TO.C,U2*%
X150114000Y-110744000D03*
D31*
X147573999Y-110617000D03*
X145034000Y-110744000D03*
X142494000Y-110871000D03*
X139954000Y-110744000D03*
X137414000Y-110617000D03*
X134874000Y-110744000D03*
X132334000Y-110871000D03*
X129794000Y-110744000D03*
X127254000Y-110617000D03*
X124714000Y-110744000D03*
X122174000Y-110871000D03*
X119634000Y-110744000D03*
X117094000Y-110617000D03*
X114554000Y-110744000D03*
X112014000Y-110871000D03*
X109474000Y-110744000D03*
X106934000Y-110617000D03*
X104394000Y-110744000D03*
X104394001Y-85344000D03*
X106934000Y-85471000D03*
X109474000Y-85344000D03*
X112014000Y-85213320D03*
X114554000Y-85340320D03*
X117094000Y-85467320D03*
X119634000Y-85340320D03*
D32*
X122174000Y-85213321D03*
D31*
X124714000Y-85340320D03*
X127254000Y-85467320D03*
X129794000Y-85340320D03*
X132333999Y-85213320D03*
X134874000Y-85340320D03*
X137414000Y-85467320D03*
X139954000Y-85340320D03*
X142493999Y-85213320D03*
X145034000Y-85340320D03*
X147574000Y-85467320D03*
X150114000Y-85340320D03*
%TD*%
D21*
%TO.C,Q2*%
X130860000Y-68051000D03*
D22*
X129590000Y-68051000D03*
X128320000Y-68051000D03*
%TD*%
D33*
%TO.C,PS1*%
X166207000Y-80011500D03*
D34*
X172207000Y-80011500D03*
X160207001Y-113611500D03*
X178207000Y-113611500D03*
%TD*%
D35*
%TO.C,J3*%
X147534000Y-68072000D03*
D36*
X145034000Y-68072000D03*
%TD*%
D14*
%TO.C,C19*%
X150654000Y-130048000D03*
D15*
X152654000Y-130048000D03*
%TD*%
D35*
%TO.C,J4*%
X147514000Y-59546000D03*
D36*
X145014000Y-59546000D03*
%TD*%
D27*
%TO.C,R9*%
X123990500Y-64279500D03*
D28*
X121450500Y-64279500D03*
%TD*%
D16*
%TO.C,C17*%
X157734001Y-121294399D03*
X160234001Y-121294399D03*
%TD*%
D37*
%TO.C,U1*%
X111912400Y-78460600D03*
D38*
X111912400Y-75920600D03*
X111912400Y-73380600D03*
X111912400Y-70840600D03*
X111912400Y-68300600D03*
X111912400Y-65760600D03*
X111912400Y-63220600D03*
X111912400Y-60680600D03*
D39*
X134518400Y-59359800D03*
X134518400Y-79730600D03*
%TD*%
D16*
%TO.C,TH1*%
X185460000Y-59670000D03*
X190460000Y-57170000D03*
%TD*%
D27*
%TO.C,R4*%
X136398000Y-133858000D03*
D28*
X138938000Y-133858000D03*
%TD*%
D40*
%TO.C,F1*%
X195783200Y-92710000D03*
X195783200Y-114710000D03*
%TD*%
D14*
%TO.C,C15*%
X159879798Y-125231400D03*
D15*
X157879798Y-125231400D03*
%TD*%
D41*
%TO.C,F2*%
X154559000Y-114935000D03*
X152959000Y-109834999D03*
%TD*%
D16*
%TO.C,C4*%
X129794000Y-116606000D03*
X129794000Y-119106000D03*
%TD*%
%TO.C,R12*%
X147320000Y-131826000D03*
D26*
X147320000Y-124206000D03*
%TD*%
D42*
%TO.C,J6*%
X158140400Y-62077600D03*
D43*
X163220400Y-62077600D03*
%TD*%
D42*
%TO.C,J2*%
X170332400Y-62077600D03*
D43*
X175412400Y-62077600D03*
%TD*%
D35*
%TO.C,J5*%
X147554000Y-76564000D03*
D36*
X145054000Y-76564000D03*
%TD*%
D21*
%TO.C,Q1*%
X124598500Y-68068500D03*
D22*
X123328500Y-68068500D03*
X122058500Y-68068500D03*
%TD*%
D43*
%TO.C,U5*%
X173308000Y-72390000D03*
X178308000Y-72390000D03*
D44*
X157058000Y-72390000D03*
D45*
X153308000Y-72390000D03*
%TD*%
D16*
%TO.C,C3*%
X132080000Y-116586000D03*
X132080000Y-119086000D03*
%TD*%
D27*
%TO.C,R11*%
X129907100Y-64258500D03*
D28*
X127367100Y-64258500D03*
%TD*%
D16*
%TO.C,C18*%
X152772000Y-124146800D03*
X150272000Y-124146800D03*
%TD*%
M02*
