%TF.GenerationSoftware,KiCad,Pcbnew,9.0.0*%
%TF.CreationDate,2026-03-05T15:16:03+01:00*%
%TF.ProjectId,MashMachine V2.1 PT100,4d617368-4d61-4636-9869-6e652056322e,rev?*%
%TF.SameCoordinates,Original*%
%TF.FileFunction,Profile,NP*%
%FSLAX46Y46*%
G04 Gerber Fmt 4.6, Leading zero omitted, Abs format (unit mm)*
G04 Created by KiCad (PCBNEW 9.0.0) date 2026-03-05 15:16:03*
%MOMM*%
%LPD*%
G01*
G04 APERTURE LIST*
%TA.AperFunction,Profile*%
%ADD10C,0.050000*%
%TD*%
G04 APERTURE END LIST*
D10*
X161925000Y-75565000D02*
X160020000Y-75565000D01*
X160020000Y-69215000D01*
X161925000Y-69215000D01*
X161925000Y-75565000D01*
X201449755Y-56720555D02*
X201398058Y-134317584D01*
X199271744Y-136652360D01*
X103378000Y-136398000D01*
X100558600Y-133860542D01*
X100558600Y-58293462D01*
X104063469Y-54661143D01*
X199338926Y-54609726D01*
X201449755Y-56720555D01*
X169545000Y-86360000D02*
X174625000Y-86360000D01*
X174625000Y-88265000D01*
X168275000Y-88265000D01*
X160020000Y-80645000D01*
X160020000Y-79375000D01*
X161925000Y-79375000D01*
X169545000Y-86360000D01*
X154940000Y-68580000D02*
X152400000Y-68580000D01*
X152400000Y-57785000D01*
X154940000Y-57785000D01*
X154940000Y-68580000D01*
X196850000Y-120015000D02*
X187325000Y-120015000D01*
X187325000Y-118110000D01*
X196850000Y-118110000D01*
X196850000Y-120015000D01*
X182880000Y-93980000D02*
X188595000Y-99695000D01*
X188595000Y-113030000D01*
X186690000Y-113030000D01*
X186690000Y-100965000D01*
X180975000Y-95250000D01*
X180975000Y-87630000D01*
X182880000Y-87630000D01*
X182880000Y-93980000D01*
M02*
