%TF.GenerationSoftware,KiCad,Pcbnew,9.0.0*%
%TF.CreationDate,2026-03-05T15:16:03+01:00*%
%TF.ProjectId,MashMachine V2.1 PT100,4d617368-4d61-4636-9869-6e652056322e,rev?*%
%TF.SameCoordinates,Original*%
%TF.FileFunction,Legend,Top*%
%TF.FilePolarity,Positive*%
%FSLAX46Y46*%
G04 Gerber Fmt 4.6, Leading zero omitted, Abs format (unit mm)*
G04 Created by KiCad (PCBNEW 9.0.0) date 2026-03-05 15:16:03*
%MOMM*%
%LPD*%
G01*
G04 APERTURE LIST*
%ADD10C,0.100000*%
%ADD11C,0.187500*%
%ADD12C,0.150000*%
%ADD13C,0.120000*%
G04 APERTURE END LIST*
D10*
X118819715Y-125494371D02*
X118819715Y-124894371D01*
X118819715Y-124894371D02*
X119019715Y-125322942D01*
X119019715Y-125322942D02*
X119219715Y-124894371D01*
X119219715Y-124894371D02*
X119219715Y-125494371D01*
X119762572Y-125094371D02*
X119762572Y-125694371D01*
X119762572Y-125465800D02*
X119705429Y-125494371D01*
X119705429Y-125494371D02*
X119591143Y-125494371D01*
X119591143Y-125494371D02*
X119534000Y-125465800D01*
X119534000Y-125465800D02*
X119505429Y-125437228D01*
X119505429Y-125437228D02*
X119476857Y-125380085D01*
X119476857Y-125380085D02*
X119476857Y-125208657D01*
X119476857Y-125208657D02*
X119505429Y-125151514D01*
X119505429Y-125151514D02*
X119534000Y-125122942D01*
X119534000Y-125122942D02*
X119591143Y-125094371D01*
X119591143Y-125094371D02*
X119705429Y-125094371D01*
X119705429Y-125094371D02*
X119762572Y-125122942D01*
X119962571Y-125094371D02*
X120191143Y-125094371D01*
X120048286Y-124894371D02*
X120048286Y-125408657D01*
X120048286Y-125408657D02*
X120076857Y-125465800D01*
X120076857Y-125465800D02*
X120134000Y-125494371D01*
X120134000Y-125494371D02*
X120191143Y-125494371D01*
X120305428Y-125094371D02*
X120534000Y-125094371D01*
X120391143Y-124894371D02*
X120391143Y-125408657D01*
X120391143Y-125408657D02*
X120419714Y-125465800D01*
X120419714Y-125465800D02*
X120476857Y-125494371D01*
X120476857Y-125494371D02*
X120534000Y-125494371D01*
D11*
X145689926Y-135352392D02*
X145839926Y-134152392D01*
X145839926Y-134152392D02*
X146132783Y-135009535D01*
X146132783Y-135009535D02*
X146639926Y-134152392D01*
X146639926Y-134152392D02*
X146489926Y-135352392D01*
X147575641Y-135352392D02*
X147654212Y-134723821D01*
X147654212Y-134723821D02*
X147611355Y-134609535D01*
X147611355Y-134609535D02*
X147504212Y-134552392D01*
X147504212Y-134552392D02*
X147275641Y-134552392D01*
X147275641Y-134552392D02*
X147154212Y-134609535D01*
X147582784Y-135295250D02*
X147461355Y-135352392D01*
X147461355Y-135352392D02*
X147175641Y-135352392D01*
X147175641Y-135352392D02*
X147068498Y-135295250D01*
X147068498Y-135295250D02*
X147025641Y-135180964D01*
X147025641Y-135180964D02*
X147039926Y-135066678D01*
X147039926Y-135066678D02*
X147111355Y-134952392D01*
X147111355Y-134952392D02*
X147232784Y-134895250D01*
X147232784Y-134895250D02*
X147518498Y-134895250D01*
X147518498Y-134895250D02*
X147639926Y-134838107D01*
X148097069Y-135295250D02*
X148204212Y-135352392D01*
X148204212Y-135352392D02*
X148432783Y-135352392D01*
X148432783Y-135352392D02*
X148554212Y-135295250D01*
X148554212Y-135295250D02*
X148625640Y-135180964D01*
X148625640Y-135180964D02*
X148632783Y-135123821D01*
X148632783Y-135123821D02*
X148589926Y-135009535D01*
X148589926Y-135009535D02*
X148482783Y-134952392D01*
X148482783Y-134952392D02*
X148311355Y-134952392D01*
X148311355Y-134952392D02*
X148204212Y-134895250D01*
X148204212Y-134895250D02*
X148161355Y-134780964D01*
X148161355Y-134780964D02*
X148168498Y-134723821D01*
X148168498Y-134723821D02*
X148239926Y-134609535D01*
X148239926Y-134609535D02*
X148361355Y-134552392D01*
X148361355Y-134552392D02*
X148532783Y-134552392D01*
X148532783Y-134552392D02*
X148639926Y-134609535D01*
X149118498Y-135352392D02*
X149268498Y-134152392D01*
X149632784Y-135352392D02*
X149711355Y-134723821D01*
X149711355Y-134723821D02*
X149668498Y-134609535D01*
X149668498Y-134609535D02*
X149561355Y-134552392D01*
X149561355Y-134552392D02*
X149389927Y-134552392D01*
X149389927Y-134552392D02*
X149268498Y-134609535D01*
X149268498Y-134609535D02*
X149204212Y-134666678D01*
X151097069Y-134152392D02*
X151782784Y-134152392D01*
X151289927Y-135352392D02*
X151439927Y-134152392D01*
X152647070Y-134552392D02*
X152547070Y-135352392D01*
X152132784Y-134552392D02*
X152054213Y-135180964D01*
X152054213Y-135180964D02*
X152097070Y-135295250D01*
X152097070Y-135295250D02*
X152204213Y-135352392D01*
X152204213Y-135352392D02*
X152375641Y-135352392D01*
X152375641Y-135352392D02*
X152497070Y-135295250D01*
X152497070Y-135295250D02*
X152561355Y-135238107D01*
X153218498Y-134552392D02*
X153118498Y-135352392D01*
X153204212Y-134666678D02*
X153268498Y-134609535D01*
X153268498Y-134609535D02*
X153389927Y-134552392D01*
X153389927Y-134552392D02*
X153561355Y-134552392D01*
X153561355Y-134552392D02*
X153668498Y-134609535D01*
X153668498Y-134609535D02*
X153711355Y-134723821D01*
X153711355Y-134723821D02*
X153632784Y-135352392D01*
X155097069Y-134152392D02*
X155347069Y-135352392D01*
X155347069Y-135352392D02*
X155897069Y-134152392D01*
X157139926Y-134266678D02*
X157204212Y-134209535D01*
X157204212Y-134209535D02*
X157325641Y-134152392D01*
X157325641Y-134152392D02*
X157611355Y-134152392D01*
X157611355Y-134152392D02*
X157718498Y-134209535D01*
X157718498Y-134209535D02*
X157768498Y-134266678D01*
X157768498Y-134266678D02*
X157811355Y-134380964D01*
X157811355Y-134380964D02*
X157797069Y-134495250D01*
X157797069Y-134495250D02*
X157718498Y-134666678D01*
X157718498Y-134666678D02*
X156947069Y-135352392D01*
X156947069Y-135352392D02*
X157689926Y-135352392D01*
X158218498Y-135238107D02*
X158268498Y-135295250D01*
X158268498Y-135295250D02*
X158204212Y-135352392D01*
X158204212Y-135352392D02*
X158154212Y-135295250D01*
X158154212Y-135295250D02*
X158218498Y-135238107D01*
X158218498Y-135238107D02*
X158204212Y-135352392D01*
X159154212Y-134152392D02*
X159268498Y-134152392D01*
X159268498Y-134152392D02*
X159375641Y-134209535D01*
X159375641Y-134209535D02*
X159425641Y-134266678D01*
X159425641Y-134266678D02*
X159468498Y-134380964D01*
X159468498Y-134380964D02*
X159497070Y-134609535D01*
X159497070Y-134609535D02*
X159461355Y-134895250D01*
X159461355Y-134895250D02*
X159375641Y-135123821D01*
X159375641Y-135123821D02*
X159304212Y-135238107D01*
X159304212Y-135238107D02*
X159239927Y-135295250D01*
X159239927Y-135295250D02*
X159118498Y-135352392D01*
X159118498Y-135352392D02*
X159004212Y-135352392D01*
X159004212Y-135352392D02*
X158897070Y-135295250D01*
X158897070Y-135295250D02*
X158847070Y-135238107D01*
X158847070Y-135238107D02*
X158804212Y-135123821D01*
X158804212Y-135123821D02*
X158775641Y-134895250D01*
X158775641Y-134895250D02*
X158811355Y-134609535D01*
X158811355Y-134609535D02*
X158897070Y-134380964D01*
X158897070Y-134380964D02*
X158968498Y-134266678D01*
X158968498Y-134266678D02*
X159032784Y-134209535D01*
X159032784Y-134209535D02*
X159154212Y-134152392D01*
X160889927Y-134895250D02*
X161804213Y-134895250D01*
X163311355Y-134723821D02*
X163711355Y-134723821D01*
X163804213Y-135352392D02*
X163232784Y-135352392D01*
X163232784Y-135352392D02*
X163382784Y-134152392D01*
X163382784Y-134152392D02*
X163954213Y-134152392D01*
X164318498Y-135352392D02*
X164418498Y-134552392D01*
X164404212Y-134666678D02*
X164468498Y-134609535D01*
X164468498Y-134609535D02*
X164589927Y-134552392D01*
X164589927Y-134552392D02*
X164761355Y-134552392D01*
X164761355Y-134552392D02*
X164868498Y-134609535D01*
X164868498Y-134609535D02*
X164911355Y-134723821D01*
X164911355Y-134723821D02*
X164832784Y-135352392D01*
X164911355Y-134723821D02*
X164982784Y-134609535D01*
X164982784Y-134609535D02*
X165104212Y-134552392D01*
X165104212Y-134552392D02*
X165275641Y-134552392D01*
X165275641Y-134552392D02*
X165382784Y-134609535D01*
X165382784Y-134609535D02*
X165425641Y-134723821D01*
X165425641Y-134723821D02*
X165347069Y-135352392D01*
X165918498Y-135352392D02*
X166018498Y-134552392D01*
X166068498Y-134152392D02*
X166004212Y-134209535D01*
X166004212Y-134209535D02*
X166054212Y-134266678D01*
X166054212Y-134266678D02*
X166118498Y-134209535D01*
X166118498Y-134209535D02*
X166068498Y-134152392D01*
X166068498Y-134152392D02*
X166054212Y-134266678D01*
X166661356Y-135352392D02*
X166554213Y-135295250D01*
X166554213Y-135295250D02*
X166511356Y-135180964D01*
X166511356Y-135180964D02*
X166639927Y-134152392D01*
X168018498Y-135009535D02*
X168589927Y-135009535D01*
X167861355Y-135352392D02*
X168411355Y-134152392D01*
X168411355Y-134152392D02*
X168661355Y-135352392D01*
X169161355Y-134552392D02*
X169061355Y-135352392D01*
X169147069Y-134666678D02*
X169211355Y-134609535D01*
X169211355Y-134609535D02*
X169332784Y-134552392D01*
X169332784Y-134552392D02*
X169504212Y-134552392D01*
X169504212Y-134552392D02*
X169611355Y-134609535D01*
X169611355Y-134609535D02*
X169654212Y-134723821D01*
X169654212Y-134723821D02*
X169575641Y-135352392D01*
X170661355Y-135352392D02*
X170811355Y-134152392D01*
X170668498Y-135295250D02*
X170547069Y-135352392D01*
X170547069Y-135352392D02*
X170318498Y-135352392D01*
X170318498Y-135352392D02*
X170211355Y-135295250D01*
X170211355Y-135295250D02*
X170161355Y-135238107D01*
X170161355Y-135238107D02*
X170118498Y-135123821D01*
X170118498Y-135123821D02*
X170161355Y-134780964D01*
X170161355Y-134780964D02*
X170232783Y-134666678D01*
X170232783Y-134666678D02*
X170297069Y-134609535D01*
X170297069Y-134609535D02*
X170418498Y-134552392D01*
X170418498Y-134552392D02*
X170647069Y-134552392D01*
X170647069Y-134552392D02*
X170754212Y-134609535D01*
X171232783Y-135352392D02*
X171332783Y-134552392D01*
X171304212Y-134780964D02*
X171375640Y-134666678D01*
X171375640Y-134666678D02*
X171439926Y-134609535D01*
X171439926Y-134609535D02*
X171561354Y-134552392D01*
X171561354Y-134552392D02*
X171675640Y-134552392D01*
X172439926Y-135295250D02*
X172318497Y-135352392D01*
X172318497Y-135352392D02*
X172089926Y-135352392D01*
X172089926Y-135352392D02*
X171982783Y-135295250D01*
X171982783Y-135295250D02*
X171939926Y-135180964D01*
X171939926Y-135180964D02*
X171997069Y-134723821D01*
X171997069Y-134723821D02*
X172068497Y-134609535D01*
X172068497Y-134609535D02*
X172189926Y-134552392D01*
X172189926Y-134552392D02*
X172418497Y-134552392D01*
X172418497Y-134552392D02*
X172525640Y-134609535D01*
X172525640Y-134609535D02*
X172568497Y-134723821D01*
X172568497Y-134723821D02*
X172554211Y-134838107D01*
X172554211Y-134838107D02*
X171968497Y-134952392D01*
X172475640Y-134095250D02*
X172282783Y-134266678D01*
X173518497Y-135352392D02*
X173597068Y-134723821D01*
X173597068Y-134723821D02*
X173554211Y-134609535D01*
X173554211Y-134609535D02*
X173447068Y-134552392D01*
X173447068Y-134552392D02*
X173218497Y-134552392D01*
X173218497Y-134552392D02*
X173097068Y-134609535D01*
X173525640Y-135295250D02*
X173404211Y-135352392D01*
X173404211Y-135352392D02*
X173118497Y-135352392D01*
X173118497Y-135352392D02*
X173011354Y-135295250D01*
X173011354Y-135295250D02*
X172968497Y-135180964D01*
X172968497Y-135180964D02*
X172982782Y-135066678D01*
X172982782Y-135066678D02*
X173054211Y-134952392D01*
X173054211Y-134952392D02*
X173175640Y-134895250D01*
X173175640Y-134895250D02*
X173461354Y-134895250D01*
X173461354Y-134895250D02*
X173582782Y-134838107D01*
X174039925Y-135295250D02*
X174147068Y-135352392D01*
X174147068Y-135352392D02*
X174375639Y-135352392D01*
X174375639Y-135352392D02*
X174497068Y-135295250D01*
X174497068Y-135295250D02*
X174568496Y-135180964D01*
X174568496Y-135180964D02*
X174575639Y-135123821D01*
X174575639Y-135123821D02*
X174532782Y-135009535D01*
X174532782Y-135009535D02*
X174425639Y-134952392D01*
X174425639Y-134952392D02*
X174254211Y-134952392D01*
X174254211Y-134952392D02*
X174147068Y-134895250D01*
X174147068Y-134895250D02*
X174104211Y-134780964D01*
X174104211Y-134780964D02*
X174111354Y-134723821D01*
X174111354Y-134723821D02*
X174182782Y-134609535D01*
X174182782Y-134609535D02*
X174304211Y-134552392D01*
X174304211Y-134552392D02*
X174475639Y-134552392D01*
X174475639Y-134552392D02*
X174582782Y-134609535D01*
X175011354Y-135295250D02*
X175118497Y-135352392D01*
X175118497Y-135352392D02*
X175347068Y-135352392D01*
X175347068Y-135352392D02*
X175468497Y-135295250D01*
X175468497Y-135295250D02*
X175539925Y-135180964D01*
X175539925Y-135180964D02*
X175547068Y-135123821D01*
X175547068Y-135123821D02*
X175504211Y-135009535D01*
X175504211Y-135009535D02*
X175397068Y-134952392D01*
X175397068Y-134952392D02*
X175225640Y-134952392D01*
X175225640Y-134952392D02*
X175118497Y-134895250D01*
X175118497Y-134895250D02*
X175075640Y-134780964D01*
X175075640Y-134780964D02*
X175082783Y-134723821D01*
X175082783Y-134723821D02*
X175154211Y-134609535D01*
X175154211Y-134609535D02*
X175275640Y-134552392D01*
X175275640Y-134552392D02*
X175447068Y-134552392D01*
X175447068Y-134552392D02*
X175554211Y-134609535D01*
X176204212Y-135352392D02*
X176097069Y-135295250D01*
X176097069Y-135295250D02*
X176047069Y-135238107D01*
X176047069Y-135238107D02*
X176004212Y-135123821D01*
X176004212Y-135123821D02*
X176047069Y-134780964D01*
X176047069Y-134780964D02*
X176118497Y-134666678D01*
X176118497Y-134666678D02*
X176182783Y-134609535D01*
X176182783Y-134609535D02*
X176304212Y-134552392D01*
X176304212Y-134552392D02*
X176475640Y-134552392D01*
X176475640Y-134552392D02*
X176582783Y-134609535D01*
X176582783Y-134609535D02*
X176632783Y-134666678D01*
X176632783Y-134666678D02*
X176675640Y-134780964D01*
X176675640Y-134780964D02*
X176632783Y-135123821D01*
X176632783Y-135123821D02*
X176561354Y-135238107D01*
X176561354Y-135238107D02*
X176497069Y-135295250D01*
X176497069Y-135295250D02*
X176375640Y-135352392D01*
X176375640Y-135352392D02*
X176204212Y-135352392D01*
X177218497Y-134552392D02*
X177118497Y-135352392D01*
X177204211Y-134666678D02*
X177268497Y-134609535D01*
X177268497Y-134609535D02*
X177389926Y-134552392D01*
X177389926Y-134552392D02*
X177561354Y-134552392D01*
X177561354Y-134552392D02*
X177668497Y-134609535D01*
X177668497Y-134609535D02*
X177711354Y-134723821D01*
X177711354Y-134723821D02*
X177632783Y-135352392D01*
D10*
X120126285Y-60552942D02*
X120412000Y-60552942D01*
X120069142Y-60724371D02*
X120269142Y-60124371D01*
X120269142Y-60124371D02*
X120469142Y-60724371D01*
X120954857Y-60724371D02*
X120669143Y-60724371D01*
X120669143Y-60724371D02*
X120669143Y-60124371D01*
X121126285Y-60552942D02*
X121412000Y-60552942D01*
X121069142Y-60724371D02*
X121269142Y-60124371D01*
X121269142Y-60124371D02*
X121469142Y-60724371D01*
X122012000Y-60724371D02*
X121812000Y-60438657D01*
X121669143Y-60724371D02*
X121669143Y-60124371D01*
X121669143Y-60124371D02*
X121897714Y-60124371D01*
X121897714Y-60124371D02*
X121954857Y-60152942D01*
X121954857Y-60152942D02*
X121983428Y-60181514D01*
X121983428Y-60181514D02*
X122012000Y-60238657D01*
X122012000Y-60238657D02*
X122012000Y-60324371D01*
X122012000Y-60324371D02*
X121983428Y-60381514D01*
X121983428Y-60381514D02*
X121954857Y-60410085D01*
X121954857Y-60410085D02*
X121897714Y-60438657D01*
X121897714Y-60438657D02*
X121669143Y-60438657D01*
X122269143Y-60724371D02*
X122269143Y-60124371D01*
X122269143Y-60124371D02*
X122469143Y-60552942D01*
X122469143Y-60552942D02*
X122669143Y-60124371D01*
X122669143Y-60124371D02*
X122669143Y-60724371D01*
X119315000Y-103023285D02*
X119400714Y-103051857D01*
X119400714Y-103051857D02*
X119429285Y-103080428D01*
X119429285Y-103080428D02*
X119457857Y-103137571D01*
X119457857Y-103137571D02*
X119457857Y-103223285D01*
X119457857Y-103223285D02*
X119429285Y-103280428D01*
X119429285Y-103280428D02*
X119400714Y-103309000D01*
X119400714Y-103309000D02*
X119343571Y-103337571D01*
X119343571Y-103337571D02*
X119115000Y-103337571D01*
X119115000Y-103337571D02*
X119115000Y-102737571D01*
X119115000Y-102737571D02*
X119315000Y-102737571D01*
X119315000Y-102737571D02*
X119372143Y-102766142D01*
X119372143Y-102766142D02*
X119400714Y-102794714D01*
X119400714Y-102794714D02*
X119429285Y-102851857D01*
X119429285Y-102851857D02*
X119429285Y-102909000D01*
X119429285Y-102909000D02*
X119400714Y-102966142D01*
X119400714Y-102966142D02*
X119372143Y-102994714D01*
X119372143Y-102994714D02*
X119315000Y-103023285D01*
X119315000Y-103023285D02*
X119115000Y-103023285D01*
X119715000Y-103337571D02*
X119715000Y-102937571D01*
X119715000Y-103051857D02*
X119743571Y-102994714D01*
X119743571Y-102994714D02*
X119772143Y-102966142D01*
X119772143Y-102966142D02*
X119829285Y-102937571D01*
X119829285Y-102937571D02*
X119886428Y-102937571D01*
X120343572Y-103337571D02*
X120343572Y-102737571D01*
X120343572Y-103309000D02*
X120286429Y-103337571D01*
X120286429Y-103337571D02*
X120172143Y-103337571D01*
X120172143Y-103337571D02*
X120115000Y-103309000D01*
X120115000Y-103309000D02*
X120086429Y-103280428D01*
X120086429Y-103280428D02*
X120057857Y-103223285D01*
X120057857Y-103223285D02*
X120057857Y-103051857D01*
X120057857Y-103051857D02*
X120086429Y-102994714D01*
X120086429Y-102994714D02*
X120115000Y-102966142D01*
X120115000Y-102966142D02*
X120172143Y-102937571D01*
X120172143Y-102937571D02*
X120286429Y-102937571D01*
X120286429Y-102937571D02*
X120343572Y-102966142D01*
X120943571Y-103337571D02*
X120600714Y-103337571D01*
X120772143Y-103337571D02*
X120772143Y-102737571D01*
X120772143Y-102737571D02*
X120715000Y-102823285D01*
X120715000Y-102823285D02*
X120657857Y-102880428D01*
X120657857Y-102880428D02*
X120600714Y-102909000D01*
X111460884Y-96409400D02*
X111546599Y-96437971D01*
X111546599Y-96437971D02*
X111689456Y-96437971D01*
X111689456Y-96437971D02*
X111746599Y-96409400D01*
X111746599Y-96409400D02*
X111775170Y-96380828D01*
X111775170Y-96380828D02*
X111803741Y-96323685D01*
X111803741Y-96323685D02*
X111803741Y-96266542D01*
X111803741Y-96266542D02*
X111775170Y-96209400D01*
X111775170Y-96209400D02*
X111746599Y-96180828D01*
X111746599Y-96180828D02*
X111689456Y-96152257D01*
X111689456Y-96152257D02*
X111575170Y-96123685D01*
X111575170Y-96123685D02*
X111518027Y-96095114D01*
X111518027Y-96095114D02*
X111489456Y-96066542D01*
X111489456Y-96066542D02*
X111460884Y-96009400D01*
X111460884Y-96009400D02*
X111460884Y-95952257D01*
X111460884Y-95952257D02*
X111489456Y-95895114D01*
X111489456Y-95895114D02*
X111518027Y-95866542D01*
X111518027Y-95866542D02*
X111575170Y-95837971D01*
X111575170Y-95837971D02*
X111718027Y-95837971D01*
X111718027Y-95837971D02*
X111803741Y-95866542D01*
X112032313Y-96409400D02*
X112118028Y-96437971D01*
X112118028Y-96437971D02*
X112260885Y-96437971D01*
X112260885Y-96437971D02*
X112318028Y-96409400D01*
X112318028Y-96409400D02*
X112346599Y-96380828D01*
X112346599Y-96380828D02*
X112375170Y-96323685D01*
X112375170Y-96323685D02*
X112375170Y-96266542D01*
X112375170Y-96266542D02*
X112346599Y-96209400D01*
X112346599Y-96209400D02*
X112318028Y-96180828D01*
X112318028Y-96180828D02*
X112260885Y-96152257D01*
X112260885Y-96152257D02*
X112146599Y-96123685D01*
X112146599Y-96123685D02*
X112089456Y-96095114D01*
X112089456Y-96095114D02*
X112060885Y-96066542D01*
X112060885Y-96066542D02*
X112032313Y-96009400D01*
X112032313Y-96009400D02*
X112032313Y-95952257D01*
X112032313Y-95952257D02*
X112060885Y-95895114D01*
X112060885Y-95895114D02*
X112089456Y-95866542D01*
X112089456Y-95866542D02*
X112146599Y-95837971D01*
X112146599Y-95837971D02*
X112289456Y-95837971D01*
X112289456Y-95837971D02*
X112375170Y-95866542D01*
X112632314Y-96437971D02*
X112632314Y-95837971D01*
X112632314Y-95837971D02*
X112775171Y-95837971D01*
X112775171Y-95837971D02*
X112860885Y-95866542D01*
X112860885Y-95866542D02*
X112918028Y-95923685D01*
X112918028Y-95923685D02*
X112946599Y-95980828D01*
X112946599Y-95980828D02*
X112975171Y-96095114D01*
X112975171Y-96095114D02*
X112975171Y-96180828D01*
X112975171Y-96180828D02*
X112946599Y-96295114D01*
X112946599Y-96295114D02*
X112918028Y-96352257D01*
X112918028Y-96352257D02*
X112860885Y-96409400D01*
X112860885Y-96409400D02*
X112775171Y-96437971D01*
X112775171Y-96437971D02*
X112632314Y-96437971D01*
X113546599Y-96437971D02*
X113203742Y-96437971D01*
X113375171Y-96437971D02*
X113375171Y-95837971D01*
X113375171Y-95837971D02*
X113318028Y-95923685D01*
X113318028Y-95923685D02*
X113260885Y-95980828D01*
X113260885Y-95980828D02*
X113203742Y-96009400D01*
X113746600Y-95837971D02*
X114118028Y-95837971D01*
X114118028Y-95837971D02*
X113918028Y-96066542D01*
X113918028Y-96066542D02*
X114003743Y-96066542D01*
X114003743Y-96066542D02*
X114060886Y-96095114D01*
X114060886Y-96095114D02*
X114089457Y-96123685D01*
X114089457Y-96123685D02*
X114118028Y-96180828D01*
X114118028Y-96180828D02*
X114118028Y-96323685D01*
X114118028Y-96323685D02*
X114089457Y-96380828D01*
X114089457Y-96380828D02*
X114060886Y-96409400D01*
X114060886Y-96409400D02*
X114003743Y-96437971D01*
X114003743Y-96437971D02*
X113832314Y-96437971D01*
X113832314Y-96437971D02*
X113775171Y-96409400D01*
X113775171Y-96409400D02*
X113746600Y-96380828D01*
X114489457Y-95837971D02*
X114546600Y-95837971D01*
X114546600Y-95837971D02*
X114603743Y-95866542D01*
X114603743Y-95866542D02*
X114632315Y-95895114D01*
X114632315Y-95895114D02*
X114660886Y-95952257D01*
X114660886Y-95952257D02*
X114689457Y-96066542D01*
X114689457Y-96066542D02*
X114689457Y-96209400D01*
X114689457Y-96209400D02*
X114660886Y-96323685D01*
X114660886Y-96323685D02*
X114632315Y-96380828D01*
X114632315Y-96380828D02*
X114603743Y-96409400D01*
X114603743Y-96409400D02*
X114546600Y-96437971D01*
X114546600Y-96437971D02*
X114489457Y-96437971D01*
X114489457Y-96437971D02*
X114432315Y-96409400D01*
X114432315Y-96409400D02*
X114403743Y-96380828D01*
X114403743Y-96380828D02*
X114375172Y-96323685D01*
X114375172Y-96323685D02*
X114346600Y-96209400D01*
X114346600Y-96209400D02*
X114346600Y-96066542D01*
X114346600Y-96066542D02*
X114375172Y-95952257D01*
X114375172Y-95952257D02*
X114403743Y-95895114D01*
X114403743Y-95895114D02*
X114432315Y-95866542D01*
X114432315Y-95866542D02*
X114489457Y-95837971D01*
X115203744Y-95837971D02*
X115089458Y-95837971D01*
X115089458Y-95837971D02*
X115032315Y-95866542D01*
X115032315Y-95866542D02*
X115003744Y-95895114D01*
X115003744Y-95895114D02*
X114946601Y-95980828D01*
X114946601Y-95980828D02*
X114918029Y-96095114D01*
X114918029Y-96095114D02*
X114918029Y-96323685D01*
X114918029Y-96323685D02*
X114946601Y-96380828D01*
X114946601Y-96380828D02*
X114975172Y-96409400D01*
X114975172Y-96409400D02*
X115032315Y-96437971D01*
X115032315Y-96437971D02*
X115146601Y-96437971D01*
X115146601Y-96437971D02*
X115203744Y-96409400D01*
X115203744Y-96409400D02*
X115232315Y-96380828D01*
X115232315Y-96380828D02*
X115260886Y-96323685D01*
X115260886Y-96323685D02*
X115260886Y-96180828D01*
X115260886Y-96180828D02*
X115232315Y-96123685D01*
X115232315Y-96123685D02*
X115203744Y-96095114D01*
X115203744Y-96095114D02*
X115146601Y-96066542D01*
X115146601Y-96066542D02*
X115032315Y-96066542D01*
X115032315Y-96066542D02*
X114975172Y-96095114D01*
X114975172Y-96095114D02*
X114946601Y-96123685D01*
X114946601Y-96123685D02*
X114918029Y-96180828D01*
X115975173Y-96437971D02*
X115975173Y-95837971D01*
X115975173Y-95837971D02*
X116118030Y-95837971D01*
X116118030Y-95837971D02*
X116203744Y-95866542D01*
X116203744Y-95866542D02*
X116260887Y-95923685D01*
X116260887Y-95923685D02*
X116289458Y-95980828D01*
X116289458Y-95980828D02*
X116318030Y-96095114D01*
X116318030Y-96095114D02*
X116318030Y-96180828D01*
X116318030Y-96180828D02*
X116289458Y-96295114D01*
X116289458Y-96295114D02*
X116260887Y-96352257D01*
X116260887Y-96352257D02*
X116203744Y-96409400D01*
X116203744Y-96409400D02*
X116118030Y-96437971D01*
X116118030Y-96437971D02*
X115975173Y-96437971D01*
X116575173Y-96437971D02*
X116575173Y-96037971D01*
X116575173Y-95837971D02*
X116546601Y-95866542D01*
X116546601Y-95866542D02*
X116575173Y-95895114D01*
X116575173Y-95895114D02*
X116603744Y-95866542D01*
X116603744Y-95866542D02*
X116575173Y-95837971D01*
X116575173Y-95837971D02*
X116575173Y-95895114D01*
X116832315Y-96409400D02*
X116889458Y-96437971D01*
X116889458Y-96437971D02*
X117003744Y-96437971D01*
X117003744Y-96437971D02*
X117060887Y-96409400D01*
X117060887Y-96409400D02*
X117089458Y-96352257D01*
X117089458Y-96352257D02*
X117089458Y-96323685D01*
X117089458Y-96323685D02*
X117060887Y-96266542D01*
X117060887Y-96266542D02*
X117003744Y-96237971D01*
X117003744Y-96237971D02*
X116918030Y-96237971D01*
X116918030Y-96237971D02*
X116860887Y-96209400D01*
X116860887Y-96209400D02*
X116832315Y-96152257D01*
X116832315Y-96152257D02*
X116832315Y-96123685D01*
X116832315Y-96123685D02*
X116860887Y-96066542D01*
X116860887Y-96066542D02*
X116918030Y-96037971D01*
X116918030Y-96037971D02*
X117003744Y-96037971D01*
X117003744Y-96037971D02*
X117060887Y-96066542D01*
X117346601Y-96037971D02*
X117346601Y-96637971D01*
X117346601Y-96066542D02*
X117403744Y-96037971D01*
X117403744Y-96037971D02*
X117518029Y-96037971D01*
X117518029Y-96037971D02*
X117575172Y-96066542D01*
X117575172Y-96066542D02*
X117603744Y-96095114D01*
X117603744Y-96095114D02*
X117632315Y-96152257D01*
X117632315Y-96152257D02*
X117632315Y-96323685D01*
X117632315Y-96323685D02*
X117603744Y-96380828D01*
X117603744Y-96380828D02*
X117575172Y-96409400D01*
X117575172Y-96409400D02*
X117518029Y-96437971D01*
X117518029Y-96437971D02*
X117403744Y-96437971D01*
X117403744Y-96437971D02*
X117346601Y-96409400D01*
X117975172Y-96437971D02*
X117918029Y-96409400D01*
X117918029Y-96409400D02*
X117889458Y-96352257D01*
X117889458Y-96352257D02*
X117889458Y-95837971D01*
X118460887Y-96437971D02*
X118460887Y-96123685D01*
X118460887Y-96123685D02*
X118432315Y-96066542D01*
X118432315Y-96066542D02*
X118375172Y-96037971D01*
X118375172Y-96037971D02*
X118260887Y-96037971D01*
X118260887Y-96037971D02*
X118203744Y-96066542D01*
X118460887Y-96409400D02*
X118403744Y-96437971D01*
X118403744Y-96437971D02*
X118260887Y-96437971D01*
X118260887Y-96437971D02*
X118203744Y-96409400D01*
X118203744Y-96409400D02*
X118175172Y-96352257D01*
X118175172Y-96352257D02*
X118175172Y-96295114D01*
X118175172Y-96295114D02*
X118203744Y-96237971D01*
X118203744Y-96237971D02*
X118260887Y-96209400D01*
X118260887Y-96209400D02*
X118403744Y-96209400D01*
X118403744Y-96209400D02*
X118460887Y-96180828D01*
X118689458Y-96037971D02*
X118832315Y-96437971D01*
X118975172Y-96037971D02*
X118832315Y-96437971D01*
X118832315Y-96437971D02*
X118775172Y-96580828D01*
X118775172Y-96580828D02*
X118746601Y-96609400D01*
X118746601Y-96609400D02*
X118689458Y-96637971D01*
X119975172Y-96437971D02*
X119632315Y-96437971D01*
X119803744Y-96437971D02*
X119803744Y-95837971D01*
X119803744Y-95837971D02*
X119746601Y-95923685D01*
X119746601Y-95923685D02*
X119689458Y-95980828D01*
X119689458Y-95980828D02*
X119632315Y-96009400D01*
X120260887Y-96409400D02*
X120260887Y-96437971D01*
X120260887Y-96437971D02*
X120232316Y-96495114D01*
X120232316Y-96495114D02*
X120203744Y-96523685D01*
X120946601Y-96266542D02*
X121232316Y-96266542D01*
X120889458Y-96437971D02*
X121089458Y-95837971D01*
X121089458Y-95837971D02*
X121289458Y-96437971D01*
X121746602Y-96437971D02*
X121746602Y-95837971D01*
X121746602Y-96409400D02*
X121689459Y-96437971D01*
X121689459Y-96437971D02*
X121575173Y-96437971D01*
X121575173Y-96437971D02*
X121518030Y-96409400D01*
X121518030Y-96409400D02*
X121489459Y-96380828D01*
X121489459Y-96380828D02*
X121460887Y-96323685D01*
X121460887Y-96323685D02*
X121460887Y-96152257D01*
X121460887Y-96152257D02*
X121489459Y-96095114D01*
X121489459Y-96095114D02*
X121518030Y-96066542D01*
X121518030Y-96066542D02*
X121575173Y-96037971D01*
X121575173Y-96037971D02*
X121689459Y-96037971D01*
X121689459Y-96037971D02*
X121746602Y-96066542D01*
X122289459Y-96437971D02*
X122289459Y-95837971D01*
X122289459Y-96409400D02*
X122232316Y-96437971D01*
X122232316Y-96437971D02*
X122118030Y-96437971D01*
X122118030Y-96437971D02*
X122060887Y-96409400D01*
X122060887Y-96409400D02*
X122032316Y-96380828D01*
X122032316Y-96380828D02*
X122003744Y-96323685D01*
X122003744Y-96323685D02*
X122003744Y-96152257D01*
X122003744Y-96152257D02*
X122032316Y-96095114D01*
X122032316Y-96095114D02*
X122060887Y-96066542D01*
X122060887Y-96066542D02*
X122118030Y-96037971D01*
X122118030Y-96037971D02*
X122232316Y-96037971D01*
X122232316Y-96037971D02*
X122289459Y-96066542D01*
X122803744Y-96409400D02*
X122746601Y-96437971D01*
X122746601Y-96437971D02*
X122632316Y-96437971D01*
X122632316Y-96437971D02*
X122575173Y-96409400D01*
X122575173Y-96409400D02*
X122546601Y-96352257D01*
X122546601Y-96352257D02*
X122546601Y-96123685D01*
X122546601Y-96123685D02*
X122575173Y-96066542D01*
X122575173Y-96066542D02*
X122632316Y-96037971D01*
X122632316Y-96037971D02*
X122746601Y-96037971D01*
X122746601Y-96037971D02*
X122803744Y-96066542D01*
X122803744Y-96066542D02*
X122832316Y-96123685D01*
X122832316Y-96123685D02*
X122832316Y-96180828D01*
X122832316Y-96180828D02*
X122546601Y-96237971D01*
X123060887Y-96409400D02*
X123118030Y-96437971D01*
X123118030Y-96437971D02*
X123232316Y-96437971D01*
X123232316Y-96437971D02*
X123289459Y-96409400D01*
X123289459Y-96409400D02*
X123318030Y-96352257D01*
X123318030Y-96352257D02*
X123318030Y-96323685D01*
X123318030Y-96323685D02*
X123289459Y-96266542D01*
X123289459Y-96266542D02*
X123232316Y-96237971D01*
X123232316Y-96237971D02*
X123146602Y-96237971D01*
X123146602Y-96237971D02*
X123089459Y-96209400D01*
X123089459Y-96209400D02*
X123060887Y-96152257D01*
X123060887Y-96152257D02*
X123060887Y-96123685D01*
X123060887Y-96123685D02*
X123089459Y-96066542D01*
X123089459Y-96066542D02*
X123146602Y-96037971D01*
X123146602Y-96037971D02*
X123232316Y-96037971D01*
X123232316Y-96037971D02*
X123289459Y-96066542D01*
X123546601Y-96409400D02*
X123603744Y-96437971D01*
X123603744Y-96437971D02*
X123718030Y-96437971D01*
X123718030Y-96437971D02*
X123775173Y-96409400D01*
X123775173Y-96409400D02*
X123803744Y-96352257D01*
X123803744Y-96352257D02*
X123803744Y-96323685D01*
X123803744Y-96323685D02*
X123775173Y-96266542D01*
X123775173Y-96266542D02*
X123718030Y-96237971D01*
X123718030Y-96237971D02*
X123632316Y-96237971D01*
X123632316Y-96237971D02*
X123575173Y-96209400D01*
X123575173Y-96209400D02*
X123546601Y-96152257D01*
X123546601Y-96152257D02*
X123546601Y-96123685D01*
X123546601Y-96123685D02*
X123575173Y-96066542D01*
X123575173Y-96066542D02*
X123632316Y-96037971D01*
X123632316Y-96037971D02*
X123718030Y-96037971D01*
X123718030Y-96037971D02*
X123775173Y-96066542D01*
X124032315Y-96409400D02*
X124089458Y-96437971D01*
X124089458Y-96437971D02*
X124203744Y-96437971D01*
X124203744Y-96437971D02*
X124260887Y-96409400D01*
X124260887Y-96409400D02*
X124289458Y-96352257D01*
X124289458Y-96352257D02*
X124289458Y-96323685D01*
X124289458Y-96323685D02*
X124260887Y-96266542D01*
X124260887Y-96266542D02*
X124203744Y-96237971D01*
X124203744Y-96237971D02*
X124118030Y-96237971D01*
X124118030Y-96237971D02*
X124060887Y-96209400D01*
X124060887Y-96209400D02*
X124032315Y-96152257D01*
X124032315Y-96152257D02*
X124032315Y-96123685D01*
X124032315Y-96123685D02*
X124060887Y-96066542D01*
X124060887Y-96066542D02*
X124118030Y-96037971D01*
X124118030Y-96037971D02*
X124203744Y-96037971D01*
X124203744Y-96037971D02*
X124260887Y-96066542D01*
X125118029Y-95837971D02*
X125175172Y-95837971D01*
X125175172Y-95837971D02*
X125232315Y-95866542D01*
X125232315Y-95866542D02*
X125260887Y-95895114D01*
X125260887Y-95895114D02*
X125289458Y-95952257D01*
X125289458Y-95952257D02*
X125318029Y-96066542D01*
X125318029Y-96066542D02*
X125318029Y-96209400D01*
X125318029Y-96209400D02*
X125289458Y-96323685D01*
X125289458Y-96323685D02*
X125260887Y-96380828D01*
X125260887Y-96380828D02*
X125232315Y-96409400D01*
X125232315Y-96409400D02*
X125175172Y-96437971D01*
X125175172Y-96437971D02*
X125118029Y-96437971D01*
X125118029Y-96437971D02*
X125060887Y-96409400D01*
X125060887Y-96409400D02*
X125032315Y-96380828D01*
X125032315Y-96380828D02*
X125003744Y-96323685D01*
X125003744Y-96323685D02*
X124975172Y-96209400D01*
X124975172Y-96209400D02*
X124975172Y-96066542D01*
X124975172Y-96066542D02*
X125003744Y-95952257D01*
X125003744Y-95952257D02*
X125032315Y-95895114D01*
X125032315Y-95895114D02*
X125060887Y-95866542D01*
X125060887Y-95866542D02*
X125118029Y-95837971D01*
X125518030Y-96437971D02*
X125832316Y-96037971D01*
X125518030Y-96037971D02*
X125832316Y-96437971D01*
X126003744Y-95837971D02*
X126403744Y-95837971D01*
X126403744Y-95837971D02*
X126146601Y-96437971D01*
X126718030Y-96095114D02*
X126660887Y-96066542D01*
X126660887Y-96066542D02*
X126632316Y-96037971D01*
X126632316Y-96037971D02*
X126603744Y-95980828D01*
X126603744Y-95980828D02*
X126603744Y-95952257D01*
X126603744Y-95952257D02*
X126632316Y-95895114D01*
X126632316Y-95895114D02*
X126660887Y-95866542D01*
X126660887Y-95866542D02*
X126718030Y-95837971D01*
X126718030Y-95837971D02*
X126832316Y-95837971D01*
X126832316Y-95837971D02*
X126889459Y-95866542D01*
X126889459Y-95866542D02*
X126918030Y-95895114D01*
X126918030Y-95895114D02*
X126946601Y-95952257D01*
X126946601Y-95952257D02*
X126946601Y-95980828D01*
X126946601Y-95980828D02*
X126918030Y-96037971D01*
X126918030Y-96037971D02*
X126889459Y-96066542D01*
X126889459Y-96066542D02*
X126832316Y-96095114D01*
X126832316Y-96095114D02*
X126718030Y-96095114D01*
X126718030Y-96095114D02*
X126660887Y-96123685D01*
X126660887Y-96123685D02*
X126632316Y-96152257D01*
X126632316Y-96152257D02*
X126603744Y-96209400D01*
X126603744Y-96209400D02*
X126603744Y-96323685D01*
X126603744Y-96323685D02*
X126632316Y-96380828D01*
X126632316Y-96380828D02*
X126660887Y-96409400D01*
X126660887Y-96409400D02*
X126718030Y-96437971D01*
X126718030Y-96437971D02*
X126832316Y-96437971D01*
X126832316Y-96437971D02*
X126889459Y-96409400D01*
X126889459Y-96409400D02*
X126918030Y-96380828D01*
X126918030Y-96380828D02*
X126946601Y-96323685D01*
X126946601Y-96323685D02*
X126946601Y-96209400D01*
X126946601Y-96209400D02*
X126918030Y-96152257D01*
X126918030Y-96152257D02*
X126889459Y-96123685D01*
X126889459Y-96123685D02*
X126832316Y-96095114D01*
X127232316Y-96409400D02*
X127232316Y-96437971D01*
X127232316Y-96437971D02*
X127203745Y-96495114D01*
X127203745Y-96495114D02*
X127175173Y-96523685D01*
X128118030Y-96666542D02*
X128089459Y-96637971D01*
X128089459Y-96637971D02*
X128032316Y-96552257D01*
X128032316Y-96552257D02*
X128003745Y-96495114D01*
X128003745Y-96495114D02*
X127975173Y-96409400D01*
X127975173Y-96409400D02*
X127946602Y-96266542D01*
X127946602Y-96266542D02*
X127946602Y-96152257D01*
X127946602Y-96152257D02*
X127975173Y-96009400D01*
X127975173Y-96009400D02*
X128003745Y-95923685D01*
X128003745Y-95923685D02*
X128032316Y-95866542D01*
X128032316Y-95866542D02*
X128089459Y-95780828D01*
X128089459Y-95780828D02*
X128118030Y-95752257D01*
X128660887Y-95866542D02*
X128603745Y-95837971D01*
X128603745Y-95837971D02*
X128518030Y-95837971D01*
X128518030Y-95837971D02*
X128432316Y-95866542D01*
X128432316Y-95866542D02*
X128375173Y-95923685D01*
X128375173Y-95923685D02*
X128346602Y-95980828D01*
X128346602Y-95980828D02*
X128318030Y-96095114D01*
X128318030Y-96095114D02*
X128318030Y-96180828D01*
X128318030Y-96180828D02*
X128346602Y-96295114D01*
X128346602Y-96295114D02*
X128375173Y-96352257D01*
X128375173Y-96352257D02*
X128432316Y-96409400D01*
X128432316Y-96409400D02*
X128518030Y-96437971D01*
X128518030Y-96437971D02*
X128575173Y-96437971D01*
X128575173Y-96437971D02*
X128660887Y-96409400D01*
X128660887Y-96409400D02*
X128689459Y-96380828D01*
X128689459Y-96380828D02*
X128689459Y-96180828D01*
X128689459Y-96180828D02*
X128575173Y-96180828D01*
X128946602Y-96437971D02*
X128946602Y-95837971D01*
X128946602Y-95837971D02*
X129289459Y-96437971D01*
X129289459Y-96437971D02*
X129289459Y-95837971D01*
X129575173Y-96437971D02*
X129575173Y-95837971D01*
X129575173Y-95837971D02*
X129718030Y-95837971D01*
X129718030Y-95837971D02*
X129803744Y-95866542D01*
X129803744Y-95866542D02*
X129860887Y-95923685D01*
X129860887Y-95923685D02*
X129889458Y-95980828D01*
X129889458Y-95980828D02*
X129918030Y-96095114D01*
X129918030Y-96095114D02*
X129918030Y-96180828D01*
X129918030Y-96180828D02*
X129889458Y-96295114D01*
X129889458Y-96295114D02*
X129860887Y-96352257D01*
X129860887Y-96352257D02*
X129803744Y-96409400D01*
X129803744Y-96409400D02*
X129718030Y-96437971D01*
X129718030Y-96437971D02*
X129575173Y-96437971D01*
X130203744Y-96409400D02*
X130203744Y-96437971D01*
X130203744Y-96437971D02*
X130175173Y-96495114D01*
X130175173Y-96495114D02*
X130146601Y-96523685D01*
X130375172Y-95837971D02*
X130575172Y-96437971D01*
X130575172Y-96437971D02*
X130775172Y-95837971D01*
X131318030Y-96380828D02*
X131289458Y-96409400D01*
X131289458Y-96409400D02*
X131203744Y-96437971D01*
X131203744Y-96437971D02*
X131146601Y-96437971D01*
X131146601Y-96437971D02*
X131060887Y-96409400D01*
X131060887Y-96409400D02*
X131003744Y-96352257D01*
X131003744Y-96352257D02*
X130975173Y-96295114D01*
X130975173Y-96295114D02*
X130946601Y-96180828D01*
X130946601Y-96180828D02*
X130946601Y-96095114D01*
X130946601Y-96095114D02*
X130975173Y-95980828D01*
X130975173Y-95980828D02*
X131003744Y-95923685D01*
X131003744Y-95923685D02*
X131060887Y-95866542D01*
X131060887Y-95866542D02*
X131146601Y-95837971D01*
X131146601Y-95837971D02*
X131203744Y-95837971D01*
X131203744Y-95837971D02*
X131289458Y-95866542D01*
X131289458Y-95866542D02*
X131318030Y-95895114D01*
X131918030Y-96380828D02*
X131889458Y-96409400D01*
X131889458Y-96409400D02*
X131803744Y-96437971D01*
X131803744Y-96437971D02*
X131746601Y-96437971D01*
X131746601Y-96437971D02*
X131660887Y-96409400D01*
X131660887Y-96409400D02*
X131603744Y-96352257D01*
X131603744Y-96352257D02*
X131575173Y-96295114D01*
X131575173Y-96295114D02*
X131546601Y-96180828D01*
X131546601Y-96180828D02*
X131546601Y-96095114D01*
X131546601Y-96095114D02*
X131575173Y-95980828D01*
X131575173Y-95980828D02*
X131603744Y-95923685D01*
X131603744Y-95923685D02*
X131660887Y-95866542D01*
X131660887Y-95866542D02*
X131746601Y-95837971D01*
X131746601Y-95837971D02*
X131803744Y-95837971D01*
X131803744Y-95837971D02*
X131889458Y-95866542D01*
X131889458Y-95866542D02*
X131918030Y-95895114D01*
X132203744Y-96409400D02*
X132203744Y-96437971D01*
X132203744Y-96437971D02*
X132175173Y-96495114D01*
X132175173Y-96495114D02*
X132146601Y-96523685D01*
X132432315Y-96409400D02*
X132518030Y-96437971D01*
X132518030Y-96437971D02*
X132660887Y-96437971D01*
X132660887Y-96437971D02*
X132718030Y-96409400D01*
X132718030Y-96409400D02*
X132746601Y-96380828D01*
X132746601Y-96380828D02*
X132775172Y-96323685D01*
X132775172Y-96323685D02*
X132775172Y-96266542D01*
X132775172Y-96266542D02*
X132746601Y-96209400D01*
X132746601Y-96209400D02*
X132718030Y-96180828D01*
X132718030Y-96180828D02*
X132660887Y-96152257D01*
X132660887Y-96152257D02*
X132546601Y-96123685D01*
X132546601Y-96123685D02*
X132489458Y-96095114D01*
X132489458Y-96095114D02*
X132460887Y-96066542D01*
X132460887Y-96066542D02*
X132432315Y-96009400D01*
X132432315Y-96009400D02*
X132432315Y-95952257D01*
X132432315Y-95952257D02*
X132460887Y-95895114D01*
X132460887Y-95895114D02*
X132489458Y-95866542D01*
X132489458Y-95866542D02*
X132546601Y-95837971D01*
X132546601Y-95837971D02*
X132689458Y-95837971D01*
X132689458Y-95837971D02*
X132775172Y-95866542D01*
X133375173Y-96380828D02*
X133346601Y-96409400D01*
X133346601Y-96409400D02*
X133260887Y-96437971D01*
X133260887Y-96437971D02*
X133203744Y-96437971D01*
X133203744Y-96437971D02*
X133118030Y-96409400D01*
X133118030Y-96409400D02*
X133060887Y-96352257D01*
X133060887Y-96352257D02*
X133032316Y-96295114D01*
X133032316Y-96295114D02*
X133003744Y-96180828D01*
X133003744Y-96180828D02*
X133003744Y-96095114D01*
X133003744Y-96095114D02*
X133032316Y-95980828D01*
X133032316Y-95980828D02*
X133060887Y-95923685D01*
X133060887Y-95923685D02*
X133118030Y-95866542D01*
X133118030Y-95866542D02*
X133203744Y-95837971D01*
X133203744Y-95837971D02*
X133260887Y-95837971D01*
X133260887Y-95837971D02*
X133346601Y-95866542D01*
X133346601Y-95866542D02*
X133375173Y-95895114D01*
X133918030Y-96437971D02*
X133632316Y-96437971D01*
X133632316Y-96437971D02*
X133632316Y-95837971D01*
X134146601Y-96409400D02*
X134146601Y-96437971D01*
X134146601Y-96437971D02*
X134118030Y-96495114D01*
X134118030Y-96495114D02*
X134089458Y-96523685D01*
X134375172Y-96409400D02*
X134460887Y-96437971D01*
X134460887Y-96437971D02*
X134603744Y-96437971D01*
X134603744Y-96437971D02*
X134660887Y-96409400D01*
X134660887Y-96409400D02*
X134689458Y-96380828D01*
X134689458Y-96380828D02*
X134718029Y-96323685D01*
X134718029Y-96323685D02*
X134718029Y-96266542D01*
X134718029Y-96266542D02*
X134689458Y-96209400D01*
X134689458Y-96209400D02*
X134660887Y-96180828D01*
X134660887Y-96180828D02*
X134603744Y-96152257D01*
X134603744Y-96152257D02*
X134489458Y-96123685D01*
X134489458Y-96123685D02*
X134432315Y-96095114D01*
X134432315Y-96095114D02*
X134403744Y-96066542D01*
X134403744Y-96066542D02*
X134375172Y-96009400D01*
X134375172Y-96009400D02*
X134375172Y-95952257D01*
X134375172Y-95952257D02*
X134403744Y-95895114D01*
X134403744Y-95895114D02*
X134432315Y-95866542D01*
X134432315Y-95866542D02*
X134489458Y-95837971D01*
X134489458Y-95837971D02*
X134632315Y-95837971D01*
X134632315Y-95837971D02*
X134718029Y-95866542D01*
X134975173Y-96437971D02*
X134975173Y-95837971D01*
X134975173Y-95837971D02*
X135118030Y-95837971D01*
X135118030Y-95837971D02*
X135203744Y-95866542D01*
X135203744Y-95866542D02*
X135260887Y-95923685D01*
X135260887Y-95923685D02*
X135289458Y-95980828D01*
X135289458Y-95980828D02*
X135318030Y-96095114D01*
X135318030Y-96095114D02*
X135318030Y-96180828D01*
X135318030Y-96180828D02*
X135289458Y-96295114D01*
X135289458Y-96295114D02*
X135260887Y-96352257D01*
X135260887Y-96352257D02*
X135203744Y-96409400D01*
X135203744Y-96409400D02*
X135118030Y-96437971D01*
X135118030Y-96437971D02*
X134975173Y-96437971D01*
X135546601Y-96266542D02*
X135832316Y-96266542D01*
X135489458Y-96437971D02*
X135689458Y-95837971D01*
X135689458Y-95837971D02*
X135889458Y-96437971D01*
X136032316Y-96666542D02*
X136060887Y-96637971D01*
X136060887Y-96637971D02*
X136118030Y-96552257D01*
X136118030Y-96552257D02*
X136146602Y-96495114D01*
X136146602Y-96495114D02*
X136175173Y-96409400D01*
X136175173Y-96409400D02*
X136203744Y-96266542D01*
X136203744Y-96266542D02*
X136203744Y-96152257D01*
X136203744Y-96152257D02*
X136175173Y-96009400D01*
X136175173Y-96009400D02*
X136146602Y-95923685D01*
X136146602Y-95923685D02*
X136118030Y-95866542D01*
X136118030Y-95866542D02*
X136060887Y-95780828D01*
X136060887Y-95780828D02*
X136032316Y-95752257D01*
X110404739Y-125240371D02*
X110404739Y-124640371D01*
X110404739Y-124640371D02*
X110547596Y-124640371D01*
X110547596Y-124640371D02*
X110633310Y-124668942D01*
X110633310Y-124668942D02*
X110690453Y-124726085D01*
X110690453Y-124726085D02*
X110719024Y-124783228D01*
X110719024Y-124783228D02*
X110747596Y-124897514D01*
X110747596Y-124897514D02*
X110747596Y-124983228D01*
X110747596Y-124983228D02*
X110719024Y-125097514D01*
X110719024Y-125097514D02*
X110690453Y-125154657D01*
X110690453Y-125154657D02*
X110633310Y-125211800D01*
X110633310Y-125211800D02*
X110547596Y-125240371D01*
X110547596Y-125240371D02*
X110404739Y-125240371D01*
X111347596Y-125183228D02*
X111319024Y-125211800D01*
X111319024Y-125211800D02*
X111233310Y-125240371D01*
X111233310Y-125240371D02*
X111176167Y-125240371D01*
X111176167Y-125240371D02*
X111090453Y-125211800D01*
X111090453Y-125211800D02*
X111033310Y-125154657D01*
X111033310Y-125154657D02*
X111004739Y-125097514D01*
X111004739Y-125097514D02*
X110976167Y-124983228D01*
X110976167Y-124983228D02*
X110976167Y-124897514D01*
X110976167Y-124897514D02*
X111004739Y-124783228D01*
X111004739Y-124783228D02*
X111033310Y-124726085D01*
X111033310Y-124726085D02*
X111090453Y-124668942D01*
X111090453Y-124668942D02*
X111176167Y-124640371D01*
X111176167Y-124640371D02*
X111233310Y-124640371D01*
X111233310Y-124640371D02*
X111319024Y-124668942D01*
X111319024Y-124668942D02*
X111347596Y-124697514D01*
X171665999Y-127751800D02*
X171751714Y-127780371D01*
X171751714Y-127780371D02*
X171894571Y-127780371D01*
X171894571Y-127780371D02*
X171951714Y-127751800D01*
X171951714Y-127751800D02*
X171980285Y-127723228D01*
X171980285Y-127723228D02*
X172008856Y-127666085D01*
X172008856Y-127666085D02*
X172008856Y-127608942D01*
X172008856Y-127608942D02*
X171980285Y-127551800D01*
X171980285Y-127551800D02*
X171951714Y-127523228D01*
X171951714Y-127523228D02*
X171894571Y-127494657D01*
X171894571Y-127494657D02*
X171780285Y-127466085D01*
X171780285Y-127466085D02*
X171723142Y-127437514D01*
X171723142Y-127437514D02*
X171694571Y-127408942D01*
X171694571Y-127408942D02*
X171665999Y-127351800D01*
X171665999Y-127351800D02*
X171665999Y-127294657D01*
X171665999Y-127294657D02*
X171694571Y-127237514D01*
X171694571Y-127237514D02*
X171723142Y-127208942D01*
X171723142Y-127208942D02*
X171780285Y-127180371D01*
X171780285Y-127180371D02*
X171923142Y-127180371D01*
X171923142Y-127180371D02*
X172008856Y-127208942D01*
X172208857Y-127180371D02*
X172351714Y-127780371D01*
X172351714Y-127780371D02*
X172466000Y-127351800D01*
X172466000Y-127351800D02*
X172580285Y-127780371D01*
X172580285Y-127780371D02*
X172723143Y-127180371D01*
X172894571Y-127180371D02*
X173265999Y-127180371D01*
X173265999Y-127180371D02*
X173065999Y-127408942D01*
X173065999Y-127408942D02*
X173151714Y-127408942D01*
X173151714Y-127408942D02*
X173208857Y-127437514D01*
X173208857Y-127437514D02*
X173237428Y-127466085D01*
X173237428Y-127466085D02*
X173265999Y-127523228D01*
X173265999Y-127523228D02*
X173265999Y-127666085D01*
X173265999Y-127666085D02*
X173237428Y-127723228D01*
X173237428Y-127723228D02*
X173208857Y-127751800D01*
X173208857Y-127751800D02*
X173151714Y-127780371D01*
X173151714Y-127780371D02*
X172980285Y-127780371D01*
X172980285Y-127780371D02*
X172923142Y-127751800D01*
X172923142Y-127751800D02*
X172894571Y-127723228D01*
X167081428Y-123941800D02*
X167167143Y-123970371D01*
X167167143Y-123970371D02*
X167310000Y-123970371D01*
X167310000Y-123970371D02*
X167367143Y-123941800D01*
X167367143Y-123941800D02*
X167395714Y-123913228D01*
X167395714Y-123913228D02*
X167424285Y-123856085D01*
X167424285Y-123856085D02*
X167424285Y-123798942D01*
X167424285Y-123798942D02*
X167395714Y-123741800D01*
X167395714Y-123741800D02*
X167367143Y-123713228D01*
X167367143Y-123713228D02*
X167310000Y-123684657D01*
X167310000Y-123684657D02*
X167195714Y-123656085D01*
X167195714Y-123656085D02*
X167138571Y-123627514D01*
X167138571Y-123627514D02*
X167110000Y-123598942D01*
X167110000Y-123598942D02*
X167081428Y-123541800D01*
X167081428Y-123541800D02*
X167081428Y-123484657D01*
X167081428Y-123484657D02*
X167110000Y-123427514D01*
X167110000Y-123427514D02*
X167138571Y-123398942D01*
X167138571Y-123398942D02*
X167195714Y-123370371D01*
X167195714Y-123370371D02*
X167338571Y-123370371D01*
X167338571Y-123370371D02*
X167424285Y-123398942D01*
X167624286Y-123370371D02*
X167767143Y-123970371D01*
X167767143Y-123970371D02*
X167881429Y-123541800D01*
X167881429Y-123541800D02*
X167995714Y-123970371D01*
X167995714Y-123970371D02*
X168138572Y-123370371D01*
X168224286Y-124027514D02*
X168681428Y-124027514D01*
X168824286Y-123970371D02*
X168824286Y-123370371D01*
X168824286Y-123370371D02*
X169052857Y-123370371D01*
X169052857Y-123370371D02*
X169110000Y-123398942D01*
X169110000Y-123398942D02*
X169138571Y-123427514D01*
X169138571Y-123427514D02*
X169167143Y-123484657D01*
X169167143Y-123484657D02*
X169167143Y-123570371D01*
X169167143Y-123570371D02*
X169138571Y-123627514D01*
X169138571Y-123627514D02*
X169110000Y-123656085D01*
X169110000Y-123656085D02*
X169052857Y-123684657D01*
X169052857Y-123684657D02*
X168824286Y-123684657D01*
X169681429Y-123570371D02*
X169681429Y-123970371D01*
X169424286Y-123570371D02*
X169424286Y-123884657D01*
X169424286Y-123884657D02*
X169452857Y-123941800D01*
X169452857Y-123941800D02*
X169510000Y-123970371D01*
X169510000Y-123970371D02*
X169595714Y-123970371D01*
X169595714Y-123970371D02*
X169652857Y-123941800D01*
X169652857Y-123941800D02*
X169681429Y-123913228D01*
X169938571Y-123941800D02*
X169995714Y-123970371D01*
X169995714Y-123970371D02*
X170110000Y-123970371D01*
X170110000Y-123970371D02*
X170167143Y-123941800D01*
X170167143Y-123941800D02*
X170195714Y-123884657D01*
X170195714Y-123884657D02*
X170195714Y-123856085D01*
X170195714Y-123856085D02*
X170167143Y-123798942D01*
X170167143Y-123798942D02*
X170110000Y-123770371D01*
X170110000Y-123770371D02*
X170024286Y-123770371D01*
X170024286Y-123770371D02*
X169967143Y-123741800D01*
X169967143Y-123741800D02*
X169938571Y-123684657D01*
X169938571Y-123684657D02*
X169938571Y-123656085D01*
X169938571Y-123656085D02*
X169967143Y-123598942D01*
X169967143Y-123598942D02*
X170024286Y-123570371D01*
X170024286Y-123570371D02*
X170110000Y-123570371D01*
X170110000Y-123570371D02*
X170167143Y-123598942D01*
X170452857Y-123970371D02*
X170452857Y-123370371D01*
X170710000Y-123970371D02*
X170710000Y-123656085D01*
X170710000Y-123656085D02*
X170681428Y-123598942D01*
X170681428Y-123598942D02*
X170624285Y-123570371D01*
X170624285Y-123570371D02*
X170538571Y-123570371D01*
X170538571Y-123570371D02*
X170481428Y-123598942D01*
X170481428Y-123598942D02*
X170452857Y-123627514D01*
X155459200Y-103023285D02*
X155544914Y-103051857D01*
X155544914Y-103051857D02*
X155573485Y-103080428D01*
X155573485Y-103080428D02*
X155602057Y-103137571D01*
X155602057Y-103137571D02*
X155602057Y-103223285D01*
X155602057Y-103223285D02*
X155573485Y-103280428D01*
X155573485Y-103280428D02*
X155544914Y-103309000D01*
X155544914Y-103309000D02*
X155487771Y-103337571D01*
X155487771Y-103337571D02*
X155259200Y-103337571D01*
X155259200Y-103337571D02*
X155259200Y-102737571D01*
X155259200Y-102737571D02*
X155459200Y-102737571D01*
X155459200Y-102737571D02*
X155516343Y-102766142D01*
X155516343Y-102766142D02*
X155544914Y-102794714D01*
X155544914Y-102794714D02*
X155573485Y-102851857D01*
X155573485Y-102851857D02*
X155573485Y-102909000D01*
X155573485Y-102909000D02*
X155544914Y-102966142D01*
X155544914Y-102966142D02*
X155516343Y-102994714D01*
X155516343Y-102994714D02*
X155459200Y-103023285D01*
X155459200Y-103023285D02*
X155259200Y-103023285D01*
X155859200Y-103337571D02*
X155859200Y-102937571D01*
X155859200Y-103051857D02*
X155887771Y-102994714D01*
X155887771Y-102994714D02*
X155916343Y-102966142D01*
X155916343Y-102966142D02*
X155973485Y-102937571D01*
X155973485Y-102937571D02*
X156030628Y-102937571D01*
X156487772Y-103337571D02*
X156487772Y-102737571D01*
X156487772Y-103309000D02*
X156430629Y-103337571D01*
X156430629Y-103337571D02*
X156316343Y-103337571D01*
X156316343Y-103337571D02*
X156259200Y-103309000D01*
X156259200Y-103309000D02*
X156230629Y-103280428D01*
X156230629Y-103280428D02*
X156202057Y-103223285D01*
X156202057Y-103223285D02*
X156202057Y-103051857D01*
X156202057Y-103051857D02*
X156230629Y-102994714D01*
X156230629Y-102994714D02*
X156259200Y-102966142D01*
X156259200Y-102966142D02*
X156316343Y-102937571D01*
X156316343Y-102937571D02*
X156430629Y-102937571D01*
X156430629Y-102937571D02*
X156487772Y-102966142D01*
X156744914Y-102794714D02*
X156773486Y-102766142D01*
X156773486Y-102766142D02*
X156830629Y-102737571D01*
X156830629Y-102737571D02*
X156973486Y-102737571D01*
X156973486Y-102737571D02*
X157030629Y-102766142D01*
X157030629Y-102766142D02*
X157059200Y-102794714D01*
X157059200Y-102794714D02*
X157087771Y-102851857D01*
X157087771Y-102851857D02*
X157087771Y-102909000D01*
X157087771Y-102909000D02*
X157059200Y-102994714D01*
X157059200Y-102994714D02*
X156716343Y-103337571D01*
X156716343Y-103337571D02*
X157087771Y-103337571D01*
X151023569Y-99938800D02*
X151109284Y-99967371D01*
X151109284Y-99967371D02*
X151252141Y-99967371D01*
X151252141Y-99967371D02*
X151309284Y-99938800D01*
X151309284Y-99938800D02*
X151337855Y-99910228D01*
X151337855Y-99910228D02*
X151366426Y-99853085D01*
X151366426Y-99853085D02*
X151366426Y-99795942D01*
X151366426Y-99795942D02*
X151337855Y-99738800D01*
X151337855Y-99738800D02*
X151309284Y-99710228D01*
X151309284Y-99710228D02*
X151252141Y-99681657D01*
X151252141Y-99681657D02*
X151137855Y-99653085D01*
X151137855Y-99653085D02*
X151080712Y-99624514D01*
X151080712Y-99624514D02*
X151052141Y-99595942D01*
X151052141Y-99595942D02*
X151023569Y-99538800D01*
X151023569Y-99538800D02*
X151023569Y-99481657D01*
X151023569Y-99481657D02*
X151052141Y-99424514D01*
X151052141Y-99424514D02*
X151080712Y-99395942D01*
X151080712Y-99395942D02*
X151137855Y-99367371D01*
X151137855Y-99367371D02*
X151280712Y-99367371D01*
X151280712Y-99367371D02*
X151366426Y-99395942D01*
X151594998Y-99938800D02*
X151680713Y-99967371D01*
X151680713Y-99967371D02*
X151823570Y-99967371D01*
X151823570Y-99967371D02*
X151880713Y-99938800D01*
X151880713Y-99938800D02*
X151909284Y-99910228D01*
X151909284Y-99910228D02*
X151937855Y-99853085D01*
X151937855Y-99853085D02*
X151937855Y-99795942D01*
X151937855Y-99795942D02*
X151909284Y-99738800D01*
X151909284Y-99738800D02*
X151880713Y-99710228D01*
X151880713Y-99710228D02*
X151823570Y-99681657D01*
X151823570Y-99681657D02*
X151709284Y-99653085D01*
X151709284Y-99653085D02*
X151652141Y-99624514D01*
X151652141Y-99624514D02*
X151623570Y-99595942D01*
X151623570Y-99595942D02*
X151594998Y-99538800D01*
X151594998Y-99538800D02*
X151594998Y-99481657D01*
X151594998Y-99481657D02*
X151623570Y-99424514D01*
X151623570Y-99424514D02*
X151652141Y-99395942D01*
X151652141Y-99395942D02*
X151709284Y-99367371D01*
X151709284Y-99367371D02*
X151852141Y-99367371D01*
X151852141Y-99367371D02*
X151937855Y-99395942D01*
X152194999Y-99967371D02*
X152194999Y-99367371D01*
X152194999Y-99367371D02*
X152337856Y-99367371D01*
X152337856Y-99367371D02*
X152423570Y-99395942D01*
X152423570Y-99395942D02*
X152480713Y-99453085D01*
X152480713Y-99453085D02*
X152509284Y-99510228D01*
X152509284Y-99510228D02*
X152537856Y-99624514D01*
X152537856Y-99624514D02*
X152537856Y-99710228D01*
X152537856Y-99710228D02*
X152509284Y-99824514D01*
X152509284Y-99824514D02*
X152480713Y-99881657D01*
X152480713Y-99881657D02*
X152423570Y-99938800D01*
X152423570Y-99938800D02*
X152337856Y-99967371D01*
X152337856Y-99967371D02*
X152194999Y-99967371D01*
X153109284Y-99967371D02*
X152766427Y-99967371D01*
X152937856Y-99967371D02*
X152937856Y-99367371D01*
X152937856Y-99367371D02*
X152880713Y-99453085D01*
X152880713Y-99453085D02*
X152823570Y-99510228D01*
X152823570Y-99510228D02*
X152766427Y-99538800D01*
X153309285Y-99367371D02*
X153680713Y-99367371D01*
X153680713Y-99367371D02*
X153480713Y-99595942D01*
X153480713Y-99595942D02*
X153566428Y-99595942D01*
X153566428Y-99595942D02*
X153623571Y-99624514D01*
X153623571Y-99624514D02*
X153652142Y-99653085D01*
X153652142Y-99653085D02*
X153680713Y-99710228D01*
X153680713Y-99710228D02*
X153680713Y-99853085D01*
X153680713Y-99853085D02*
X153652142Y-99910228D01*
X153652142Y-99910228D02*
X153623571Y-99938800D01*
X153623571Y-99938800D02*
X153566428Y-99967371D01*
X153566428Y-99967371D02*
X153394999Y-99967371D01*
X153394999Y-99967371D02*
X153337856Y-99938800D01*
X153337856Y-99938800D02*
X153309285Y-99910228D01*
X154052142Y-99367371D02*
X154109285Y-99367371D01*
X154109285Y-99367371D02*
X154166428Y-99395942D01*
X154166428Y-99395942D02*
X154195000Y-99424514D01*
X154195000Y-99424514D02*
X154223571Y-99481657D01*
X154223571Y-99481657D02*
X154252142Y-99595942D01*
X154252142Y-99595942D02*
X154252142Y-99738800D01*
X154252142Y-99738800D02*
X154223571Y-99853085D01*
X154223571Y-99853085D02*
X154195000Y-99910228D01*
X154195000Y-99910228D02*
X154166428Y-99938800D01*
X154166428Y-99938800D02*
X154109285Y-99967371D01*
X154109285Y-99967371D02*
X154052142Y-99967371D01*
X154052142Y-99967371D02*
X153995000Y-99938800D01*
X153995000Y-99938800D02*
X153966428Y-99910228D01*
X153966428Y-99910228D02*
X153937857Y-99853085D01*
X153937857Y-99853085D02*
X153909285Y-99738800D01*
X153909285Y-99738800D02*
X153909285Y-99595942D01*
X153909285Y-99595942D02*
X153937857Y-99481657D01*
X153937857Y-99481657D02*
X153966428Y-99424514D01*
X153966428Y-99424514D02*
X153995000Y-99395942D01*
X153995000Y-99395942D02*
X154052142Y-99367371D01*
X154766429Y-99367371D02*
X154652143Y-99367371D01*
X154652143Y-99367371D02*
X154595000Y-99395942D01*
X154595000Y-99395942D02*
X154566429Y-99424514D01*
X154566429Y-99424514D02*
X154509286Y-99510228D01*
X154509286Y-99510228D02*
X154480714Y-99624514D01*
X154480714Y-99624514D02*
X154480714Y-99853085D01*
X154480714Y-99853085D02*
X154509286Y-99910228D01*
X154509286Y-99910228D02*
X154537857Y-99938800D01*
X154537857Y-99938800D02*
X154595000Y-99967371D01*
X154595000Y-99967371D02*
X154709286Y-99967371D01*
X154709286Y-99967371D02*
X154766429Y-99938800D01*
X154766429Y-99938800D02*
X154795000Y-99910228D01*
X154795000Y-99910228D02*
X154823571Y-99853085D01*
X154823571Y-99853085D02*
X154823571Y-99710228D01*
X154823571Y-99710228D02*
X154795000Y-99653085D01*
X154795000Y-99653085D02*
X154766429Y-99624514D01*
X154766429Y-99624514D02*
X154709286Y-99595942D01*
X154709286Y-99595942D02*
X154595000Y-99595942D01*
X154595000Y-99595942D02*
X154537857Y-99624514D01*
X154537857Y-99624514D02*
X154509286Y-99653085D01*
X154509286Y-99653085D02*
X154480714Y-99710228D01*
X155537858Y-99967371D02*
X155537858Y-99367371D01*
X155537858Y-99367371D02*
X155680715Y-99367371D01*
X155680715Y-99367371D02*
X155766429Y-99395942D01*
X155766429Y-99395942D02*
X155823572Y-99453085D01*
X155823572Y-99453085D02*
X155852143Y-99510228D01*
X155852143Y-99510228D02*
X155880715Y-99624514D01*
X155880715Y-99624514D02*
X155880715Y-99710228D01*
X155880715Y-99710228D02*
X155852143Y-99824514D01*
X155852143Y-99824514D02*
X155823572Y-99881657D01*
X155823572Y-99881657D02*
X155766429Y-99938800D01*
X155766429Y-99938800D02*
X155680715Y-99967371D01*
X155680715Y-99967371D02*
X155537858Y-99967371D01*
X156137858Y-99967371D02*
X156137858Y-99567371D01*
X156137858Y-99367371D02*
X156109286Y-99395942D01*
X156109286Y-99395942D02*
X156137858Y-99424514D01*
X156137858Y-99424514D02*
X156166429Y-99395942D01*
X156166429Y-99395942D02*
X156137858Y-99367371D01*
X156137858Y-99367371D02*
X156137858Y-99424514D01*
X156395000Y-99938800D02*
X156452143Y-99967371D01*
X156452143Y-99967371D02*
X156566429Y-99967371D01*
X156566429Y-99967371D02*
X156623572Y-99938800D01*
X156623572Y-99938800D02*
X156652143Y-99881657D01*
X156652143Y-99881657D02*
X156652143Y-99853085D01*
X156652143Y-99853085D02*
X156623572Y-99795942D01*
X156623572Y-99795942D02*
X156566429Y-99767371D01*
X156566429Y-99767371D02*
X156480715Y-99767371D01*
X156480715Y-99767371D02*
X156423572Y-99738800D01*
X156423572Y-99738800D02*
X156395000Y-99681657D01*
X156395000Y-99681657D02*
X156395000Y-99653085D01*
X156395000Y-99653085D02*
X156423572Y-99595942D01*
X156423572Y-99595942D02*
X156480715Y-99567371D01*
X156480715Y-99567371D02*
X156566429Y-99567371D01*
X156566429Y-99567371D02*
X156623572Y-99595942D01*
X156909286Y-99567371D02*
X156909286Y-100167371D01*
X156909286Y-99595942D02*
X156966429Y-99567371D01*
X156966429Y-99567371D02*
X157080714Y-99567371D01*
X157080714Y-99567371D02*
X157137857Y-99595942D01*
X157137857Y-99595942D02*
X157166429Y-99624514D01*
X157166429Y-99624514D02*
X157195000Y-99681657D01*
X157195000Y-99681657D02*
X157195000Y-99853085D01*
X157195000Y-99853085D02*
X157166429Y-99910228D01*
X157166429Y-99910228D02*
X157137857Y-99938800D01*
X157137857Y-99938800D02*
X157080714Y-99967371D01*
X157080714Y-99967371D02*
X156966429Y-99967371D01*
X156966429Y-99967371D02*
X156909286Y-99938800D01*
X157537857Y-99967371D02*
X157480714Y-99938800D01*
X157480714Y-99938800D02*
X157452143Y-99881657D01*
X157452143Y-99881657D02*
X157452143Y-99367371D01*
X158023572Y-99967371D02*
X158023572Y-99653085D01*
X158023572Y-99653085D02*
X157995000Y-99595942D01*
X157995000Y-99595942D02*
X157937857Y-99567371D01*
X157937857Y-99567371D02*
X157823572Y-99567371D01*
X157823572Y-99567371D02*
X157766429Y-99595942D01*
X158023572Y-99938800D02*
X157966429Y-99967371D01*
X157966429Y-99967371D02*
X157823572Y-99967371D01*
X157823572Y-99967371D02*
X157766429Y-99938800D01*
X157766429Y-99938800D02*
X157737857Y-99881657D01*
X157737857Y-99881657D02*
X157737857Y-99824514D01*
X157737857Y-99824514D02*
X157766429Y-99767371D01*
X157766429Y-99767371D02*
X157823572Y-99738800D01*
X157823572Y-99738800D02*
X157966429Y-99738800D01*
X157966429Y-99738800D02*
X158023572Y-99710228D01*
X158252143Y-99567371D02*
X158395000Y-99967371D01*
X158537857Y-99567371D02*
X158395000Y-99967371D01*
X158395000Y-99967371D02*
X158337857Y-100110228D01*
X158337857Y-100110228D02*
X158309286Y-100138800D01*
X158309286Y-100138800D02*
X158252143Y-100167371D01*
X159195000Y-99424514D02*
X159223572Y-99395942D01*
X159223572Y-99395942D02*
X159280715Y-99367371D01*
X159280715Y-99367371D02*
X159423572Y-99367371D01*
X159423572Y-99367371D02*
X159480715Y-99395942D01*
X159480715Y-99395942D02*
X159509286Y-99424514D01*
X159509286Y-99424514D02*
X159537857Y-99481657D01*
X159537857Y-99481657D02*
X159537857Y-99538800D01*
X159537857Y-99538800D02*
X159509286Y-99624514D01*
X159509286Y-99624514D02*
X159166429Y-99967371D01*
X159166429Y-99967371D02*
X159537857Y-99967371D01*
X159823572Y-99938800D02*
X159823572Y-99967371D01*
X159823572Y-99967371D02*
X159795001Y-100024514D01*
X159795001Y-100024514D02*
X159766429Y-100053085D01*
X160795001Y-99967371D02*
X160795001Y-99653085D01*
X160795001Y-99653085D02*
X160766429Y-99595942D01*
X160766429Y-99595942D02*
X160709286Y-99567371D01*
X160709286Y-99567371D02*
X160595001Y-99567371D01*
X160595001Y-99567371D02*
X160537858Y-99595942D01*
X160795001Y-99938800D02*
X160737858Y-99967371D01*
X160737858Y-99967371D02*
X160595001Y-99967371D01*
X160595001Y-99967371D02*
X160537858Y-99938800D01*
X160537858Y-99938800D02*
X160509286Y-99881657D01*
X160509286Y-99881657D02*
X160509286Y-99824514D01*
X160509286Y-99824514D02*
X160537858Y-99767371D01*
X160537858Y-99767371D02*
X160595001Y-99738800D01*
X160595001Y-99738800D02*
X160737858Y-99738800D01*
X160737858Y-99738800D02*
X160795001Y-99710228D01*
X161337858Y-99967371D02*
X161337858Y-99367371D01*
X161337858Y-99938800D02*
X161280715Y-99967371D01*
X161280715Y-99967371D02*
X161166429Y-99967371D01*
X161166429Y-99967371D02*
X161109286Y-99938800D01*
X161109286Y-99938800D02*
X161080715Y-99910228D01*
X161080715Y-99910228D02*
X161052143Y-99853085D01*
X161052143Y-99853085D02*
X161052143Y-99681657D01*
X161052143Y-99681657D02*
X161080715Y-99624514D01*
X161080715Y-99624514D02*
X161109286Y-99595942D01*
X161109286Y-99595942D02*
X161166429Y-99567371D01*
X161166429Y-99567371D02*
X161280715Y-99567371D01*
X161280715Y-99567371D02*
X161337858Y-99595942D01*
X161880715Y-99967371D02*
X161880715Y-99367371D01*
X161880715Y-99938800D02*
X161823572Y-99967371D01*
X161823572Y-99967371D02*
X161709286Y-99967371D01*
X161709286Y-99967371D02*
X161652143Y-99938800D01*
X161652143Y-99938800D02*
X161623572Y-99910228D01*
X161623572Y-99910228D02*
X161595000Y-99853085D01*
X161595000Y-99853085D02*
X161595000Y-99681657D01*
X161595000Y-99681657D02*
X161623572Y-99624514D01*
X161623572Y-99624514D02*
X161652143Y-99595942D01*
X161652143Y-99595942D02*
X161709286Y-99567371D01*
X161709286Y-99567371D02*
X161823572Y-99567371D01*
X161823572Y-99567371D02*
X161880715Y-99595942D01*
X162166429Y-99967371D02*
X162166429Y-99567371D01*
X162166429Y-99681657D02*
X162195000Y-99624514D01*
X162195000Y-99624514D02*
X162223572Y-99595942D01*
X162223572Y-99595942D02*
X162280714Y-99567371D01*
X162280714Y-99567371D02*
X162337857Y-99567371D01*
X162766429Y-99938800D02*
X162709286Y-99967371D01*
X162709286Y-99967371D02*
X162595001Y-99967371D01*
X162595001Y-99967371D02*
X162537858Y-99938800D01*
X162537858Y-99938800D02*
X162509286Y-99881657D01*
X162509286Y-99881657D02*
X162509286Y-99653085D01*
X162509286Y-99653085D02*
X162537858Y-99595942D01*
X162537858Y-99595942D02*
X162595001Y-99567371D01*
X162595001Y-99567371D02*
X162709286Y-99567371D01*
X162709286Y-99567371D02*
X162766429Y-99595942D01*
X162766429Y-99595942D02*
X162795001Y-99653085D01*
X162795001Y-99653085D02*
X162795001Y-99710228D01*
X162795001Y-99710228D02*
X162509286Y-99767371D01*
X163023572Y-99938800D02*
X163080715Y-99967371D01*
X163080715Y-99967371D02*
X163195001Y-99967371D01*
X163195001Y-99967371D02*
X163252144Y-99938800D01*
X163252144Y-99938800D02*
X163280715Y-99881657D01*
X163280715Y-99881657D02*
X163280715Y-99853085D01*
X163280715Y-99853085D02*
X163252144Y-99795942D01*
X163252144Y-99795942D02*
X163195001Y-99767371D01*
X163195001Y-99767371D02*
X163109287Y-99767371D01*
X163109287Y-99767371D02*
X163052144Y-99738800D01*
X163052144Y-99738800D02*
X163023572Y-99681657D01*
X163023572Y-99681657D02*
X163023572Y-99653085D01*
X163023572Y-99653085D02*
X163052144Y-99595942D01*
X163052144Y-99595942D02*
X163109287Y-99567371D01*
X163109287Y-99567371D02*
X163195001Y-99567371D01*
X163195001Y-99567371D02*
X163252144Y-99595942D01*
X163509286Y-99938800D02*
X163566429Y-99967371D01*
X163566429Y-99967371D02*
X163680715Y-99967371D01*
X163680715Y-99967371D02*
X163737858Y-99938800D01*
X163737858Y-99938800D02*
X163766429Y-99881657D01*
X163766429Y-99881657D02*
X163766429Y-99853085D01*
X163766429Y-99853085D02*
X163737858Y-99795942D01*
X163737858Y-99795942D02*
X163680715Y-99767371D01*
X163680715Y-99767371D02*
X163595001Y-99767371D01*
X163595001Y-99767371D02*
X163537858Y-99738800D01*
X163537858Y-99738800D02*
X163509286Y-99681657D01*
X163509286Y-99681657D02*
X163509286Y-99653085D01*
X163509286Y-99653085D02*
X163537858Y-99595942D01*
X163537858Y-99595942D02*
X163595001Y-99567371D01*
X163595001Y-99567371D02*
X163680715Y-99567371D01*
X163680715Y-99567371D02*
X163737858Y-99595942D01*
X164595000Y-99367371D02*
X164652143Y-99367371D01*
X164652143Y-99367371D02*
X164709286Y-99395942D01*
X164709286Y-99395942D02*
X164737858Y-99424514D01*
X164737858Y-99424514D02*
X164766429Y-99481657D01*
X164766429Y-99481657D02*
X164795000Y-99595942D01*
X164795000Y-99595942D02*
X164795000Y-99738800D01*
X164795000Y-99738800D02*
X164766429Y-99853085D01*
X164766429Y-99853085D02*
X164737858Y-99910228D01*
X164737858Y-99910228D02*
X164709286Y-99938800D01*
X164709286Y-99938800D02*
X164652143Y-99967371D01*
X164652143Y-99967371D02*
X164595000Y-99967371D01*
X164595000Y-99967371D02*
X164537858Y-99938800D01*
X164537858Y-99938800D02*
X164509286Y-99910228D01*
X164509286Y-99910228D02*
X164480715Y-99853085D01*
X164480715Y-99853085D02*
X164452143Y-99738800D01*
X164452143Y-99738800D02*
X164452143Y-99595942D01*
X164452143Y-99595942D02*
X164480715Y-99481657D01*
X164480715Y-99481657D02*
X164509286Y-99424514D01*
X164509286Y-99424514D02*
X164537858Y-99395942D01*
X164537858Y-99395942D02*
X164595000Y-99367371D01*
X164995001Y-99967371D02*
X165309287Y-99567371D01*
X164995001Y-99567371D02*
X165309287Y-99967371D01*
X165480715Y-99367371D02*
X165880715Y-99367371D01*
X165880715Y-99367371D02*
X165623572Y-99967371D01*
X166080715Y-99795942D02*
X166366430Y-99795942D01*
X166023572Y-99967371D02*
X166223572Y-99367371D01*
X166223572Y-99367371D02*
X166423572Y-99967371D01*
X167252144Y-100195942D02*
X167223573Y-100167371D01*
X167223573Y-100167371D02*
X167166430Y-100081657D01*
X167166430Y-100081657D02*
X167137859Y-100024514D01*
X167137859Y-100024514D02*
X167109287Y-99938800D01*
X167109287Y-99938800D02*
X167080716Y-99795942D01*
X167080716Y-99795942D02*
X167080716Y-99681657D01*
X167080716Y-99681657D02*
X167109287Y-99538800D01*
X167109287Y-99538800D02*
X167137859Y-99453085D01*
X167137859Y-99453085D02*
X167166430Y-99395942D01*
X167166430Y-99395942D02*
X167223573Y-99310228D01*
X167223573Y-99310228D02*
X167252144Y-99281657D01*
X167795001Y-99395942D02*
X167737859Y-99367371D01*
X167737859Y-99367371D02*
X167652144Y-99367371D01*
X167652144Y-99367371D02*
X167566430Y-99395942D01*
X167566430Y-99395942D02*
X167509287Y-99453085D01*
X167509287Y-99453085D02*
X167480716Y-99510228D01*
X167480716Y-99510228D02*
X167452144Y-99624514D01*
X167452144Y-99624514D02*
X167452144Y-99710228D01*
X167452144Y-99710228D02*
X167480716Y-99824514D01*
X167480716Y-99824514D02*
X167509287Y-99881657D01*
X167509287Y-99881657D02*
X167566430Y-99938800D01*
X167566430Y-99938800D02*
X167652144Y-99967371D01*
X167652144Y-99967371D02*
X167709287Y-99967371D01*
X167709287Y-99967371D02*
X167795001Y-99938800D01*
X167795001Y-99938800D02*
X167823573Y-99910228D01*
X167823573Y-99910228D02*
X167823573Y-99710228D01*
X167823573Y-99710228D02*
X167709287Y-99710228D01*
X168080716Y-99967371D02*
X168080716Y-99367371D01*
X168080716Y-99367371D02*
X168423573Y-99967371D01*
X168423573Y-99967371D02*
X168423573Y-99367371D01*
X168709287Y-99967371D02*
X168709287Y-99367371D01*
X168709287Y-99367371D02*
X168852144Y-99367371D01*
X168852144Y-99367371D02*
X168937858Y-99395942D01*
X168937858Y-99395942D02*
X168995001Y-99453085D01*
X168995001Y-99453085D02*
X169023572Y-99510228D01*
X169023572Y-99510228D02*
X169052144Y-99624514D01*
X169052144Y-99624514D02*
X169052144Y-99710228D01*
X169052144Y-99710228D02*
X169023572Y-99824514D01*
X169023572Y-99824514D02*
X168995001Y-99881657D01*
X168995001Y-99881657D02*
X168937858Y-99938800D01*
X168937858Y-99938800D02*
X168852144Y-99967371D01*
X168852144Y-99967371D02*
X168709287Y-99967371D01*
X169337858Y-99938800D02*
X169337858Y-99967371D01*
X169337858Y-99967371D02*
X169309287Y-100024514D01*
X169309287Y-100024514D02*
X169280715Y-100053085D01*
X169509286Y-99367371D02*
X169709286Y-99967371D01*
X169709286Y-99967371D02*
X169909286Y-99367371D01*
X170452144Y-99910228D02*
X170423572Y-99938800D01*
X170423572Y-99938800D02*
X170337858Y-99967371D01*
X170337858Y-99967371D02*
X170280715Y-99967371D01*
X170280715Y-99967371D02*
X170195001Y-99938800D01*
X170195001Y-99938800D02*
X170137858Y-99881657D01*
X170137858Y-99881657D02*
X170109287Y-99824514D01*
X170109287Y-99824514D02*
X170080715Y-99710228D01*
X170080715Y-99710228D02*
X170080715Y-99624514D01*
X170080715Y-99624514D02*
X170109287Y-99510228D01*
X170109287Y-99510228D02*
X170137858Y-99453085D01*
X170137858Y-99453085D02*
X170195001Y-99395942D01*
X170195001Y-99395942D02*
X170280715Y-99367371D01*
X170280715Y-99367371D02*
X170337858Y-99367371D01*
X170337858Y-99367371D02*
X170423572Y-99395942D01*
X170423572Y-99395942D02*
X170452144Y-99424514D01*
X171052144Y-99910228D02*
X171023572Y-99938800D01*
X171023572Y-99938800D02*
X170937858Y-99967371D01*
X170937858Y-99967371D02*
X170880715Y-99967371D01*
X170880715Y-99967371D02*
X170795001Y-99938800D01*
X170795001Y-99938800D02*
X170737858Y-99881657D01*
X170737858Y-99881657D02*
X170709287Y-99824514D01*
X170709287Y-99824514D02*
X170680715Y-99710228D01*
X170680715Y-99710228D02*
X170680715Y-99624514D01*
X170680715Y-99624514D02*
X170709287Y-99510228D01*
X170709287Y-99510228D02*
X170737858Y-99453085D01*
X170737858Y-99453085D02*
X170795001Y-99395942D01*
X170795001Y-99395942D02*
X170880715Y-99367371D01*
X170880715Y-99367371D02*
X170937858Y-99367371D01*
X170937858Y-99367371D02*
X171023572Y-99395942D01*
X171023572Y-99395942D02*
X171052144Y-99424514D01*
X171337858Y-99938800D02*
X171337858Y-99967371D01*
X171337858Y-99967371D02*
X171309287Y-100024514D01*
X171309287Y-100024514D02*
X171280715Y-100053085D01*
X171566429Y-99938800D02*
X171652144Y-99967371D01*
X171652144Y-99967371D02*
X171795001Y-99967371D01*
X171795001Y-99967371D02*
X171852144Y-99938800D01*
X171852144Y-99938800D02*
X171880715Y-99910228D01*
X171880715Y-99910228D02*
X171909286Y-99853085D01*
X171909286Y-99853085D02*
X171909286Y-99795942D01*
X171909286Y-99795942D02*
X171880715Y-99738800D01*
X171880715Y-99738800D02*
X171852144Y-99710228D01*
X171852144Y-99710228D02*
X171795001Y-99681657D01*
X171795001Y-99681657D02*
X171680715Y-99653085D01*
X171680715Y-99653085D02*
X171623572Y-99624514D01*
X171623572Y-99624514D02*
X171595001Y-99595942D01*
X171595001Y-99595942D02*
X171566429Y-99538800D01*
X171566429Y-99538800D02*
X171566429Y-99481657D01*
X171566429Y-99481657D02*
X171595001Y-99424514D01*
X171595001Y-99424514D02*
X171623572Y-99395942D01*
X171623572Y-99395942D02*
X171680715Y-99367371D01*
X171680715Y-99367371D02*
X171823572Y-99367371D01*
X171823572Y-99367371D02*
X171909286Y-99395942D01*
X172509287Y-99910228D02*
X172480715Y-99938800D01*
X172480715Y-99938800D02*
X172395001Y-99967371D01*
X172395001Y-99967371D02*
X172337858Y-99967371D01*
X172337858Y-99967371D02*
X172252144Y-99938800D01*
X172252144Y-99938800D02*
X172195001Y-99881657D01*
X172195001Y-99881657D02*
X172166430Y-99824514D01*
X172166430Y-99824514D02*
X172137858Y-99710228D01*
X172137858Y-99710228D02*
X172137858Y-99624514D01*
X172137858Y-99624514D02*
X172166430Y-99510228D01*
X172166430Y-99510228D02*
X172195001Y-99453085D01*
X172195001Y-99453085D02*
X172252144Y-99395942D01*
X172252144Y-99395942D02*
X172337858Y-99367371D01*
X172337858Y-99367371D02*
X172395001Y-99367371D01*
X172395001Y-99367371D02*
X172480715Y-99395942D01*
X172480715Y-99395942D02*
X172509287Y-99424514D01*
X173052144Y-99967371D02*
X172766430Y-99967371D01*
X172766430Y-99967371D02*
X172766430Y-99367371D01*
X173280715Y-99938800D02*
X173280715Y-99967371D01*
X173280715Y-99967371D02*
X173252144Y-100024514D01*
X173252144Y-100024514D02*
X173223572Y-100053085D01*
X173509286Y-99938800D02*
X173595001Y-99967371D01*
X173595001Y-99967371D02*
X173737858Y-99967371D01*
X173737858Y-99967371D02*
X173795001Y-99938800D01*
X173795001Y-99938800D02*
X173823572Y-99910228D01*
X173823572Y-99910228D02*
X173852143Y-99853085D01*
X173852143Y-99853085D02*
X173852143Y-99795942D01*
X173852143Y-99795942D02*
X173823572Y-99738800D01*
X173823572Y-99738800D02*
X173795001Y-99710228D01*
X173795001Y-99710228D02*
X173737858Y-99681657D01*
X173737858Y-99681657D02*
X173623572Y-99653085D01*
X173623572Y-99653085D02*
X173566429Y-99624514D01*
X173566429Y-99624514D02*
X173537858Y-99595942D01*
X173537858Y-99595942D02*
X173509286Y-99538800D01*
X173509286Y-99538800D02*
X173509286Y-99481657D01*
X173509286Y-99481657D02*
X173537858Y-99424514D01*
X173537858Y-99424514D02*
X173566429Y-99395942D01*
X173566429Y-99395942D02*
X173623572Y-99367371D01*
X173623572Y-99367371D02*
X173766429Y-99367371D01*
X173766429Y-99367371D02*
X173852143Y-99395942D01*
X174109287Y-99967371D02*
X174109287Y-99367371D01*
X174109287Y-99367371D02*
X174252144Y-99367371D01*
X174252144Y-99367371D02*
X174337858Y-99395942D01*
X174337858Y-99395942D02*
X174395001Y-99453085D01*
X174395001Y-99453085D02*
X174423572Y-99510228D01*
X174423572Y-99510228D02*
X174452144Y-99624514D01*
X174452144Y-99624514D02*
X174452144Y-99710228D01*
X174452144Y-99710228D02*
X174423572Y-99824514D01*
X174423572Y-99824514D02*
X174395001Y-99881657D01*
X174395001Y-99881657D02*
X174337858Y-99938800D01*
X174337858Y-99938800D02*
X174252144Y-99967371D01*
X174252144Y-99967371D02*
X174109287Y-99967371D01*
X174680715Y-99795942D02*
X174966430Y-99795942D01*
X174623572Y-99967371D02*
X174823572Y-99367371D01*
X174823572Y-99367371D02*
X175023572Y-99967371D01*
X175166430Y-100195942D02*
X175195001Y-100167371D01*
X175195001Y-100167371D02*
X175252144Y-100081657D01*
X175252144Y-100081657D02*
X175280716Y-100024514D01*
X175280716Y-100024514D02*
X175309287Y-99938800D01*
X175309287Y-99938800D02*
X175337858Y-99795942D01*
X175337858Y-99795942D02*
X175337858Y-99681657D01*
X175337858Y-99681657D02*
X175309287Y-99538800D01*
X175309287Y-99538800D02*
X175280716Y-99453085D01*
X175280716Y-99453085D02*
X175252144Y-99395942D01*
X175252144Y-99395942D02*
X175195001Y-99310228D01*
X175195001Y-99310228D02*
X175166430Y-99281657D01*
X118859429Y-123878371D02*
X119002286Y-124478371D01*
X119002286Y-124478371D02*
X119116572Y-124049800D01*
X119116572Y-124049800D02*
X119230857Y-124478371D01*
X119230857Y-124478371D02*
X119373715Y-123878371D01*
X119602286Y-124478371D02*
X119602286Y-124078371D01*
X119602286Y-123878371D02*
X119573714Y-123906942D01*
X119573714Y-123906942D02*
X119602286Y-123935514D01*
X119602286Y-123935514D02*
X119630857Y-123906942D01*
X119630857Y-123906942D02*
X119602286Y-123878371D01*
X119602286Y-123878371D02*
X119602286Y-123935514D01*
X119802285Y-124078371D02*
X120030857Y-124078371D01*
X119888000Y-124478371D02*
X119888000Y-123964085D01*
X119888000Y-123964085D02*
X119916571Y-123906942D01*
X119916571Y-123906942D02*
X119973714Y-123878371D01*
X119973714Y-123878371D02*
X120030857Y-123878371D01*
X120230857Y-124478371D02*
X120230857Y-124078371D01*
X120230857Y-123878371D02*
X120202285Y-123906942D01*
X120202285Y-123906942D02*
X120230857Y-123935514D01*
X120230857Y-123935514D02*
X120259428Y-123906942D01*
X120259428Y-123906942D02*
X120230857Y-123878371D01*
X120230857Y-123878371D02*
X120230857Y-123935514D01*
X120945142Y-123849800D02*
X120430856Y-124621228D01*
X124478371Y-129195428D02*
X124478371Y-129481142D01*
X124478371Y-129481142D02*
X123878371Y-129481142D01*
X124164085Y-128995428D02*
X124164085Y-128795428D01*
X124478371Y-128709714D02*
X124478371Y-128995428D01*
X124478371Y-128995428D02*
X123878371Y-128995428D01*
X123878371Y-128995428D02*
X123878371Y-128709714D01*
X124478371Y-128452571D02*
X123878371Y-128452571D01*
X123878371Y-128452571D02*
X123878371Y-128309714D01*
X123878371Y-128309714D02*
X123906942Y-128224000D01*
X123906942Y-128224000D02*
X123964085Y-128166857D01*
X123964085Y-128166857D02*
X124021228Y-128138286D01*
X124021228Y-128138286D02*
X124135514Y-128109714D01*
X124135514Y-128109714D02*
X124221228Y-128109714D01*
X124221228Y-128109714D02*
X124335514Y-128138286D01*
X124335514Y-128138286D02*
X124392657Y-128166857D01*
X124392657Y-128166857D02*
X124449800Y-128224000D01*
X124449800Y-128224000D02*
X124478371Y-128309714D01*
X124478371Y-128309714D02*
X124478371Y-128452571D01*
X123878371Y-127909714D02*
X123878371Y-127538286D01*
X123878371Y-127538286D02*
X124106942Y-127738286D01*
X124106942Y-127738286D02*
X124106942Y-127652571D01*
X124106942Y-127652571D02*
X124135514Y-127595429D01*
X124135514Y-127595429D02*
X124164085Y-127566857D01*
X124164085Y-127566857D02*
X124221228Y-127538286D01*
X124221228Y-127538286D02*
X124364085Y-127538286D01*
X124364085Y-127538286D02*
X124421228Y-127566857D01*
X124421228Y-127566857D02*
X124449800Y-127595429D01*
X124449800Y-127595429D02*
X124478371Y-127652571D01*
X124478371Y-127652571D02*
X124478371Y-127824000D01*
X124478371Y-127824000D02*
X124449800Y-127881143D01*
X124449800Y-127881143D02*
X124421228Y-127909714D01*
X123063143Y-124843573D02*
X123206000Y-125443573D01*
X123206000Y-125443573D02*
X123320286Y-125015002D01*
X123320286Y-125015002D02*
X123434571Y-125443573D01*
X123434571Y-125443573D02*
X123577429Y-124843573D01*
X124063143Y-125443573D02*
X124063143Y-125129287D01*
X124063143Y-125129287D02*
X124034571Y-125072144D01*
X124034571Y-125072144D02*
X123977428Y-125043573D01*
X123977428Y-125043573D02*
X123863143Y-125043573D01*
X123863143Y-125043573D02*
X123806000Y-125072144D01*
X124063143Y-125415002D02*
X124006000Y-125443573D01*
X124006000Y-125443573D02*
X123863143Y-125443573D01*
X123863143Y-125443573D02*
X123806000Y-125415002D01*
X123806000Y-125415002D02*
X123777428Y-125357859D01*
X123777428Y-125357859D02*
X123777428Y-125300716D01*
X123777428Y-125300716D02*
X123806000Y-125243573D01*
X123806000Y-125243573D02*
X123863143Y-125215002D01*
X123863143Y-125215002D02*
X124006000Y-125215002D01*
X124006000Y-125215002D02*
X124063143Y-125186430D01*
X124263142Y-125043573D02*
X124491714Y-125043573D01*
X124348857Y-124843573D02*
X124348857Y-125357859D01*
X124348857Y-125357859D02*
X124377428Y-125415002D01*
X124377428Y-125415002D02*
X124434571Y-125443573D01*
X124434571Y-125443573D02*
X124491714Y-125443573D01*
X124920285Y-125415002D02*
X124863142Y-125443573D01*
X124863142Y-125443573D02*
X124748857Y-125443573D01*
X124748857Y-125443573D02*
X124691714Y-125415002D01*
X124691714Y-125415002D02*
X124663142Y-125357859D01*
X124663142Y-125357859D02*
X124663142Y-125129287D01*
X124663142Y-125129287D02*
X124691714Y-125072144D01*
X124691714Y-125072144D02*
X124748857Y-125043573D01*
X124748857Y-125043573D02*
X124863142Y-125043573D01*
X124863142Y-125043573D02*
X124920285Y-125072144D01*
X124920285Y-125072144D02*
X124948857Y-125129287D01*
X124948857Y-125129287D02*
X124948857Y-125186430D01*
X124948857Y-125186430D02*
X124663142Y-125243573D01*
X125206000Y-125443573D02*
X125206000Y-125043573D01*
X125206000Y-125157859D02*
X125234571Y-125100716D01*
X125234571Y-125100716D02*
X125263143Y-125072144D01*
X125263143Y-125072144D02*
X125320285Y-125043573D01*
X125320285Y-125043573D02*
X125377428Y-125043573D01*
X136417285Y-127475571D02*
X136417285Y-126875571D01*
X136417285Y-126875571D02*
X136560142Y-126875571D01*
X136560142Y-126875571D02*
X136645856Y-126904142D01*
X136645856Y-126904142D02*
X136702999Y-126961285D01*
X136702999Y-126961285D02*
X136731570Y-127018428D01*
X136731570Y-127018428D02*
X136760142Y-127132714D01*
X136760142Y-127132714D02*
X136760142Y-127218428D01*
X136760142Y-127218428D02*
X136731570Y-127332714D01*
X136731570Y-127332714D02*
X136702999Y-127389857D01*
X136702999Y-127389857D02*
X136645856Y-127447000D01*
X136645856Y-127447000D02*
X136560142Y-127475571D01*
X136560142Y-127475571D02*
X136417285Y-127475571D01*
X136988713Y-127447000D02*
X137074428Y-127475571D01*
X137074428Y-127475571D02*
X137217285Y-127475571D01*
X137217285Y-127475571D02*
X137274428Y-127447000D01*
X137274428Y-127447000D02*
X137302999Y-127418428D01*
X137302999Y-127418428D02*
X137331570Y-127361285D01*
X137331570Y-127361285D02*
X137331570Y-127304142D01*
X137331570Y-127304142D02*
X137302999Y-127247000D01*
X137302999Y-127247000D02*
X137274428Y-127218428D01*
X137274428Y-127218428D02*
X137217285Y-127189857D01*
X137217285Y-127189857D02*
X137102999Y-127161285D01*
X137102999Y-127161285D02*
X137045856Y-127132714D01*
X137045856Y-127132714D02*
X137017285Y-127104142D01*
X137017285Y-127104142D02*
X136988713Y-127047000D01*
X136988713Y-127047000D02*
X136988713Y-126989857D01*
X136988713Y-126989857D02*
X137017285Y-126932714D01*
X137017285Y-126932714D02*
X137045856Y-126904142D01*
X137045856Y-126904142D02*
X137102999Y-126875571D01*
X137102999Y-126875571D02*
X137245856Y-126875571D01*
X137245856Y-126875571D02*
X137331570Y-126904142D01*
X137902999Y-127475571D02*
X137560142Y-127475571D01*
X137731571Y-127475571D02*
X137731571Y-126875571D01*
X137731571Y-126875571D02*
X137674428Y-126961285D01*
X137674428Y-126961285D02*
X137617285Y-127018428D01*
X137617285Y-127018428D02*
X137560142Y-127047000D01*
X138245857Y-127132714D02*
X138188714Y-127104142D01*
X138188714Y-127104142D02*
X138160143Y-127075571D01*
X138160143Y-127075571D02*
X138131571Y-127018428D01*
X138131571Y-127018428D02*
X138131571Y-126989857D01*
X138131571Y-126989857D02*
X138160143Y-126932714D01*
X138160143Y-126932714D02*
X138188714Y-126904142D01*
X138188714Y-126904142D02*
X138245857Y-126875571D01*
X138245857Y-126875571D02*
X138360143Y-126875571D01*
X138360143Y-126875571D02*
X138417286Y-126904142D01*
X138417286Y-126904142D02*
X138445857Y-126932714D01*
X138445857Y-126932714D02*
X138474428Y-126989857D01*
X138474428Y-126989857D02*
X138474428Y-127018428D01*
X138474428Y-127018428D02*
X138445857Y-127075571D01*
X138445857Y-127075571D02*
X138417286Y-127104142D01*
X138417286Y-127104142D02*
X138360143Y-127132714D01*
X138360143Y-127132714D02*
X138245857Y-127132714D01*
X138245857Y-127132714D02*
X138188714Y-127161285D01*
X138188714Y-127161285D02*
X138160143Y-127189857D01*
X138160143Y-127189857D02*
X138131571Y-127247000D01*
X138131571Y-127247000D02*
X138131571Y-127361285D01*
X138131571Y-127361285D02*
X138160143Y-127418428D01*
X138160143Y-127418428D02*
X138188714Y-127447000D01*
X138188714Y-127447000D02*
X138245857Y-127475571D01*
X138245857Y-127475571D02*
X138360143Y-127475571D01*
X138360143Y-127475571D02*
X138417286Y-127447000D01*
X138417286Y-127447000D02*
X138445857Y-127418428D01*
X138445857Y-127418428D02*
X138474428Y-127361285D01*
X138474428Y-127361285D02*
X138474428Y-127247000D01*
X138474428Y-127247000D02*
X138445857Y-127189857D01*
X138445857Y-127189857D02*
X138417286Y-127161285D01*
X138417286Y-127161285D02*
X138360143Y-127132714D01*
X138931572Y-127161285D02*
X139017286Y-127189857D01*
X139017286Y-127189857D02*
X139045857Y-127218428D01*
X139045857Y-127218428D02*
X139074429Y-127275571D01*
X139074429Y-127275571D02*
X139074429Y-127361285D01*
X139074429Y-127361285D02*
X139045857Y-127418428D01*
X139045857Y-127418428D02*
X139017286Y-127447000D01*
X139017286Y-127447000D02*
X138960143Y-127475571D01*
X138960143Y-127475571D02*
X138731572Y-127475571D01*
X138731572Y-127475571D02*
X138731572Y-126875571D01*
X138731572Y-126875571D02*
X138931572Y-126875571D01*
X138931572Y-126875571D02*
X138988715Y-126904142D01*
X138988715Y-126904142D02*
X139017286Y-126932714D01*
X139017286Y-126932714D02*
X139045857Y-126989857D01*
X139045857Y-126989857D02*
X139045857Y-127047000D01*
X139045857Y-127047000D02*
X139017286Y-127104142D01*
X139017286Y-127104142D02*
X138988715Y-127132714D01*
X138988715Y-127132714D02*
X138931572Y-127161285D01*
X138931572Y-127161285D02*
X138731572Y-127161285D01*
X139303000Y-126932714D02*
X139331572Y-126904142D01*
X139331572Y-126904142D02*
X139388715Y-126875571D01*
X139388715Y-126875571D02*
X139531572Y-126875571D01*
X139531572Y-126875571D02*
X139588715Y-126904142D01*
X139588715Y-126904142D02*
X139617286Y-126932714D01*
X139617286Y-126932714D02*
X139645857Y-126989857D01*
X139645857Y-126989857D02*
X139645857Y-127047000D01*
X139645857Y-127047000D02*
X139617286Y-127132714D01*
X139617286Y-127132714D02*
X139274429Y-127475571D01*
X139274429Y-127475571D02*
X139645857Y-127475571D01*
X140017286Y-126875571D02*
X140074429Y-126875571D01*
X140074429Y-126875571D02*
X140131572Y-126904142D01*
X140131572Y-126904142D02*
X140160144Y-126932714D01*
X140160144Y-126932714D02*
X140188715Y-126989857D01*
X140188715Y-126989857D02*
X140217286Y-127104142D01*
X140217286Y-127104142D02*
X140217286Y-127247000D01*
X140217286Y-127247000D02*
X140188715Y-127361285D01*
X140188715Y-127361285D02*
X140160144Y-127418428D01*
X140160144Y-127418428D02*
X140131572Y-127447000D01*
X140131572Y-127447000D02*
X140074429Y-127475571D01*
X140074429Y-127475571D02*
X140017286Y-127475571D01*
X140017286Y-127475571D02*
X139960144Y-127447000D01*
X139960144Y-127447000D02*
X139931572Y-127418428D01*
X139931572Y-127418428D02*
X139903001Y-127361285D01*
X139903001Y-127361285D02*
X139874429Y-127247000D01*
X139874429Y-127247000D02*
X139874429Y-127104142D01*
X139874429Y-127104142D02*
X139903001Y-126989857D01*
X139903001Y-126989857D02*
X139931572Y-126932714D01*
X139931572Y-126932714D02*
X139960144Y-126904142D01*
X139960144Y-126904142D02*
X140017286Y-126875571D01*
X179539999Y-120258800D02*
X179625714Y-120287371D01*
X179625714Y-120287371D02*
X179768571Y-120287371D01*
X179768571Y-120287371D02*
X179825714Y-120258800D01*
X179825714Y-120258800D02*
X179854285Y-120230228D01*
X179854285Y-120230228D02*
X179882856Y-120173085D01*
X179882856Y-120173085D02*
X179882856Y-120115942D01*
X179882856Y-120115942D02*
X179854285Y-120058800D01*
X179854285Y-120058800D02*
X179825714Y-120030228D01*
X179825714Y-120030228D02*
X179768571Y-120001657D01*
X179768571Y-120001657D02*
X179654285Y-119973085D01*
X179654285Y-119973085D02*
X179597142Y-119944514D01*
X179597142Y-119944514D02*
X179568571Y-119915942D01*
X179568571Y-119915942D02*
X179539999Y-119858800D01*
X179539999Y-119858800D02*
X179539999Y-119801657D01*
X179539999Y-119801657D02*
X179568571Y-119744514D01*
X179568571Y-119744514D02*
X179597142Y-119715942D01*
X179597142Y-119715942D02*
X179654285Y-119687371D01*
X179654285Y-119687371D02*
X179797142Y-119687371D01*
X179797142Y-119687371D02*
X179882856Y-119715942D01*
X180082857Y-119687371D02*
X180225714Y-120287371D01*
X180225714Y-120287371D02*
X180340000Y-119858800D01*
X180340000Y-119858800D02*
X180454285Y-120287371D01*
X180454285Y-120287371D02*
X180597143Y-119687371D01*
X181139999Y-120287371D02*
X180797142Y-120287371D01*
X180968571Y-120287371D02*
X180968571Y-119687371D01*
X180968571Y-119687371D02*
X180911428Y-119773085D01*
X180911428Y-119773085D02*
X180854285Y-119830228D01*
X180854285Y-119830228D02*
X180797142Y-119858800D01*
X194582371Y-130104571D02*
X194296657Y-130304571D01*
X194582371Y-130447428D02*
X193982371Y-130447428D01*
X193982371Y-130447428D02*
X193982371Y-130218857D01*
X193982371Y-130218857D02*
X194010942Y-130161714D01*
X194010942Y-130161714D02*
X194039514Y-130133143D01*
X194039514Y-130133143D02*
X194096657Y-130104571D01*
X194096657Y-130104571D02*
X194182371Y-130104571D01*
X194182371Y-130104571D02*
X194239514Y-130133143D01*
X194239514Y-130133143D02*
X194268085Y-130161714D01*
X194268085Y-130161714D02*
X194296657Y-130218857D01*
X194296657Y-130218857D02*
X194296657Y-130447428D01*
X194582371Y-129761714D02*
X194553800Y-129818857D01*
X194553800Y-129818857D02*
X194525228Y-129847428D01*
X194525228Y-129847428D02*
X194468085Y-129876000D01*
X194468085Y-129876000D02*
X194296657Y-129876000D01*
X194296657Y-129876000D02*
X194239514Y-129847428D01*
X194239514Y-129847428D02*
X194210942Y-129818857D01*
X194210942Y-129818857D02*
X194182371Y-129761714D01*
X194182371Y-129761714D02*
X194182371Y-129676000D01*
X194182371Y-129676000D02*
X194210942Y-129618857D01*
X194210942Y-129618857D02*
X194239514Y-129590286D01*
X194239514Y-129590286D02*
X194296657Y-129561714D01*
X194296657Y-129561714D02*
X194468085Y-129561714D01*
X194468085Y-129561714D02*
X194525228Y-129590286D01*
X194525228Y-129590286D02*
X194553800Y-129618857D01*
X194553800Y-129618857D02*
X194582371Y-129676000D01*
X194582371Y-129676000D02*
X194582371Y-129761714D01*
X194182371Y-129390286D02*
X194182371Y-129161714D01*
X193982371Y-129304571D02*
X194496657Y-129304571D01*
X194496657Y-129304571D02*
X194553800Y-129276000D01*
X194553800Y-129276000D02*
X194582371Y-129218857D01*
X194582371Y-129218857D02*
X194582371Y-129161714D01*
X194582371Y-128704572D02*
X194268085Y-128704572D01*
X194268085Y-128704572D02*
X194210942Y-128733143D01*
X194210942Y-128733143D02*
X194182371Y-128790286D01*
X194182371Y-128790286D02*
X194182371Y-128904572D01*
X194182371Y-128904572D02*
X194210942Y-128961714D01*
X194553800Y-128704572D02*
X194582371Y-128761714D01*
X194582371Y-128761714D02*
X194582371Y-128904572D01*
X194582371Y-128904572D02*
X194553800Y-128961714D01*
X194553800Y-128961714D02*
X194496657Y-128990286D01*
X194496657Y-128990286D02*
X194439514Y-128990286D01*
X194439514Y-128990286D02*
X194382371Y-128961714D01*
X194382371Y-128961714D02*
X194353800Y-128904572D01*
X194353800Y-128904572D02*
X194353800Y-128761714D01*
X194353800Y-128761714D02*
X194325228Y-128704572D01*
X194582371Y-128418857D02*
X194182371Y-128418857D01*
X194296657Y-128418857D02*
X194239514Y-128390286D01*
X194239514Y-128390286D02*
X194210942Y-128361715D01*
X194210942Y-128361715D02*
X194182371Y-128304572D01*
X194182371Y-128304572D02*
X194182371Y-128247429D01*
X194182371Y-128104571D02*
X194582371Y-127961714D01*
X194182371Y-127818857D02*
X194582371Y-127961714D01*
X194582371Y-127961714D02*
X194725228Y-128018857D01*
X194725228Y-128018857D02*
X194753800Y-128047428D01*
X194753800Y-128047428D02*
X194782371Y-128104571D01*
X194639514Y-127733143D02*
X194639514Y-127276000D01*
X194268085Y-127133142D02*
X194268085Y-126933142D01*
X194582371Y-126847428D02*
X194582371Y-127133142D01*
X194582371Y-127133142D02*
X193982371Y-127133142D01*
X193982371Y-127133142D02*
X193982371Y-126847428D01*
X194182371Y-126590285D02*
X194582371Y-126590285D01*
X194239514Y-126590285D02*
X194210942Y-126561714D01*
X194210942Y-126561714D02*
X194182371Y-126504571D01*
X194182371Y-126504571D02*
X194182371Y-126418857D01*
X194182371Y-126418857D02*
X194210942Y-126361714D01*
X194210942Y-126361714D02*
X194268085Y-126333143D01*
X194268085Y-126333143D02*
X194582371Y-126333143D01*
X194553800Y-125790286D02*
X194582371Y-125847428D01*
X194582371Y-125847428D02*
X194582371Y-125961714D01*
X194582371Y-125961714D02*
X194553800Y-126018857D01*
X194553800Y-126018857D02*
X194525228Y-126047428D01*
X194525228Y-126047428D02*
X194468085Y-126076000D01*
X194468085Y-126076000D02*
X194296657Y-126076000D01*
X194296657Y-126076000D02*
X194239514Y-126047428D01*
X194239514Y-126047428D02*
X194210942Y-126018857D01*
X194210942Y-126018857D02*
X194182371Y-125961714D01*
X194182371Y-125961714D02*
X194182371Y-125847428D01*
X194182371Y-125847428D02*
X194210942Y-125790286D01*
X194582371Y-125447428D02*
X194553800Y-125504571D01*
X194553800Y-125504571D02*
X194525228Y-125533142D01*
X194525228Y-125533142D02*
X194468085Y-125561714D01*
X194468085Y-125561714D02*
X194296657Y-125561714D01*
X194296657Y-125561714D02*
X194239514Y-125533142D01*
X194239514Y-125533142D02*
X194210942Y-125504571D01*
X194210942Y-125504571D02*
X194182371Y-125447428D01*
X194182371Y-125447428D02*
X194182371Y-125361714D01*
X194182371Y-125361714D02*
X194210942Y-125304571D01*
X194210942Y-125304571D02*
X194239514Y-125276000D01*
X194239514Y-125276000D02*
X194296657Y-125247428D01*
X194296657Y-125247428D02*
X194468085Y-125247428D01*
X194468085Y-125247428D02*
X194525228Y-125276000D01*
X194525228Y-125276000D02*
X194553800Y-125304571D01*
X194553800Y-125304571D02*
X194582371Y-125361714D01*
X194582371Y-125361714D02*
X194582371Y-125447428D01*
X194582371Y-124733143D02*
X193982371Y-124733143D01*
X194553800Y-124733143D02*
X194582371Y-124790285D01*
X194582371Y-124790285D02*
X194582371Y-124904571D01*
X194582371Y-124904571D02*
X194553800Y-124961714D01*
X194553800Y-124961714D02*
X194525228Y-124990285D01*
X194525228Y-124990285D02*
X194468085Y-125018857D01*
X194468085Y-125018857D02*
X194296657Y-125018857D01*
X194296657Y-125018857D02*
X194239514Y-124990285D01*
X194239514Y-124990285D02*
X194210942Y-124961714D01*
X194210942Y-124961714D02*
X194182371Y-124904571D01*
X194182371Y-124904571D02*
X194182371Y-124790285D01*
X194182371Y-124790285D02*
X194210942Y-124733143D01*
X194553800Y-124218857D02*
X194582371Y-124276000D01*
X194582371Y-124276000D02*
X194582371Y-124390286D01*
X194582371Y-124390286D02*
X194553800Y-124447428D01*
X194553800Y-124447428D02*
X194496657Y-124476000D01*
X194496657Y-124476000D02*
X194268085Y-124476000D01*
X194268085Y-124476000D02*
X194210942Y-124447428D01*
X194210942Y-124447428D02*
X194182371Y-124390286D01*
X194182371Y-124390286D02*
X194182371Y-124276000D01*
X194182371Y-124276000D02*
X194210942Y-124218857D01*
X194210942Y-124218857D02*
X194268085Y-124190286D01*
X194268085Y-124190286D02*
X194325228Y-124190286D01*
X194325228Y-124190286D02*
X194382371Y-124476000D01*
X194582371Y-123933142D02*
X194182371Y-123933142D01*
X194296657Y-123933142D02*
X194239514Y-123904571D01*
X194239514Y-123904571D02*
X194210942Y-123876000D01*
X194210942Y-123876000D02*
X194182371Y-123818857D01*
X194182371Y-123818857D02*
X194182371Y-123761714D01*
X194639514Y-123704571D02*
X194639514Y-123247428D01*
X194553800Y-123133142D02*
X194582371Y-123047428D01*
X194582371Y-123047428D02*
X194582371Y-122904570D01*
X194582371Y-122904570D02*
X194553800Y-122847428D01*
X194553800Y-122847428D02*
X194525228Y-122818856D01*
X194525228Y-122818856D02*
X194468085Y-122790285D01*
X194468085Y-122790285D02*
X194410942Y-122790285D01*
X194410942Y-122790285D02*
X194353800Y-122818856D01*
X194353800Y-122818856D02*
X194325228Y-122847428D01*
X194325228Y-122847428D02*
X194296657Y-122904570D01*
X194296657Y-122904570D02*
X194268085Y-123018856D01*
X194268085Y-123018856D02*
X194239514Y-123075999D01*
X194239514Y-123075999D02*
X194210942Y-123104570D01*
X194210942Y-123104570D02*
X194153800Y-123133142D01*
X194153800Y-123133142D02*
X194096657Y-123133142D01*
X194096657Y-123133142D02*
X194039514Y-123104570D01*
X194039514Y-123104570D02*
X194010942Y-123075999D01*
X194010942Y-123075999D02*
X193982371Y-123018856D01*
X193982371Y-123018856D02*
X193982371Y-122875999D01*
X193982371Y-122875999D02*
X194010942Y-122790285D01*
X194182371Y-122590284D02*
X194582371Y-122475999D01*
X194582371Y-122475999D02*
X194296657Y-122361713D01*
X194296657Y-122361713D02*
X194582371Y-122247427D01*
X194582371Y-122247427D02*
X194182371Y-122133141D01*
X194582371Y-121904570D02*
X194182371Y-121904570D01*
X193982371Y-121904570D02*
X194010942Y-121933142D01*
X194010942Y-121933142D02*
X194039514Y-121904570D01*
X194039514Y-121904570D02*
X194010942Y-121875999D01*
X194010942Y-121875999D02*
X193982371Y-121904570D01*
X193982371Y-121904570D02*
X194039514Y-121904570D01*
X194182371Y-121704571D02*
X194182371Y-121475999D01*
X193982371Y-121618856D02*
X194496657Y-121618856D01*
X194496657Y-121618856D02*
X194553800Y-121590285D01*
X194553800Y-121590285D02*
X194582371Y-121533142D01*
X194582371Y-121533142D02*
X194582371Y-121475999D01*
X194553800Y-121018857D02*
X194582371Y-121075999D01*
X194582371Y-121075999D02*
X194582371Y-121190285D01*
X194582371Y-121190285D02*
X194553800Y-121247428D01*
X194553800Y-121247428D02*
X194525228Y-121275999D01*
X194525228Y-121275999D02*
X194468085Y-121304571D01*
X194468085Y-121304571D02*
X194296657Y-121304571D01*
X194296657Y-121304571D02*
X194239514Y-121275999D01*
X194239514Y-121275999D02*
X194210942Y-121247428D01*
X194210942Y-121247428D02*
X194182371Y-121190285D01*
X194182371Y-121190285D02*
X194182371Y-121075999D01*
X194182371Y-121075999D02*
X194210942Y-121018857D01*
X194582371Y-120761713D02*
X193982371Y-120761713D01*
X194582371Y-120504571D02*
X194268085Y-120504571D01*
X194268085Y-120504571D02*
X194210942Y-120533142D01*
X194210942Y-120533142D02*
X194182371Y-120590285D01*
X194182371Y-120590285D02*
X194182371Y-120675999D01*
X194182371Y-120675999D02*
X194210942Y-120733142D01*
X194210942Y-120733142D02*
X194239514Y-120761713D01*
X132326114Y-134790771D02*
X132126114Y-134505057D01*
X131983257Y-134790771D02*
X131983257Y-134190771D01*
X131983257Y-134190771D02*
X132211828Y-134190771D01*
X132211828Y-134190771D02*
X132268971Y-134219342D01*
X132268971Y-134219342D02*
X132297542Y-134247914D01*
X132297542Y-134247914D02*
X132326114Y-134305057D01*
X132326114Y-134305057D02*
X132326114Y-134390771D01*
X132326114Y-134390771D02*
X132297542Y-134447914D01*
X132297542Y-134447914D02*
X132268971Y-134476485D01*
X132268971Y-134476485D02*
X132211828Y-134505057D01*
X132211828Y-134505057D02*
X131983257Y-134505057D01*
X132583257Y-134790771D02*
X132583257Y-134190771D01*
X132583257Y-134190771D02*
X132926114Y-134790771D01*
X132926114Y-134790771D02*
X132926114Y-134190771D01*
X133526113Y-134790771D02*
X133183256Y-134790771D01*
X133354685Y-134790771D02*
X133354685Y-134190771D01*
X133354685Y-134190771D02*
X133297542Y-134276485D01*
X133297542Y-134276485D02*
X133240399Y-134333628D01*
X133240399Y-134333628D02*
X133183256Y-134362200D01*
X131246571Y-131590371D02*
X130903714Y-131590371D01*
X131075143Y-131590371D02*
X131075143Y-130990371D01*
X131075143Y-130990371D02*
X131018000Y-131076085D01*
X131018000Y-131076085D02*
X130960857Y-131133228D01*
X130960857Y-131133228D02*
X130903714Y-131161800D01*
X131503715Y-131590371D02*
X131503715Y-130990371D01*
X131560858Y-131361800D02*
X131732286Y-131590371D01*
X131732286Y-131190371D02*
X131503715Y-131418942D01*
X114851310Y-124624577D02*
X114965596Y-124624577D01*
X114965596Y-124624577D02*
X115022739Y-124653148D01*
X115022739Y-124653148D02*
X115079882Y-124710291D01*
X115079882Y-124710291D02*
X115108453Y-124824577D01*
X115108453Y-124824577D02*
X115108453Y-125024577D01*
X115108453Y-125024577D02*
X115079882Y-125138863D01*
X115079882Y-125138863D02*
X115022739Y-125196006D01*
X115022739Y-125196006D02*
X114965596Y-125224577D01*
X114965596Y-125224577D02*
X114851310Y-125224577D01*
X114851310Y-125224577D02*
X114794168Y-125196006D01*
X114794168Y-125196006D02*
X114737025Y-125138863D01*
X114737025Y-125138863D02*
X114708453Y-125024577D01*
X114708453Y-125024577D02*
X114708453Y-124824577D01*
X114708453Y-124824577D02*
X114737025Y-124710291D01*
X114737025Y-124710291D02*
X114794168Y-124653148D01*
X114794168Y-124653148D02*
X114851310Y-124624577D01*
X115365596Y-124824577D02*
X115365596Y-125224577D01*
X115365596Y-124881720D02*
X115394167Y-124853148D01*
X115394167Y-124853148D02*
X115451310Y-124824577D01*
X115451310Y-124824577D02*
X115537024Y-124824577D01*
X115537024Y-124824577D02*
X115594167Y-124853148D01*
X115594167Y-124853148D02*
X115622739Y-124910291D01*
X115622739Y-124910291D02*
X115622739Y-125224577D01*
%TO.C,U3*%
X133154000Y-77842000D02*
X109154000Y-77842000D01*
X109154000Y-60842000D01*
X133154000Y-60842000D01*
X133154000Y-77842000D01*
D12*
%TO.C,Brd1*%
X139065000Y-88214200D02*
X139065000Y-122885200D01*
X137287000Y-113804700D02*
X105283000Y-113804700D01*
X137287000Y-111201200D02*
X137287000Y-113804700D01*
X137287000Y-92405200D02*
X137287000Y-111201200D01*
X126619000Y-91897200D02*
X126619000Y-88849200D01*
X126619000Y-88849200D02*
X115951000Y-88849200D01*
X115951000Y-91897200D02*
X126619000Y-91897200D01*
X115951000Y-89357200D02*
X115951000Y-91897200D01*
X115951000Y-88849200D02*
X115951000Y-89357200D01*
X105283000Y-111201200D02*
X105283000Y-113804700D01*
X105283000Y-111201200D02*
X105283000Y-92405200D01*
X105283000Y-92405200D02*
X137287000Y-92405200D01*
X103949500Y-88214200D02*
X139065000Y-88214200D01*
X103378000Y-122885200D02*
X139065000Y-122885200D01*
X103378000Y-88214200D02*
X103949500Y-88214200D01*
X103378000Y-88214200D02*
X103378000Y-122885200D01*
D13*
%TO.C,DC1*%
X109635001Y-130083999D02*
X109791001Y-130083999D01*
X111951000Y-130083998D02*
X112107000Y-130083998D01*
X109635484Y-130083999D02*
G75*
G02*
X109790939Y-126852602I1235516J1560000D01*
G01*
X109791000Y-129564960D02*
G75*
G02*
X109790951Y-127483089I1080000J1040961D01*
G01*
X111951049Y-127483089D02*
G75*
G02*
X111951000Y-129564960I-1080049J-1040910D01*
G01*
X111951061Y-126852602D02*
G75*
G02*
X112106516Y-130083999I-1080061J-1671397D01*
G01*
%TO.C,SW3*%
X164426000Y-126528000D02*
X164426000Y-131028001D01*
X166926000Y-132278000D02*
X168426000Y-132278000D01*
X168426000Y-125278001D02*
X166926000Y-125278000D01*
X170926000Y-131028000D02*
X170926000Y-126528000D01*
D12*
%TO.C,Brd2*%
X139522200Y-88214200D02*
X139522200Y-122885200D01*
X139522200Y-88214200D02*
X140093700Y-88214200D01*
X139522200Y-122885200D02*
X175209200Y-122885200D01*
X140093700Y-88214200D02*
X175209200Y-88214200D01*
X141427200Y-92405200D02*
X173431200Y-92405200D01*
X141427200Y-111201200D02*
X141427200Y-92405200D01*
X141427200Y-111201200D02*
X141427200Y-113804700D01*
X152095200Y-88849200D02*
X152095200Y-89357200D01*
X152095200Y-89357200D02*
X152095200Y-91897200D01*
X152095200Y-91897200D02*
X162763200Y-91897200D01*
X162763200Y-88849200D02*
X152095200Y-88849200D01*
X162763200Y-91897200D02*
X162763200Y-88849200D01*
X173431200Y-92405200D02*
X173431200Y-111201200D01*
X173431200Y-111201200D02*
X173431200Y-113804700D01*
X173431200Y-113804700D02*
X141427200Y-113804700D01*
X175209200Y-88214200D02*
X175209200Y-122885200D01*
D13*
%TO.C,LED1*%
X118552001Y-130083998D02*
X118708001Y-130083998D01*
X120868000Y-130083997D02*
X121024000Y-130083997D01*
X118552484Y-130083998D02*
G75*
G02*
X118707939Y-126852601I1235516J1560000D01*
G01*
X118708000Y-129564959D02*
G75*
G02*
X118707951Y-127483088I1080000J1040961D01*
G01*
X120868049Y-127483088D02*
G75*
G02*
X120868000Y-129564959I-1080049J-1040910D01*
G01*
X120868061Y-126852601D02*
G75*
G02*
X121023516Y-130083998I-1080061J-1671397D01*
G01*
%TO.C,LED3*%
X122970001Y-130084000D02*
X123126001Y-130084000D01*
X125286000Y-130083999D02*
X125442000Y-130083999D01*
X122970484Y-130084000D02*
G75*
G02*
X123125939Y-126852603I1235516J1560000D01*
G01*
X123126000Y-129564961D02*
G75*
G02*
X123125951Y-127483090I1080000J1040961D01*
G01*
X125286049Y-127483090D02*
G75*
G02*
X125286000Y-129564961I-1080049J-1040910D01*
G01*
X125286061Y-126852603D02*
G75*
G02*
X125441516Y-130084000I-1080061J-1671397D01*
G01*
%TO.C,Air_temp1*%
X136283000Y-132129000D02*
X140133000Y-132129000D01*
X136283000Y-132129000D02*
G75*
G02*
X140171611Y-132119122I1940000J1700000D01*
G01*
%TO.C,SW1*%
X178446000Y-120886001D02*
X182546000Y-120886001D01*
X178446000Y-123286001D02*
X178446000Y-120886001D01*
X178446000Y-128086001D02*
X178446001Y-125486000D01*
X178446001Y-132686000D02*
X178446001Y-130286000D01*
X182546000Y-132686000D02*
X178446001Y-132686000D01*
X184545999Y-127286000D02*
X184545999Y-126286000D01*
X185046000Y-126785999D02*
X184046000Y-126785999D01*
X186546000Y-120886000D02*
X190645999Y-120886000D01*
X186546000Y-132686000D02*
X190646000Y-132685999D01*
X190646000Y-132685999D02*
X190645999Y-120886000D01*
X191745999Y-130886000D02*
X192046000Y-130586000D01*
X192046000Y-130586000D02*
X192346001Y-130886000D01*
X192346001Y-130886000D02*
X191745999Y-130886000D01*
X187546000Y-126785999D02*
G75*
G02*
X181546000Y-126785999I-3000000J0D01*
G01*
X181546000Y-126785999D02*
G75*
G02*
X187546000Y-126785999I3000000J0D01*
G01*
%TO.C,RN1*%
X110066000Y-132077000D02*
X110066000Y-134877000D01*
X110066000Y-134877000D02*
X133266000Y-134877001D01*
X130556000Y-134877001D02*
X130556000Y-132076999D01*
X133266000Y-134877001D02*
X133266001Y-132077000D01*
X133266001Y-132077000D02*
X110066000Y-132077000D01*
%TO.C,OnOff1*%
X114107002Y-130084000D02*
X114263002Y-130084000D01*
X116423001Y-130083999D02*
X116579001Y-130083999D01*
X114107485Y-130084000D02*
G75*
G02*
X114262940Y-126852603I1235516J1560000D01*
G01*
X114263001Y-129564961D02*
G75*
G02*
X114262952Y-127483090I1080000J1040961D01*
G01*
X116423050Y-127483090D02*
G75*
G02*
X116423001Y-129564961I-1080049J-1040910D01*
G01*
X116423062Y-126852603D02*
G75*
G02*
X116578517Y-130084000I-1080061J-1671397D01*
G01*
%TD*%
M02*
