M48
; DRILL file {KiCad 9.0.0} date 2026-03-05T15:16:23+0100
; FORMAT={-:-/ absolute / metric / decimal}
; #@! TF.CreationDate,2026-03-05T15:16:23+01:00
; #@! TF.GenerationSoftware,Kicad,Pcbnew,9.0.0
; #@! TF.FileFunction,Plated,1,2,PTH
FMAT,2
METRIC
; #@! TA.AperFunction,Plated,PTH,ViaDrill
T1C0.300
; #@! TA.AperFunction,Plated,PTH,ViaDrill
T2C0.350
; #@! TA.AperFunction,Plated,PTH,ViaDrill
T3C0.400
; #@! TA.AperFunction,Plated,PTH,ComponentDrill
T4C0.600
; #@! TA.AperFunction,Plated,PTH,ComponentDrill
T5C0.700
; #@! TA.AperFunction,Plated,PTH,ComponentDrill
T6C0.710
; #@! TA.AperFunction,Plated,PTH,ComponentDrill
T7C0.750
; #@! TA.AperFunction,Plated,PTH,ComponentDrill
T8C0.762
; #@! TA.AperFunction,Plated,PTH,ComponentDrill
T9C0.800
; #@! TA.AperFunction,Plated,PTH,ComponentDrill
T10C0.900
; #@! TA.AperFunction,Plated,PTH,ComponentDrill
T11C1.000
; #@! TA.AperFunction,Plated,PTH,ComponentDrill
T12C1.100
; #@! TA.AperFunction,Plated,PTH,ComponentDrill
T13C1.300
; #@! TA.AperFunction,Plated,PTH,ComponentDrill
T14C1.500
; #@! TA.AperFunction,Plated,PTH,ComponentDrill
T15C2.000
; #@! TA.AperFunction,Plated,PTH,ComponentDrill
T16C3.000
; #@! TA.AperFunction,Plated,PTH,ComponentDrill
T17C3.200
%
G90
G05
T1
X125.552Y-83.287
X149.555Y-90.17
X168.402Y-103.886
T2
X133.477Y-83.439
T3
X113.182Y-99.873
X113.259Y-90.094
T4
X119.888Y-78.475
X119.888Y-80.475
X150.654Y-130.048
X152.654Y-130.048
X157.88Y-125.231
X157.912Y-129.803
X159.88Y-125.231
X159.912Y-129.803
X185.46Y-59.67
X190.46Y-57.17
T5
X105.156Y-77.348
X105.156Y-79.248
X121.45Y-64.279
X121.881Y-71.138
X123.99Y-64.279
X124.421Y-71.138
X127.254Y-75.692
X127.254Y-78.232
X127.367Y-64.258
X128.016Y-71.12
X129.54Y-75.692
X129.54Y-78.232
X129.907Y-64.258
X130.556Y-71.12
X136.398Y-133.858
X138.938Y-133.858
T6
X152.959Y-109.835
X154.559Y-114.935
T7
X122.058Y-68.069
X123.328Y-68.069
X124.599Y-68.069
X128.32Y-68.051
X129.59Y-68.051
X130.86Y-68.051
X137.033Y-130.429
X138.303Y-130.429
X139.573Y-130.429
T8
X117.475Y-90.373
X120.015Y-90.373
X122.555Y-90.373
X125.095Y-90.373
X153.619Y-90.373
X156.159Y-90.373
X158.699Y-90.373
X161.239Y-90.373
T9
X104.394Y-110.744
X104.394Y-85.344
X106.934Y-85.471
X106.934Y-110.617
X109.474Y-85.344
X109.474Y-110.744
X111.506Y-133.477
X112.014Y-85.213
X112.014Y-110.871
X114.046Y-133.477
X114.554Y-85.34
X114.554Y-110.744
X115.57Y-78.252
X115.57Y-80.752
X116.586Y-133.477
X117.094Y-85.467
X117.094Y-110.617
X119.126Y-133.477
X119.634Y-85.34
X119.634Y-110.744
X121.666Y-133.477
X122.174Y-85.213
X122.174Y-110.871
X124.206Y-133.477
X124.714Y-85.34
X124.714Y-110.744
X126.746Y-133.477
X127.254Y-85.467
X127.254Y-110.617
X129.286Y-133.477
X129.794Y-85.34
X129.794Y-110.744
X129.794Y-116.606
X129.794Y-119.106
X131.826Y-133.477
X132.08Y-116.586
X132.08Y-119.086
X132.334Y-85.213
X132.334Y-110.871
X134.874Y-85.34
X134.874Y-110.744
X137.414Y-85.467
X137.414Y-110.617
X139.954Y-85.34
X139.954Y-110.744
X142.494Y-85.213
X142.494Y-110.871
X145.034Y-85.34
X145.034Y-110.744
X147.32Y-124.206
X147.32Y-131.826
X147.574Y-110.617
X147.574Y-85.467
X150.114Y-85.34
X150.114Y-110.744
X150.272Y-124.147
X150.272Y-126.289
X152.772Y-124.147
X152.772Y-126.289
X157.734Y-121.294
X160.234Y-121.294
X174.894Y-125.016
X174.894Y-127.516
X187.23Y-71.748
X189.23Y-79.248
T10
X110.871Y-127.254
X110.871Y-129.794
X115.343Y-127.254
X115.343Y-129.794
X119.788Y-127.254
X119.788Y-129.794
X124.206Y-127.254
X124.206Y-129.794
T11
X111.912Y-60.681
X111.912Y-63.221
X111.912Y-65.761
X111.912Y-68.301
X111.912Y-70.841
X111.912Y-73.381
X111.912Y-75.921
X111.912Y-78.461
X145.014Y-59.546
X145.034Y-68.072
X145.054Y-76.564
X147.514Y-59.546
X147.534Y-68.072
X147.554Y-76.564
X160.207Y-113.611
X166.207Y-80.011
X172.207Y-80.011
X177.546Y-124.286
X177.546Y-129.286
X178.207Y-113.611
X192.046Y-124.286
X192.046Y-126.786
X192.046Y-129.286
T12
X165.426Y-125.528
X165.426Y-132.028
X169.926Y-125.528
X169.926Y-132.028
X197.358Y-65.405
X197.358Y-80.405
T13
X153.308Y-72.39
X157.058Y-72.39
X158.14Y-62.078
X163.22Y-62.078
X170.332Y-62.078
X173.308Y-72.39
X175.412Y-62.078
X178.308Y-72.39
T14
X195.783Y-92.71
X195.783Y-114.71
T15
X107.404Y-69.342
X134.904Y-69.342
T16
X105.945Y-91.563
X105.945Y-120.163
X134.518Y-59.36
X134.518Y-79.731
X136.445Y-91.563
X136.445Y-120.163
X142.089Y-91.563
X142.089Y-120.163
X172.589Y-91.563
X172.589Y-120.163
T17
X105.41Y-59.055
X105.461Y-132.436
X197.612Y-59.055
X197.663Y-132.588
T14
X185.196Y-121.186G85X183.896Y-121.186
G05
X185.196Y-132.386G85X183.896Y-132.386
G05
M30
