%TF.GenerationSoftware,KiCad,Pcbnew,9.0.0*%
%TF.CreationDate,2026-03-05T15:16:23+01:00*%
%TF.ProjectId,MashMachine V2.1 PT100,4d617368-4d61-4636-9869-6e652056322e,rev?*%
%TF.SameCoordinates,Original*%
%TF.FileFunction,Drillmap*%
%TF.FilePolarity,Positive*%
%FSLAX45Y45*%
G04 Gerber Fmt 4.5, Leading zero omitted, Abs format (unit mm)*
G04 Created by KiCad (PCBNEW 9.0.0) date 2026-03-05 15:16:23*
%MOMM*%
%LPD*%
G01*
G04 APERTURE LIST*
%ADD10C,0.050000*%
%ADD11C,0.200000*%
G04 APERTURE END LIST*
D10*
X16192500Y-7556500D02*
X16002000Y-7556500D01*
X16002000Y-6921500D01*
X16192500Y-6921500D01*
X16192500Y-7556500D01*
X20144976Y-5672055D02*
X20139806Y-13431758D01*
X19927174Y-13665236D01*
X10337800Y-13639800D01*
X10055860Y-13386054D01*
X10055860Y-5829346D01*
X10406347Y-5466114D01*
X19933893Y-5460973D01*
X20144976Y-5672055D01*
X16954500Y-8636000D02*
X17462500Y-8636000D01*
X17462500Y-8826500D01*
X16827500Y-8826500D01*
X16002000Y-8064500D01*
X16002000Y-7937500D01*
X16192500Y-7937500D01*
X16954500Y-8636000D01*
X15494000Y-6858000D02*
X15240000Y-6858000D01*
X15240000Y-5778500D01*
X15494000Y-5778500D01*
X15494000Y-6858000D01*
X19685000Y-12001500D02*
X18732500Y-12001500D01*
X18732500Y-11811000D01*
X19685000Y-11811000D01*
X19685000Y-12001500D01*
X18288000Y-9398000D02*
X18859500Y-9969500D01*
X18859500Y-11303000D01*
X18669000Y-11303000D01*
X18669000Y-10096500D01*
X18097500Y-9525000D01*
X18097500Y-8763000D01*
X18288000Y-8763000D01*
X18288000Y-9398000D01*
D11*
X10314137Y-13979220D02*
X10314137Y-13779220D01*
X10314137Y-13779220D02*
X10361756Y-13779220D01*
X10361756Y-13779220D02*
X10390327Y-13788744D01*
X10390327Y-13788744D02*
X10409375Y-13807791D01*
X10409375Y-13807791D02*
X10418899Y-13826839D01*
X10418899Y-13826839D02*
X10428423Y-13864934D01*
X10428423Y-13864934D02*
X10428423Y-13893505D01*
X10428423Y-13893505D02*
X10418899Y-13931601D01*
X10418899Y-13931601D02*
X10409375Y-13950648D01*
X10409375Y-13950648D02*
X10390327Y-13969696D01*
X10390327Y-13969696D02*
X10361756Y-13979220D01*
X10361756Y-13979220D02*
X10314137Y-13979220D01*
X10514137Y-13979220D02*
X10514137Y-13845886D01*
X10514137Y-13883982D02*
X10523661Y-13864934D01*
X10523661Y-13864934D02*
X10533184Y-13855410D01*
X10533184Y-13855410D02*
X10552232Y-13845886D01*
X10552232Y-13845886D02*
X10571280Y-13845886D01*
X10637946Y-13979220D02*
X10637946Y-13845886D01*
X10637946Y-13779220D02*
X10628423Y-13788744D01*
X10628423Y-13788744D02*
X10637946Y-13798267D01*
X10637946Y-13798267D02*
X10647470Y-13788744D01*
X10647470Y-13788744D02*
X10637946Y-13779220D01*
X10637946Y-13779220D02*
X10637946Y-13798267D01*
X10761756Y-13979220D02*
X10742708Y-13969696D01*
X10742708Y-13969696D02*
X10733184Y-13950648D01*
X10733184Y-13950648D02*
X10733184Y-13779220D01*
X10866518Y-13979220D02*
X10847470Y-13969696D01*
X10847470Y-13969696D02*
X10837946Y-13950648D01*
X10837946Y-13950648D02*
X10837946Y-13779220D01*
X11095089Y-13979220D02*
X11095089Y-13779220D01*
X11095089Y-13779220D02*
X11161756Y-13922077D01*
X11161756Y-13922077D02*
X11228422Y-13779220D01*
X11228422Y-13779220D02*
X11228422Y-13979220D01*
X11409375Y-13979220D02*
X11409375Y-13874458D01*
X11409375Y-13874458D02*
X11399851Y-13855410D01*
X11399851Y-13855410D02*
X11380803Y-13845886D01*
X11380803Y-13845886D02*
X11342708Y-13845886D01*
X11342708Y-13845886D02*
X11323661Y-13855410D01*
X11409375Y-13969696D02*
X11390327Y-13979220D01*
X11390327Y-13979220D02*
X11342708Y-13979220D01*
X11342708Y-13979220D02*
X11323661Y-13969696D01*
X11323661Y-13969696D02*
X11314137Y-13950648D01*
X11314137Y-13950648D02*
X11314137Y-13931601D01*
X11314137Y-13931601D02*
X11323661Y-13912553D01*
X11323661Y-13912553D02*
X11342708Y-13903029D01*
X11342708Y-13903029D02*
X11390327Y-13903029D01*
X11390327Y-13903029D02*
X11409375Y-13893505D01*
X11504613Y-13845886D02*
X11504613Y-14045886D01*
X11504613Y-13855410D02*
X11523661Y-13845886D01*
X11523661Y-13845886D02*
X11561756Y-13845886D01*
X11561756Y-13845886D02*
X11580803Y-13855410D01*
X11580803Y-13855410D02*
X11590327Y-13864934D01*
X11590327Y-13864934D02*
X11599851Y-13883982D01*
X11599851Y-13883982D02*
X11599851Y-13941124D01*
X11599851Y-13941124D02*
X11590327Y-13960172D01*
X11590327Y-13960172D02*
X11580803Y-13969696D01*
X11580803Y-13969696D02*
X11561756Y-13979220D01*
X11561756Y-13979220D02*
X11523661Y-13979220D01*
X11523661Y-13979220D02*
X11504613Y-13969696D01*
X11685565Y-13960172D02*
X11695089Y-13969696D01*
X11695089Y-13969696D02*
X11685565Y-13979220D01*
X11685565Y-13979220D02*
X11676042Y-13969696D01*
X11676042Y-13969696D02*
X11685565Y-13960172D01*
X11685565Y-13960172D02*
X11685565Y-13979220D01*
X11685565Y-13855410D02*
X11695089Y-13864934D01*
X11695089Y-13864934D02*
X11685565Y-13874458D01*
X11685565Y-13874458D02*
X11676042Y-13864934D01*
X11676042Y-13864934D02*
X11685565Y-13855410D01*
X11685565Y-13855410D02*
X11685565Y-13874458D01*
M02*
